<?xml version="1.0" encoding="UTF-8"?>
<!--Generator: Apple Native CoreSVG 123-->
<!DOCTYPE svg
PUBLIC "-//W3C//DTD SVG 1.1//EN"
       "http://www.w3.org/Graphics/SVG/1.1/DTD/svg11.dtd">
<svg version="1.1" xmlns="http://www.w3.org/2000/svg" xmlns:xlink="http://www.w3.org/1999/xlink" width="3300" height="2200">
 <!--glyph: "uni1002AB.medium", point size: 100.000000, font version: "Version 15.0d7e11", template writer version: "5"-->
 <g id="Notes">
  <rect height="2200" id="artboard" style="fill:white;opacity:1" width="3300" x="0" y="0"/>
  <line id="" style="fill:none;stroke:black;opacity:1;stroke-width:0.5;" x1="263" x2="3036" y1="292" y2="292"/>
  <text style="stroke:none;fill:black;font-family:-apple-system,&quot;SF Pro Display&quot;,&quot;SF Pro Text&quot;,Helvetica,sans-serif;font-weight:bold;" transform="matrix(1 0 0 1 263 322)">Weight/Scale Variations</text>
  <text style="stroke:none;fill:black;font-family:-apple-system,&quot;SF Pro Display&quot;,&quot;SF Pro Text&quot;,Helvetica,sans-serif;text-anchor:middle;" transform="matrix(1 0 0 1 559.711 322)">Ultralight</text>
  <text style="stroke:none;fill:black;font-family:-apple-system,&quot;SF Pro Display&quot;,&quot;SF Pro Text&quot;,Helvetica,sans-serif;text-anchor:middle;" transform="matrix(1 0 0 1 856.422 322)">Thin</text>
  <text style="stroke:none;fill:black;font-family:-apple-system,&quot;SF Pro Display&quot;,&quot;SF Pro Text&quot;,Helvetica,sans-serif;text-anchor:middle;" transform="matrix(1 0 0 1 1153.13 322)">Light</text>
  <text style="stroke:none;fill:black;font-family:-apple-system,&quot;SF Pro Display&quot;,&quot;SF Pro Text&quot;,Helvetica,sans-serif;text-anchor:middle;" transform="matrix(1 0 0 1 1449.84 322)">Regular</text>
  <text style="stroke:none;fill:black;font-family:-apple-system,&quot;SF Pro Display&quot;,&quot;SF Pro Text&quot;,Helvetica,sans-serif;text-anchor:middle;" transform="matrix(1 0 0 1 1746.56 322)">Medium</text>
  <text style="stroke:none;fill:black;font-family:-apple-system,&quot;SF Pro Display&quot;,&quot;SF Pro Text&quot;,Helvetica,sans-serif;text-anchor:middle;" transform="matrix(1 0 0 1 2043.27 322)">Semibold</text>
  <text style="stroke:none;fill:black;font-family:-apple-system,&quot;SF Pro Display&quot;,&quot;SF Pro Text&quot;,Helvetica,sans-serif;text-anchor:middle;" transform="matrix(1 0 0 1 2339.98 322)">Bold</text>
  <text style="stroke:none;fill:black;font-family:-apple-system,&quot;SF Pro Display&quot;,&quot;SF Pro Text&quot;,Helvetica,sans-serif;text-anchor:middle;" transform="matrix(1 0 0 1 2636.69 322)">Heavy</text>
  <text style="stroke:none;fill:black;font-family:-apple-system,&quot;SF Pro Display&quot;,&quot;SF Pro Text&quot;,Helvetica,sans-serif;text-anchor:middle;" transform="matrix(1 0 0 1 2933.4 322)">Black</text>
  <line id="" style="fill:none;stroke:black;opacity:1;stroke-width:0.5;" x1="263" x2="3036" y1="1903" y2="1903"/>
  <g id="" transform="matrix(1 0 0 1 263 1933)">
   <path d="M 9.24805 0.830078 C 13.5547 0.830078 17.1387 -2.74414 17.1387 -7.05078 C 17.1387 -11.3574 13.5449 -14.9316 9.23828 -14.9316 C 4.94141 -14.9316 1.36719 -11.3574 1.36719 -7.05078 C 1.36719 -2.74414 4.95117 0.830078 9.24805 0.830078 Z M 9.24805 -0.654297 C 5.70312 -0.654297 2.87109 -3.49609 2.87109 -7.05078 C 2.87109 -10.6055 5.69336 -13.4473 9.23828 -13.4473 C 12.793 -13.4473 15.6348 -10.6055 15.6445 -7.05078 C 15.6543 -3.49609 12.8027 -0.654297 9.24805 -0.654297 Z M 9.22852 -3.42773 C 9.69727 -3.42773 9.9707 -3.74023 9.9707 -4.25781 L 9.9707 -6.31836 L 12.1973 -6.31836 C 12.6953 -6.31836 13.0371 -6.57227 13.0371 -7.04102 C 13.0371 -7.51953 12.7148 -7.7832 12.1973 -7.7832 L 9.9707 -7.7832 L 9.9707 -10.0098 C 9.9707 -10.5273 9.69727 -10.8496 9.22852 -10.8496 C 8.75977 -10.8496 8.50586 -10.5078 8.50586 -10.0098 L 8.50586 -7.7832 L 6.29883 -7.7832 C 5.78125 -7.7832 5.44922 -7.51953 5.44922 -7.04102 C 5.44922 -6.57227 5.80078 -6.31836 6.29883 -6.31836 L 8.50586 -6.31836 L 8.50586 -4.25781 C 8.50586 -3.75977 8.75977 -3.42773 9.22852 -3.42773 Z"/>
  </g>
  <g id="" transform="matrix(1 0 0 1 281.506 1933)">
   <path d="M 11.709 2.91016 C 17.1582 2.91016 21.6699 -1.60156 21.6699 -7.05078 C 21.6699 -12.4902 17.1484 -17.0117 11.6992 -17.0117 C 6.25977 -17.0117 1.74805 -12.4902 1.74805 -7.05078 C 1.74805 -1.60156 6.26953 2.91016 11.709 2.91016 Z M 11.709 1.25 C 7.09961 1.25 3.41797 -2.44141 3.41797 -7.05078 C 3.41797 -11.6504 7.08984 -15.3516 11.6992 -15.3516 C 16.3086 -15.3516 20 -11.6504 20.0098 -7.05078 C 20.0195 -2.44141 16.3184 1.25 11.709 1.25 Z M 11.6895 -2.41211 C 12.207 -2.41211 12.5195 -2.77344 12.5195 -3.33984 L 12.5195 -6.23047 L 15.5762 -6.23047 C 16.123 -6.23047 16.5039 -6.51367 16.5039 -7.03125 C 16.5039 -7.55859 16.1426 -7.86133 15.5762 -7.86133 L 12.5195 -7.86133 L 12.5195 -10.9277 C 12.5195 -11.5039 12.207 -11.8555 11.6895 -11.8555 C 11.1719 -11.8555 10.8789 -11.4844 10.8789 -10.9277 L 10.8789 -7.86133 L 7.83203 -7.86133 C 7.26562 -7.86133 6.89453 -7.55859 6.89453 -7.03125 C 6.89453 -6.51367 7.28516 -6.23047 7.83203 -6.23047 L 10.8789 -6.23047 L 10.8789 -3.33984 C 10.8789 -2.79297 11.1719 -2.41211 11.6895 -2.41211 Z"/>
  </g>
  <g id="" transform="matrix(1 0 0 1 304.924 1933)">
   <path d="M 14.9707 5.67383 C 21.9336 5.67383 27.6953 -0.078125 27.6953 -7.04102 C 27.6953 -14.0039 21.9238 -19.7559 14.9609 -19.7559 C 8.00781 -19.7559 2.25586 -14.0039 2.25586 -7.04102 C 2.25586 -0.078125 8.01758 5.67383 14.9707 5.67383 Z M 14.9707 3.85742 C 8.93555 3.85742 4.08203 -1.00586 4.08203 -7.04102 C 4.08203 -13.0762 8.92578 -17.9395 14.9609 -17.9395 C 21.0059 -17.9395 25.8594 -13.0762 25.8691 -7.04102 C 25.8789 -1.00586 21.0156 3.85742 14.9707 3.85742 Z M 14.9512 -1.06445 C 15.5176 -1.06445 15.8691 -1.45508 15.8691 -2.06055 L 15.8691 -6.13281 L 20.1074 -6.13281 C 20.6934 -6.13281 21.1133 -6.46484 21.1133 -7.02148 C 21.1133 -7.59766 20.7227 -7.93945 20.1074 -7.93945 L 15.8691 -7.93945 L 15.8691 -12.1875 C 15.8691 -12.8027 15.5176 -13.1934 14.9512 -13.1934 C 14.3848 -13.1934 14.0625 -12.7832 14.0625 -12.1875 L 14.0625 -7.93945 L 9.83398 -7.93945 C 9.21875 -7.93945 8.80859 -7.59766 8.80859 -7.02148 C 8.80859 -6.46484 9.23828 -6.13281 9.83398 -6.13281 L 14.0625 -6.13281 L 14.0625 -2.06055 C 14.0625 -1.47461 14.3848 -1.06445 14.9512 -1.06445 Z"/>
  </g>
  <text style="stroke:none;fill:black;font-family:-apple-system,&quot;SF Pro Display&quot;,&quot;SF Pro Text&quot;,Helvetica,sans-serif;font-weight:bold;" transform="matrix(1 0 0 1 263 1953)">Design Variations</text>
  <text style="stroke:none;fill:black;font-family:-apple-system,&quot;SF Pro Display&quot;,&quot;SF Pro Text&quot;,Helvetica,sans-serif;" transform="matrix(1 0 0 1 263 1971)">Symbols are supported in up to nine weights and three scales.</text>
  <text style="stroke:none;fill:black;font-family:-apple-system,&quot;SF Pro Display&quot;,&quot;SF Pro Text&quot;,Helvetica,sans-serif;" transform="matrix(1 0 0 1 263 1989)">For optimal layout with text and other symbols, vertically align</text>
  <text style="stroke:none;fill:black;font-family:-apple-system,&quot;SF Pro Display&quot;,&quot;SF Pro Text&quot;,Helvetica,sans-serif;" transform="matrix(1 0 0 1 263 2007)">symbols with the adjacent text.</text>
  <rect height="14" id="" style="fill:#00AEEF;stroke:none;opacity:0.4;" width="3" x="776" y="1919"/>
  <g id="" transform="matrix(1 0 0 1 779 1933)">
   <path d="M 10.5273 0 L 12.373 0 L 7.17773 -14.0918 L 5.43945 -14.0918 L 0.244141 0 L 2.08984 0 L 3.50586 -4.0332 L 9.11133 -4.0332 Z M 6.2793 -11.9531 L 6.33789 -11.9531 L 8.59375 -5.52734 L 4.02344 -5.52734 Z"/>
  </g>
  <rect height="14" id="" style="fill:#00AEEF;stroke:none;opacity:0.4;" width="3" x="791.617" y="1919"/>
  <text style="stroke:none;fill:black;font-family:-apple-system,&quot;SF Pro Display&quot;,&quot;SF Pro Text&quot;,Helvetica,sans-serif;font-weight:bold;" transform="matrix(1 0 0 1 776 1953)">Margins</text>
  <text style="stroke:none;fill:black;font-family:-apple-system,&quot;SF Pro Display&quot;,&quot;SF Pro Text&quot;,Helvetica,sans-serif;" transform="matrix(1 0 0 1 776 1971)">Leading and trailing margins on the left and right side of each symbol</text>
  <text style="stroke:none;fill:black;font-family:-apple-system,&quot;SF Pro Display&quot;,&quot;SF Pro Text&quot;,Helvetica,sans-serif;" transform="matrix(1 0 0 1 776 1989)">can be adjusted by modifying the width of the blue rectangles.</text>
  <text style="stroke:none;fill:black;font-family:-apple-system,&quot;SF Pro Display&quot;,&quot;SF Pro Text&quot;,Helvetica,sans-serif;" transform="matrix(1 0 0 1 776 2007)">Modifications are automatically applied proportionally to all</text>
  <text style="stroke:none;fill:black;font-family:-apple-system,&quot;SF Pro Display&quot;,&quot;SF Pro Text&quot;,Helvetica,sans-serif;" transform="matrix(1 0 0 1 776 2025)">scales and weights.</text>
  <g id="" transform="matrix(1 0 0 1 1289 1933)">
   <path d="M 2.83203 3.11523 L 4.375 4.6582 C 5.22461 5.48828 6.19141 5.41992 7.06055 4.46289 L 17.2754 -6.66016 C 17.7051 -6.36719 18.0957 -6.37695 18.5645 -6.47461 L 19.6094 -6.68945 L 20.3027 -5.99609 L 20.2539 -5.47852 C 20.1855 -4.95117 20.3516 -4.53125 20.8496 -4.0332 L 21.6602 -3.22266 C 22.168 -2.71484 22.8223 -2.68555 23.3008 -3.16406 L 26.5527 -6.41602 C 27.0312 -6.89453 27.0117 -7.54883 26.5039 -8.05664 L 25.6836 -8.87695 C 25.1855 -9.375 24.7754 -9.55078 24.2383 -9.47266 L 23.7109 -9.41406 L 23.0566 -10.0781 L 23.3398 -11.2207 C 23.4863 -11.7871 23.3398 -12.2559 22.7148 -12.8613 L 20.3027 -15.2539 C 16.7578 -18.7793 12.2266 -18.6719 9.11133 -15.5371 C 8.69141 -15.1074 8.64258 -14.5215 8.91602 -14.0918 C 9.15039 -13.7207 9.62891 -13.4961 10.2734 -13.6621 C 11.7871 -14.043 13.3008 -13.9258 14.7852 -12.9199 L 14.1602 -11.3379 C 13.9258 -10.752 13.9453 -10.2734 14.1797 -9.83398 L 3.01758 0.439453 C 2.08008 1.30859 1.97266 2.25586 2.83203 3.11523 Z M 10.6738 -15.1465 C 13.3398 -17.1387 16.6504 -16.8262 19.0527 -14.4141 L 21.6797 -11.8066 C 21.9141 -11.5723 21.9434 -11.3867 21.8848 -11.0938 L 21.5039 -9.53125 L 23.0762 -7.95898 L 24.043 -8.04688 C 24.3262 -8.07617 24.4141 -8.05664 24.6387 -7.83203 L 25.2637 -7.20703 L 22.5098 -4.46289 L 21.8848 -5.07812 C 21.6602 -5.30273 21.6406 -5.40039 21.6699 -5.68359 L 21.7578 -6.64062 L 20.1953 -8.20312 L 18.5742 -7.89062 C 18.291 -7.83203 18.1445 -7.83203 17.9102 -8.07617 L 15.7324 -10.2539 C 15.5078 -10.4883 15.4785 -10.625 15.6055 -10.9473 L 16.5527 -13.2227 C 14.9512 -14.7559 12.8418 -15.6055 10.8008 -14.9512 C 10.7129 -14.9219 10.6445 -14.9414 10.6152 -14.9805 C 10.5859 -15.0293 10.5859 -15.0781 10.6738 -15.1465 Z M 4.10156 2.41211 C 3.61328 1.91406 3.78906 1.61133 4.12109 1.30859 L 15.0781 -8.80859 L 16.3086 -7.57812 L 6.15234 3.34961 C 5.84961 3.68164 5.46875 3.7793 5.06836 3.37891 Z"/>
  </g>
  <text style="stroke:none;fill:black;font-family:-apple-system,&quot;SF Pro Display&quot;,&quot;SF Pro Text&quot;,Helvetica,sans-serif;font-weight:bold;" transform="matrix(1 0 0 1 1289 1953)">Exporting</text>
  <text style="stroke:none;fill:black;font-family:-apple-system,&quot;SF Pro Display&quot;,&quot;SF Pro Text&quot;,Helvetica,sans-serif;" transform="matrix(1 0 0 1 1289 1971)">Symbols should be outlined when exporting to ensure the</text>
  <text style="stroke:none;fill:black;font-family:-apple-system,&quot;SF Pro Display&quot;,&quot;SF Pro Text&quot;,Helvetica,sans-serif;" transform="matrix(1 0 0 1 1289 1989)">design is preserved when submitting to Xcode.</text>
  <text id="template-version" style="stroke:none;fill:black;font-family:-apple-system,&quot;SF Pro Display&quot;,&quot;SF Pro Text&quot;,Helvetica,sans-serif;text-anchor:end;" transform="matrix(1 0 0 1 3036 1933)">Template v.1.0</text>
  <text style="stroke:none;fill:black;font-family:-apple-system,&quot;SF Pro Display&quot;,&quot;SF Pro Text&quot;,Helvetica,sans-serif;text-anchor:end;" transform="matrix(1 0 0 1 3036 1951)">Generated from magnifyingglass</text>
  <text style="stroke:none;fill:black;font-family:-apple-system,&quot;SF Pro Display&quot;,&quot;SF Pro Text&quot;,Helvetica,sans-serif;text-anchor:end;" transform="matrix(1 0 0 1 3036 1969)">Typeset at 100 points</text>
  <text style="stroke:none;fill:black;font-family:-apple-system,&quot;SF Pro Display&quot;,&quot;SF Pro Text&quot;,Helvetica,sans-serif;" transform="matrix(1 0 0 1 263 726)">Small</text>
  <text style="stroke:none;fill:black;font-family:-apple-system,&quot;SF Pro Display&quot;,&quot;SF Pro Text&quot;,Helvetica,sans-serif;" transform="matrix(1 0 0 1 263 1156)">Medium</text>
  <text style="stroke:none;fill:black;font-family:-apple-system,&quot;SF Pro Display&quot;,&quot;SF Pro Text&quot;,Helvetica,sans-serif;" transform="matrix(1 0 0 1 263 1586)">Large</text>
 </g>
 <g id="Guides">
  <g id="H-reference" style="fill:#27AAE1;stroke:none;" transform="matrix(1 0 0 1 339 696)">
   <path d="M 54.9316 0 L 57.666 0 L 30.5664 -70.459 L 28.0762 -70.459 L 0.976562 0 L 3.66211 0 L 12.9395 -24.4629 L 45.7031 -24.4629 Z M 29.1992 -67.0898 L 29.4434 -67.0898 L 44.8242 -26.709 L 13.8184 -26.709 Z"/>
  </g>
  <line id="Baseline-S" style="fill:none;stroke:#27AAE1;opacity:1;stroke-width:0.577;" x1="263" x2="3036" y1="696" y2="696"/>
  <line id="Capline-S" style="fill:none;stroke:#27AAE1;opacity:1;stroke-width:0.577;" x1="263" x2="3036" y1="625.541" y2="625.541"/>
  <g id="H-reference" style="fill:#27AAE1;stroke:none;" transform="matrix(1 0 0 1 339 1126)">
   <path d="M 54.9316 0 L 57.666 0 L 30.5664 -70.459 L 28.0762 -70.459 L 0.976562 0 L 3.66211 0 L 12.9395 -24.4629 L 45.7031 -24.4629 Z M 29.1992 -67.0898 L 29.4434 -67.0898 L 44.8242 -26.709 L 13.8184 -26.709 Z"/>
  </g>
  <line id="Baseline-M" style="fill:none;stroke:#27AAE1;opacity:1;stroke-width:0.577;" x1="263" x2="3036" y1="1126" y2="1126"/>
  <line id="Capline-M" style="fill:none;stroke:#27AAE1;opacity:1;stroke-width:0.577;" x1="263" x2="3036" y1="1055.54" y2="1055.54"/>
  <g id="H-reference" style="fill:#27AAE1;stroke:none;" transform="matrix(1 0 0 1 339 1556)">
   <path d="M 54.9316 0 L 57.666 0 L 30.5664 -70.459 L 28.0762 -70.459 L 0.976562 0 L 3.66211 0 L 12.9395 -24.4629 L 45.7031 -24.4629 Z M 29.1992 -67.0898 L 29.4434 -67.0898 L 44.8242 -26.709 L 13.8184 -26.709 Z"/>
  </g>
  <line id="Baseline-L" style="fill:none;stroke:#27AAE1;opacity:1;stroke-width:0.577;" x1="263" x2="3036" y1="1556" y2="1556"/>
  <line id="Capline-L" style="fill:none;stroke:#27AAE1;opacity:1;stroke-width:0.577;" x1="263" x2="3036" y1="1485.54" y2="1485.54"/>
  <rect height="119.336" id="left-margin" style="fill:#00AEEF;stroke:none;opacity:0.4;" width="11.2305" x="1392.64" y="1030.79"/>
  <rect height="119.336" id="right-margin" style="fill:#00AEEF;stroke:none;opacity:0.4;" width="11.2305" x="1495.82" y="1030.79"/>
 </g>
 <g id="Symbols">
  <g id="Black-L" transform="matrix(1 0 0 1 2856.62 1556)">
   <path d="M 67.5293 7.27539 C 76.123 7.27539 84.2773 5.17578 91.5039 1.51367 L 112.354 22.3633 C 115.332 25.3418 119.434 26.8066 123.584 26.8066 C 132.422 26.8066 139.111 19.9707 139.111 11.1816 C 139.111 7.12891 137.744 3.17383 134.668 0.0976562 L 114.111 -20.459 C 118.262 -28.0273 120.605 -36.6699 120.605 -45.8008 C 120.605 -74.9512 96.6797 -98.877 67.5293 -98.877 C 38.4277 -98.877 14.4531 -74.9512 14.4531 -45.8008 C 14.4531 -16.6992 38.4277 7.27539 67.5293 7.27539 Z M 67.5293 -14.6484 C 50.3418 -14.6484 36.377 -28.6133 36.377 -45.8008 C 36.377 -63.0371 50.3418 -76.9531 67.5293 -76.9531 C 84.7656 -76.9531 98.6816 -63.0371 98.6816 -45.8008 C 98.6816 -28.6133 84.7656 -14.6484 67.5293 -14.6484 Z"/>
  </g>
  <g id="Heavy-L" transform="matrix(1 0 0 1 2560.61 1556)">
   <path d="M 66.3086 5.51758 C 75.4395 5.51758 83.9844 3.17383 91.4551 -1.02539 L 114.648 22.2168 C 117.236 24.8047 120.752 26.0254 124.316 26.0254 C 131.934 26.0254 137.695 20.166 137.695 12.5977 C 137.695 9.13086 136.523 5.71289 133.838 3.07617 L 110.889 -19.9219 C 115.527 -27.6855 118.213 -36.7188 118.213 -46.3379 C 118.213 -74.8047 94.8242 -98.2422 66.3086 -98.2422 C 37.8418 -98.2422 14.4531 -74.8047 14.4531 -46.3379 C 14.4531 -17.8711 37.8418 5.51758 66.3086 5.51758 Z M 66.3086 -13.3301 C 48.0957 -13.3301 33.3008 -28.125 33.3008 -46.3379 C 33.3008 -64.5508 48.0957 -79.3457 66.3086 -79.3457 C 84.5215 -79.3457 99.3652 -64.5508 99.3652 -46.3379 C 99.3652 -28.125 84.5215 -13.3301 66.3086 -13.3301 Z"/>
  </g>
  <g id="Bold-L" transform="matrix(1 0 0 1 2264.73 1556)">
   <path d="M 64.9902 3.61328 C 74.6094 3.61328 83.6426 0.878906 91.3086 -3.85742 L 117.236 22.0703 C 119.336 24.1699 122.217 25.1953 125.146 25.1953 C 131.396 25.1953 136.035 20.3613 136.035 14.209 C 136.035 11.3281 135.107 8.59375 132.91 6.39648 L 107.227 -19.3359 C 112.451 -27.2949 115.527 -36.7676 115.527 -46.9238 C 115.527 -74.707 92.7246 -97.4609 64.9902 -97.4609 C 37.207 -97.4609 14.4531 -74.707 14.4531 -46.9238 C 14.4531 -19.1895 37.207 3.61328 64.9902 3.61328 Z M 64.9902 -11.8164 C 45.6543 -11.8164 29.8828 -27.5879 29.8828 -46.9238 C 29.8828 -66.2598 45.6543 -82.0312 64.9902 -82.0312 C 84.3262 -82.0312 100.098 -66.2598 100.098 -46.9238 C 100.098 -27.5879 84.3262 -11.8164 64.9902 -11.8164 Z"/>
  </g>
  <g id="Semibold-L" transform="matrix(1 0 0 1 1968.56 1556)">
   <path d="M 64.0625 2.24609 C 74.0723 2.24609 83.3984 -0.732422 91.2109 -5.9082 L 119.043 21.9727 C 120.801 23.7305 123.242 24.6094 125.684 24.6094 C 131.055 24.6094 134.961 20.5078 134.961 15.2832 C 134.961 12.8906 134.131 10.5469 132.275 8.69141 L 104.688 -18.9941 C 110.303 -27.002 113.672 -36.8164 113.672 -47.3145 C 113.672 -74.6094 91.3086 -96.9238 64.0625 -96.9238 C 36.7676 -96.9238 14.4531 -74.6094 14.4531 -47.3145 C 14.4531 -20.0684 36.7676 2.24609 64.0625 2.24609 Z M 64.0625 -10.791 C 43.9453 -10.791 27.4902 -27.2461 27.4902 -47.3145 C 27.4902 -67.4316 43.9453 -83.8867 64.0625 -83.8867 C 84.1309 -83.8867 100.586 -67.4316 100.586 -47.3145 C 100.586 -27.2461 84.1309 -10.791 64.0625 -10.791 Z"/>
  </g>
  <g id="Medium-L" transform="matrix(1 0 0 1 1672.29 1556)">
   <path d="M 63.3301 1.26953 C 73.6328 1.26953 83.2031 -1.95312 91.1133 -7.4707 L 120.41 21.875 C 121.924 23.3887 123.975 24.1699 126.123 24.1699 C 130.762 24.1699 134.082 20.6055 134.082 16.1621 C 134.082 14.0137 133.398 12.0117 131.836 10.4492 L 102.686 -18.7012 C 108.691 -26.8555 112.256 -36.8652 112.256 -47.6562 C 112.256 -74.5117 90.2344 -96.5332 63.3301 -96.5332 C 36.4746 -96.5332 14.4531 -74.5117 14.4531 -47.6562 C 14.4531 -20.752 36.4746 1.26953 63.3301 1.26953 Z M 63.3301 -10.0098 C 42.6758 -10.0098 25.6836 -27.002 25.6836 -47.6562 C 25.6836 -68.3105 42.6758 -85.3027 63.3301 -85.3027 C 84.0332 -85.3027 100.977 -68.3105 100.977 -47.6562 C 100.977 -27.002 84.0332 -10.0098 63.3301 -10.0098 Z"/>
  </g>
  <g id="Regular-L" transform="matrix(1 0 0 1 1376.11 1556)">
   <path d="M 62.4023 -0.0976562 C 73.0957 -0.0976562 82.959 -3.61328 90.918 -9.52148 L 122.168 21.7773 C 123.389 22.998 125 23.6328 126.709 23.6328 C 130.42 23.6328 133.008 20.752 133.008 17.2363 C 133.008 15.5273 132.422 13.9648 131.201 12.7441 L 100.098 -18.4082 C 106.543 -26.6113 110.4 -36.9141 110.4 -48.0469 C 110.4 -74.4629 88.8184 -95.9961 62.4023 -95.9961 C 36.0352 -95.9961 14.4531 -74.4629 14.4531 -48.0469 C 14.4531 -21.6309 36.0352 -0.0976562 62.4023 -0.0976562 Z M 62.4023 -8.98438 C 41.0156 -8.98438 23.3398 -26.6113 23.3398 -48.0469 C 23.3398 -69.4824 41.0156 -87.1094 62.4023 -87.1094 C 83.8379 -87.1094 101.514 -69.4824 101.514 -48.0469 C 101.514 -26.6113 83.8379 -8.98438 62.4023 -8.98438 Z"/>
  </g>
  <g id="Light-L" transform="matrix(1 0 0 1 1079.48 1556)">
   <path d="M 61.7676 -1.17188 C 72.6562 -1.17188 82.666 -4.83398 90.6738 -11.084 L 123.828 22.1191 C 124.756 23.0957 126.123 23.6816 127.539 23.6816 C 130.762 23.6816 132.861 21.2402 132.861 18.3105 C 132.861 16.9434 132.373 15.625 131.348 14.5996 L 98.3398 -18.5059 C 105.029 -26.6602 109.082 -37.1094 109.082 -48.4863 C 109.082 -74.5117 87.793 -95.8008 61.7676 -95.8008 C 35.7422 -95.8008 14.4531 -74.5117 14.4531 -48.4863 C 14.4531 -22.4609 35.7422 -1.17188 61.7676 -1.17188 Z M 61.7676 -7.91016 C 39.502 -7.91016 21.2402 -26.2207 21.2402 -48.4863 C 21.2402 -70.7031 39.502 -89.0137 61.7676 -89.0137 C 84.0332 -89.0137 102.344 -70.7031 102.344 -48.4863 C 102.344 -26.2207 84.0332 -7.91016 61.7676 -7.91016 Z"/>
  </g>
  <g id="Thin-L" transform="matrix(1 0 0 1 782.863 1556)">
   <path d="M 60.9375 -2.58789 C 72.0703 -2.58789 82.3242 -6.54297 90.3809 -13.1836 L 125.977 22.6074 C 126.611 23.2422 127.588 23.7305 128.662 23.7305 C 131.201 23.7305 132.666 21.8262 132.666 19.7754 C 132.666 18.75 132.275 17.8711 131.494 17.0898 L 95.9473 -18.5547 C 103.076 -26.7578 107.373 -37.4023 107.373 -49.0234 C 107.373 -74.5605 86.4746 -95.5078 60.9375 -95.5078 C 35.4004 -95.5078 14.4531 -74.5605 14.4531 -49.0234 C 14.4531 -23.4863 35.4004 -2.58789 60.9375 -2.58789 Z M 60.9375 -6.54297 C 37.5488 -6.54297 18.4082 -25.6836 18.4082 -49.0234 C 18.4082 -72.3633 37.5488 -91.5527 60.9375 -91.5527 C 84.2773 -91.5527 103.418 -72.3633 103.418 -49.0234 C 103.418 -25.6836 84.2773 -6.54297 60.9375 -6.54297 Z"/>
  </g>
  <g id="Ultralight-L" transform="matrix(1 0 0 1 486.225 1556)">
   <path d="M 60.498 -3.27148 C 71.7773 -3.27148 82.1289 -7.42188 90.1855 -14.2578 L 127.1 22.8516 C 127.588 23.291 128.369 23.7793 129.248 23.7793 C 131.396 23.7793 132.52 22.1191 132.52 20.5078 C 132.52 19.7266 132.227 18.9941 131.592 18.3594 L 94.6777 -18.6523 C 102.051 -26.8066 106.494 -37.5488 106.494 -49.3164 C 106.494 -74.6094 85.791 -95.3613 60.498 -95.3613 C 35.2051 -95.3613 14.4531 -74.6094 14.4531 -49.3164 C 14.4531 -24.0234 35.2051 -3.27148 60.498 -3.27148 Z M 60.498 -5.81055 C 36.5723 -5.81055 16.9922 -25.3906 16.9922 -49.3164 C 16.9922 -73.2422 36.5723 -92.8223 60.498 -92.8223 C 84.375 -92.8223 104.004 -73.2422 104.004 -49.3164 C 104.004 -25.3906 84.375 -5.81055 60.498 -5.81055 Z"/>
  </g>
  <g id="Black-M" transform="matrix(1 0 0 1 2872.93 1126)">
   <path d="M 53.6621 -0.537109 C 59.7656 -0.537109 65.5762 -1.85547 70.8496 -4.19922 L 84.8145 9.76562 C 87.5977 12.5488 91.4062 13.8672 95.2637 13.8672 C 103.467 13.8672 109.717 7.56836 109.717 -0.585938 C 109.717 -4.29688 108.447 -7.95898 105.566 -10.8887 L 91.8457 -24.6094 C 94.5312 -30.1758 96.0938 -36.377 96.0938 -42.9688 C 96.0938 -66.2109 76.9043 -85.3516 53.6621 -85.3516 C 30.4199 -85.3516 11.2305 -66.2109 11.2305 -42.9688 C 11.2305 -19.7266 30.4199 -0.537109 53.6621 -0.537109 Z M 53.6621 -20.5078 C 41.2109 -20.5078 31.25 -30.5176 31.25 -42.9688 C 31.25 -55.4199 41.2109 -65.3809 53.6621 -65.3809 C 66.1133 -65.3809 76.0742 -55.4199 76.0742 -42.9688 C 76.0742 -30.5176 66.1133 -20.5078 53.6621 -20.5078 Z"/>
  </g>
  <g id="Heavy-M" transform="matrix(1 0 0 1 2576.97 1126)">
   <path d="M 52.4902 -2.14844 C 59.082 -2.14844 65.332 -3.71094 70.8984 -6.54297 L 86.9629 9.52148 C 89.3066 11.9141 92.5293 13.0371 95.8496 13.0371 C 102.881 13.0371 108.203 7.61719 108.203 0.683594 C 108.203 -2.49023 107.08 -5.66406 104.639 -8.10547 L 88.8184 -23.9258 C 91.9922 -29.7363 93.75 -36.377 93.75 -43.4082 C 93.75 -66.0645 75.1465 -84.668 52.4902 -84.668 C 29.8828 -84.668 11.2305 -66.0645 11.2305 -43.4082 C 11.2305 -20.8008 29.8828 -2.14844 52.4902 -2.14844 Z M 52.4902 -19.3359 C 39.1602 -19.3359 28.418 -30.0781 28.418 -43.4082 C 28.418 -56.7383 39.1602 -67.4805 52.4902 -67.4805 C 65.8203 -67.4805 76.5625 -56.7383 76.5625 -43.4082 C 76.5625 -30.0781 65.8203 -19.3359 52.4902 -19.3359 Z"/>
  </g>
  <g id="Bold-M" transform="matrix(1 0 0 1 2281.14 1126)">
   <path d="M 51.2207 -3.95508 C 58.3496 -3.95508 65.0391 -5.85938 70.8984 -9.17969 L 89.3066 9.27734 C 91.2109 11.1816 93.8477 12.1094 96.4844 12.1094 C 102.197 12.1094 106.445 7.71484 106.445 2.09961 C 106.445 -0.488281 105.566 -3.02734 103.613 -4.98047 L 85.3516 -23.2422 C 89.0625 -29.2969 91.2109 -36.377 91.2109 -43.9453 C 91.2109 -65.8691 73.1934 -83.9355 51.2207 -83.9355 C 29.248 -83.9355 11.2305 -65.8691 11.2305 -43.9453 C 11.2305 -21.9727 29.248 -3.95508 51.2207 -3.95508 Z M 51.2207 -18.0176 C 36.9141 -18.0176 25.293 -29.6387 25.293 -43.9453 C 25.293 -58.2031 36.9141 -69.873 51.2207 -69.873 C 65.5273 -69.873 77.1484 -58.2031 77.1484 -43.9453 C 77.1484 -29.6387 65.5273 -18.0176 51.2207 -18.0176 Z"/>
  </g>
  <g id="Semibold-M" transform="matrix(1 0 0 1 1985.01 1126)">
   <path d="M 50.3418 -5.17578 C 57.8125 -5.17578 64.8438 -7.32422 70.8008 -11.0352 L 90.918 9.08203 C 92.5293 10.6934 94.7266 11.4746 96.9727 11.4746 C 101.709 11.4746 105.273 7.76367 105.273 3.07617 C 105.273 0.878906 104.541 -1.2207 102.881 -2.88086 L 82.959 -22.8516 C 87.0605 -29.0039 89.4043 -36.377 89.4043 -44.2871 C 89.4043 -65.7715 71.8262 -83.3984 50.3418 -83.3984 C 28.8574 -83.3984 11.2305 -65.7715 11.2305 -44.2871 C 11.2305 -22.8027 28.8574 -5.17578 50.3418 -5.17578 Z M 50.3418 -17.0898 C 35.3516 -17.0898 23.0957 -29.3457 23.0957 -44.2871 C 23.0957 -59.2285 35.3516 -71.4844 50.3418 -71.4844 C 65.2832 -71.4844 77.5391 -59.2285 77.5391 -44.2871 C 77.5391 -29.3457 65.2832 -17.0898 50.3418 -17.0898 Z"/>
  </g>
  <g id="Medium-M" transform="matrix(1 0 0 1 1688.77 1126)">
   <path d="M 49.6582 -6.15234 C 57.4219 -6.15234 64.6973 -8.49609 70.752 -12.5 L 92.1387 8.93555 C 93.5547 10.3027 95.3613 10.9863 97.3145 10.9863 C 101.367 10.9863 104.346 7.8125 104.346 3.80859 C 104.346 1.95312 103.711 0.146484 102.344 -1.2207 L 81.1035 -22.5586 C 85.498 -28.7598 88.0859 -36.377 88.0859 -44.5801 C 88.0859 -65.7227 70.8008 -83.0078 49.6582 -83.0078 C 28.5156 -83.0078 11.2305 -65.7227 11.2305 -44.5801 C 11.2305 -23.4375 28.5156 -6.15234 49.6582 -6.15234 Z M 49.6582 -16.4062 C 34.1797 -16.4062 21.4844 -29.1016 21.4844 -44.5801 C 21.4844 -60.0098 34.1797 -72.7539 49.6582 -72.7539 C 65.1367 -72.7539 77.832 -60.0098 77.832 -44.5801 C 77.832 -29.1016 65.1367 -16.4062 49.6582 -16.4062 Z"/>
  </g>
  <g id="Regular-M" transform="matrix(1 0 0 1 1392.64 1126)">
   <path d="M 48.7793 -7.37305 C 56.9336 -7.37305 64.4531 -10.0098 70.6055 -14.4043 L 93.75 8.74023 C 94.8242 9.81445 96.2402 10.3516 97.7539 10.3516 C 100.928 10.3516 103.174 7.91016 103.174 4.78516 C 103.174 3.32031 102.686 1.95312 101.611 0.878906 L 78.6133 -22.168 C 83.4473 -28.5156 86.3281 -36.377 86.3281 -44.9219 C 86.3281 -65.5762 69.4336 -82.4707 48.7793 -82.4707 C 28.125 -82.4707 11.2305 -65.5762 11.2305 -44.9219 C 11.2305 -24.2676 28.125 -7.37305 48.7793 -7.37305 Z M 48.7793 -15.4785 C 32.666 -15.4785 19.3359 -28.8086 19.3359 -44.9219 C 19.3359 -61.0352 32.666 -74.3652 48.7793 -74.3652 C 64.8926 -74.3652 78.2227 -61.0352 78.2227 -44.9219 C 78.2227 -28.8086 64.8926 -15.4785 48.7793 -15.4785 Z"/>
  </g>
  <g id="Light-M" transform="matrix(1 0 0 1 1096 1126)">
   <path d="M 48.1934 -8.34961 C 56.543 -8.34961 64.209 -11.1328 70.4102 -15.8203 L 95.2637 9.08203 C 96.0938 9.91211 97.2656 10.4004 98.4863 10.4004 C 101.221 10.4004 103.027 8.30078 103.027 5.76172 C 103.027 4.58984 102.637 3.41797 101.758 2.53906 L 77.002 -22.2168 C 82.1289 -28.5645 85.1562 -36.5723 85.1562 -45.3125 C 85.1562 -65.625 68.5547 -82.2754 48.1934 -82.2754 C 27.832 -82.2754 11.2305 -65.625 11.2305 -45.3125 C 11.2305 -24.9512 27.832 -8.34961 48.1934 -8.34961 Z M 48.1934 -14.5508 C 31.2988 -14.5508 17.4316 -28.418 17.4316 -45.3125 C 17.4316 -62.1582 31.2988 -76.0742 48.1934 -76.0742 C 65.0879 -76.0742 78.9551 -62.1582 78.9551 -45.3125 C 78.9551 -28.418 65.0879 -14.5508 48.1934 -14.5508 Z"/>
  </g>
  <g id="Thin-M" transform="matrix(1 0 0 1 799.367 1126)">
   <path d="M 47.4121 -9.61914 C 56.0059 -9.61914 63.916 -12.6465 70.1172 -17.6758 L 97.2168 9.47266 C 97.7539 10.0586 98.584 10.4492 99.5117 10.4492 C 101.611 10.4492 102.881 8.83789 102.881 7.08008 C 102.881 6.20117 102.588 5.41992 101.904 4.78516 L 74.9023 -22.3145 C 80.3223 -28.6133 83.6426 -36.8652 83.6426 -45.8008 C 83.6426 -65.7227 67.334 -81.9824 47.4121 -81.9824 C 27.5391 -81.9824 11.2305 -65.7227 11.2305 -45.8008 C 11.2305 -25.9277 27.5391 -9.61914 47.4121 -9.61914 Z M 47.4121 -13.2812 C 29.5898 -13.2812 14.8926 -27.9297 14.8926 -45.8008 C 14.8926 -63.6719 29.5898 -78.3203 47.4121 -78.3203 C 65.2832 -78.3203 79.9316 -63.6719 79.9316 -45.8008 C 79.9316 -27.9297 65.2832 -13.2812 47.4121 -13.2812 Z"/>
  </g>
  <g id="Ultralight-M" transform="matrix(1 0 0 1 502.704 1126)">
   <path d="M 47.0215 -10.2539 C 55.7617 -10.2539 63.7695 -13.4277 69.9707 -18.6523 L 98.1934 9.7168 C 98.6328 10.1074 99.2676 10.498 100 10.498 C 101.807 10.498 102.783 9.13086 102.783 7.71484 C 102.783 7.08008 102.539 6.44531 102.002 5.9082 L 73.7793 -22.3633 C 79.3945 -28.6621 82.8613 -37.0117 82.8613 -46.0449 C 82.8613 -65.7227 66.6992 -81.8848 47.0215 -81.8848 C 27.3438 -81.8848 11.2305 -65.7227 11.2305 -46.0449 C 11.2305 -26.3672 27.3438 -10.2539 47.0215 -10.2539 Z M 47.0215 -12.6465 C 28.6621 -12.6465 13.623 -27.6855 13.623 -46.0449 C 13.623 -64.4043 28.6621 -79.4922 47.0215 -79.4922 C 65.3809 -79.4922 80.4688 -64.4043 80.4688 -46.0449 C 80.4688 -27.6855 65.3809 -12.6465 47.0215 -12.6465 Z"/>
  </g>
  <g id="Black-S" transform="matrix(1 0 0 1 2886.09 696)">
   <path d="M 41.9434 -8.1543 C 46.7773 -8.1543 51.3672 -9.22852 55.5176 -11.084 L 66.6016 0 C 68.75 2.14844 71.6797 3.17383 74.6582 3.17383 C 81.0059 3.17383 85.8398 -1.70898 85.8398 -8.00781 C 85.8398 -10.8887 84.8633 -13.7207 82.6172 -15.9668 L 71.7285 -26.8555 C 73.877 -31.25 75.0977 -36.1328 75.0977 -41.3086 C 75.0977 -59.4727 60.1074 -74.4629 41.9434 -74.4629 C 23.7793 -74.4629 8.78906 -59.4727 8.78906 -41.3086 C 8.78906 -23.1445 23.7793 -8.1543 41.9434 -8.1543 Z M 41.9434 -23.6328 C 32.1289 -23.6328 24.2676 -31.4941 24.2676 -41.3086 C 24.2676 -51.123 32.1289 -58.9844 41.9434 -58.9844 C 51.7578 -58.9844 59.6191 -51.123 59.6191 -41.3086 C 59.6191 -31.4941 51.7578 -23.6328 41.9434 -23.6328 Z"/>
  </g>
  <g id="Heavy-S" transform="matrix(1 0 0 1 2589.96 696)">
   <path d="M 41.1133 -9.27734 C 46.2891 -9.27734 51.2207 -10.5469 55.5664 -12.7441 L 68.0664 -0.195312 C 69.9219 1.66016 72.4609 2.53906 75 2.53906 C 80.5176 2.53906 84.668 -1.70898 84.668 -7.12891 C 84.668 -9.66797 83.8379 -12.1094 81.8848 -14.0137 L 69.5801 -26.3672 C 72.0703 -30.9082 73.4863 -36.1328 73.4863 -41.6016 C 73.4863 -59.375 58.8867 -73.9746 41.1133 -73.9746 C 23.3887 -73.9746 8.78906 -59.375 8.78906 -41.6016 C 8.78906 -23.877 23.3887 -9.27734 41.1133 -9.27734 Z M 41.1133 -22.8027 C 30.7129 -22.8027 22.3145 -31.25 22.3145 -41.6016 C 22.3145 -52.002 30.7129 -60.4004 41.1133 -60.4004 C 51.5137 -60.4004 59.9121 -52.002 59.9121 -41.6016 C 59.9121 -31.25 51.5137 -22.8027 41.1133 -22.8027 Z"/>
  </g>
  <g id="Bold-S" transform="matrix(1 0 0 1 2293.91 696)">
   <path d="M 40.2344 -10.5469 C 45.752 -10.5469 51.0254 -12.0117 55.5664 -14.5996 L 69.6777 -0.488281 C 71.2402 1.07422 73.291 1.80664 75.4395 1.80664 C 79.9316 1.80664 83.3496 -1.66016 83.3496 -6.15234 C 83.3496 -8.25195 82.666 -10.3027 81.1035 -11.8652 L 67.1387 -25.8301 C 69.9707 -30.5664 71.6309 -36.084 71.6309 -41.9922 C 71.6309 -59.2285 57.4707 -73.3887 40.2344 -73.3887 C 22.9492 -73.3887 8.78906 -59.2285 8.78906 -41.9922 C 8.78906 -24.707 22.9492 -10.5469 40.2344 -10.5469 Z M 40.2344 -21.9238 C 29.1504 -21.9238 20.166 -30.9082 20.166 -41.9922 C 20.166 -53.0273 29.1504 -62.0117 40.2344 -62.0117 C 51.2695 -62.0117 60.2539 -53.0273 60.2539 -41.9922 C 60.2539 -30.9082 51.2695 -21.9238 40.2344 -21.9238 Z"/>
  </g>
  <g id="Semibold-S" transform="matrix(1 0 0 1 1997.64 696)">
   <path d="M 39.5996 -11.4258 C 45.4102 -11.4258 50.8789 -13.0371 55.5176 -15.918 L 70.8008 -0.634766 C 72.1191 0.683594 73.877 1.31836 75.6836 1.31836 C 79.5898 1.31836 82.4707 -1.66016 82.4707 -5.51758 C 82.4707 -7.27539 81.8848 -9.0332 80.5176 -10.3516 L 65.4297 -25.4883 C 68.5547 -30.3223 70.3613 -36.084 70.3613 -42.2363 C 70.3613 -59.1309 56.4941 -72.998 39.5996 -72.998 C 22.6562 -72.998 8.78906 -59.1309 8.78906 -42.2363 C 8.78906 -25.293 22.6562 -11.4258 39.5996 -11.4258 Z M 39.5996 -21.2891 C 28.0762 -21.2891 18.6523 -30.7129 18.6523 -42.2363 C 18.6523 -53.7109 28.0762 -63.1348 39.5996 -63.1348 C 51.0742 -63.1348 60.498 -53.7109 60.498 -42.2363 C 60.498 -30.7129 51.0742 -21.2891 39.5996 -21.2891 Z"/>
  </g>
  <g id="Medium-S" transform="matrix(1 0 0 1 1701.27 696)">
   <path d="M 39.1113 -12.0605 C 45.1172 -12.0605 50.7324 -13.8672 55.4688 -16.8945 L 71.6309 -0.78125 C 72.8027 0.390625 74.3164 0.927734 75.9277 0.927734 C 79.2969 0.927734 81.7871 -1.66016 81.7871 -4.98047 C 81.7871 -6.54297 81.25 -8.10547 80.127 -9.22852 L 64.1113 -25.293 C 67.4316 -30.1758 69.4336 -36.0352 69.4336 -42.3828 C 69.4336 -59.082 55.8105 -72.7051 39.1113 -72.7051 C 22.4121 -72.7051 8.78906 -59.082 8.78906 -42.3828 C 8.78906 -25.7324 22.4121 -12.0605 39.1113 -12.0605 Z M 39.1113 -20.8496 C 27.2949 -20.8496 17.5293 -30.5664 17.5293 -42.3828 C 17.5293 -54.248 27.2949 -63.9648 39.1113 -63.9648 C 50.9277 -63.9648 60.6934 -54.248 60.6934 -42.3828 C 60.6934 -30.5664 50.9277 -20.8496 39.1113 -20.8496 Z"/>
  </g>
  <g id="Regular-S" transform="matrix(1 0 0 1 1405 696)">
   <path d="M 38.4766 -12.9395 C 44.7754 -12.9395 50.5859 -14.8926 55.4199 -18.2617 L 72.7539 -0.927734 C 73.6816 0 74.9023 0.439453 76.1719 0.439453 C 78.9062 0.439453 80.9082 -1.66016 80.9082 -4.3457 C 80.9082 -5.61523 80.4688 -6.83594 79.541 -7.76367 L 62.3535 -25 C 66.0156 -29.9316 68.1641 -36.0352 68.1641 -42.627 C 68.1641 -58.9844 54.834 -72.3145 38.4766 -72.3145 C 22.1191 -72.3145 8.78906 -58.9844 8.78906 -42.627 C 8.78906 -26.2695 22.1191 -12.9395 38.4766 -12.9395 Z M 38.4766 -20.2148 C 26.2207 -20.2148 16.0645 -30.3711 16.0645 -42.627 C 16.0645 -54.9316 26.2207 -65.0391 38.4766 -65.0391 C 50.7812 -65.0391 60.8887 -54.9316 60.8887 -42.627 C 60.8887 -30.3711 50.7812 -20.2148 38.4766 -20.2148 Z"/>
  </g>
  <g id="Light-S" transform="matrix(1 0 0 1 1108.36 696)">
   <path d="M 37.9883 -13.7695 C 44.4336 -13.7695 50.3906 -15.918 55.2246 -19.4824 L 74.0234 -0.634766 C 74.8047 0.0976562 75.8301 0.488281 76.8555 0.488281 C 79.1504 0.488281 80.7617 -1.26953 80.7617 -3.4668 C 80.7617 -4.54102 80.4199 -5.51758 79.6387 -6.25 L 60.9375 -25.0488 C 64.8438 -29.9805 67.1387 -36.2305 67.1387 -42.9688 C 67.1387 -59.0332 54.0527 -72.168 37.9883 -72.168 C 21.9238 -72.168 8.78906 -59.0332 8.78906 -42.9688 C 8.78906 -26.9043 21.9238 -13.7695 37.9883 -13.7695 Z M 37.9883 -19.3848 C 25.0488 -19.3848 14.3555 -30.0293 14.3555 -42.9688 C 14.3555 -55.9082 25.0488 -66.5527 37.9883 -66.5527 C 50.9277 -66.5527 61.5723 -55.9082 61.5723 -42.9688 C 61.5723 -30.0293 50.9277 -19.3848 37.9883 -19.3848 Z"/>
  </g>
  <g id="Thin-S" transform="matrix(1 0 0 1 811.72 696)">
   <path d="M 37.3047 -14.8926 C 43.9453 -14.8926 50.1465 -17.2363 54.9805 -21.1426 L 75.7812 -0.292969 C 76.2695 0.195312 77.002 0.537109 77.7344 0.537109 C 79.4922 0.537109 80.6152 -0.78125 80.6152 -2.34375 C 80.6152 -3.07617 80.3711 -3.75977 79.7852 -4.29688 L 59.082 -25.0977 C 63.2812 -30.0293 65.8203 -36.4746 65.8203 -43.4082 C 65.8203 -59.082 52.9785 -71.9238 37.3047 -71.9238 C 21.6309 -71.9238 8.78906 -59.082 8.78906 -43.4082 C 8.78906 -27.7344 21.6309 -14.8926 37.3047 -14.8926 Z M 37.3047 -18.2617 C 23.4863 -18.2617 12.1582 -29.6387 12.1582 -43.4082 C 12.1582 -57.2266 23.4863 -68.5547 37.3047 -68.5547 C 51.0742 -68.5547 62.4512 -57.2266 62.4512 -43.4082 C 62.4512 -29.6387 51.0742 -18.2617 37.3047 -18.2617 Z"/>
  </g>
  <g id="Ultralight-S" transform="matrix(1 0 0 1 515.058 696)">
   <path d="M 36.9629 -15.4785 C 43.75 -15.4785 50 -17.9199 54.834 -21.9727 L 76.6602 -0.0976562 C 77.002 0.292969 77.5879 0.585938 78.2227 0.585938 C 79.6875 0.585938 80.5176 -0.537109 80.5176 -1.75781 C 80.5176 -2.34375 80.3223 -2.83203 79.8828 -3.32031 L 58.1055 -25.1465 C 62.4512 -30.0781 65.0879 -36.5723 65.0879 -43.6523 C 65.0879 -59.1309 52.4414 -71.8262 36.9629 -71.8262 C 21.4844 -71.8262 8.78906 -59.1309 8.78906 -43.6523 C 8.78906 -28.1738 21.4844 -15.4785 36.9629 -15.4785 Z M 36.9629 -17.7246 C 22.7051 -17.7246 10.9863 -29.3945 10.9863 -43.6523 C 10.9863 -57.9102 22.7051 -69.5801 36.9629 -69.5801 C 51.2207 -69.5801 62.8906 -57.9102 62.8906 -43.6523 C 62.8906 -29.3945 51.2207 -17.7246 36.9629 -17.7246 Z"/>
  </g>
 </g>
</svg>
