<?xml version="1.0" encoding="UTF-8"?>
<!--Generator: Apple Native CoreSVG 123-->
<!DOCTYPE svg
PUBLIC "-//W3C//DTD SVG 1.1//EN"
       "http://www.w3.org/Graphics/SVG/1.1/DTD/svg11.dtd">
<svg version="1.1" xmlns="http://www.w3.org/2000/svg" xmlns:xlink="http://www.w3.org/1999/xlink" width="3300" height="2200">
 <!--glyph: "uni1003C5.medium", point size: 100.000000, font version: "Version 15.0d7e11", template writer version: "5"-->
 <g id="Notes">
  <rect height="2200" id="artboard" style="fill:white;opacity:1" width="3300" x="0" y="0"/>
  <line id="" style="fill:none;stroke:black;opacity:1;stroke-width:0.5;" x1="263" x2="3036" y1="292" y2="292"/>
  <text style="stroke:none;fill:black;font-family:-apple-system,&quot;SF Pro Display&quot;,&quot;SF Pro Text&quot;,Helvetica,sans-serif;font-weight:bold;" transform="matrix(1 0 0 1 263 322)">Weight/Scale Variations</text>
  <text style="stroke:none;fill:black;font-family:-apple-system,&quot;SF Pro Display&quot;,&quot;SF Pro Text&quot;,Helvetica,sans-serif;text-anchor:middle;" transform="matrix(1 0 0 1 559.711 322)">Ultralight</text>
  <text style="stroke:none;fill:black;font-family:-apple-system,&quot;SF Pro Display&quot;,&quot;SF Pro Text&quot;,Helvetica,sans-serif;text-anchor:middle;" transform="matrix(1 0 0 1 856.422 322)">Thin</text>
  <text style="stroke:none;fill:black;font-family:-apple-system,&quot;SF Pro Display&quot;,&quot;SF Pro Text&quot;,Helvetica,sans-serif;text-anchor:middle;" transform="matrix(1 0 0 1 1153.13 322)">Light</text>
  <text style="stroke:none;fill:black;font-family:-apple-system,&quot;SF Pro Display&quot;,&quot;SF Pro Text&quot;,Helvetica,sans-serif;text-anchor:middle;" transform="matrix(1 0 0 1 1449.84 322)">Regular</text>
  <text style="stroke:none;fill:black;font-family:-apple-system,&quot;SF Pro Display&quot;,&quot;SF Pro Text&quot;,Helvetica,sans-serif;text-anchor:middle;" transform="matrix(1 0 0 1 1746.56 322)">Medium</text>
  <text style="stroke:none;fill:black;font-family:-apple-system,&quot;SF Pro Display&quot;,&quot;SF Pro Text&quot;,Helvetica,sans-serif;text-anchor:middle;" transform="matrix(1 0 0 1 2043.27 322)">Semibold</text>
  <text style="stroke:none;fill:black;font-family:-apple-system,&quot;SF Pro Display&quot;,&quot;SF Pro Text&quot;,Helvetica,sans-serif;text-anchor:middle;" transform="matrix(1 0 0 1 2339.98 322)">Bold</text>
  <text style="stroke:none;fill:black;font-family:-apple-system,&quot;SF Pro Display&quot;,&quot;SF Pro Text&quot;,Helvetica,sans-serif;text-anchor:middle;" transform="matrix(1 0 0 1 2636.69 322)">Heavy</text>
  <text style="stroke:none;fill:black;font-family:-apple-system,&quot;SF Pro Display&quot;,&quot;SF Pro Text&quot;,Helvetica,sans-serif;text-anchor:middle;" transform="matrix(1 0 0 1 2933.4 322)">Black</text>
  <line id="" style="fill:none;stroke:black;opacity:1;stroke-width:0.5;" x1="263" x2="3036" y1="1903" y2="1903"/>
  <g id="" transform="matrix(1 0 0 1 263 1933)">
   <path d="M 9.24805 0.830078 C 13.5547 0.830078 17.1387 -2.74414 17.1387 -7.05078 C 17.1387 -11.3574 13.5449 -14.9316 9.23828 -14.9316 C 4.94141 -14.9316 1.36719 -11.3574 1.36719 -7.05078 C 1.36719 -2.74414 4.95117 0.830078 9.24805 0.830078 Z M 9.24805 -0.654297 C 5.70312 -0.654297 2.87109 -3.49609 2.87109 -7.05078 C 2.87109 -10.6055 5.69336 -13.4473 9.23828 -13.4473 C 12.793 -13.4473 15.6348 -10.6055 15.6445 -7.05078 C 15.6543 -3.49609 12.8027 -0.654297 9.24805 -0.654297 Z M 9.22852 -3.42773 C 9.69727 -3.42773 9.9707 -3.74023 9.9707 -4.25781 L 9.9707 -6.31836 L 12.1973 -6.31836 C 12.6953 -6.31836 13.0371 -6.57227 13.0371 -7.04102 C 13.0371 -7.51953 12.7148 -7.7832 12.1973 -7.7832 L 9.9707 -7.7832 L 9.9707 -10.0098 C 9.9707 -10.5273 9.69727 -10.8496 9.22852 -10.8496 C 8.75977 -10.8496 8.50586 -10.5078 8.50586 -10.0098 L 8.50586 -7.7832 L 6.29883 -7.7832 C 5.78125 -7.7832 5.44922 -7.51953 5.44922 -7.04102 C 5.44922 -6.57227 5.80078 -6.31836 6.29883 -6.31836 L 8.50586 -6.31836 L 8.50586 -4.25781 C 8.50586 -3.75977 8.75977 -3.42773 9.22852 -3.42773 Z"/>
  </g>
  <g id="" transform="matrix(1 0 0 1 281.506 1933)">
   <path d="M 11.709 2.91016 C 17.1582 2.91016 21.6699 -1.60156 21.6699 -7.05078 C 21.6699 -12.4902 17.1484 -17.0117 11.6992 -17.0117 C 6.25977 -17.0117 1.74805 -12.4902 1.74805 -7.05078 C 1.74805 -1.60156 6.26953 2.91016 11.709 2.91016 Z M 11.709 1.25 C 7.09961 1.25 3.41797 -2.44141 3.41797 -7.05078 C 3.41797 -11.6504 7.08984 -15.3516 11.6992 -15.3516 C 16.3086 -15.3516 20 -11.6504 20.0098 -7.05078 C 20.0195 -2.44141 16.3184 1.25 11.709 1.25 Z M 11.6895 -2.41211 C 12.207 -2.41211 12.5195 -2.77344 12.5195 -3.33984 L 12.5195 -6.23047 L 15.5762 -6.23047 C 16.123 -6.23047 16.5039 -6.51367 16.5039 -7.03125 C 16.5039 -7.55859 16.1426 -7.86133 15.5762 -7.86133 L 12.5195 -7.86133 L 12.5195 -10.9277 C 12.5195 -11.5039 12.207 -11.8555 11.6895 -11.8555 C 11.1719 -11.8555 10.8789 -11.4844 10.8789 -10.9277 L 10.8789 -7.86133 L 7.83203 -7.86133 C 7.26562 -7.86133 6.89453 -7.55859 6.89453 -7.03125 C 6.89453 -6.51367 7.28516 -6.23047 7.83203 -6.23047 L 10.8789 -6.23047 L 10.8789 -3.33984 C 10.8789 -2.79297 11.1719 -2.41211 11.6895 -2.41211 Z"/>
  </g>
  <g id="" transform="matrix(1 0 0 1 304.924 1933)">
   <path d="M 14.9707 5.67383 C 21.9336 5.67383 27.6953 -0.078125 27.6953 -7.04102 C 27.6953 -14.0039 21.9238 -19.7559 14.9609 -19.7559 C 8.00781 -19.7559 2.25586 -14.0039 2.25586 -7.04102 C 2.25586 -0.078125 8.01758 5.67383 14.9707 5.67383 Z M 14.9707 3.85742 C 8.93555 3.85742 4.08203 -1.00586 4.08203 -7.04102 C 4.08203 -13.0762 8.92578 -17.9395 14.9609 -17.9395 C 21.0059 -17.9395 25.8594 -13.0762 25.8691 -7.04102 C 25.8789 -1.00586 21.0156 3.85742 14.9707 3.85742 Z M 14.9512 -1.06445 C 15.5176 -1.06445 15.8691 -1.45508 15.8691 -2.06055 L 15.8691 -6.13281 L 20.1074 -6.13281 C 20.6934 -6.13281 21.1133 -6.46484 21.1133 -7.02148 C 21.1133 -7.59766 20.7227 -7.93945 20.1074 -7.93945 L 15.8691 -7.93945 L 15.8691 -12.1875 C 15.8691 -12.8027 15.5176 -13.1934 14.9512 -13.1934 C 14.3848 -13.1934 14.0625 -12.7832 14.0625 -12.1875 L 14.0625 -7.93945 L 9.83398 -7.93945 C 9.21875 -7.93945 8.80859 -7.59766 8.80859 -7.02148 C 8.80859 -6.46484 9.23828 -6.13281 9.83398 -6.13281 L 14.0625 -6.13281 L 14.0625 -2.06055 C 14.0625 -1.47461 14.3848 -1.06445 14.9512 -1.06445 Z"/>
  </g>
  <text style="stroke:none;fill:black;font-family:-apple-system,&quot;SF Pro Display&quot;,&quot;SF Pro Text&quot;,Helvetica,sans-serif;font-weight:bold;" transform="matrix(1 0 0 1 263 1953)">Design Variations</text>
  <text style="stroke:none;fill:black;font-family:-apple-system,&quot;SF Pro Display&quot;,&quot;SF Pro Text&quot;,Helvetica,sans-serif;" transform="matrix(1 0 0 1 263 1971)">Symbols are supported in up to nine weights and three scales.</text>
  <text style="stroke:none;fill:black;font-family:-apple-system,&quot;SF Pro Display&quot;,&quot;SF Pro Text&quot;,Helvetica,sans-serif;" transform="matrix(1 0 0 1 263 1989)">For optimal layout with text and other symbols, vertically align</text>
  <text style="stroke:none;fill:black;font-family:-apple-system,&quot;SF Pro Display&quot;,&quot;SF Pro Text&quot;,Helvetica,sans-serif;" transform="matrix(1 0 0 1 263 2007)">symbols with the adjacent text.</text>
  <rect height="14" id="" style="fill:#00AEEF;stroke:none;opacity:0.4;" width="3" x="776" y="1919"/>
  <g id="" transform="matrix(1 0 0 1 779 1933)">
   <path d="M 10.5273 0 L 12.373 0 L 7.17773 -14.0918 L 5.43945 -14.0918 L 0.244141 0 L 2.08984 0 L 3.50586 -4.0332 L 9.11133 -4.0332 Z M 6.2793 -11.9531 L 6.33789 -11.9531 L 8.59375 -5.52734 L 4.02344 -5.52734 Z"/>
  </g>
  <rect height="14" id="" style="fill:#00AEEF;stroke:none;opacity:0.4;" width="3" x="791.617" y="1919"/>
  <text style="stroke:none;fill:black;font-family:-apple-system,&quot;SF Pro Display&quot;,&quot;SF Pro Text&quot;,Helvetica,sans-serif;font-weight:bold;" transform="matrix(1 0 0 1 776 1953)">Margins</text>
  <text style="stroke:none;fill:black;font-family:-apple-system,&quot;SF Pro Display&quot;,&quot;SF Pro Text&quot;,Helvetica,sans-serif;" transform="matrix(1 0 0 1 776 1971)">Leading and trailing margins on the left and right side of each symbol</text>
  <text style="stroke:none;fill:black;font-family:-apple-system,&quot;SF Pro Display&quot;,&quot;SF Pro Text&quot;,Helvetica,sans-serif;" transform="matrix(1 0 0 1 776 1989)">can be adjusted by modifying the width of the blue rectangles.</text>
  <text style="stroke:none;fill:black;font-family:-apple-system,&quot;SF Pro Display&quot;,&quot;SF Pro Text&quot;,Helvetica,sans-serif;" transform="matrix(1 0 0 1 776 2007)">Modifications are automatically applied proportionally to all</text>
  <text style="stroke:none;fill:black;font-family:-apple-system,&quot;SF Pro Display&quot;,&quot;SF Pro Text&quot;,Helvetica,sans-serif;" transform="matrix(1 0 0 1 776 2025)">scales and weights.</text>
  <g id="" transform="matrix(1 0 0 1 1289 1933)">
   <path d="M 2.83203 3.11523 L 4.375 4.6582 C 5.22461 5.48828 6.19141 5.41992 7.06055 4.46289 L 17.2754 -6.66016 C 17.7051 -6.36719 18.0957 -6.37695 18.5645 -6.47461 L 19.6094 -6.68945 L 20.3027 -5.99609 L 20.2539 -5.47852 C 20.1855 -4.95117 20.3516 -4.53125 20.8496 -4.0332 L 21.6602 -3.22266 C 22.168 -2.71484 22.8223 -2.68555 23.3008 -3.16406 L 26.5527 -6.41602 C 27.0312 -6.89453 27.0117 -7.54883 26.5039 -8.05664 L 25.6836 -8.87695 C 25.1855 -9.375 24.7754 -9.55078 24.2383 -9.47266 L 23.7109 -9.41406 L 23.0566 -10.0781 L 23.3398 -11.2207 C 23.4863 -11.7871 23.3398 -12.2559 22.7148 -12.8613 L 20.3027 -15.2539 C 16.7578 -18.7793 12.2266 -18.6719 9.11133 -15.5371 C 8.69141 -15.1074 8.64258 -14.5215 8.91602 -14.0918 C 9.15039 -13.7207 9.62891 -13.4961 10.2734 -13.6621 C 11.7871 -14.043 13.3008 -13.9258 14.7852 -12.9199 L 14.1602 -11.3379 C 13.9258 -10.752 13.9453 -10.2734 14.1797 -9.83398 L 3.01758 0.439453 C 2.08008 1.30859 1.97266 2.25586 2.83203 3.11523 Z M 10.6738 -15.1465 C 13.3398 -17.1387 16.6504 -16.8262 19.0527 -14.4141 L 21.6797 -11.8066 C 21.9141 -11.5723 21.9434 -11.3867 21.8848 -11.0938 L 21.5039 -9.53125 L 23.0762 -7.95898 L 24.043 -8.04688 C 24.3262 -8.07617 24.4141 -8.05664 24.6387 -7.83203 L 25.2637 -7.20703 L 22.5098 -4.46289 L 21.8848 -5.07812 C 21.6602 -5.30273 21.6406 -5.40039 21.6699 -5.68359 L 21.7578 -6.64062 L 20.1953 -8.20312 L 18.5742 -7.89062 C 18.291 -7.83203 18.1445 -7.83203 17.9102 -8.07617 L 15.7324 -10.2539 C 15.5078 -10.4883 15.4785 -10.625 15.6055 -10.9473 L 16.5527 -13.2227 C 14.9512 -14.7559 12.8418 -15.6055 10.8008 -14.9512 C 10.7129 -14.9219 10.6445 -14.9414 10.6152 -14.9805 C 10.5859 -15.0293 10.5859 -15.0781 10.6738 -15.1465 Z M 4.10156 2.41211 C 3.61328 1.91406 3.78906 1.61133 4.12109 1.30859 L 15.0781 -8.80859 L 16.3086 -7.57812 L 6.15234 3.34961 C 5.84961 3.68164 5.46875 3.7793 5.06836 3.37891 Z"/>
  </g>
  <text style="stroke:none;fill:black;font-family:-apple-system,&quot;SF Pro Display&quot;,&quot;SF Pro Text&quot;,Helvetica,sans-serif;font-weight:bold;" transform="matrix(1 0 0 1 1289 1953)">Exporting</text>
  <text style="stroke:none;fill:black;font-family:-apple-system,&quot;SF Pro Display&quot;,&quot;SF Pro Text&quot;,Helvetica,sans-serif;" transform="matrix(1 0 0 1 1289 1971)">Symbols should be outlined when exporting to ensure the</text>
  <text style="stroke:none;fill:black;font-family:-apple-system,&quot;SF Pro Display&quot;,&quot;SF Pro Text&quot;,Helvetica,sans-serif;" transform="matrix(1 0 0 1 1289 1989)">design is preserved when submitting to Xcode.</text>
  <text id="template-version" style="stroke:none;fill:black;font-family:-apple-system,&quot;SF Pro Display&quot;,&quot;SF Pro Text&quot;,Helvetica,sans-serif;text-anchor:end;" transform="matrix(1 0 0 1 3036 1933)">Template v.1.0</text>
  <text style="stroke:none;fill:black;font-family:-apple-system,&quot;SF Pro Display&quot;,&quot;SF Pro Text&quot;,Helvetica,sans-serif;text-anchor:end;" transform="matrix(1 0 0 1 3036 1951)">Generated from photo</text>
  <text style="stroke:none;fill:black;font-family:-apple-system,&quot;SF Pro Display&quot;,&quot;SF Pro Text&quot;,Helvetica,sans-serif;text-anchor:end;" transform="matrix(1 0 0 1 3036 1969)">Typeset at 100 points</text>
  <text style="stroke:none;fill:black;font-family:-apple-system,&quot;SF Pro Display&quot;,&quot;SF Pro Text&quot;,Helvetica,sans-serif;" transform="matrix(1 0 0 1 263 726)">Small</text>
  <text style="stroke:none;fill:black;font-family:-apple-system,&quot;SF Pro Display&quot;,&quot;SF Pro Text&quot;,Helvetica,sans-serif;" transform="matrix(1 0 0 1 263 1156)">Medium</text>
  <text style="stroke:none;fill:black;font-family:-apple-system,&quot;SF Pro Display&quot;,&quot;SF Pro Text&quot;,Helvetica,sans-serif;" transform="matrix(1 0 0 1 263 1586)">Large</text>
 </g>
 <g id="Guides">
  <g id="H-reference" style="fill:#27AAE1;stroke:none;" transform="matrix(1 0 0 1 339 696)">
   <path d="M 54.9316 0 L 57.666 0 L 30.5664 -70.459 L 28.0762 -70.459 L 0.976562 0 L 3.66211 0 L 12.9395 -24.4629 L 45.7031 -24.4629 Z M 29.1992 -67.0898 L 29.4434 -67.0898 L 44.8242 -26.709 L 13.8184 -26.709 Z"/>
  </g>
  <line id="Baseline-S" style="fill:none;stroke:#27AAE1;opacity:1;stroke-width:0.577;" x1="263" x2="3036" y1="696" y2="696"/>
  <line id="Capline-S" style="fill:none;stroke:#27AAE1;opacity:1;stroke-width:0.577;" x1="263" x2="3036" y1="625.541" y2="625.541"/>
  <g id="H-reference" style="fill:#27AAE1;stroke:none;" transform="matrix(1 0 0 1 339 1126)">
   <path d="M 54.9316 0 L 57.666 0 L 30.5664 -70.459 L 28.0762 -70.459 L 0.976562 0 L 3.66211 0 L 12.9395 -24.4629 L 45.7031 -24.4629 Z M 29.1992 -67.0898 L 29.4434 -67.0898 L 44.8242 -26.709 L 13.8184 -26.709 Z"/>
  </g>
  <line id="Baseline-M" style="fill:none;stroke:#27AAE1;opacity:1;stroke-width:0.577;" x1="263" x2="3036" y1="1126" y2="1126"/>
  <line id="Capline-M" style="fill:none;stroke:#27AAE1;opacity:1;stroke-width:0.577;" x1="263" x2="3036" y1="1055.54" y2="1055.54"/>
  <g id="H-reference" style="fill:#27AAE1;stroke:none;" transform="matrix(1 0 0 1 339 1556)">
   <path d="M 54.9316 0 L 57.666 0 L 30.5664 -70.459 L 28.0762 -70.459 L 0.976562 0 L 3.66211 0 L 12.9395 -24.4629 L 45.7031 -24.4629 Z M 29.1992 -67.0898 L 29.4434 -67.0898 L 44.8242 -26.709 L 13.8184 -26.709 Z"/>
  </g>
  <line id="Baseline-L" style="fill:none;stroke:#27AAE1;opacity:1;stroke-width:0.577;" x1="263" x2="3036" y1="1556" y2="1556"/>
  <line id="Capline-L" style="fill:none;stroke:#27AAE1;opacity:1;stroke-width:0.577;" x1="263" x2="3036" y1="1485.54" y2="1485.54"/>
  <rect height="119.336" id="left-margin" style="fill:#00AEEF;stroke:none;opacity:0.4;" width="12.4512" x="1379.82" y="1030.79"/>
  <rect height="119.336" id="right-margin" style="fill:#00AEEF;stroke:none;opacity:0.4;" width="12.4512" x="1507.41" y="1030.79"/>
 </g>
 <g id="Symbols">
  <g id="Black-L" transform="matrix(1 0 0 1 2841.51 1556)">
   <path d="M 39.9902 26.5137 L 143.799 26.5137 C 159.082 26.5137 167.725 17.8711 167.725 2.68555 L 167.725 -73.0957 C 167.725 -88.2812 159.082 -96.875 143.799 -96.875 L 39.9902 -96.875 C 24.7559 -96.875 16.0645 -88.2812 16.0645 -73.0957 L 16.0645 2.68555 C 16.0645 17.8711 24.7559 26.5137 39.9902 26.5137 Z M 36.3281 -70.2148 C 36.3281 -74.7559 38.4766 -76.6602 42.6758 -76.6602 L 141.064 -76.6602 C 145.312 -76.6602 147.461 -74.7559 147.461 -70.2148 L 147.461 -14.209 L 123.779 -36.377 C 121.045 -38.8672 117.725 -40.0879 114.502 -40.0879 C 111.133 -40.0879 108.008 -38.9648 105.176 -36.4746 L 76.9043 -11.1328 L 65.3809 -21.4355 C 62.7441 -23.7793 59.7656 -24.9512 56.8848 -24.9512 C 53.7598 -24.9512 51.4648 -23.8281 48.8281 -21.4844 L 36.3281 -10.5957 Z M 71.3379 -32.2266 C 80.0293 -32.2266 87.2559 -39.4531 87.2559 -48.2422 C 87.2559 -56.9336 80.0293 -64.209 71.3379 -64.209 C 62.5488 -64.209 55.3711 -56.9336 55.3711 -48.2422 C 55.3711 -39.4531 62.5488 -32.2266 71.3379 -32.2266 Z"/>
  </g>
  <g id="Heavy-L" transform="matrix(1 0 0 1 2545.23 1556)">
   <path d="M 38.8184 25.4883 L 144.092 25.4883 C 158.74 25.4883 166.846 17.4316 166.846 2.88086 L 166.846 -73.2422 C 166.846 -87.793 158.74 -95.8496 144.092 -95.8496 L 38.8184 -95.8496 C 24.2188 -95.8496 16.0645 -87.793 16.0645 -73.2422 L 16.0645 2.88086 C 16.0645 17.4316 24.2188 25.4883 38.8184 25.4883 Z M 33.5938 -70.9473 C 33.5938 -76.0742 36.084 -78.3691 40.918 -78.3691 L 141.943 -78.3691 C 146.777 -78.3691 149.316 -76.0742 149.316 -70.9473 L 149.316 -11.3281 L 123.047 -35.8887 C 120.264 -38.3789 116.992 -39.6484 113.672 -39.6484 C 110.254 -39.6484 107.129 -38.5254 104.297 -35.9863 L 75.9277 -10.5957 L 64.3555 -20.9961 C 61.6699 -23.3398 58.7402 -24.5605 55.8105 -24.5605 C 52.7344 -24.5605 50.3906 -23.4375 47.7539 -21.0938 L 33.5938 -8.59375 Z M 69.2871 -32.7637 C 77.832 -32.7637 84.9121 -39.8438 84.9121 -48.4863 C 84.9121 -57.0801 77.832 -64.209 69.2871 -64.209 C 60.6445 -64.209 53.5645 -57.0801 53.5645 -48.4863 C 53.5645 -39.8438 60.6445 -32.7637 69.2871 -32.7637 Z"/>
  </g>
  <g id="Bold-L" transform="matrix(1 0 0 1 2249.01 1556)">
   <path d="M 37.5 24.3652 L 144.385 24.3652 C 158.35 24.3652 165.869 16.8945 165.869 3.07617 L 165.869 -73.3887 C 165.869 -87.207 158.35 -94.7266 144.385 -94.7266 L 37.5 -94.7266 C 23.6328 -94.7266 16.0645 -87.2559 16.0645 -73.3887 L 16.0645 3.07617 C 16.0645 16.8945 23.6328 24.3652 37.5 24.3652 Z M 30.5176 -71.7285 C 30.5176 -77.5391 33.4473 -80.2734 38.9648 -80.2734 L 142.969 -80.2734 C 148.389 -80.2734 151.416 -77.5391 151.416 -71.7285 L 151.416 -8.10547 L 122.168 -35.3516 C 119.336 -37.8906 116.113 -39.209 112.744 -39.209 C 109.229 -39.209 106.152 -38.0371 103.271 -35.4492 L 74.8047 -10.0098 L 63.1836 -20.5566 C 60.5469 -22.9004 57.6172 -24.1211 54.6387 -24.1211 C 51.6113 -24.1211 49.1699 -22.9492 46.582 -20.6055 L 30.5176 -6.29883 Z M 66.9922 -33.3496 C 75.3906 -33.3496 82.3242 -40.2832 82.3242 -48.7793 C 82.3242 -57.1777 75.3906 -64.209 66.9922 -64.209 C 58.4961 -64.209 51.5625 -57.1777 51.5625 -48.7793 C 51.5625 -40.2832 58.4961 -33.3496 66.9922 -33.3496 Z"/>
  </g>
  <g id="Semibold-L" transform="matrix(1 0 0 1 1952.64 1556)">
   <path d="M 36.6211 23.584 L 144.629 23.584 C 158.057 23.584 165.186 16.5039 165.186 3.17383 L 165.186 -73.5352 C 165.186 -86.8164 158.057 -93.9453 144.629 -93.9453 L 36.6211 -93.9453 C 23.1934 -93.9453 16.0645 -86.8652 16.0645 -73.5352 L 16.0645 3.17383 C 16.0645 16.5527 23.1934 23.584 36.6211 23.584 Z M 28.418 -72.3145 C 28.418 -78.5156 31.6406 -81.5918 37.5977 -81.5918 L 143.652 -81.5918 C 149.512 -81.5918 152.832 -78.5156 152.832 -72.3145 L 152.832 -5.85938 L 121.631 -35.0098 C 118.75 -37.5 115.527 -38.8672 112.061 -38.8672 C 108.545 -38.8672 105.469 -37.6953 102.588 -35.0586 L 74.0723 -9.61914 L 62.4023 -20.2148 C 59.7168 -22.6074 56.8359 -23.8281 53.8574 -23.8281 C 50.8789 -23.8281 48.3398 -22.6562 45.752 -20.3125 L 28.418 -4.6875 Z M 65.3809 -33.7402 C 73.6816 -33.7402 80.5176 -40.5762 80.5176 -48.9746 C 80.5176 -57.2754 73.6816 -64.209 65.3809 -64.209 C 56.9824 -64.209 50.1465 -57.2754 50.1465 -48.9746 C 50.1465 -40.5762 56.9824 -33.7402 65.3809 -33.7402 Z"/>
  </g>
  <g id="Medium-L" transform="matrix(1 0 0 1 1656.2 1556)">
   <path d="M 35.9375 22.998 L 144.775 22.998 C 157.861 22.998 164.648 16.2109 164.648 3.27148 L 164.648 -73.6328 C 164.648 -86.5234 157.861 -93.3105 144.775 -93.3105 L 35.9375 -93.3105 C 22.9004 -93.3105 16.0645 -86.5723 16.0645 -73.6328 L 16.0645 3.27148 C 16.0645 16.2598 22.9004 22.998 35.9375 22.998 Z M 26.8066 -72.7051 C 26.8066 -79.2969 30.2246 -82.6172 36.5723 -82.6172 L 144.141 -82.6172 C 150.391 -82.6172 153.906 -79.2969 153.906 -72.7051 L 153.906 -4.19922 L 121.191 -34.7168 C 118.262 -37.2559 115.088 -38.623 111.572 -38.623 C 108.057 -38.623 104.98 -37.4023 102.051 -34.8145 L 73.4863 -9.27734 L 61.7676 -19.9707 C 59.1309 -22.3633 56.25 -23.584 53.2227 -23.584 C 50.293 -23.584 47.7539 -22.4121 45.1172 -20.0684 L 26.8066 -3.4668 Z M 64.1602 -34.082 C 72.4121 -34.082 79.1992 -40.8203 79.1992 -49.1211 C 79.1992 -57.373 72.4121 -64.209 64.1602 -64.209 C 55.8594 -64.209 49.1211 -57.373 49.1211 -49.1211 C 49.1211 -40.8203 55.8594 -34.082 64.1602 -34.082 Z"/>
  </g>
  <g id="Regular-L" transform="matrix(1 0 0 1 1359.81 1556)">
   <path d="M 35.0586 22.2168 L 144.971 22.2168 C 157.617 22.2168 164.014 15.8691 164.014 3.41797 L 164.014 -73.7305 C 164.014 -86.1816 157.617 -92.5293 144.971 -92.5293 L 35.0586 -92.5293 C 22.4609 -92.5293 16.0645 -86.2305 16.0645 -73.7305 L 16.0645 3.41797 C 16.0645 15.918 22.4609 22.2168 35.0586 22.2168 Z M 24.707 -73.291 C 24.707 -80.2734 28.418 -83.8867 35.2539 -83.8867 L 144.824 -83.8867 C 151.514 -83.8867 155.322 -80.2734 155.322 -73.291 L 155.322 -1.95312 L 120.605 -34.375 C 117.627 -36.8652 114.502 -38.3301 110.938 -38.3301 C 107.373 -38.3301 104.297 -37.0605 101.367 -34.4238 L 72.7539 -8.88672 L 60.9863 -19.6289 C 58.3008 -22.0215 55.5176 -23.291 52.4414 -23.291 C 49.5117 -23.291 46.9238 -22.0703 44.3359 -19.7266 L 24.707 -1.85547 Z M 62.5977 -34.4727 C 70.752 -34.4727 77.3926 -41.1621 77.3926 -49.3652 C 77.3926 -57.4707 70.752 -64.209 62.5977 -64.209 C 54.3945 -64.209 47.7539 -57.4707 47.7539 -49.3652 C 47.7539 -41.1621 54.3945 -34.4727 62.5977 -34.4727 Z"/>
  </g>
  <g id="Light-L" transform="matrix(1 0 0 1 1063.56 1556)">
   <path d="M 34.0332 21.4355 L 145.117 21.4355 C 157.031 21.4355 163.086 15.2344 163.086 3.56445 L 163.086 -73.8281 C 163.086 -85.5469 157.031 -91.6992 145.117 -91.6992 L 34.0332 -91.6992 C 22.168 -91.6992 16.0645 -85.6445 16.0645 -73.8281 L 16.0645 3.56445 C 16.0645 15.3809 22.168 21.4355 34.0332 21.4355 Z M 22.7051 -73.4863 C 22.7051 -81.1523 26.709 -85.0586 34.1797 -85.0586 L 144.971 -85.0586 C 152.295 -85.0586 156.494 -81.1523 156.494 -73.4863 L 156.494 0.244141 L 120.459 -33.0566 C 117.285 -35.5957 114.258 -37.207 110.498 -37.207 C 106.836 -37.207 103.857 -35.8398 100.781 -33.1055 L 72.0215 -7.42188 L 60.1074 -18.457 C 57.4219 -20.8984 54.6875 -22.2168 51.5137 -22.2168 C 48.4863 -22.2168 45.9961 -20.9473 43.3594 -18.5547 L 22.7051 0.585938 Z M 62.0605 -34.2285 C 70.2148 -34.2285 76.8555 -40.918 76.8555 -49.1211 C 76.8555 -57.2266 70.2148 -63.9648 62.0605 -63.9648 C 53.8574 -63.9648 47.2168 -57.2266 47.2168 -49.1211 C 47.2168 -40.918 53.8574 -34.2285 62.0605 -34.2285 Z"/>
  </g>
  <g id="Thin-L" transform="matrix(1 0 0 1 767.433 1556)">
   <path d="M 32.666 20.3613 L 145.312 20.3613 C 156.201 20.3613 161.914 14.4531 161.914 3.75977 L 161.914 -73.9746 C 161.914 -84.7168 156.201 -90.5762 145.312 -90.5762 L 32.666 -90.5762 C 21.7773 -90.5762 16.0645 -84.8633 16.0645 -73.9746 L 16.0645 3.75977 C 16.0645 14.6484 21.7773 20.3613 32.666 20.3613 Z M 19.9707 3.56445 L 19.9707 -73.7793 C 19.9707 -82.2754 24.4141 -86.6699 32.8125 -86.6699 L 145.166 -86.6699 C 153.32 -86.6699 158.008 -82.2754 158.008 -73.7793 L 158.008 3.125 L 120.264 -31.2988 C 116.846 -33.8867 114.014 -35.6934 109.961 -35.6934 C 106.152 -35.6934 103.223 -34.2285 100.049 -31.3965 L 71.0938 -5.51758 L 58.9355 -16.9434 C 56.25 -19.4336 53.6621 -20.752 50.3418 -20.752 C 47.0703 -20.752 44.7754 -19.4336 42.1387 -17.041 L 20.0195 3.85742 C 19.9707 3.56445 19.9707 3.56445 19.9707 3.56445 Z M 61.377 -33.8867 C 69.4824 -33.8867 76.1719 -40.5762 76.1719 -48.7793 C 76.1719 -56.8848 69.4824 -63.6719 61.377 -63.6719 C 53.1738 -63.6719 46.4844 -56.8848 46.4844 -48.7793 C 46.4844 -40.5762 53.1738 -33.8867 61.377 -33.8867 Z"/>
  </g>
  <g id="Ultralight-L" transform="matrix(1 0 0 1 471.015 1556)">
   <path d="M 31.9824 19.7754 L 145.41 19.7754 C 155.811 19.7754 161.328 14.0625 161.328 3.85742 L 161.328 -74.0723 C 161.328 -84.2773 155.811 -89.9902 145.41 -89.9902 L 31.9824 -89.9902 C 21.582 -89.9902 16.0645 -84.4727 16.0645 -74.0723 L 16.0645 3.85742 C 16.0645 14.2578 21.582 19.7754 31.9824 19.7754 Z M 18.6035 3.75977 L 18.6035 -73.9258 C 18.6035 -82.8125 23.1934 -87.4512 32.1289 -87.4512 L 145.264 -87.4512 C 153.857 -87.4512 158.789 -82.8125 158.789 -73.9258 L 158.789 3.75977 C 158.789 4.05273 158.789 4.29688 158.789 4.58984 L 120.166 -30.4199 C 116.65 -33.0078 113.867 -34.9121 109.717 -34.9121 C 105.811 -34.9121 102.93 -33.4473 99.6582 -30.5176 L 70.6055 -4.54102 L 58.3008 -16.1621 C 55.6641 -18.6523 53.125 -20.0195 49.707 -20.0195 C 46.3379 -20.0195 44.1406 -18.6523 41.5039 -16.2109 L 18.7012 5.51758 C 18.6523 4.93164 18.6035 4.3457 18.6035 3.75977 Z M 60.9863 -33.7402 C 69.1406 -33.7402 75.7812 -40.4297 75.7812 -48.6328 C 75.7812 -56.7383 69.1406 -63.4766 60.9863 -63.4766 C 52.7832 -63.4766 46.1426 -56.7383 46.1426 -48.6328 C 46.1426 -40.4297 52.7832 -33.7402 60.9863 -33.7402 Z"/>
  </g>
  <g id="Black-M" transform="matrix(1 0 0 1 2861.84 1126)">
   <path d="M 31.9824 13.5742 L 111.133 13.5742 C 123.389 13.5742 130.664 6.29883 130.664 -5.95703 L 130.664 -64.4043 C 130.664 -76.6602 123.389 -83.9355 111.133 -83.9355 L 31.9824 -83.9355 C 19.7266 -83.9355 12.4512 -76.6602 12.4512 -64.4043 L 12.4512 -5.95703 C 12.4512 6.29883 19.7266 13.5742 31.9824 13.5742 Z M 51.6113 -24.4629 C 49.5605 -26.2695 47.2656 -27.1973 45.0195 -27.1973 C 42.4316 -27.1973 40.8203 -26.3672 38.7695 -24.5605 L 30.7617 -17.627 L 30.7617 -61.4746 C 30.7617 -64.5508 32.0801 -65.6738 34.9121 -65.6738 L 108.203 -65.6738 C 111.035 -65.6738 112.402 -64.5508 112.402 -61.4746 L 112.402 -21.6309 L 96.875 -36.084 C 94.7266 -37.9883 92.1875 -38.916 89.6973 -38.916 C 87.0605 -38.916 84.6191 -38.0371 82.4707 -36.1328 L 60.498 -16.5039 Z M 57.7637 -32.0801 C 64.6973 -32.0801 70.459 -37.8418 70.459 -44.8242 C 70.459 -51.7578 64.6973 -57.5684 57.7637 -57.5684 C 50.7812 -57.5684 45.0195 -51.7578 45.0195 -44.8242 C 45.0195 -37.8418 50.7812 -32.0801 57.7637 -32.0801 Z"/>
  </g>
  <g id="Heavy-M" transform="matrix(1 0 0 1 2565.5 1126)">
   <path d="M 31.0059 12.6465 L 111.426 12.6465 C 123.193 12.6465 129.932 5.9082 129.932 -5.81055 L 129.932 -64.5508 C 129.932 -76.2695 123.193 -83.0566 111.426 -83.0566 L 31.0059 -83.0566 C 19.2383 -83.0566 12.4512 -76.3184 12.4512 -64.5508 L 12.4512 -5.81055 C 12.4512 5.9082 19.2383 12.6465 31.0059 12.6465 Z M 28.2715 -62.207 C 28.2715 -65.7715 29.9316 -67.2363 33.252 -67.2363 L 109.131 -67.2363 C 112.451 -67.2363 114.111 -65.7715 114.111 -62.207 L 114.111 -19.043 L 96.0938 -35.8887 C 93.9453 -37.8418 91.4062 -38.7695 88.8672 -38.7695 C 86.2305 -38.7695 83.7891 -37.8906 81.5918 -35.9375 L 59.6191 -16.3086 L 50.6836 -24.3164 C 48.6328 -26.123 46.3379 -27.0508 44.0918 -27.0508 C 41.6016 -27.0508 39.8926 -26.1719 37.8418 -24.3652 L 28.2715 -16.0645 Z M 55.6641 -32.7148 C 62.4512 -32.7148 68.0664 -38.3301 68.0664 -45.166 C 68.0664 -51.9531 62.4512 -57.6172 55.6641 -57.6172 C 48.8281 -57.6172 43.2129 -51.9531 43.2129 -45.166 C 43.2129 -38.3301 48.8281 -32.7148 55.6641 -32.7148 Z"/>
  </g>
  <g id="Bold-M" transform="matrix(1 0 0 1 2269.18 1126)">
   <path d="M 29.8828 11.6699 L 111.719 11.6699 C 122.949 11.6699 129.15 5.46875 129.15 -5.66406 L 129.15 -64.6973 C 129.15 -75.8789 122.949 -82.0312 111.719 -82.0312 L 29.8828 -82.0312 C 18.6523 -82.0312 12.4512 -75.8789 12.4512 -64.6973 L 12.4512 -5.66406 C 12.4512 5.51758 18.6523 11.6699 29.8828 11.6699 Z M 25.5371 -63.0371 C 25.5371 -67.1387 27.5391 -68.9453 31.3965 -68.9453 L 110.205 -68.9453 C 114.014 -68.9453 116.064 -67.1387 116.064 -63.0371 L 116.064 -16.2109 L 95.2148 -35.6934 C 93.0664 -37.5977 90.5273 -38.623 87.9395 -38.623 C 85.3027 -38.623 82.8613 -37.6953 80.6641 -35.7422 L 58.6426 -16.0645 L 49.707 -24.1211 C 47.6074 -25.9766 45.3613 -26.9043 43.0664 -26.9043 C 40.7227 -26.9043 38.8672 -26.0254 36.8164 -24.2188 L 25.5371 -14.2578 Z M 53.3203 -33.4473 C 59.9121 -33.4473 65.3809 -38.8672 65.3809 -45.5566 C 65.3809 -52.1973 59.9121 -57.7148 53.3203 -57.7148 C 46.6309 -57.7148 41.1621 -52.1973 41.1621 -45.5566 C 41.1621 -38.8672 46.6309 -33.4473 53.3203 -33.4473 Z"/>
  </g>
  <g id="Semibold-M" transform="matrix(1 0 0 1 1972.76 1126)">
   <path d="M 29.1016 10.9863 L 111.914 10.9863 C 122.803 10.9863 128.564 5.17578 128.564 -5.56641 L 128.564 -64.8438 C 128.564 -75.5859 122.803 -81.3477 111.914 -81.3477 L 29.1016 -81.3477 C 18.2617 -81.3477 12.4512 -75.5859 12.4512 -64.8438 L 12.4512 -5.56641 C 12.4512 5.22461 18.2617 10.9863 29.1016 10.9863 Z M 23.6328 -63.623 C 23.6328 -68.0664 25.8789 -70.166 30.127 -70.166 L 110.889 -70.166 C 115.088 -70.166 117.383 -68.0664 117.383 -63.623 L 117.383 -14.209 L 94.5801 -35.5469 C 92.4316 -37.5 89.8926 -38.4766 87.3047 -38.4766 C 84.6191 -38.4766 82.2266 -37.5977 79.9805 -35.5957 L 57.959 -15.918 L 48.9746 -24.0234 C 46.9238 -25.8301 44.6777 -26.8066 42.3828 -26.8066 C 40.0879 -26.8066 38.1348 -25.8789 36.1328 -24.0723 L 23.6328 -12.9883 Z M 51.6602 -33.9355 C 58.1543 -33.9355 63.5254 -39.2578 63.5254 -45.8496 C 63.5254 -52.3438 58.1543 -57.7637 51.6602 -57.7637 C 45.1172 -57.7637 39.7461 -52.3438 39.7461 -45.8496 C 39.7461 -39.2578 45.1172 -33.9355 51.6602 -33.9355 Z"/>
  </g>
  <g id="Medium-M" transform="matrix(1 0 0 1 1676.24 1126)">
   <path d="M 28.5156 10.4492 L 112.061 10.4492 C 122.656 10.4492 128.174 4.98047 128.174 -5.46875 L 128.174 -64.8926 C 128.174 -75.3418 122.656 -80.8105 112.061 -80.8105 L 28.5156 -80.8105 C 17.9688 -80.8105 12.4512 -75.3906 12.4512 -64.8926 L 12.4512 -5.46875 C 12.4512 4.98047 17.9688 10.4492 28.5156 10.4492 Z M 22.168 -64.0137 C 22.168 -68.75 24.6582 -71.0938 29.1504 -71.0938 L 111.426 -71.0938 C 115.918 -71.0938 118.408 -68.75 118.408 -64.0137 L 118.408 -12.6953 L 94.1406 -35.4492 C 91.9434 -37.4023 89.4531 -38.3789 86.8164 -38.3789 C 84.1309 -38.3789 81.7383 -37.5 79.4922 -35.498 L 57.4707 -15.7715 L 48.4375 -23.9258 C 46.3867 -25.7812 44.1406 -26.709 41.8457 -26.709 C 39.5996 -26.709 37.5977 -25.8301 35.5957 -23.9746 L 22.168 -12.0117 Z M 50.4395 -34.2773 C 56.8359 -34.2773 62.1094 -39.5508 62.1094 -46.0449 C 62.1094 -52.4414 56.8359 -57.7637 50.4395 -57.7637 C 43.9453 -57.7637 38.6719 -52.4414 38.6719 -46.0449 C 38.6719 -39.5508 43.9453 -34.2773 50.4395 -34.2773 Z"/>
  </g>
  <g id="Regular-M" transform="matrix(1 0 0 1 1379.82 1126)">
   <path d="M 27.7832 9.76562 L 112.256 9.76562 C 122.51 9.76562 127.588 4.6875 127.588 -5.37109 L 127.588 -64.9902 C 127.588 -75.0488 122.51 -80.127 112.256 -80.127 L 27.7832 -80.127 C 17.5781 -80.127 12.4512 -75.0977 12.4512 -64.9902 L 12.4512 -5.37109 C 12.4512 4.73633 17.5781 9.76562 27.7832 9.76562 Z M 93.5547 -35.3027 C 91.3574 -37.2559 88.8184 -38.2812 86.1816 -38.2812 C 83.4961 -38.2812 81.1035 -37.3535 78.8574 -35.3516 L 56.7871 -15.625 L 47.7539 -23.8281 C 45.7031 -25.6348 43.457 -26.6113 41.1621 -26.6113 C 38.9648 -26.6113 36.9141 -25.6836 34.8633 -23.877 L 20.3125 -10.7422 L 20.3125 -64.5996 C 20.3125 -69.6777 22.998 -72.2656 27.8809 -72.2656 L 112.158 -72.2656 C 116.992 -72.2656 119.727 -69.6777 119.727 -64.5996 L 119.727 -10.6934 Z M 48.8281 -34.7656 C 55.127 -34.7656 60.3027 -39.9414 60.3027 -46.2891 C 60.3027 -52.5879 55.127 -57.8125 48.8281 -57.8125 C 42.4805 -57.8125 37.3047 -52.5879 37.3047 -46.2891 C 37.3047 -39.9414 42.4805 -34.7656 48.8281 -34.7656 Z"/>
  </g>
  <g id="Light-M" transform="matrix(1 0 0 1 1083.5 1126)">
   <path d="M 26.8555 9.0332 L 112.402 9.0332 C 121.973 9.0332 126.807 4.15039 126.807 -5.22461 L 126.807 -65.0879 C 126.807 -74.5117 121.973 -79.3945 112.402 -79.3945 L 26.8555 -79.3945 C 17.334 -79.3945 12.4512 -74.5605 12.4512 -65.0879 L 12.4512 -5.22461 C 12.4512 4.19922 17.334 9.0332 26.8555 9.0332 Z M 18.5059 -64.7949 C 18.5059 -70.4102 21.4844 -73.3398 26.9531 -73.3398 L 112.305 -73.3398 C 117.676 -73.3398 120.752 -70.4102 120.752 -64.7949 L 120.752 -8.74023 L 93.4082 -34.1309 C 91.0645 -36.084 88.6719 -37.2559 85.8398 -37.2559 C 83.0078 -37.2559 80.7129 -36.2793 78.3691 -34.1797 L 56.1523 -14.3555 L 46.9727 -22.7539 C 44.9219 -24.6582 42.7734 -25.6348 40.332 -25.6348 C 38.0371 -25.6348 36.084 -24.6582 34.0332 -22.8516 L 18.5059 -8.54492 Z M 48.3398 -34.5703 C 54.6387 -34.5703 59.8145 -39.7461 59.8145 -46.0938 C 59.8145 -52.3926 54.6387 -57.6172 48.3398 -57.6172 C 41.9922 -57.6172 36.8164 -52.3926 36.8164 -46.0938 C 36.8164 -39.7461 41.9922 -34.5703 48.3398 -34.5703 Z"/>
  </g>
  <g id="Thin-M" transform="matrix(1 0 0 1 787.33 1126)">
   <path d="M 25.6348 8.05664 L 112.598 8.05664 C 121.24 8.05664 125.732 3.4668 125.732 -5.0293 L 125.732 -65.2344 C 125.732 -73.7305 121.24 -78.3691 112.598 -78.3691 L 25.6348 -78.3691 C 16.9922 -78.3691 12.4512 -73.877 12.4512 -65.2344 L 12.4512 -5.0293 C 12.4512 3.56445 16.9922 8.05664 25.6348 8.05664 Z M 16.0645 -65.0391 C 16.0645 -71.4355 19.3848 -74.7559 25.7324 -74.7559 L 112.451 -74.7559 C 118.604 -74.7559 122.119 -71.4355 122.119 -65.0391 L 122.119 -6.15234 L 93.2617 -32.5684 C 90.6738 -34.5703 88.4277 -35.8887 85.3516 -35.8887 C 82.4219 -35.8887 80.127 -34.8145 77.6855 -32.6172 L 55.2734 -12.6465 L 45.8984 -21.3867 C 43.8477 -23.291 41.7969 -24.3164 39.2578 -24.3164 C 36.7676 -24.3164 34.9609 -23.291 32.9102 -21.4355 L 16.0645 -5.66406 Z M 47.7051 -34.2773 C 54.0039 -34.2773 59.1797 -39.4531 59.1797 -45.8008 C 59.1797 -52.0996 54.0039 -57.3242 47.7051 -57.3242 C 41.3574 -57.3242 36.1816 -52.0996 36.1816 -45.8008 C 36.1816 -39.4531 41.3574 -34.2773 47.7051 -34.2773 Z"/>
  </g>
  <g id="Ultralight-M" transform="matrix(1 0 0 1 490.888 1126)">
   <path d="M 25 7.56836 L 112.695 7.56836 C 120.85 7.56836 125.195 3.125 125.195 -4.98047 L 125.195 -65.2832 C 125.195 -73.3887 120.85 -77.832 112.695 -77.832 L 25 -77.832 C 16.7969 -77.832 12.4512 -73.4863 12.4512 -65.2832 L 12.4512 -4.98047 C 12.4512 3.22266 16.7969 7.56836 25 7.56836 Z M 14.8438 -5.07812 L 14.8438 -65.1855 C 14.8438 -71.9727 18.3594 -75.4395 25.0977 -75.4395 L 112.549 -75.4395 C 119.043 -75.4395 122.803 -71.9727 122.803 -65.1855 L 122.803 -4.78516 L 93.1641 -31.7871 C 90.4785 -33.7402 88.2812 -35.2051 85.1074 -35.2051 C 82.0801 -35.2051 79.8828 -34.082 77.3438 -31.8359 L 54.834 -11.7676 L 45.3613 -20.7031 C 43.3105 -22.6074 41.3086 -23.6816 38.7207 -23.6816 C 36.1328 -23.6816 34.4238 -22.6074 32.3242 -20.752 L 14.8438 -4.15039 C 14.8438 -4.44336 14.8438 -4.78516 14.8438 -5.07812 Z M 47.4121 -34.1309 C 53.6621 -34.1309 58.8379 -39.3066 58.8379 -45.6543 C 58.8379 -51.9531 53.6621 -57.1777 47.4121 -57.1777 C 41.0156 -57.1777 35.8398 -51.9531 35.8398 -45.6543 C 35.8398 -39.3066 41.0156 -34.1309 47.4121 -34.1309 Z"/>
  </g>
  <g id="Black-S" transform="matrix(1 0 0 1 2877.35 696)">
   <path d="M 25 2.92969 L 87.1094 2.92969 C 96.6797 2.92969 102.344 -2.73438 102.344 -12.3047 L 102.344 -58.1055 C 102.344 -67.6758 96.6797 -73.3398 87.1094 -73.3398 L 25 -73.3398 C 15.4297 -73.3398 9.76562 -67.6758 9.76562 -58.1055 L 9.76562 -12.3047 C 9.76562 -2.73438 15.4297 2.92969 25 2.92969 Z M 40.3809 -26.8066 C 38.7695 -28.2227 36.9629 -28.9551 35.2051 -28.9551 C 33.2031 -28.9551 31.9336 -28.2715 30.3223 -26.8555 L 23.9258 -21.3379 L 23.9258 -55.8594 C 23.9258 -58.3008 25 -59.1797 27.2461 -59.1797 L 84.8633 -59.1797 C 87.1094 -59.1797 88.1836 -58.3008 88.1836 -55.8594 L 88.1836 -24.4141 L 75.8301 -35.8887 C 74.1699 -37.4023 72.168 -38.1348 70.2148 -38.1348 C 68.1641 -38.1348 66.2598 -37.4512 64.5508 -35.9375 L 47.3633 -20.5566 Z M 45.1172 -32.8125 C 50.5371 -32.8125 55.0293 -37.3047 55.0293 -42.7734 C 55.0293 -48.1934 50.5371 -52.7344 45.1172 -52.7344 C 39.6484 -52.7344 35.1562 -48.1934 35.1562 -42.7734 C 35.1562 -37.3047 39.6484 -32.8125 45.1172 -32.8125 Z"/>
  </g>
  <g id="Heavy-S" transform="matrix(1 0 0 1 2580.88 696)">
   <path d="M 24.3652 2.34375 L 87.3047 2.34375 C 96.582 2.34375 101.855 -2.97852 101.855 -12.207 L 101.855 -58.2031 C 101.855 -67.4316 96.582 -72.7539 87.3047 -72.7539 L 24.3652 -72.7539 C 15.0879 -72.7539 9.76562 -67.4316 9.76562 -58.2031 L 9.76562 -12.207 C 9.76562 -2.97852 15.0879 2.34375 24.3652 2.34375 Z M 22.2656 -56.3965 C 22.2656 -59.1309 23.5352 -60.2539 26.0742 -60.2539 L 85.5469 -60.2539 C 88.0859 -60.2539 89.4043 -59.1309 89.4043 -56.3965 L 89.4043 -22.6562 L 75.2441 -35.8887 C 73.584 -37.4023 71.582 -38.1348 69.6289 -38.1348 C 67.5781 -38.1348 65.6738 -37.4512 63.9648 -35.9375 L 46.7773 -20.5566 L 39.7949 -26.8066 C 38.1836 -28.2227 36.377 -28.9551 34.6191 -28.9551 C 32.666 -28.9551 31.2988 -28.2715 29.7363 -26.8555 L 22.2656 -20.3613 Z M 43.5547 -33.3008 C 48.877 -33.3008 53.2715 -37.6953 53.2715 -43.0664 C 53.2715 -48.3887 48.877 -52.7832 43.5547 -52.7832 C 38.1836 -52.7832 33.7891 -48.3887 33.7891 -43.0664 C 33.7891 -37.6953 38.1836 -33.3008 43.5547 -33.3008 Z"/>
  </g>
  <g id="Bold-S" transform="matrix(1 0 0 1 2284.41 696)">
   <path d="M 23.6328 1.66016 L 87.5 1.66016 C 96.4844 1.66016 101.367 -3.22266 101.367 -12.1094 L 101.367 -58.3008 C 101.367 -67.1875 96.4844 -72.0703 87.5 -72.0703 L 23.6328 -72.0703 C 14.6973 -72.0703 9.76562 -67.1875 9.76562 -58.3008 L 9.76562 -12.1094 C 9.76562 -3.22266 14.6973 1.66016 23.6328 1.66016 Z M 20.3613 -56.9824 C 20.3613 -60.0586 21.9238 -61.4746 24.8047 -61.4746 L 86.3281 -61.4746 C 89.209 -61.4746 90.7715 -60.0586 90.7715 -56.9824 L 90.7715 -20.7031 L 74.6094 -35.8887 C 72.9492 -37.4023 70.9473 -38.1348 68.9453 -38.1348 C 66.8945 -38.1348 64.9902 -37.4512 63.2812 -35.9375 L 46.0938 -20.5078 L 39.1113 -26.8066 C 37.5 -28.2227 35.6934 -28.9551 33.9355 -28.9551 C 32.1289 -28.9551 30.6152 -28.2715 29.0527 -26.8555 L 20.3613 -19.2383 Z M 41.7969 -33.8867 C 46.9727 -33.8867 51.2695 -38.1836 51.2695 -43.4082 C 51.2695 -48.584 46.9727 -52.8809 41.7969 -52.8809 C 36.5723 -52.8809 32.3242 -48.584 32.3242 -43.4082 C 32.3242 -38.1836 36.5723 -33.8867 41.7969 -33.8867 Z"/>
  </g>
  <g id="Semibold-S" transform="matrix(1 0 0 1 1987.9 696)">
   <path d="M 23.0957 1.17188 L 87.6465 1.17188 C 96.3867 1.17188 100.977 -3.36914 100.977 -12.0117 L 100.977 -58.3984 C 100.977 -67.041 96.3867 -71.582 87.6465 -71.582 L 23.0957 -71.582 C 14.4043 -71.582 9.76562 -67.041 9.76562 -58.3984 L 9.76562 -12.0117 C 9.76562 -3.36914 14.4043 1.17188 23.0957 1.17188 Z M 19.0918 -57.4219 C 19.0918 -60.6934 20.752 -62.3047 23.877 -62.3047 L 86.8652 -62.3047 C 89.9902 -62.3047 91.6992 -60.6934 91.6992 -57.4219 L 91.6992 -19.3848 L 74.1699 -35.8398 C 72.5098 -37.4023 70.5078 -38.1348 68.5059 -38.1348 C 66.4551 -38.1348 64.5508 -37.4512 62.8418 -35.8887 L 45.6543 -20.5078 L 38.623 -26.8066 C 37.0117 -28.2227 35.2051 -28.9551 33.4473 -28.9551 C 31.6895 -28.9551 30.127 -28.2715 28.5645 -26.8555 L 19.0918 -18.457 Z M 40.625 -34.2773 C 45.7031 -34.2773 49.9023 -38.4766 49.9023 -43.6035 C 49.9023 -48.6816 45.7031 -52.9297 40.625 -52.9297 C 35.4492 -52.9297 31.2988 -48.6816 31.2988 -43.6035 C 31.2988 -38.4766 35.4492 -34.2773 40.625 -34.2773 Z"/>
  </g>
  <g id="Medium-S" transform="matrix(1 0 0 1 1691.31 696)">
   <path d="M 22.7051 0.830078 L 87.7441 0.830078 C 96.3379 0.830078 100.732 -3.51562 100.732 -11.9629 L 100.732 -58.4473 C 100.732 -66.8945 96.3379 -71.2402 87.7441 -71.2402 L 22.7051 -71.2402 C 14.209 -71.2402 9.76562 -66.8945 9.76562 -58.4473 L 9.76562 -11.9629 C 9.76562 -3.51562 14.209 0.830078 22.7051 0.830078 Z M 18.0664 -57.7148 C 18.0664 -61.1816 19.9219 -62.9395 23.1934 -62.9395 L 87.3047 -62.9395 C 90.5762 -62.9395 92.3828 -61.1816 92.3828 -57.7148 L 92.3828 -18.3594 L 73.8281 -35.8398 C 72.168 -37.3535 70.166 -38.1348 68.1641 -38.1348 C 66.1133 -38.1348 64.209 -37.4512 62.5 -35.8887 L 45.2637 -20.5078 L 38.2812 -26.8066 C 36.6699 -28.2227 34.8633 -28.9551 33.1055 -28.9551 C 31.3965 -28.9551 29.7852 -28.2715 28.2227 -26.8555 L 18.0664 -17.8711 Z M 39.6973 -34.5703 C 44.7266 -34.5703 48.8281 -38.7207 48.8281 -43.7988 C 48.8281 -48.8281 44.7266 -52.9785 39.6973 -52.9785 C 34.6191 -52.9785 30.4688 -48.8281 30.4688 -43.7988 C 30.4688 -38.7207 34.6191 -34.5703 39.6973 -34.5703 Z"/>
  </g>
  <g id="Regular-S" transform="matrix(1 0 0 1 1394.79 696)">
   <path d="M 22.2168 0.390625 L 87.8906 0.390625 C 96.2402 0.390625 100.342 -3.71094 100.342 -11.9141 L 100.342 -58.4961 C 100.342 -66.6992 96.2402 -70.8008 87.8906 -70.8008 L 22.2168 -70.8008 C 13.916 -70.8008 9.76562 -66.6992 9.76562 -58.4961 L 9.76562 -11.9141 C 9.76562 -3.71094 13.916 0.390625 22.2168 0.390625 Z M 73.3887 -35.8398 C 71.7285 -37.3535 69.6777 -38.1348 67.7246 -38.1348 C 65.6738 -38.1348 63.7695 -37.4512 62.0117 -35.8887 L 44.8242 -20.5078 L 37.793 -26.8066 C 36.1816 -28.2227 34.4238 -28.9551 32.6172 -28.9551 C 31.0059 -28.9551 29.2969 -28.2715 27.7344 -26.8555 L 16.7969 -17.041 L 16.7969 -58.1543 C 16.7969 -61.8164 18.7988 -63.7207 22.3145 -63.7207 L 87.793 -63.7207 C 91.3086 -63.7207 93.3105 -61.8164 93.3105 -58.1543 L 93.3105 -16.9922 Z M 38.4766 -34.9609 C 43.4082 -34.9609 47.4609 -39.0137 47.4609 -43.9941 C 47.4609 -48.9258 43.4082 -53.0273 38.4766 -53.0273 C 33.4961 -53.0273 29.4434 -48.9258 29.4434 -43.9941 C 29.4434 -39.0137 33.4961 -34.9609 38.4766 -34.9609 Z"/>
  </g>
  <g id="Light-S" transform="matrix(1 0 0 1 1098.42 696)">
   <path d="M 21.3867 -0.292969 L 88.0371 -0.292969 C 95.752 -0.292969 99.6582 -4.15039 99.6582 -11.7676 L 99.6582 -58.5938 C 99.6582 -66.2109 95.752 -70.1172 88.0371 -70.1172 L 21.3867 -70.1172 C 13.6719 -70.1172 9.76562 -66.2598 9.76562 -58.5938 L 9.76562 -11.7676 C 9.76562 -4.15039 13.6719 -0.292969 21.3867 -0.292969 Z M 15.1855 -58.3008 C 15.1855 -62.5 17.4316 -64.6973 21.4844 -64.6973 L 87.9395 -64.6973 C 91.9434 -64.6973 94.2383 -62.5 94.2383 -58.3008 L 94.2383 -15.2344 L 73.2422 -34.8145 C 71.4844 -36.3281 69.5312 -37.207 67.3828 -37.207 C 65.2344 -37.207 63.3789 -36.4746 61.5723 -34.8633 L 44.2383 -19.3359 L 37.1094 -25.8789 C 35.498 -27.2949 33.7891 -28.0762 31.9336 -28.0762 C 30.1758 -28.0762 28.5645 -27.3438 27.002 -25.9277 L 15.1855 -15.1855 Z M 38.0859 -34.7656 C 43.0176 -34.7656 47.0703 -38.8184 47.0703 -43.7988 C 47.0703 -48.7305 43.0176 -52.832 38.0859 -52.832 C 33.1055 -52.832 29.0527 -48.7305 29.0527 -43.7988 C 29.0527 -38.8184 33.1055 -34.7656 38.0859 -34.7656 Z"/>
  </g>
  <g id="Thin-S" transform="matrix(1 0 0 1 802.174 696)">
   <path d="M 20.3125 -1.12305 L 88.1836 -1.12305 C 95.1172 -1.12305 98.7305 -4.78516 98.7305 -11.6211 L 98.7305 -58.6914 C 98.7305 -65.5762 95.1172 -69.2383 88.1836 -69.2383 L 20.3125 -69.2383 C 13.3789 -69.2383 9.76562 -65.625 9.76562 -58.6914 L 9.76562 -11.6211 C 9.76562 -4.6875 13.3789 -1.12305 20.3125 -1.12305 Z M 13.0859 -58.5449 C 13.0859 -63.3789 15.625 -65.918 20.4102 -65.918 L 88.0859 -65.918 C 92.7246 -65.918 95.4102 -63.3789 95.4102 -58.5449 L 95.4102 -12.9395 L 73.0957 -33.4473 C 71.1426 -35.0098 69.3359 -36.0352 66.9922 -36.0352 C 64.6973 -36.0352 62.8906 -35.2051 61.0352 -33.4961 L 43.5059 -17.8711 L 36.1816 -24.6582 C 34.5703 -26.123 32.959 -26.9531 30.957 -26.9531 C 29.0527 -26.9531 27.6367 -26.1719 26.0254 -24.707 L 13.0859 -12.5977 Z M 37.5 -34.5215 C 42.4316 -34.5215 46.4844 -38.5742 46.4844 -43.5547 C 46.4844 -48.4863 42.4316 -52.5879 37.5 -52.5879 C 32.5195 -52.5879 28.4668 -48.4863 28.4668 -43.5547 C 28.4668 -38.5742 32.5195 -34.5215 37.5 -34.5215 Z"/>
  </g>
  <g id="Ultralight-S" transform="matrix(1 0 0 1 505.707 696)">
   <path d="M 19.7754 -1.5625 L 88.2812 -1.5625 C 94.8242 -1.5625 98.2422 -5.12695 98.2422 -11.5234 L 98.2422 -58.7891 C 98.2422 -65.2344 94.8242 -68.75 88.2812 -68.75 L 19.7754 -68.75 C 13.2324 -68.75 9.76562 -65.2832 9.76562 -58.7891 L 9.76562 -11.5234 C 9.76562 -5.0293 13.2324 -1.5625 19.7754 -1.5625 Z M 11.9629 -11.6699 L 11.9629 -58.6426 C 11.9629 -63.8672 14.6484 -66.5527 19.873 -66.5527 L 88.1836 -66.5527 C 93.1641 -66.5527 96.0449 -63.8672 96.0449 -58.6426 L 96.0449 -11.7676 L 72.998 -32.7148 C 70.9473 -34.2773 69.2383 -35.4004 66.748 -35.4004 C 64.4043 -35.4004 62.6465 -34.5215 60.6934 -32.7637 L 43.1152 -17.0898 L 35.6934 -24.0234 C 34.082 -25.5371 32.5195 -26.3672 30.4688 -26.3672 C 28.5156 -26.3672 27.0996 -25.5371 25.4883 -24.0723 L 11.9629 -11.2793 C 11.9629 -11.6699 11.9629 -11.6699 11.9629 -11.6699 Z M 37.207 -34.4238 C 42.1387 -34.4238 46.1914 -38.4766 46.1914 -43.457 C 46.1914 -48.3887 42.1387 -52.4902 37.207 -52.4902 C 32.2266 -52.4902 28.1738 -48.3887 28.1738 -43.457 C 28.1738 -38.4766 32.2266 -34.4238 37.207 -34.4238 Z"/>
  </g>
 </g>
</svg>
