<?xml version="1.0" encoding="UTF-8"?>
<!--Generator: Apple Native CoreSVG 123-->
<!DOCTYPE svg
PUBLIC "-//W3C//DTD SVG 1.1//EN"
       "http://www.w3.org/Graphics/SVG/1.1/DTD/svg11.dtd">
<svg version="1.1" xmlns="http://www.w3.org/2000/svg" xmlns:xlink="http://www.w3.org/1999/xlink" width="3300" height="2200">
 <!--glyph: "uni10025E.medium", point size: 100.000000, font version: "Version 15.0d7e11", template writer version: "5"-->
 <g id="Notes">
  <rect height="2200" id="artboard" style="fill:white;opacity:1" width="3300" x="0" y="0"/>
  <line id="" style="fill:none;stroke:black;opacity:1;stroke-width:0.5;" x1="263" x2="3036" y1="292" y2="292"/>
  <text style="stroke:none;fill:black;font-family:-apple-system,&quot;SF Pro Display&quot;,&quot;SF Pro Text&quot;,Helvetica,sans-serif;font-weight:bold;" transform="matrix(1 0 0 1 263 322)">Weight/Scale Variations</text>
  <text style="stroke:none;fill:black;font-family:-apple-system,&quot;SF Pro Display&quot;,&quot;SF Pro Text&quot;,Helvetica,sans-serif;text-anchor:middle;" transform="matrix(1 0 0 1 559.711 322)">Ultralight</text>
  <text style="stroke:none;fill:black;font-family:-apple-system,&quot;SF Pro Display&quot;,&quot;SF Pro Text&quot;,Helvetica,sans-serif;text-anchor:middle;" transform="matrix(1 0 0 1 856.422 322)">Thin</text>
  <text style="stroke:none;fill:black;font-family:-apple-system,&quot;SF Pro Display&quot;,&quot;SF Pro Text&quot;,Helvetica,sans-serif;text-anchor:middle;" transform="matrix(1 0 0 1 1153.13 322)">Light</text>
  <text style="stroke:none;fill:black;font-family:-apple-system,&quot;SF Pro Display&quot;,&quot;SF Pro Text&quot;,Helvetica,sans-serif;text-anchor:middle;" transform="matrix(1 0 0 1 1449.84 322)">Regular</text>
  <text style="stroke:none;fill:black;font-family:-apple-system,&quot;SF Pro Display&quot;,&quot;SF Pro Text&quot;,Helvetica,sans-serif;text-anchor:middle;" transform="matrix(1 0 0 1 1746.56 322)">Medium</text>
  <text style="stroke:none;fill:black;font-family:-apple-system,&quot;SF Pro Display&quot;,&quot;SF Pro Text&quot;,Helvetica,sans-serif;text-anchor:middle;" transform="matrix(1 0 0 1 2043.27 322)">Semibold</text>
  <text style="stroke:none;fill:black;font-family:-apple-system,&quot;SF Pro Display&quot;,&quot;SF Pro Text&quot;,Helvetica,sans-serif;text-anchor:middle;" transform="matrix(1 0 0 1 2339.98 322)">Bold</text>
  <text style="stroke:none;fill:black;font-family:-apple-system,&quot;SF Pro Display&quot;,&quot;SF Pro Text&quot;,Helvetica,sans-serif;text-anchor:middle;" transform="matrix(1 0 0 1 2636.69 322)">Heavy</text>
  <text style="stroke:none;fill:black;font-family:-apple-system,&quot;SF Pro Display&quot;,&quot;SF Pro Text&quot;,Helvetica,sans-serif;text-anchor:middle;" transform="matrix(1 0 0 1 2933.4 322)">Black</text>
  <line id="" style="fill:none;stroke:black;opacity:1;stroke-width:0.5;" x1="263" x2="3036" y1="1903" y2="1903"/>
  <g id="" transform="matrix(1 0 0 1 263 1933)">
   <path d="M 9.24805 0.830078 C 13.5547 0.830078 17.1387 -2.74414 17.1387 -7.05078 C 17.1387 -11.3574 13.5449 -14.9316 9.23828 -14.9316 C 4.94141 -14.9316 1.36719 -11.3574 1.36719 -7.05078 C 1.36719 -2.74414 4.95117 0.830078 9.24805 0.830078 Z M 9.24805 -0.654297 C 5.70312 -0.654297 2.87109 -3.49609 2.87109 -7.05078 C 2.87109 -10.6055 5.69336 -13.4473 9.23828 -13.4473 C 12.793 -13.4473 15.6348 -10.6055 15.6445 -7.05078 C 15.6543 -3.49609 12.8027 -0.654297 9.24805 -0.654297 Z M 9.22852 -3.42773 C 9.69727 -3.42773 9.9707 -3.74023 9.9707 -4.25781 L 9.9707 -6.31836 L 12.1973 -6.31836 C 12.6953 -6.31836 13.0371 -6.57227 13.0371 -7.04102 C 13.0371 -7.51953 12.7148 -7.7832 12.1973 -7.7832 L 9.9707 -7.7832 L 9.9707 -10.0098 C 9.9707 -10.5273 9.69727 -10.8496 9.22852 -10.8496 C 8.75977 -10.8496 8.50586 -10.5078 8.50586 -10.0098 L 8.50586 -7.7832 L 6.29883 -7.7832 C 5.78125 -7.7832 5.44922 -7.51953 5.44922 -7.04102 C 5.44922 -6.57227 5.80078 -6.31836 6.29883 -6.31836 L 8.50586 -6.31836 L 8.50586 -4.25781 C 8.50586 -3.75977 8.75977 -3.42773 9.22852 -3.42773 Z"/>
  </g>
  <g id="" transform="matrix(1 0 0 1 281.506 1933)">
   <path d="M 11.709 2.91016 C 17.1582 2.91016 21.6699 -1.60156 21.6699 -7.05078 C 21.6699 -12.4902 17.1484 -17.0117 11.6992 -17.0117 C 6.25977 -17.0117 1.74805 -12.4902 1.74805 -7.05078 C 1.74805 -1.60156 6.26953 2.91016 11.709 2.91016 Z M 11.709 1.25 C 7.09961 1.25 3.41797 -2.44141 3.41797 -7.05078 C 3.41797 -11.6504 7.08984 -15.3516 11.6992 -15.3516 C 16.3086 -15.3516 20 -11.6504 20.0098 -7.05078 C 20.0195 -2.44141 16.3184 1.25 11.709 1.25 Z M 11.6895 -2.41211 C 12.207 -2.41211 12.5195 -2.77344 12.5195 -3.33984 L 12.5195 -6.23047 L 15.5762 -6.23047 C 16.123 -6.23047 16.5039 -6.51367 16.5039 -7.03125 C 16.5039 -7.55859 16.1426 -7.86133 15.5762 -7.86133 L 12.5195 -7.86133 L 12.5195 -10.9277 C 12.5195 -11.5039 12.207 -11.8555 11.6895 -11.8555 C 11.1719 -11.8555 10.8789 -11.4844 10.8789 -10.9277 L 10.8789 -7.86133 L 7.83203 -7.86133 C 7.26562 -7.86133 6.89453 -7.55859 6.89453 -7.03125 C 6.89453 -6.51367 7.28516 -6.23047 7.83203 -6.23047 L 10.8789 -6.23047 L 10.8789 -3.33984 C 10.8789 -2.79297 11.1719 -2.41211 11.6895 -2.41211 Z"/>
  </g>
  <g id="" transform="matrix(1 0 0 1 304.924 1933)">
   <path d="M 14.9707 5.67383 C 21.9336 5.67383 27.6953 -0.078125 27.6953 -7.04102 C 27.6953 -14.0039 21.9238 -19.7559 14.9609 -19.7559 C 8.00781 -19.7559 2.25586 -14.0039 2.25586 -7.04102 C 2.25586 -0.078125 8.01758 5.67383 14.9707 5.67383 Z M 14.9707 3.85742 C 8.93555 3.85742 4.08203 -1.00586 4.08203 -7.04102 C 4.08203 -13.0762 8.92578 -17.9395 14.9609 -17.9395 C 21.0059 -17.9395 25.8594 -13.0762 25.8691 -7.04102 C 25.8789 -1.00586 21.0156 3.85742 14.9707 3.85742 Z M 14.9512 -1.06445 C 15.5176 -1.06445 15.8691 -1.45508 15.8691 -2.06055 L 15.8691 -6.13281 L 20.1074 -6.13281 C 20.6934 -6.13281 21.1133 -6.46484 21.1133 -7.02148 C 21.1133 -7.59766 20.7227 -7.93945 20.1074 -7.93945 L 15.8691 -7.93945 L 15.8691 -12.1875 C 15.8691 -12.8027 15.5176 -13.1934 14.9512 -13.1934 C 14.3848 -13.1934 14.0625 -12.7832 14.0625 -12.1875 L 14.0625 -7.93945 L 9.83398 -7.93945 C 9.21875 -7.93945 8.80859 -7.59766 8.80859 -7.02148 C 8.80859 -6.46484 9.23828 -6.13281 9.83398 -6.13281 L 14.0625 -6.13281 L 14.0625 -2.06055 C 14.0625 -1.47461 14.3848 -1.06445 14.9512 -1.06445 Z"/>
  </g>
  <text style="stroke:none;fill:black;font-family:-apple-system,&quot;SF Pro Display&quot;,&quot;SF Pro Text&quot;,Helvetica,sans-serif;font-weight:bold;" transform="matrix(1 0 0 1 263 1953)">Design Variations</text>
  <text style="stroke:none;fill:black;font-family:-apple-system,&quot;SF Pro Display&quot;,&quot;SF Pro Text&quot;,Helvetica,sans-serif;" transform="matrix(1 0 0 1 263 1971)">Symbols are supported in up to nine weights and three scales.</text>
  <text style="stroke:none;fill:black;font-family:-apple-system,&quot;SF Pro Display&quot;,&quot;SF Pro Text&quot;,Helvetica,sans-serif;" transform="matrix(1 0 0 1 263 1989)">For optimal layout with text and other symbols, vertically align</text>
  <text style="stroke:none;fill:black;font-family:-apple-system,&quot;SF Pro Display&quot;,&quot;SF Pro Text&quot;,Helvetica,sans-serif;" transform="matrix(1 0 0 1 263 2007)">symbols with the adjacent text.</text>
  <rect height="14" id="" style="fill:#00AEEF;stroke:none;opacity:0.4;" width="3" x="776" y="1919"/>
  <g id="" transform="matrix(1 0 0 1 779 1933)">
   <path d="M 10.5273 0 L 12.373 0 L 7.17773 -14.0918 L 5.43945 -14.0918 L 0.244141 0 L 2.08984 0 L 3.50586 -4.0332 L 9.11133 -4.0332 Z M 6.2793 -11.9531 L 6.33789 -11.9531 L 8.59375 -5.52734 L 4.02344 -5.52734 Z"/>
  </g>
  <rect height="14" id="" style="fill:#00AEEF;stroke:none;opacity:0.4;" width="3" x="791.617" y="1919"/>
  <text style="stroke:none;fill:black;font-family:-apple-system,&quot;SF Pro Display&quot;,&quot;SF Pro Text&quot;,Helvetica,sans-serif;font-weight:bold;" transform="matrix(1 0 0 1 776 1953)">Margins</text>
  <text style="stroke:none;fill:black;font-family:-apple-system,&quot;SF Pro Display&quot;,&quot;SF Pro Text&quot;,Helvetica,sans-serif;" transform="matrix(1 0 0 1 776 1971)">Leading and trailing margins on the left and right side of each symbol</text>
  <text style="stroke:none;fill:black;font-family:-apple-system,&quot;SF Pro Display&quot;,&quot;SF Pro Text&quot;,Helvetica,sans-serif;" transform="matrix(1 0 0 1 776 1989)">can be adjusted by modifying the width of the blue rectangles.</text>
  <text style="stroke:none;fill:black;font-family:-apple-system,&quot;SF Pro Display&quot;,&quot;SF Pro Text&quot;,Helvetica,sans-serif;" transform="matrix(1 0 0 1 776 2007)">Modifications are automatically applied proportionally to all</text>
  <text style="stroke:none;fill:black;font-family:-apple-system,&quot;SF Pro Display&quot;,&quot;SF Pro Text&quot;,Helvetica,sans-serif;" transform="matrix(1 0 0 1 776 2025)">scales and weights.</text>
  <g id="" transform="matrix(1 0 0 1 1289 1933)">
   <path d="M 2.83203 3.11523 L 4.375 4.6582 C 5.22461 5.48828 6.19141 5.41992 7.06055 4.46289 L 17.2754 -6.66016 C 17.7051 -6.36719 18.0957 -6.37695 18.5645 -6.47461 L 19.6094 -6.68945 L 20.3027 -5.99609 L 20.2539 -5.47852 C 20.1855 -4.95117 20.3516 -4.53125 20.8496 -4.0332 L 21.6602 -3.22266 C 22.168 -2.71484 22.8223 -2.68555 23.3008 -3.16406 L 26.5527 -6.41602 C 27.0312 -6.89453 27.0117 -7.54883 26.5039 -8.05664 L 25.6836 -8.87695 C 25.1855 -9.375 24.7754 -9.55078 24.2383 -9.47266 L 23.7109 -9.41406 L 23.0566 -10.0781 L 23.3398 -11.2207 C 23.4863 -11.7871 23.3398 -12.2559 22.7148 -12.8613 L 20.3027 -15.2539 C 16.7578 -18.7793 12.2266 -18.6719 9.11133 -15.5371 C 8.69141 -15.1074 8.64258 -14.5215 8.91602 -14.0918 C 9.15039 -13.7207 9.62891 -13.4961 10.2734 -13.6621 C 11.7871 -14.043 13.3008 -13.9258 14.7852 -12.9199 L 14.1602 -11.3379 C 13.9258 -10.752 13.9453 -10.2734 14.1797 -9.83398 L 3.01758 0.439453 C 2.08008 1.30859 1.97266 2.25586 2.83203 3.11523 Z M 10.6738 -15.1465 C 13.3398 -17.1387 16.6504 -16.8262 19.0527 -14.4141 L 21.6797 -11.8066 C 21.9141 -11.5723 21.9434 -11.3867 21.8848 -11.0938 L 21.5039 -9.53125 L 23.0762 -7.95898 L 24.043 -8.04688 C 24.3262 -8.07617 24.4141 -8.05664 24.6387 -7.83203 L 25.2637 -7.20703 L 22.5098 -4.46289 L 21.8848 -5.07812 C 21.6602 -5.30273 21.6406 -5.40039 21.6699 -5.68359 L 21.7578 -6.64062 L 20.1953 -8.20312 L 18.5742 -7.89062 C 18.291 -7.83203 18.1445 -7.83203 17.9102 -8.07617 L 15.7324 -10.2539 C 15.5078 -10.4883 15.4785 -10.625 15.6055 -10.9473 L 16.5527 -13.2227 C 14.9512 -14.7559 12.8418 -15.6055 10.8008 -14.9512 C 10.7129 -14.9219 10.6445 -14.9414 10.6152 -14.9805 C 10.5859 -15.0293 10.5859 -15.0781 10.6738 -15.1465 Z M 4.10156 2.41211 C 3.61328 1.91406 3.78906 1.61133 4.12109 1.30859 L 15.0781 -8.80859 L 16.3086 -7.57812 L 6.15234 3.34961 C 5.84961 3.68164 5.46875 3.7793 5.06836 3.37891 Z"/>
  </g>
  <text style="stroke:none;fill:black;font-family:-apple-system,&quot;SF Pro Display&quot;,&quot;SF Pro Text&quot;,Helvetica,sans-serif;font-weight:bold;" transform="matrix(1 0 0 1 1289 1953)">Exporting</text>
  <text style="stroke:none;fill:black;font-family:-apple-system,&quot;SF Pro Display&quot;,&quot;SF Pro Text&quot;,Helvetica,sans-serif;" transform="matrix(1 0 0 1 1289 1971)">Symbols should be outlined when exporting to ensure the</text>
  <text style="stroke:none;fill:black;font-family:-apple-system,&quot;SF Pro Display&quot;,&quot;SF Pro Text&quot;,Helvetica,sans-serif;" transform="matrix(1 0 0 1 1289 1989)">design is preserved when submitting to Xcode.</text>
  <text id="template-version" style="stroke:none;fill:black;font-family:-apple-system,&quot;SF Pro Display&quot;,&quot;SF Pro Text&quot;,Helvetica,sans-serif;text-anchor:end;" transform="matrix(1 0 0 1 3036 1933)">Template v.1.0</text>
  <text style="stroke:none;fill:black;font-family:-apple-system,&quot;SF Pro Display&quot;,&quot;SF Pro Text&quot;,Helvetica,sans-serif;text-anchor:end;" transform="matrix(1 0 0 1 3036 1951)">Generated from bookmark</text>
  <text style="stroke:none;fill:black;font-family:-apple-system,&quot;SF Pro Display&quot;,&quot;SF Pro Text&quot;,Helvetica,sans-serif;text-anchor:end;" transform="matrix(1 0 0 1 3036 1969)">Typeset at 100 points</text>
  <text style="stroke:none;fill:black;font-family:-apple-system,&quot;SF Pro Display&quot;,&quot;SF Pro Text&quot;,Helvetica,sans-serif;" transform="matrix(1 0 0 1 263 726)">Small</text>
  <text style="stroke:none;fill:black;font-family:-apple-system,&quot;SF Pro Display&quot;,&quot;SF Pro Text&quot;,Helvetica,sans-serif;" transform="matrix(1 0 0 1 263 1156)">Medium</text>
  <text style="stroke:none;fill:black;font-family:-apple-system,&quot;SF Pro Display&quot;,&quot;SF Pro Text&quot;,Helvetica,sans-serif;" transform="matrix(1 0 0 1 263 1586)">Large</text>
 </g>
 <g id="Guides">
  <g id="H-reference" style="fill:#27AAE1;stroke:none;" transform="matrix(1 0 0 1 339 696)">
   <path d="M 54.9316 0 L 57.666 0 L 30.5664 -70.459 L 28.0762 -70.459 L 0.976562 0 L 3.66211 0 L 12.9395 -24.4629 L 45.7031 -24.4629 Z M 29.1992 -67.0898 L 29.4434 -67.0898 L 44.8242 -26.709 L 13.8184 -26.709 Z"/>
  </g>
  <line id="Baseline-S" style="fill:none;stroke:#27AAE1;opacity:1;stroke-width:0.577;" x1="263" x2="3036" y1="696" y2="696"/>
  <line id="Capline-S" style="fill:none;stroke:#27AAE1;opacity:1;stroke-width:0.577;" x1="263" x2="3036" y1="625.541" y2="625.541"/>
  <g id="H-reference" style="fill:#27AAE1;stroke:none;" transform="matrix(1 0 0 1 339 1126)">
   <path d="M 54.9316 0 L 57.666 0 L 30.5664 -70.459 L 28.0762 -70.459 L 0.976562 0 L 3.66211 0 L 12.9395 -24.4629 L 45.7031 -24.4629 Z M 29.1992 -67.0898 L 29.4434 -67.0898 L 44.8242 -26.709 L 13.8184 -26.709 Z"/>
  </g>
  <line id="Baseline-M" style="fill:none;stroke:#27AAE1;opacity:1;stroke-width:0.577;" x1="263" x2="3036" y1="1126" y2="1126"/>
  <line id="Capline-M" style="fill:none;stroke:#27AAE1;opacity:1;stroke-width:0.577;" x1="263" x2="3036" y1="1055.54" y2="1055.54"/>
  <g id="H-reference" style="fill:#27AAE1;stroke:none;" transform="matrix(1 0 0 1 339 1556)">
   <path d="M 54.9316 0 L 57.666 0 L 30.5664 -70.459 L 28.0762 -70.459 L 0.976562 0 L 3.66211 0 L 12.9395 -24.4629 L 45.7031 -24.4629 Z M 29.1992 -67.0898 L 29.4434 -67.0898 L 44.8242 -26.709 L 13.8184 -26.709 Z"/>
  </g>
  <line id="Baseline-L" style="fill:none;stroke:#27AAE1;opacity:1;stroke-width:0.577;" x1="263" x2="3036" y1="1556" y2="1556"/>
  <line id="Capline-L" style="fill:none;stroke:#27AAE1;opacity:1;stroke-width:0.577;" x1="263" x2="3036" y1="1485.54" y2="1485.54"/>
  <rect height="119.336" id="left-margin" style="fill:#00AEEF;stroke:none;opacity:0.4;" width="12.4512" x="1398.67" y="1030.79"/>
  <rect height="119.336" id="right-margin" style="fill:#00AEEF;stroke:none;opacity:0.4;" width="12.4512" x="1488.57" y="1030.79"/>
 </g>
 <g id="Symbols">
  <g id="Black-L" transform="matrix(1 0 0 1 2862.21 1556)">
   <path d="M 29.3457 37.9395 C 34.2285 37.9395 37.6465 35.9375 42.5293 30.9082 L 70.1172 1.9043 C 70.5078 1.51367 70.8008 1.26953 71.1914 1.26953 C 71.582 1.26953 71.875 1.51367 72.2656 1.9043 L 99.9023 30.957 C 104.736 35.9863 108.105 37.9395 113.037 37.9395 C 120.166 37.9395 126.318 33.3496 126.318 23.7793 L 126.318 -84.375 C 126.318 -99.6094 117.676 -108.301 102.49 -108.301 L 39.8926 -108.301 C 24.707 -108.301 16.0645 -99.6094 16.0645 -84.375 L 16.0645 23.7793 C 16.0645 33.3496 22.2168 37.9395 29.3457 37.9395 Z M 37.5488 6.34766 C 36.9141 7.12891 36.3281 6.5918 36.3281 5.71289 L 36.3281 -81.6895 C 36.3281 -85.8887 38.1836 -88.0371 42.7246 -88.0371 L 99.6582 -88.0371 C 104.199 -88.0371 106.055 -85.8887 106.055 -81.6895 L 106.055 5.71289 C 106.055 6.5918 105.469 7.03125 104.834 6.34766 L 77.8809 -21.2402 C 75.293 -23.877 73.4863 -25.0488 71.1914 -25.0488 C 68.8965 -25.0488 67.0898 -23.877 64.502 -21.2402 Z"/>
  </g>
  <g id="Heavy-L" transform="matrix(1 0 0 1 2566.86 1556)">
   <path d="M 27.7344 36.4746 C 32.1289 36.4746 35.1562 34.6191 40.1367 29.541 L 68.7988 -0.195312 C 69.1895 -0.585938 69.4824 -0.78125 69.8242 -0.78125 C 70.166 -0.78125 70.5078 -0.585938 70.8496 -0.195312 L 99.5605 29.5898 C 104.492 34.668 107.471 36.4746 111.914 36.4746 C 118.262 36.4746 123.584 32.4707 123.584 23.9746 L 123.584 -84.1309 C 123.584 -98.7305 115.527 -106.836 100.977 -106.836 L 38.7207 -106.836 C 24.1211 -106.836 16.0645 -98.7305 16.0645 -84.1309 L 16.0645 23.9746 C 16.0645 32.4707 21.3867 36.4746 27.7344 36.4746 Z M 34.9609 9.32617 C 34.2285 10.1074 33.5938 9.66797 33.5938 8.69141 L 33.5938 -81.9824 C 33.5938 -86.8164 35.8887 -89.3555 41.0156 -89.3555 L 98.6816 -89.3555 C 103.809 -89.3555 106.104 -86.8164 106.104 -81.9824 L 106.104 8.69141 C 106.104 9.66797 105.42 10.0586 104.688 9.32617 L 75.5859 -20.2148 C 73.4375 -22.4121 71.7773 -23.3887 69.8242 -23.3887 C 67.8711 -23.3887 66.2109 -22.4121 64.0625 -20.2148 Z"/>
  </g>
  <g id="Bold-L" transform="matrix(1 0 0 1 2271.67 1556)">
   <path d="M 25.8789 34.9121 C 29.7852 34.9121 32.373 33.1543 37.4512 28.0273 L 67.334 -2.53906 C 67.6758 -2.88086 67.9688 -3.125 68.3105 -3.125 C 68.6035 -3.125 68.8965 -2.88086 69.2383 -2.53906 L 99.2188 28.0762 C 104.199 33.1543 106.836 34.9121 110.693 34.9121 C 116.113 34.9121 120.557 31.4941 120.557 24.1699 L 120.557 -83.7891 C 120.557 -97.7051 113.086 -105.273 99.2188 -105.273 L 37.4023 -105.273 C 23.5352 -105.273 16.0645 -97.7051 16.0645 -83.7891 L 16.0645 24.1699 C 16.0645 31.4941 20.5078 34.9121 25.8789 34.9121 Z M 32.0801 12.6465 C 31.25 13.5254 30.5176 13.1348 30.5176 12.0117 L 30.5176 -82.3242 C 30.5176 -87.8418 33.252 -90.8203 39.0625 -90.8203 L 97.5586 -90.8203 C 103.32 -90.8203 106.104 -87.8418 106.104 -82.3242 L 106.104 12.0117 C 106.104 13.1348 105.371 13.4766 104.541 12.6465 L 73.0957 -18.9941 C 71.2891 -20.8008 69.873 -21.582 68.3105 -21.582 C 66.6992 -21.582 65.2832 -20.8008 63.5254 -18.9941 Z"/>
  </g>
  <g id="Semibold-L" transform="matrix(1 0 0 1 1976.01 1556)">
   <path d="M 24.6582 33.7891 C 28.125 33.7891 30.4199 32.1777 35.5957 26.9531 L 66.3574 -4.19922 C 66.6504 -4.49219 66.9434 -4.73633 67.2363 -4.73633 C 67.5293 -4.73633 67.8223 -4.49219 68.1641 -4.19922 L 98.9258 27.002 C 104.004 32.1289 106.348 33.7891 109.863 33.7891 C 114.6 33.7891 118.457 30.8105 118.457 24.2676 L 118.457 -83.5938 C 118.457 -97.0215 111.377 -104.15 98.0469 -104.15 L 36.4746 -104.15 C 23.0957 -104.15 16.0645 -97.0215 16.0645 -83.5938 L 16.0645 24.2676 C 16.0645 30.8105 19.873 33.7891 24.6582 33.7891 Z M 30.0293 14.9414 C 29.1504 15.8203 28.418 15.5273 28.418 14.3066 L 28.418 -82.6172 C 28.418 -88.5742 31.4453 -91.7969 37.6953 -91.7969 L 96.8262 -91.7969 C 103.027 -91.7969 106.104 -88.5742 106.104 -82.6172 L 106.104 14.3066 C 106.104 15.5273 105.371 15.8203 104.443 14.9414 L 71.3379 -18.2129 C 69.8242 -19.7266 68.6035 -20.3125 67.2363 -20.3125 C 65.918 -20.3125 64.6484 -19.7266 63.1348 -18.2129 Z"/>
  </g>
  <g id="Medium-L" transform="matrix(1 0 0 1 1680.1 1556)">
   <path d="M 23.6816 32.959 C 26.9043 32.959 29.0039 31.3965 34.1797 26.1719 L 65.5762 -5.41992 C 65.918 -5.71289 66.1621 -5.9082 66.4551 -5.9082 C 66.748 -5.9082 66.9922 -5.71289 67.334 -5.41992 L 98.7305 26.1719 C 103.857 31.3477 106.006 32.959 109.229 32.959 C 113.477 32.959 116.846 30.2734 116.846 24.3652 L 116.846 -83.3984 C 116.846 -96.4844 110.107 -103.32 97.1191 -103.32 L 35.791 -103.32 C 22.8027 -103.32 16.0645 -96.4844 16.0645 -83.3984 L 16.0645 24.3652 C 16.0645 30.2734 19.4336 32.959 23.6816 32.959 Z M 28.5156 16.6504 C 27.5879 17.627 26.8066 17.334 26.8066 16.0156 L 26.8066 -82.7637 C 26.8066 -89.1113 30.127 -92.5781 36.6699 -92.5781 L 96.2402 -92.5781 C 102.783 -92.5781 106.104 -89.1113 106.104 -82.7637 L 106.104 16.0156 C 106.104 17.334 105.322 17.5781 104.395 16.6504 L 70.0195 -17.5781 C 68.75 -18.8965 67.5781 -19.3359 66.4551 -19.3359 C 65.332 -19.3359 64.1602 -18.8965 62.8906 -17.5781 Z"/>
  </g>
  <g id="Regular-L" transform="matrix(1 0 0 1 1384.44 1556)">
   <path d="M 22.4609 31.8848 C 25.293 31.8848 27.0996 30.4199 32.373 25.1465 L 64.5996 -6.98242 C 64.8926 -7.27539 65.1367 -7.51953 65.4297 -7.51953 C 65.6738 -7.51953 65.918 -7.27539 66.2109 -6.98242 L 98.4863 25.1465 C 103.662 30.3711 105.518 31.8848 108.398 31.8848 C 112.012 31.8848 114.746 29.6387 114.746 24.5117 L 114.746 -83.2031 C 114.746 -95.8008 108.447 -102.197 95.9473 -102.197 L 34.8633 -102.197 C 22.3633 -102.197 16.0645 -95.8008 16.0645 -83.2031 L 16.0645 24.5117 C 16.0645 29.6387 18.7988 31.8848 22.4609 31.8848 Z M 26.5625 18.9453 C 25.5859 19.9219 24.707 19.7266 24.707 18.3105 L 24.707 -83.0078 C 24.707 -89.8438 28.3203 -93.5547 35.3516 -93.5547 L 95.5078 -93.5547 C 102.49 -93.5547 106.104 -89.8438 106.104 -83.0078 L 106.104 18.3105 C 106.104 19.7266 105.273 19.9219 104.297 18.9453 L 68.3105 -16.748 C 67.2852 -17.7734 66.3086 -18.0664 65.4297 -18.0664 C 64.5508 -18.0664 63.5254 -17.7734 62.5 -16.748 Z"/>
  </g>
  <g id="Light-L" transform="matrix(1 0 0 1 1088.56 1556)">
   <path d="M 21.582 31.0547 C 23.9746 31.0547 25.5371 29.8828 29.3457 26.0742 L 63.8672 -8.34961 C 64.1602 -8.64258 64.3555 -8.83789 64.5996 -8.83789 C 64.7949 -8.83789 65.0391 -8.64258 65.2832 -8.34961 L 99.8047 26.0742 C 103.613 29.8828 105.225 31.0547 107.568 31.0547 C 110.791 31.0547 113.086 29.0039 113.086 24.7559 L 113.086 -83.3496 C 113.086 -95.2148 107.031 -101.367 95.2637 -101.367 L 33.9355 -101.367 C 22.1191 -101.367 16.0645 -95.2148 16.0645 -83.3496 L 16.0645 24.7559 C 16.0645 29.0039 18.4082 31.0547 21.582 31.0547 Z M 24.9023 21.3379 C 23.7793 22.4609 22.7051 22.2656 22.7051 20.6543 L 22.7051 -83.2031 C 22.7051 -90.7227 26.6113 -94.7266 34.2773 -94.7266 L 94.9219 -94.7266 C 102.539 -94.7266 106.494 -90.7227 106.494 -83.2031 L 106.494 20.6543 C 106.494 22.2656 105.469 22.5098 104.297 21.3379 L 67.1387 -15.6738 C 66.2598 -16.5527 65.3809 -16.8457 64.5996 -16.8457 C 63.7695 -16.8457 62.9395 -16.5527 62.0117 -15.6738 Z"/>
  </g>
  <g id="Thin-L" transform="matrix(1 0 0 1 792.946 1556)">
   <path d="M 20.459 29.9805 C 22.168 29.9805 23.5352 29.1504 25.3906 27.2949 L 62.8906 -10.2051 C 63.1348 -10.4492 63.3301 -10.5957 63.4766 -10.5957 C 63.6719 -10.5957 63.8184 -10.4492 64.0625 -10.2051 L 101.562 27.2949 C 103.516 29.248 104.785 29.9805 106.494 29.9805 C 109.131 29.9805 110.889 28.1738 110.889 25.0977 L 110.889 -83.5938 C 110.889 -94.4824 105.176 -100.244 94.3359 -100.244 L 32.666 -100.244 C 21.7773 -100.244 16.0645 -94.4824 16.0645 -83.5938 L 16.0645 25.0977 C 16.0645 28.1738 17.8223 29.9805 20.459 29.9805 Z M 22.6562 24.5117 C 21.3867 25.8301 19.9707 25.6836 19.9707 23.7305 L 19.9707 -83.4473 C 19.9707 -91.8945 24.3652 -96.2891 32.8613 -96.2891 L 94.1406 -96.2891 C 102.588 -96.2891 106.982 -91.8945 106.982 -83.4473 L 106.982 23.7305 C 106.982 25.6836 105.664 25.9277 104.297 24.5117 L 65.625 -14.209 C 64.8438 -14.9414 64.209 -15.1855 63.4766 -15.1855 C 62.7441 -15.1855 62.1094 -14.9414 61.377 -14.209 Z"/>
  </g>
  <g id="Ultralight-L" transform="matrix(1 0 0 1 496.796 1556)">
   <path d="M 19.873 29.4434 C 21.2402 29.4434 22.4609 28.8086 23.3887 27.9297 L 62.4023 -11.1328 C 62.5977 -11.3281 62.793 -11.4746 62.9395 -11.4746 C 63.0859 -11.4746 63.2324 -11.3281 63.4277 -11.1328 L 102.49 27.9297 C 103.467 28.9062 104.59 29.4434 105.957 29.4434 C 108.301 29.4434 109.766 27.7344 109.766 25.293 L 109.766 -83.7402 C 109.766 -94.1406 104.248 -99.6582 93.8477 -99.6582 L 31.9824 -99.6582 C 21.6309 -99.6582 16.0645 -94.1406 16.0645 -83.7402 L 16.0645 25.293 C 16.0645 27.7344 17.5293 29.4434 19.873 29.4434 Z M 21.5332 26.1719 C 20.1172 27.5879 18.6035 27.3926 18.6035 25.3418 L 18.6035 -83.5938 C 18.6035 -92.4805 23.2422 -97.1191 32.1289 -97.1191 L 93.7012 -97.1191 C 102.588 -97.1191 107.227 -92.4805 107.227 -83.5938 L 107.227 25.3418 C 107.227 27.3926 105.811 27.6367 104.297 26.1719 L 64.8438 -13.4277 C 64.1113 -14.1113 63.623 -14.3555 62.9395 -14.3555 C 62.207 -14.3555 61.7188 -14.1113 61.0352 -13.4277 Z"/>
  </g>
  <g id="Black-M" transform="matrix(1 0 0 1 2876.83 1126)">
   <path d="M 24.5117 22.9492 C 28.6621 22.9492 31.7383 21.3867 34.5703 18.3594 L 55.7129 -4.3457 C 56.0059 -4.6875 56.25 -4.88281 56.543 -4.88281 C 56.8848 -4.88281 57.1289 -4.6875 57.4219 -4.3457 L 78.6133 18.4082 C 81.4453 21.5332 84.4238 22.9492 88.623 22.9492 C 95.0684 22.9492 100.684 18.7988 100.684 10.4004 L 100.684 -73.8281 C 100.684 -86.084 93.4082 -93.3594 81.1523 -93.3594 L 31.9824 -93.3594 C 19.7266 -93.3594 12.4512 -86.084 12.4512 -73.8281 L 12.4512 10.4004 C 12.4512 18.7988 18.0664 22.9492 24.5117 22.9492 Z M 31.7383 -5.76172 C 31.25 -5.12695 30.7617 -5.61523 30.7617 -6.25 L 30.7617 -70.8984 C 30.7617 -73.7305 31.8359 -75.0488 34.9121 -75.0488 L 78.2227 -75.0488 C 81.2988 -75.0488 82.373 -73.7305 82.373 -70.8984 L 82.373 -6.25 C 82.373 -5.61523 81.8848 -5.17578 81.3965 -5.76172 L 62.7441 -25.2441 C 60.3516 -27.6855 58.7891 -28.9062 56.543 -28.9062 C 54.3457 -28.9062 52.7832 -27.6855 50.3906 -25.2441 Z"/>
  </g>
  <g id="Heavy-M" transform="matrix(1 0 0 1 2581.39 1126)">
   <path d="M 22.9492 21.582 C 26.709 21.582 29.3945 20.1172 32.7637 16.6016 L 54.4434 -6.29883 C 54.7363 -6.5918 54.9805 -6.78711 55.2734 -6.78711 C 55.5664 -6.78711 55.8105 -6.5918 56.1035 -6.29883 L 77.8809 16.6504 C 81.2012 20.166 83.8379 21.582 87.6465 21.582 C 93.2617 21.582 98.1445 17.9688 98.1445 10.5469 L 98.1445 -73.4375 C 98.1445 -85.2051 91.4062 -91.9922 79.6387 -91.9922 L 30.957 -91.9922 C 19.1895 -91.9922 12.4512 -85.2051 12.4512 -73.4375 L 12.4512 10.5469 C 12.4512 17.9688 17.2852 21.582 22.9492 21.582 Z M 29.3457 -3.125 C 28.8086 -2.49023 28.2715 -2.92969 28.2715 -3.61328 L 28.2715 -71.1914 C 28.2715 -74.5117 29.7363 -76.1719 33.3008 -76.1719 L 77.2949 -76.1719 C 80.8594 -76.1719 82.3242 -74.5117 82.3242 -71.1914 L 82.3242 -3.61328 C 82.3242 -2.92969 81.7871 -2.53906 81.25 -3.125 L 60.5957 -24.3652 C 58.5449 -26.4648 57.1289 -27.4414 55.2734 -27.4414 C 53.418 -27.4414 52.002 -26.4648 50 -24.3652 Z"/>
  </g>
  <g id="Bold-M" transform="matrix(1 0 0 1 2286.12 1126)">
   <path d="M 21.1914 20.1172 C 24.5117 20.1172 26.8066 18.6523 30.6641 14.6973 L 53.0762 -8.44727 C 53.3691 -8.74023 53.6133 -8.93555 53.8574 -8.93555 C 54.1504 -8.93555 54.3945 -8.74023 54.6387 -8.44727 L 77.0996 14.6973 C 80.9082 18.7012 83.2031 20.1172 86.5723 20.1172 C 91.3086 20.1172 95.2637 17.0898 95.2637 10.6934 L 95.2637 -73.0469 C 95.2637 -84.2773 89.1113 -90.4785 77.9297 -90.4785 L 29.7852 -90.4785 C 18.6035 -90.4785 12.4512 -84.2773 12.4512 -73.0469 L 12.4512 10.6934 C 12.4512 17.0898 16.4551 20.1172 21.1914 20.1172 Z M 26.6113 -0.195312 C 26.0254 0.439453 25.5371 0.146484 25.5371 -0.683594 L 25.5371 -71.5332 C 25.5371 -75.3906 27.3926 -77.3926 31.4453 -77.3926 L 76.2695 -77.3926 C 80.3711 -77.3926 82.2266 -75.3906 82.2266 -71.5332 L 82.2266 -0.683594 C 82.2266 0.146484 81.6895 0.390625 81.1035 -0.195312 L 58.2031 -23.3887 C 56.543 -25.0488 55.3223 -25.7812 53.8574 -25.7812 C 52.3926 -25.7812 51.1719 -25.0488 49.5605 -23.3887 Z"/>
  </g>
  <g id="Semibold-M" transform="matrix(1 0 0 1 1990.39 1126)">
   <path d="M 19.9707 19.043 C 22.998 19.043 25 17.6758 29.248 13.3789 L 52.1484 -9.96094 C 52.3926 -10.2051 52.6367 -10.4004 52.8809 -10.4004 C 53.125 -10.4004 53.3691 -10.2051 53.6133 -9.96094 L 76.5137 13.3789 C 80.7129 17.6758 82.7637 19.043 85.791 19.043 C 89.9414 19.043 93.3105 16.4551 93.3105 10.7422 L 93.3105 -72.7539 C 93.3105 -83.5938 87.5488 -89.4531 76.8066 -89.4531 L 29.0039 -89.4531 C 18.2129 -89.4531 12.4512 -83.5938 12.4512 -72.7539 L 12.4512 10.7422 C 12.4512 16.4551 15.8691 19.043 19.9707 19.043 Z M 24.7559 1.85547 C 24.1699 2.49023 23.6328 2.19727 23.6328 1.36719 L 23.6328 -71.7773 C 23.6328 -75.9766 25.7324 -78.2715 30.1758 -78.2715 L 75.5859 -78.2715 C 80.0293 -78.2715 82.1289 -75.9766 82.1289 -71.7773 L 82.1289 1.36719 C 82.1289 2.19727 81.6406 2.44141 81.0059 1.85547 L 56.4941 -22.7051 C 55.1758 -24.0723 54.0527 -24.6094 52.8809 -24.6094 C 51.709 -24.6094 50.5859 -24.0723 49.2676 -22.7051 Z"/>
  </g>
  <g id="Medium-M" transform="matrix(1 0 0 1 1694.41 1126)">
   <path d="M 19.043 18.2617 C 21.875 18.2617 23.6328 16.9434 28.1738 12.3535 L 51.416 -11.084 C 51.6602 -11.3281 51.9043 -11.5234 52.1484 -11.5234 C 52.3926 -11.5234 52.5879 -11.3281 52.832 -11.084 L 76.123 12.3535 C 80.5664 16.8945 82.4219 18.2617 85.2051 18.2617 C 88.8672 18.2617 91.8457 16.0156 91.8457 10.8398 L 91.8457 -72.5586 C 91.8457 -83.1055 86.377 -88.623 75.9277 -88.623 L 28.3691 -88.623 C 17.9199 -88.623 12.4512 -83.1055 12.4512 -72.5586 L 12.4512 10.8398 C 12.4512 16.0156 15.3809 18.2617 19.043 18.2617 Z M 23.3398 3.36914 C 22.7051 4.05273 22.168 3.80859 22.168 2.88086 L 22.168 -71.9238 C 22.168 -76.4648 24.5117 -78.9062 29.248 -78.9062 L 75.0488 -78.9062 C 79.7363 -78.9062 82.0801 -76.4648 82.0801 -71.9238 L 82.0801 2.88086 C 82.0801 3.80859 81.5918 4.00391 80.9082 3.36914 L 55.2734 -22.2168 C 54.1016 -23.3398 53.125 -23.7793 52.1484 -23.7793 C 51.1719 -23.7793 50.1465 -23.3398 49.0234 -22.2168 Z"/>
  </g>
  <g id="Regular-M" transform="matrix(1 0 0 1 1398.67 1126)">
   <path d="M 17.8711 17.2363 C 20.3613 17.2363 21.875 15.9668 26.7578 11.0352 L 50.4883 -12.5977 C 50.7324 -12.793 50.9277 -12.9883 51.1719 -12.9883 C 51.3672 -12.9883 51.6113 -12.793 51.8555 -12.5977 L 75.5859 11.0352 C 80.3711 15.8691 81.9824 17.2363 84.4727 17.2363 C 87.5 17.2363 89.8926 15.3809 89.8926 10.9375 L 89.8926 -72.3145 C 89.8926 -82.4707 84.8633 -87.5977 74.7559 -87.5977 L 27.5879 -87.5977 C 17.4805 -87.5977 12.4512 -82.4707 12.4512 -72.3145 L 12.4512 10.9375 C 12.4512 15.3809 14.8438 17.2363 17.8711 17.2363 Z M 21.5332 5.37109 C 20.8496 6.05469 20.3125 5.85938 20.3125 4.93164 L 20.3125 -72.168 C 20.3125 -77.0508 22.9004 -79.7363 27.9785 -79.7363 L 74.3652 -79.7363 C 79.3945 -79.7363 82.0312 -77.0508 82.0312 -72.168 L 82.0312 4.93164 C 82.0312 5.85938 81.4941 6.00586 80.8105 5.37109 L 53.6133 -21.5332 C 52.7344 -22.4121 51.8555 -22.6562 51.1719 -22.6562 C 50.4395 -22.6562 49.6094 -22.4121 48.7305 -21.5332 Z"/>
  </g>
  <g id="Light-M" transform="matrix(1 0 0 1 1102.72 1126)">
   <path d="M 17.0898 16.5039 C 19.1895 16.5039 20.5078 15.4785 24.0723 11.8652 L 49.8047 -13.8184 C 50.0488 -14.0137 50.2441 -14.1602 50.4395 -14.1602 C 50.6348 -14.1602 50.7812 -14.0137 51.0254 -13.8184 L 76.7578 11.8652 C 80.3223 15.4297 81.6895 16.5039 83.7402 16.5039 C 86.4258 16.5039 88.3789 14.8438 88.3789 11.1328 L 88.3789 -72.4609 C 88.3789 -81.9824 83.5938 -86.8652 74.1211 -86.8652 L 26.709 -86.8652 C 17.2852 -86.8652 12.4512 -81.9824 12.4512 -72.4609 L 12.4512 11.1328 C 12.4512 14.8438 14.4531 16.5039 17.0898 16.5039 Z M 20.0195 7.51953 C 19.2383 8.34961 18.5059 8.20312 18.5059 7.03125 L 18.5059 -72.3145 C 18.5059 -77.832 21.3867 -80.8105 27.0508 -80.8105 L 73.8281 -80.8105 C 79.4434 -80.8105 82.373 -77.832 82.373 -72.3145 L 82.373 7.03125 C 82.373 8.20312 81.6406 8.34961 80.8105 7.51953 L 52.5391 -20.5566 C 51.8066 -21.2891 51.0742 -21.5332 50.4395 -21.5332 C 49.7559 -21.5332 49.0234 -21.2891 48.291 -20.5566 Z"/>
  </g>
  <g id="Thin-M" transform="matrix(1 0 0 1 806.984 1126)">
   <path d="M 16.1133 15.5273 C 17.5781 15.5273 18.6523 14.8438 20.5566 12.9395 L 48.9258 -15.4297 C 49.1699 -15.625 49.2676 -15.7715 49.4141 -15.7715 C 49.5605 -15.7715 49.707 -15.625 49.9023 -15.4297 L 78.3203 12.9395 C 80.2246 14.8438 81.2988 15.5273 82.7637 15.5273 C 84.9609 15.5273 86.4258 14.0625 86.4258 11.4746 L 86.4258 -72.6562 C 86.4258 -81.2988 81.9336 -85.8398 73.291 -85.8398 L 25.5859 -85.8398 C 16.9434 -85.8398 12.4512 -81.2988 12.4512 -72.6562 L 12.4512 11.4746 C 12.4512 14.0625 13.916 15.5273 16.1133 15.5273 Z M 18.0664 10.4004 C 17.0898 11.377 16.0645 11.2305 16.0645 9.81445 L 16.0645 -72.5586 C 16.0645 -78.9062 19.3848 -82.2266 25.7812 -82.2266 L 73.0957 -82.2266 C 79.4922 -82.2266 82.8125 -78.9062 82.8125 -72.5586 L 82.8125 9.81445 C 82.8125 11.2305 81.8359 11.4258 80.8105 10.4004 L 51.1719 -19.2383 C 50.5371 -19.873 50.0488 -20.0684 49.4141 -20.0684 C 48.8281 -20.0684 48.3398 -19.873 47.7051 -19.2383 Z"/>
  </g>
  <g id="Ultralight-M" transform="matrix(1 0 0 1 510.785 1126)">
   <path d="M 15.5762 15.0391 C 16.748 15.0391 17.7246 14.502 18.7012 13.5254 L 48.4863 -16.2598 C 48.6816 -16.4551 48.8281 -16.5527 48.9258 -16.5527 C 49.0723 -16.5527 49.1699 -16.4551 49.3652 -16.2598 L 79.1504 13.5254 C 80.1758 14.5508 81.1035 15.0391 82.2754 15.0391 C 84.1797 15.0391 85.4004 13.6719 85.4004 11.6211 L 85.4004 -72.8027 C 85.4004 -80.957 81.0547 -85.3516 72.8516 -85.3516 L 25 -85.3516 C 16.7969 -85.3516 12.4512 -80.957 12.4512 -72.8027 L 12.4512 11.6211 C 12.4512 13.6719 13.6719 15.0391 15.5762 15.0391 Z M 17.041 11.8652 C 15.9668 12.9395 14.8438 12.793 14.8438 11.2305 L 14.8438 -72.6562 C 14.8438 -79.4434 18.3594 -82.959 25.0977 -82.959 L 72.7539 -82.959 C 79.4922 -82.959 83.0078 -79.4434 83.0078 -72.6562 L 83.0078 11.2305 C 83.0078 12.793 81.9336 12.9883 80.8105 11.8652 L 50.4883 -18.5547 C 49.9023 -19.1406 49.5117 -19.2871 48.9258 -19.2871 C 48.3887 -19.2871 47.9492 -19.1406 47.4121 -18.5547 Z"/>
  </g>
  <g id="Black-S" transform="matrix(1 0 0 1 2889.16 696)">
   <path d="M 19.0918 10.2539 C 22.3145 10.2539 24.707 9.0332 27.002 6.5918 L 43.5547 -11.1816 C 43.7988 -11.4258 43.9941 -11.5723 44.2383 -11.5723 C 44.4824 -11.5723 44.6777 -11.4258 44.9219 -11.1816 L 61.5234 6.64062 C 63.8184 9.13086 66.1133 10.2539 69.3848 10.2539 C 74.3652 10.2539 78.7109 7.03125 78.7109 0.537109 L 78.7109 -65.4297 C 78.7109 -75 73.0469 -80.6641 63.4766 -80.6641 L 25 -80.6641 C 15.4297 -80.6641 9.76562 -75 9.76562 -65.4297 L 9.76562 0.537109 C 9.76562 7.03125 14.1113 10.2539 19.0918 10.2539 Z M 24.707 -11.9629 C 24.3164 -11.4746 23.9258 -11.8652 23.9258 -12.3535 L 23.9258 -63.1836 C 23.9258 -65.4297 24.8047 -66.5039 27.2461 -66.5039 L 61.2305 -66.5039 C 63.6719 -66.5039 64.5508 -65.4297 64.5508 -63.1836 L 64.5508 -12.3535 C 64.5508 -11.8652 64.1602 -11.5234 63.7695 -11.9629 L 49.0234 -27.3438 C 47.168 -29.248 45.9473 -30.1758 44.2383 -30.1758 C 42.5293 -30.1758 41.3086 -29.248 39.4531 -27.3438 Z"/>
  </g>
  <g id="Heavy-S" transform="matrix(1 0 0 1 2593.35 696)">
   <path d="M 17.9688 9.32617 C 20.9473 9.32617 23.0957 8.10547 25.8789 5.17578 L 42.6758 -12.5488 C 42.9199 -12.7441 43.1152 -12.8906 43.3594 -12.8906 C 43.5547 -12.8906 43.75 -12.7441 43.9941 -12.5488 L 60.8398 5.22461 C 63.623 8.1543 65.7227 9.32617 68.7012 9.32617 C 73.1445 9.32617 76.9043 6.49414 76.9043 0.585938 L 76.9043 -65.1367 C 76.9043 -74.4141 71.6309 -79.7363 62.4023 -79.7363 L 24.3164 -79.7363 C 15.0391 -79.7363 9.76562 -74.4141 9.76562 -65.1367 L 9.76562 0.585938 C 9.76562 6.49414 13.5742 9.32617 17.9688 9.32617 Z M 23.0469 -10.2051 C 22.6074 -9.7168 22.2656 -10.0586 22.2656 -10.5469 L 22.2656 -63.3789 C 22.2656 -65.9668 23.3887 -67.2363 26.123 -67.2363 L 60.5957 -67.2363 C 63.3301 -67.2363 64.4531 -65.9668 64.4531 -63.3789 L 64.4531 -10.5469 C 64.4531 -10.0586 64.0625 -9.76562 63.6719 -10.2051 L 47.5098 -26.8066 C 45.8984 -28.418 44.7754 -29.1504 43.3594 -29.1504 C 41.8945 -29.1504 40.7715 -28.418 39.209 -26.8066 Z"/>
  </g>
  <g id="Bold-S" transform="matrix(1 0 0 1 2297.62 696)">
   <path d="M 16.748 8.25195 C 19.4336 8.25195 21.2402 7.08008 24.6582 3.61328 L 41.6992 -14.0137 C 41.9434 -14.2578 42.1387 -14.4043 42.334 -14.4043 C 42.5781 -14.4043 42.7734 -14.2578 42.9688 -14.0137 L 60.0586 3.61328 C 63.4277 7.08008 65.2344 8.25195 67.9688 8.25195 C 71.7285 8.25195 74.9512 5.85938 74.9512 0.683594 L 74.9512 -64.7949 C 74.9512 -73.7305 70.0684 -78.6621 61.1816 -78.6621 L 23.5352 -78.6621 C 14.6484 -78.6621 9.76562 -73.7305 9.76562 -64.7949 L 9.76562 0.683594 C 9.76562 5.85938 12.9395 8.25195 16.748 8.25195 Z M 21.1426 -8.20312 C 20.7031 -7.71484 20.3613 -8.00781 20.3613 -8.59375 L 20.3613 -63.623 C 20.3613 -66.5039 21.7773 -68.0664 24.8047 -68.0664 L 59.8633 -68.0664 C 62.9395 -68.0664 64.3555 -66.5039 64.3555 -63.623 L 64.3555 -8.59375 C 64.3555 -8.00781 63.9648 -7.76367 63.5742 -8.20312 L 45.752 -26.1719 C 44.4824 -27.4902 43.5059 -28.0273 42.334 -28.0273 C 41.2109 -28.0273 40.2344 -27.4902 38.916 -26.1719 Z"/>
  </g>
  <g id="Semibold-S" transform="matrix(1 0 0 1 2001.62 696)">
   <path d="M 15.8691 7.51953 C 18.4082 7.51953 20.0195 6.34766 23.7793 2.53906 L 41.0645 -15.0879 C 41.2598 -15.2832 41.4551 -15.4297 41.6504 -15.4297 C 41.8457 -15.4297 42.041 -15.2832 42.2852 -15.0879 L 59.5703 2.53906 C 63.2812 6.29883 64.9414 7.51953 67.4316 7.51953 C 70.8008 7.51953 73.5352 5.41992 73.5352 0.732422 L 73.5352 -64.5996 C 73.5352 -73.291 68.9941 -77.9297 60.3516 -77.9297 L 22.998 -77.9297 C 14.3555 -77.9297 9.76562 -73.291 9.76562 -64.5996 L 9.76562 0.732422 C 9.76562 5.41992 12.5488 7.51953 15.8691 7.51953 Z M 19.873 -6.83594 C 19.4336 -6.34766 19.0918 -6.5918 19.0918 -7.22656 L 19.0918 -63.8184 C 19.0918 -66.8945 20.6543 -68.6035 23.9258 -68.6035 L 59.375 -68.6035 C 62.6953 -68.6035 64.2578 -66.8945 64.2578 -63.8184 L 64.2578 -7.22656 C 64.2578 -6.5918 63.916 -6.39648 63.4766 -6.83594 L 44.5801 -25.7324 C 43.5059 -26.8555 42.5781 -27.2461 41.6504 -27.2461 C 40.7227 -27.2461 39.7949 -26.8555 38.7207 -25.7324 Z"/>
  </g>
  <g id="Medium-S" transform="matrix(1 0 0 1 1705.42 696)">
   <path d="M 15.2344 6.98242 C 17.5781 6.98242 19.043 5.81055 23.1445 1.70898 L 40.5273 -15.8691 C 40.7715 -16.0645 40.918 -16.2109 41.1621 -16.2109 C 41.3574 -16.2109 41.5527 -16.0645 41.748 -15.8691 L 59.1309 1.70898 C 63.1836 5.76172 64.6973 6.98242 67.041 6.98242 C 70.0684 6.98242 72.5098 5.12695 72.5098 0.78125 L 72.5098 -64.4043 C 72.5098 -72.9492 68.1641 -77.3438 59.7168 -77.3438 L 22.5586 -77.3438 C 14.1113 -77.3438 9.76562 -72.9492 9.76562 -64.4043 L 9.76562 0.78125 C 9.76562 5.12695 12.207 6.98242 15.2344 6.98242 Z M 18.8477 -5.81055 C 18.4082 -5.32227 18.0664 -5.51758 18.0664 -6.15234 L 18.0664 -63.916 C 18.0664 -67.2363 19.8242 -69.043 23.291 -69.043 L 58.9844 -69.043 C 62.4512 -69.043 64.209 -67.2363 64.209 -63.916 L 64.209 -6.15234 C 64.209 -5.51758 63.8672 -5.37109 63.4277 -5.81055 L 43.7012 -25.4395 C 42.7734 -26.3672 41.9434 -26.6602 41.1621 -26.6602 C 40.3809 -26.6602 39.502 -26.3672 38.5742 -25.4395 Z"/>
  </g>
  <g id="Regular-S" transform="matrix(1 0 0 1 1409.39 696)">
   <path d="M 14.4043 6.25 C 16.5527 6.25 17.8223 5.07812 22.2656 0.634766 L 39.8926 -16.8945 C 40.0879 -17.0898 40.2832 -17.2363 40.4785 -17.2363 C 40.6738 -17.2363 40.8203 -17.0898 41.0156 -16.8945 L 58.6426 0.634766 C 63.0371 5.0293 64.3555 6.25 66.5527 6.25 C 69.0918 6.25 71.1426 4.6875 71.1426 0.830078 L 71.1426 -64.209 C 71.1426 -72.4609 67.0898 -76.6602 58.8867 -76.6602 L 22.0215 -76.6602 C 13.8184 -76.6602 9.76562 -72.4609 9.76562 -64.209 L 9.76562 0.830078 C 9.76562 4.6875 11.8164 6.25 14.4043 6.25 Z M 17.5781 -4.44336 C 17.1387 -4.00391 16.7969 -4.15039 16.7969 -4.78516 L 16.7969 -64.1113 C 16.7969 -67.627 18.7012 -69.5801 22.4121 -69.5801 L 58.4961 -69.5801 C 62.207 -69.5801 64.1113 -67.627 64.1113 -64.1113 L 64.1113 -4.78516 C 64.1113 -4.15039 63.7695 -4.05273 63.3301 -4.44336 L 42.5293 -25 C 41.7969 -25.7324 41.0156 -25.8789 40.4785 -25.8789 C 39.8926 -25.8789 39.1113 -25.7324 38.4277 -25 Z"/>
  </g>
  <g id="Light-S" transform="matrix(1 0 0 1 1113.34 696)">
   <path d="M 13.7207 5.56641 C 15.4785 5.56641 16.6016 4.6875 19.9219 1.36719 L 39.3066 -17.9688 C 39.502 -18.1641 39.6484 -18.2617 39.7949 -18.2617 C 39.9414 -18.2617 40.1367 -18.1641 40.2832 -17.9688 L 59.668 1.36719 C 62.9883 4.63867 64.1113 5.56641 65.8691 5.56641 C 68.1152 5.56641 69.8242 4.19922 69.8242 1.02539 L 69.8242 -64.3555 C 69.8242 -72.0215 65.9668 -75.9766 58.3496 -75.9766 L 21.2891 -75.9766 C 13.623 -75.9766 9.76562 -72.0215 9.76562 -64.3555 L 9.76562 1.02539 C 9.76562 4.19922 11.4746 5.56641 13.7207 5.56641 Z M 16.2598 -2.53906 C 15.6738 -1.95312 15.1855 -2.09961 15.1855 -2.92969 L 15.1855 -64.2578 C 15.1855 -68.3105 17.3828 -70.5566 21.582 -70.5566 L 58.0566 -70.5566 C 62.2559 -70.5566 64.4043 -68.3105 64.4043 -64.2578 L 64.4043 -2.92969 C 64.4043 -2.09961 63.916 -2.00195 63.3301 -2.53906 L 41.6016 -24.1211 C 40.9668 -24.7559 40.332 -24.9023 39.7949 -24.9023 C 39.2578 -24.9023 38.623 -24.7559 37.9883 -24.1211 Z"/>
  </g>
  <g id="Thin-S" transform="matrix(1 0 0 1 817.482 696)">
   <path d="M 12.8418 4.73633 C 14.0625 4.73633 14.9902 4.10156 16.7969 2.29492 L 38.5254 -19.3848 C 38.6719 -19.5801 38.8184 -19.6777 38.916 -19.6777 C 39.0625 -19.6777 39.1602 -19.5801 39.3555 -19.3848 L 61.084 2.29492 C 62.8906 4.15039 63.7695 4.73633 65.0391 4.73633 C 66.8457 4.73633 68.1152 3.56445 68.1152 1.26953 L 68.1152 -64.502 C 68.1152 -71.4844 64.502 -75.0977 57.6172 -75.0977 L 20.2637 -75.0977 C 13.3789 -75.0977 9.76562 -71.4844 9.76562 -64.502 L 9.76562 1.26953 C 9.76562 3.56445 11.0352 4.73633 12.8418 4.73633 Z M 14.5508 -0.0488281 C 13.8184 0.683594 13.0859 0.585938 13.0859 -0.488281 L 13.0859 -64.4043 C 13.0859 -69.2383 15.5762 -71.7773 20.459 -71.7773 L 57.4219 -71.7773 C 62.2559 -71.7773 64.7949 -69.2383 64.7949 -64.4043 L 64.7949 -0.488281 C 64.7949 0.585938 64.1113 0.732422 63.3301 -0.0488281 L 40.3809 -22.9492 C 39.8438 -23.4863 39.4043 -23.6328 38.916 -23.6328 C 38.4766 -23.6328 37.9883 -23.4863 37.5 -22.9492 Z"/>
  </g>
  <g id="Ultralight-S" transform="matrix(1 0 0 1 521.235 696)">
   <path d="M 12.3535 4.29688 C 13.3301 4.29688 14.1602 3.80859 15.1855 2.83203 L 38.1348 -20.166 C 38.2812 -20.3125 38.3789 -20.4102 38.4766 -20.4102 C 38.5742 -20.4102 38.6719 -20.3125 38.8184 -20.166 L 61.8164 2.83203 C 62.8418 3.85742 63.623 4.29688 64.5996 4.29688 C 66.1621 4.29688 67.1875 3.22266 67.1875 1.41602 L 67.1875 -64.6484 C 67.1875 -71.1426 63.7695 -74.6094 57.2266 -74.6094 L 19.7266 -74.6094 C 13.2324 -74.6094 9.76562 -71.1426 9.76562 -64.6484 L 9.76562 1.41602 C 9.76562 3.22266 10.791 4.29688 12.3535 4.29688 Z M 13.623 1.26953 C 12.8418 2.09961 11.9629 2.00195 11.9629 0.78125 L 11.9629 -64.5508 C 11.9629 -69.7266 14.6484 -72.4121 19.873 -72.4121 L 57.0801 -72.4121 C 62.3047 -72.4121 64.9902 -69.7266 64.9902 -64.5508 L 64.9902 0.78125 C 64.9902 2.00195 64.209 2.09961 63.3301 1.26953 L 39.7461 -22.3633 C 39.3066 -22.8027 38.916 -22.9492 38.4766 -22.9492 C 38.0371 -22.9492 37.6953 -22.8027 37.207 -22.3633 Z"/>
  </g>
 </g>
</svg>
