<?xml version="1.0" encoding="UTF-8"?>
<!--Generator: Apple Native CoreSVG 123-->
<!DOCTYPE svg
PUBLIC "-//W3C//DTD SVG 1.1//EN"
       "http://www.w3.org/Graphics/SVG/1.1/DTD/svg11.dtd">
<svg version="1.1" xmlns="http://www.w3.org/2000/svg" xmlns:xlink="http://www.w3.org/1999/xlink" width="3300" height="2200">
 <!--glyph: "uni10017C.medium", point size: 100.000000, font version: "Version 15.0d7e11", template writer version: "5"-->
 <g id="Notes">
  <rect height="2200" id="artboard" style="fill:white;opacity:1" width="3300" x="0" y="0"/>
  <line id="" style="fill:none;stroke:black;opacity:1;stroke-width:0.5;" x1="263" x2="3036" y1="292" y2="292"/>
  <text style="stroke:none;fill:black;font-family:-apple-system,&quot;SF Pro Display&quot;,&quot;SF Pro Text&quot;,Helvetica,sans-serif;font-weight:bold;" transform="matrix(1 0 0 1 263 322)">Weight/Scale Variations</text>
  <text style="stroke:none;fill:black;font-family:-apple-system,&quot;SF Pro Display&quot;,&quot;SF Pro Text&quot;,Helvetica,sans-serif;text-anchor:middle;" transform="matrix(1 0 0 1 559.711 322)">Ultralight</text>
  <text style="stroke:none;fill:black;font-family:-apple-system,&quot;SF Pro Display&quot;,&quot;SF Pro Text&quot;,Helvetica,sans-serif;text-anchor:middle;" transform="matrix(1 0 0 1 856.422 322)">Thin</text>
  <text style="stroke:none;fill:black;font-family:-apple-system,&quot;SF Pro Display&quot;,&quot;SF Pro Text&quot;,Helvetica,sans-serif;text-anchor:middle;" transform="matrix(1 0 0 1 1153.13 322)">Light</text>
  <text style="stroke:none;fill:black;font-family:-apple-system,&quot;SF Pro Display&quot;,&quot;SF Pro Text&quot;,Helvetica,sans-serif;text-anchor:middle;" transform="matrix(1 0 0 1 1449.84 322)">Regular</text>
  <text style="stroke:none;fill:black;font-family:-apple-system,&quot;SF Pro Display&quot;,&quot;SF Pro Text&quot;,Helvetica,sans-serif;text-anchor:middle;" transform="matrix(1 0 0 1 1746.56 322)">Medium</text>
  <text style="stroke:none;fill:black;font-family:-apple-system,&quot;SF Pro Display&quot;,&quot;SF Pro Text&quot;,Helvetica,sans-serif;text-anchor:middle;" transform="matrix(1 0 0 1 2043.27 322)">Semibold</text>
  <text style="stroke:none;fill:black;font-family:-apple-system,&quot;SF Pro Display&quot;,&quot;SF Pro Text&quot;,Helvetica,sans-serif;text-anchor:middle;" transform="matrix(1 0 0 1 2339.98 322)">Bold</text>
  <text style="stroke:none;fill:black;font-family:-apple-system,&quot;SF Pro Display&quot;,&quot;SF Pro Text&quot;,Helvetica,sans-serif;text-anchor:middle;" transform="matrix(1 0 0 1 2636.69 322)">Heavy</text>
  <text style="stroke:none;fill:black;font-family:-apple-system,&quot;SF Pro Display&quot;,&quot;SF Pro Text&quot;,Helvetica,sans-serif;text-anchor:middle;" transform="matrix(1 0 0 1 2933.4 322)">Black</text>
  <line id="" style="fill:none;stroke:black;opacity:1;stroke-width:0.5;" x1="263" x2="3036" y1="1903" y2="1903"/>
  <g id="" transform="matrix(1 0 0 1 263 1933)">
   <path d="M 9.24805 0.830078 C 13.5547 0.830078 17.1387 -2.74414 17.1387 -7.05078 C 17.1387 -11.3574 13.5449 -14.9316 9.23828 -14.9316 C 4.94141 -14.9316 1.36719 -11.3574 1.36719 -7.05078 C 1.36719 -2.74414 4.95117 0.830078 9.24805 0.830078 Z M 9.24805 -0.654297 C 5.70312 -0.654297 2.87109 -3.49609 2.87109 -7.05078 C 2.87109 -10.6055 5.69336 -13.4473 9.23828 -13.4473 C 12.793 -13.4473 15.6348 -10.6055 15.6445 -7.05078 C 15.6543 -3.49609 12.8027 -0.654297 9.24805 -0.654297 Z M 9.22852 -3.42773 C 9.69727 -3.42773 9.9707 -3.74023 9.9707 -4.25781 L 9.9707 -6.31836 L 12.1973 -6.31836 C 12.6953 -6.31836 13.0371 -6.57227 13.0371 -7.04102 C 13.0371 -7.51953 12.7148 -7.7832 12.1973 -7.7832 L 9.9707 -7.7832 L 9.9707 -10.0098 C 9.9707 -10.5273 9.69727 -10.8496 9.22852 -10.8496 C 8.75977 -10.8496 8.50586 -10.5078 8.50586 -10.0098 L 8.50586 -7.7832 L 6.29883 -7.7832 C 5.78125 -7.7832 5.44922 -7.51953 5.44922 -7.04102 C 5.44922 -6.57227 5.80078 -6.31836 6.29883 -6.31836 L 8.50586 -6.31836 L 8.50586 -4.25781 C 8.50586 -3.75977 8.75977 -3.42773 9.22852 -3.42773 Z"/>
  </g>
  <g id="" transform="matrix(1 0 0 1 281.506 1933)">
   <path d="M 11.709 2.91016 C 17.1582 2.91016 21.6699 -1.60156 21.6699 -7.05078 C 21.6699 -12.4902 17.1484 -17.0117 11.6992 -17.0117 C 6.25977 -17.0117 1.74805 -12.4902 1.74805 -7.05078 C 1.74805 -1.60156 6.26953 2.91016 11.709 2.91016 Z M 11.709 1.25 C 7.09961 1.25 3.41797 -2.44141 3.41797 -7.05078 C 3.41797 -11.6504 7.08984 -15.3516 11.6992 -15.3516 C 16.3086 -15.3516 20 -11.6504 20.0098 -7.05078 C 20.0195 -2.44141 16.3184 1.25 11.709 1.25 Z M 11.6895 -2.41211 C 12.207 -2.41211 12.5195 -2.77344 12.5195 -3.33984 L 12.5195 -6.23047 L 15.5762 -6.23047 C 16.123 -6.23047 16.5039 -6.51367 16.5039 -7.03125 C 16.5039 -7.55859 16.1426 -7.86133 15.5762 -7.86133 L 12.5195 -7.86133 L 12.5195 -10.9277 C 12.5195 -11.5039 12.207 -11.8555 11.6895 -11.8555 C 11.1719 -11.8555 10.8789 -11.4844 10.8789 -10.9277 L 10.8789 -7.86133 L 7.83203 -7.86133 C 7.26562 -7.86133 6.89453 -7.55859 6.89453 -7.03125 C 6.89453 -6.51367 7.28516 -6.23047 7.83203 -6.23047 L 10.8789 -6.23047 L 10.8789 -3.33984 C 10.8789 -2.79297 11.1719 -2.41211 11.6895 -2.41211 Z"/>
  </g>
  <g id="" transform="matrix(1 0 0 1 304.924 1933)">
   <path d="M 14.9707 5.67383 C 21.9336 5.67383 27.6953 -0.078125 27.6953 -7.04102 C 27.6953 -14.0039 21.9238 -19.7559 14.9609 -19.7559 C 8.00781 -19.7559 2.25586 -14.0039 2.25586 -7.04102 C 2.25586 -0.078125 8.01758 5.67383 14.9707 5.67383 Z M 14.9707 3.85742 C 8.93555 3.85742 4.08203 -1.00586 4.08203 -7.04102 C 4.08203 -13.0762 8.92578 -17.9395 14.9609 -17.9395 C 21.0059 -17.9395 25.8594 -13.0762 25.8691 -7.04102 C 25.8789 -1.00586 21.0156 3.85742 14.9707 3.85742 Z M 14.9512 -1.06445 C 15.5176 -1.06445 15.8691 -1.45508 15.8691 -2.06055 L 15.8691 -6.13281 L 20.1074 -6.13281 C 20.6934 -6.13281 21.1133 -6.46484 21.1133 -7.02148 C 21.1133 -7.59766 20.7227 -7.93945 20.1074 -7.93945 L 15.8691 -7.93945 L 15.8691 -12.1875 C 15.8691 -12.8027 15.5176 -13.1934 14.9512 -13.1934 C 14.3848 -13.1934 14.0625 -12.7832 14.0625 -12.1875 L 14.0625 -7.93945 L 9.83398 -7.93945 C 9.21875 -7.93945 8.80859 -7.59766 8.80859 -7.02148 C 8.80859 -6.46484 9.23828 -6.13281 9.83398 -6.13281 L 14.0625 -6.13281 L 14.0625 -2.06055 C 14.0625 -1.47461 14.3848 -1.06445 14.9512 -1.06445 Z"/>
  </g>
  <text style="stroke:none;fill:black;font-family:-apple-system,&quot;SF Pro Display&quot;,&quot;SF Pro Text&quot;,Helvetica,sans-serif;font-weight:bold;" transform="matrix(1 0 0 1 263 1953)">Design Variations</text>
  <text style="stroke:none;fill:black;font-family:-apple-system,&quot;SF Pro Display&quot;,&quot;SF Pro Text&quot;,Helvetica,sans-serif;" transform="matrix(1 0 0 1 263 1971)">Symbols are supported in up to nine weights and three scales.</text>
  <text style="stroke:none;fill:black;font-family:-apple-system,&quot;SF Pro Display&quot;,&quot;SF Pro Text&quot;,Helvetica,sans-serif;" transform="matrix(1 0 0 1 263 1989)">For optimal layout with text and other symbols, vertically align</text>
  <text style="stroke:none;fill:black;font-family:-apple-system,&quot;SF Pro Display&quot;,&quot;SF Pro Text&quot;,Helvetica,sans-serif;" transform="matrix(1 0 0 1 263 2007)">symbols with the adjacent text.</text>
  <rect height="14" id="" style="fill:#00AEEF;stroke:none;opacity:0.4;" width="3" x="776" y="1919"/>
  <g id="" transform="matrix(1 0 0 1 779 1933)">
   <path d="M 10.5273 0 L 12.373 0 L 7.17773 -14.0918 L 5.43945 -14.0918 L 0.244141 0 L 2.08984 0 L 3.50586 -4.0332 L 9.11133 -4.0332 Z M 6.2793 -11.9531 L 6.33789 -11.9531 L 8.59375 -5.52734 L 4.02344 -5.52734 Z"/>
  </g>
  <rect height="14" id="" style="fill:#00AEEF;stroke:none;opacity:0.4;" width="3" x="791.617" y="1919"/>
  <text style="stroke:none;fill:black;font-family:-apple-system,&quot;SF Pro Display&quot;,&quot;SF Pro Text&quot;,Helvetica,sans-serif;font-weight:bold;" transform="matrix(1 0 0 1 776 1953)">Margins</text>
  <text style="stroke:none;fill:black;font-family:-apple-system,&quot;SF Pro Display&quot;,&quot;SF Pro Text&quot;,Helvetica,sans-serif;" transform="matrix(1 0 0 1 776 1971)">Leading and trailing margins on the left and right side of each symbol</text>
  <text style="stroke:none;fill:black;font-family:-apple-system,&quot;SF Pro Display&quot;,&quot;SF Pro Text&quot;,Helvetica,sans-serif;" transform="matrix(1 0 0 1 776 1989)">can be adjusted by modifying the width of the blue rectangles.</text>
  <text style="stroke:none;fill:black;font-family:-apple-system,&quot;SF Pro Display&quot;,&quot;SF Pro Text&quot;,Helvetica,sans-serif;" transform="matrix(1 0 0 1 776 2007)">Modifications are automatically applied proportionally to all</text>
  <text style="stroke:none;fill:black;font-family:-apple-system,&quot;SF Pro Display&quot;,&quot;SF Pro Text&quot;,Helvetica,sans-serif;" transform="matrix(1 0 0 1 776 2025)">scales and weights.</text>
  <g id="" transform="matrix(1 0 0 1 1289 1933)">
   <path d="M 2.83203 3.11523 L 4.375 4.6582 C 5.22461 5.48828 6.19141 5.41992 7.06055 4.46289 L 17.2754 -6.66016 C 17.7051 -6.36719 18.0957 -6.37695 18.5645 -6.47461 L 19.6094 -6.68945 L 20.3027 -5.99609 L 20.2539 -5.47852 C 20.1855 -4.95117 20.3516 -4.53125 20.8496 -4.0332 L 21.6602 -3.22266 C 22.168 -2.71484 22.8223 -2.68555 23.3008 -3.16406 L 26.5527 -6.41602 C 27.0312 -6.89453 27.0117 -7.54883 26.5039 -8.05664 L 25.6836 -8.87695 C 25.1855 -9.375 24.7754 -9.55078 24.2383 -9.47266 L 23.7109 -9.41406 L 23.0566 -10.0781 L 23.3398 -11.2207 C 23.4863 -11.7871 23.3398 -12.2559 22.7148 -12.8613 L 20.3027 -15.2539 C 16.7578 -18.7793 12.2266 -18.6719 9.11133 -15.5371 C 8.69141 -15.1074 8.64258 -14.5215 8.91602 -14.0918 C 9.15039 -13.7207 9.62891 -13.4961 10.2734 -13.6621 C 11.7871 -14.043 13.3008 -13.9258 14.7852 -12.9199 L 14.1602 -11.3379 C 13.9258 -10.752 13.9453 -10.2734 14.1797 -9.83398 L 3.01758 0.439453 C 2.08008 1.30859 1.97266 2.25586 2.83203 3.11523 Z M 10.6738 -15.1465 C 13.3398 -17.1387 16.6504 -16.8262 19.0527 -14.4141 L 21.6797 -11.8066 C 21.9141 -11.5723 21.9434 -11.3867 21.8848 -11.0938 L 21.5039 -9.53125 L 23.0762 -7.95898 L 24.043 -8.04688 C 24.3262 -8.07617 24.4141 -8.05664 24.6387 -7.83203 L 25.2637 -7.20703 L 22.5098 -4.46289 L 21.8848 -5.07812 C 21.6602 -5.30273 21.6406 -5.40039 21.6699 -5.68359 L 21.7578 -6.64062 L 20.1953 -8.20312 L 18.5742 -7.89062 C 18.291 -7.83203 18.1445 -7.83203 17.9102 -8.07617 L 15.7324 -10.2539 C 15.5078 -10.4883 15.4785 -10.625 15.6055 -10.9473 L 16.5527 -13.2227 C 14.9512 -14.7559 12.8418 -15.6055 10.8008 -14.9512 C 10.7129 -14.9219 10.6445 -14.9414 10.6152 -14.9805 C 10.5859 -15.0293 10.5859 -15.0781 10.6738 -15.1465 Z M 4.10156 2.41211 C 3.61328 1.91406 3.78906 1.61133 4.12109 1.30859 L 15.0781 -8.80859 L 16.3086 -7.57812 L 6.15234 3.34961 C 5.84961 3.68164 5.46875 3.7793 5.06836 3.37891 Z"/>
  </g>
  <text style="stroke:none;fill:black;font-family:-apple-system,&quot;SF Pro Display&quot;,&quot;SF Pro Text&quot;,Helvetica,sans-serif;font-weight:bold;" transform="matrix(1 0 0 1 1289 1953)">Exporting</text>
  <text style="stroke:none;fill:black;font-family:-apple-system,&quot;SF Pro Display&quot;,&quot;SF Pro Text&quot;,Helvetica,sans-serif;" transform="matrix(1 0 0 1 1289 1971)">Symbols should be outlined when exporting to ensure the</text>
  <text style="stroke:none;fill:black;font-family:-apple-system,&quot;SF Pro Display&quot;,&quot;SF Pro Text&quot;,Helvetica,sans-serif;" transform="matrix(1 0 0 1 1289 1989)">design is preserved when submitting to Xcode.</text>
  <text id="template-version" style="stroke:none;fill:black;font-family:-apple-system,&quot;SF Pro Display&quot;,&quot;SF Pro Text&quot;,Helvetica,sans-serif;text-anchor:end;" transform="matrix(1 0 0 1 3036 1933)">Template v.1.0</text>
  <text style="stroke:none;fill:black;font-family:-apple-system,&quot;SF Pro Display&quot;,&quot;SF Pro Text&quot;,Helvetica,sans-serif;text-anchor:end;" transform="matrix(1 0 0 1 3036 1951)">Generated from plus</text>
  <text style="stroke:none;fill:black;font-family:-apple-system,&quot;SF Pro Display&quot;,&quot;SF Pro Text&quot;,Helvetica,sans-serif;text-anchor:end;" transform="matrix(1 0 0 1 3036 1969)">Typeset at 100 points</text>
  <text style="stroke:none;fill:black;font-family:-apple-system,&quot;SF Pro Display&quot;,&quot;SF Pro Text&quot;,Helvetica,sans-serif;" transform="matrix(1 0 0 1 263 726)">Small</text>
  <text style="stroke:none;fill:black;font-family:-apple-system,&quot;SF Pro Display&quot;,&quot;SF Pro Text&quot;,Helvetica,sans-serif;" transform="matrix(1 0 0 1 263 1156)">Medium</text>
  <text style="stroke:none;fill:black;font-family:-apple-system,&quot;SF Pro Display&quot;,&quot;SF Pro Text&quot;,Helvetica,sans-serif;" transform="matrix(1 0 0 1 263 1586)">Large</text>
 </g>
 <g id="Guides">
  <g id="H-reference" style="fill:#27AAE1;stroke:none;" transform="matrix(1 0 0 1 339 696)">
   <path d="M 54.9316 0 L 57.666 0 L 30.5664 -70.459 L 28.0762 -70.459 L 0.976562 0 L 3.66211 0 L 12.9395 -24.4629 L 45.7031 -24.4629 Z M 29.1992 -67.0898 L 29.4434 -67.0898 L 44.8242 -26.709 L 13.8184 -26.709 Z"/>
  </g>
  <line id="Baseline-S" style="fill:none;stroke:#27AAE1;opacity:1;stroke-width:0.577;" x1="263" x2="3036" y1="696" y2="696"/>
  <line id="Capline-S" style="fill:none;stroke:#27AAE1;opacity:1;stroke-width:0.577;" x1="263" x2="3036" y1="625.541" y2="625.541"/>
  <g id="H-reference" style="fill:#27AAE1;stroke:none;" transform="matrix(1 0 0 1 339 1126)">
   <path d="M 54.9316 0 L 57.666 0 L 30.5664 -70.459 L 28.0762 -70.459 L 0.976562 0 L 3.66211 0 L 12.9395 -24.4629 L 45.7031 -24.4629 Z M 29.1992 -67.0898 L 29.4434 -67.0898 L 44.8242 -26.709 L 13.8184 -26.709 Z"/>
  </g>
  <line id="Baseline-M" style="fill:none;stroke:#27AAE1;opacity:1;stroke-width:0.577;" x1="263" x2="3036" y1="1126" y2="1126"/>
  <line id="Capline-M" style="fill:none;stroke:#27AAE1;opacity:1;stroke-width:0.577;" x1="263" x2="3036" y1="1055.54" y2="1055.54"/>
  <g id="H-reference" style="fill:#27AAE1;stroke:none;" transform="matrix(1 0 0 1 339 1556)">
   <path d="M 54.9316 0 L 57.666 0 L 30.5664 -70.459 L 28.0762 -70.459 L 0.976562 0 L 3.66211 0 L 12.9395 -24.4629 L 45.7031 -24.4629 Z M 29.1992 -67.0898 L 29.4434 -67.0898 L 44.8242 -26.709 L 13.8184 -26.709 Z"/>
  </g>
  <line id="Baseline-L" style="fill:none;stroke:#27AAE1;opacity:1;stroke-width:0.577;" x1="263" x2="3036" y1="1556" y2="1556"/>
  <line id="Capline-L" style="fill:none;stroke:#27AAE1;opacity:1;stroke-width:0.577;" x1="263" x2="3036" y1="1485.54" y2="1485.54"/>
  <rect height="119.336" id="left-margin" style="fill:#00AEEF;stroke:none;opacity:0.4;" width="12.4512" x="1397.11" y="1030.79"/>
  <rect height="119.336" id="right-margin" style="fill:#00AEEF;stroke:none;opacity:0.4;" width="12.4512" x="1490.13" y="1030.79"/>
 </g>
 <g id="Symbols">
  <g id="Black-L" transform="matrix(1 0 0 1 2862.14 1556)">
   <path d="M 71.2891 20.3125 C 77.832 20.3125 83.3496 14.5508 83.3496 8.54492 L 83.3496 -23.0957 L 114.648 -23.0957 C 120.947 -23.0957 126.465 -28.6133 126.465 -35.2051 C 126.465 -41.748 120.947 -47.2656 114.648 -47.2656 L 83.3496 -47.2656 L 83.3496 -78.8574 C 83.3496 -85.1562 77.832 -90.6738 71.2891 -90.6738 C 64.6973 -90.6738 59.1797 -85.1562 59.1797 -78.8574 L 59.1797 -47.2656 L 27.8809 -47.2656 C 21.875 -47.2656 16.0645 -41.748 16.0645 -35.2051 C 16.0645 -28.6133 21.875 -23.0957 27.8809 -23.0957 L 59.1797 -23.0957 L 59.1797 8.54492 C 59.1797 14.5508 64.6973 20.3125 71.2891 20.3125 Z"/>
  </g>
  <g id="Heavy-L" transform="matrix(1 0 0 1 2566.33 1556)">
   <path d="M 70.3613 19.6289 C 76.0254 19.6289 80.7129 14.6973 80.7129 9.52148 L 80.7129 -24.8535 L 114.502 -24.8535 C 119.922 -24.8535 124.658 -29.541 124.658 -35.2051 C 124.658 -40.8203 119.922 -45.5078 114.502 -45.5078 L 80.7129 -45.5078 L 80.7129 -79.8828 C 80.7129 -85.3027 76.0254 -89.9902 70.3613 -89.9902 C 64.7461 -89.9902 60.0098 -85.3027 60.0098 -79.8828 L 60.0098 -45.5078 L 26.2207 -45.5078 C 21.0449 -45.5078 16.0645 -40.8203 16.0645 -35.2051 C 16.0645 -29.541 21.0449 -24.8535 26.2207 -24.8535 L 60.0098 -24.8535 L 60.0098 9.52148 C 60.0098 14.6973 64.7461 19.6289 70.3613 19.6289 Z"/>
  </g>
  <g id="Bold-L" transform="matrix(1 0 0 1 2270.62 1556)">
   <path d="M 69.3848 18.8477 C 73.9746 18.8477 77.7832 14.8926 77.7832 10.6445 L 77.7832 -26.7578 L 114.355 -26.7578 C 118.799 -26.7578 122.656 -30.5664 122.656 -35.1562 C 122.656 -39.7461 118.799 -43.6035 114.355 -43.6035 L 77.7832 -43.6035 L 77.7832 -80.957 C 77.7832 -85.4004 73.9746 -89.209 69.3848 -89.209 C 64.7949 -89.209 60.9375 -85.4004 60.9375 -80.957 L 60.9375 -43.6035 L 24.3652 -43.6035 C 20.0684 -43.6035 16.0645 -39.7461 16.0645 -35.1562 C 16.0645 -30.5664 20.0684 -26.7578 24.3652 -26.7578 L 60.9375 -26.7578 L 60.9375 10.6445 C 60.9375 14.8926 64.7949 18.8477 69.3848 18.8477 Z"/>
  </g>
  <g id="Semibold-L" transform="matrix(1 0 0 1 1974.59 1556)">
   <path d="M 68.6523 18.3105 C 72.5586 18.3105 75.7812 15.0391 75.7812 11.377 L 75.7812 -28.0762 L 114.258 -28.0762 C 118.018 -28.0762 121.289 -31.2988 121.289 -35.1562 C 121.289 -39.0137 118.018 -42.2363 114.258 -42.2363 L 75.7812 -42.2363 L 75.7812 -81.7383 C 75.7812 -85.498 72.5586 -88.6719 68.6523 -88.6719 C 64.7949 -88.6719 61.5723 -85.498 61.5723 -81.7383 L 61.5723 -42.2363 L 23.0957 -42.2363 C 19.4336 -42.2363 16.0645 -39.0137 16.0645 -35.1562 C 16.0645 -31.2988 19.4336 -28.0762 23.0957 -28.0762 L 61.5723 -28.0762 L 61.5723 11.377 C 61.5723 15.0391 64.7949 18.3105 68.6523 18.3105 Z"/>
  </g>
  <g id="Medium-L" transform="matrix(1 0 0 1 1678.42 1556)">
   <path d="M 68.1641 17.9199 C 71.4844 17.9199 74.2188 15.1367 74.2188 11.9629 L 74.2188 -29.1016 L 114.16 -29.1016 C 117.432 -29.1016 120.215 -31.8359 120.215 -35.1562 C 120.215 -38.4766 117.432 -41.2598 114.16 -41.2598 L 74.2188 -41.2598 L 74.2188 -82.3242 C 74.2188 -85.5469 71.4844 -88.2812 68.1641 -88.2812 C 64.7949 -88.2812 62.0605 -85.5469 62.0605 -82.3242 L 62.0605 -41.2598 L 22.1191 -41.2598 C 18.9453 -41.2598 16.0645 -38.4766 16.0645 -35.1562 C 16.0645 -31.8359 18.9453 -29.1016 22.1191 -29.1016 L 62.0605 -29.1016 L 62.0605 11.9629 C 62.0605 15.1367 64.7949 17.9199 68.1641 17.9199 Z"/>
  </g>
  <g id="Regular-L" transform="matrix(1 0 0 1 1382.39 1556)">
   <path d="M 67.4316 17.3828 C 70.0684 17.3828 72.2168 15.2832 72.2168 12.7441 L 72.2168 -30.3711 L 114.062 -30.3711 C 116.65 -30.3711 118.848 -32.5684 118.848 -35.1562 C 118.848 -37.793 116.65 -39.9414 114.062 -39.9414 L 72.2168 -39.9414 L 72.2168 -83.1055 C 72.2168 -85.6445 70.0684 -87.7441 67.4316 -87.7441 C 64.8438 -87.7441 62.6953 -85.6445 62.6953 -83.1055 L 62.6953 -39.9414 L 20.8496 -39.9414 C 18.2617 -39.9414 16.0645 -37.793 16.0645 -35.1562 C 16.0645 -32.5684 18.2617 -30.3711 20.8496 -30.3711 L 62.6953 -30.3711 L 62.6953 12.7441 C 62.6953 15.2832 64.8438 17.3828 67.4316 17.3828 Z"/>
  </g>
  <g id="Light-L" transform="matrix(1 0 0 1 1086.48 1556)">
   <path d="M 66.6504 16.748 C 68.6035 16.748 70.2148 15.1855 70.2148 13.2324 L 70.2148 -31.543 L 113.623 -31.543 C 115.576 -31.543 117.236 -33.1543 117.236 -35.1562 C 117.236 -37.1094 115.576 -38.7207 113.623 -38.7207 L 70.2148 -38.7207 L 70.2148 -83.5449 C 70.2148 -85.498 68.6035 -87.0605 66.6504 -87.0605 C 64.6973 -87.0605 63.0371 -85.498 63.0371 -83.5449 L 63.0371 -38.7207 L 19.6289 -38.7207 C 17.7246 -38.7207 16.0645 -37.1094 16.0645 -35.1562 C 16.0645 -33.1543 17.7246 -31.543 19.6289 -31.543 L 63.0371 -31.543 L 63.0371 13.2324 C 63.0371 15.1855 64.6973 16.748 66.6504 16.748 Z"/>
  </g>
  <g id="Thin-L" transform="matrix(1 0 0 1 790.846 1556)">
   <path d="M 65.5762 15.918 C 66.6992 15.918 67.5781 15.0391 67.5781 13.916 L 67.5781 -33.1055 L 113.037 -33.1055 C 114.16 -33.1055 115.088 -33.9844 115.088 -35.1074 C 115.088 -36.2305 114.16 -37.1582 113.037 -37.1582 L 67.5781 -37.1582 L 67.5781 -84.1797 C 67.5781 -85.2539 66.6992 -86.1816 65.5762 -86.1816 C 64.4531 -86.1816 63.5254 -85.2539 63.5254 -84.1797 L 63.5254 -37.1582 L 18.0664 -37.1582 C 16.9922 -37.1582 16.0645 -36.2305 16.0645 -35.1074 C 16.0645 -33.9844 16.9922 -33.1055 18.0664 -33.1055 L 63.5254 -33.1055 L 63.5254 13.916 C 63.5254 15.0391 64.4531 15.918 65.5762 15.918 Z"/>
  </g>
  <g id="Ultralight-L" transform="matrix(1 0 0 1 494.696 1556)">
   <path d="M 65.0391 15.5273 C 65.6738 15.5273 66.2598 14.9414 66.2598 14.2578 L 66.2598 -33.8867 L 112.744 -33.8867 C 113.428 -33.8867 113.965 -34.4238 113.965 -35.1074 C 113.965 -35.791 113.428 -36.3281 112.744 -36.3281 L 66.2598 -36.3281 L 66.2598 -84.4727 C 66.2598 -85.1562 65.6738 -85.6934 65.0391 -85.6934 C 64.3555 -85.6934 63.7695 -85.1562 63.7695 -84.4727 L 63.7695 -36.3281 L 17.2852 -36.3281 C 16.6016 -36.3281 16.0645 -35.791 16.0645 -35.1074 C 16.0645 -34.4238 16.6016 -33.8867 17.2852 -33.8867 L 63.7695 -33.8867 L 63.7695 14.2578 C 63.7695 14.9414 64.3555 15.5273 65.0391 15.5273 Z"/>
  </g>
  <g id="Black-M" transform="matrix(1 0 0 1 2877.39 1126)">
   <path d="M 56.0059 8.39844 C 62.0117 8.39844 67.041 3.02734 67.041 -2.39258 L 67.041 -24.1699 L 88.7695 -24.1699 C 94.5312 -24.1699 99.5605 -29.1992 99.5605 -35.2051 C 99.5605 -41.2109 94.5312 -46.2402 88.7695 -46.2402 L 67.041 -46.2402 L 67.041 -67.9688 C 67.041 -73.6816 62.0117 -78.7598 56.0059 -78.7598 C 50 -78.7598 44.9707 -73.6816 44.9707 -67.9688 L 44.9707 -46.2402 L 23.2422 -46.2402 C 17.8223 -46.2402 12.4512 -41.2109 12.4512 -35.2051 C 12.4512 -29.1992 17.8223 -24.1699 23.2422 -24.1699 L 44.9707 -24.1699 L 44.9707 -2.39258 C 44.9707 3.02734 50 8.39844 56.0059 8.39844 Z"/>
  </g>
  <g id="Heavy-M" transform="matrix(1 0 0 1 2581.44 1126)">
   <path d="M 55.2246 7.8125 C 60.4004 7.8125 64.6973 3.27148 64.6973 -1.41602 L 64.6973 -25.7324 L 88.7695 -25.7324 C 93.7012 -25.7324 98.0469 -30.0293 98.0469 -35.2051 C 98.0469 -40.332 93.7012 -44.6777 88.7695 -44.6777 L 64.6973 -44.6777 L 64.6973 -68.9453 C 64.6973 -73.877 60.4004 -78.1738 55.2246 -78.1738 C 50.0977 -78.1738 45.752 -73.877 45.752 -68.9453 L 45.752 -44.6777 L 21.7285 -44.6777 C 17.041 -44.6777 12.4512 -40.332 12.4512 -35.2051 C 12.4512 -30.0293 17.041 -25.7324 21.7285 -25.7324 L 45.752 -25.7324 L 45.752 -1.41602 C 45.752 3.27148 50.0977 7.8125 55.2246 7.8125 Z"/>
  </g>
  <g id="Bold-M" transform="matrix(1 0 0 1 2285.61 1126)">
   <path d="M 54.3945 7.17773 C 58.5938 7.17773 62.1094 3.51562 62.1094 -0.390625 L 62.1094 -27.4902 L 88.7207 -27.4902 C 92.7734 -27.4902 96.2891 -31.0059 96.2891 -35.2051 C 96.2891 -39.4043 92.7734 -42.9199 88.7207 -42.9199 L 62.1094 -42.9199 L 62.1094 -70.0195 C 62.1094 -74.0723 58.5938 -77.5391 54.3945 -77.5391 C 50.1953 -77.5391 46.6797 -74.0723 46.6797 -70.0195 L 46.6797 -42.9199 L 20.0195 -42.9199 C 16.1621 -42.9199 12.4512 -39.4043 12.4512 -35.2051 C 12.4512 -31.0059 16.1621 -27.4902 20.0195 -27.4902 L 46.6797 -27.4902 L 46.6797 -0.390625 C 46.6797 3.51562 50.1953 7.17773 54.3945 7.17773 Z"/>
  </g>
  <g id="Semibold-M" transform="matrix(1 0 0 1 1989.48 1126)">
   <path d="M 53.7598 6.68945 C 57.3242 6.68945 60.2539 3.66211 60.2539 0.341797 L 60.2539 -28.7109 L 88.7207 -28.7109 C 92.1387 -28.7109 95.1172 -31.6406 95.1172 -35.2051 C 95.1172 -38.7207 92.1387 -41.6992 88.7207 -41.6992 L 60.2539 -41.6992 L 60.2539 -70.752 C 60.2539 -74.1699 57.3242 -77.0996 53.7598 -77.0996 C 50.2441 -77.0996 47.3145 -74.1699 47.3145 -70.752 L 47.3145 -41.6992 L 18.8477 -41.6992 C 15.5273 -41.6992 12.4512 -38.7207 12.4512 -35.2051 C 12.4512 -31.6406 15.5273 -28.7109 18.8477 -28.7109 L 47.3145 -28.7109 L 47.3145 0.341797 C 47.3145 3.66211 50.2441 6.68945 53.7598 6.68945 Z"/>
  </g>
  <g id="Medium-M" transform="matrix(1 0 0 1 1693.24 1126)">
   <path d="M 53.3203 6.34766 C 56.3965 6.34766 58.8867 3.80859 58.8867 0.927734 L 58.8867 -29.6387 L 88.6719 -29.6387 C 91.6504 -29.6387 94.1895 -32.1289 94.1895 -35.2051 C 94.1895 -38.2324 91.6504 -40.7715 88.6719 -40.7715 L 58.8867 -40.7715 L 58.8867 -71.3379 C 58.8867 -74.2676 56.3965 -76.7578 53.3203 -76.7578 C 50.293 -76.7578 47.7539 -74.2676 47.7539 -71.3379 L 47.7539 -40.7715 L 17.9688 -40.7715 C 15.0879 -40.7715 12.4512 -38.2324 12.4512 -35.2051 C 12.4512 -32.1289 15.0879 -29.6387 17.9688 -29.6387 L 47.7539 -29.6387 L 47.7539 0.927734 C 47.7539 3.80859 50.293 6.34766 53.3203 6.34766 Z"/>
  </g>
  <g id="Regular-M" transform="matrix(1 0 0 1 1397.11 1126)">
   <path d="M 52.7344 5.9082 C 55.127 5.9082 57.1289 4.00391 57.1289 1.66016 L 57.1289 -30.8105 L 88.6719 -30.8105 C 91.0156 -30.8105 93.0176 -32.8125 93.0176 -35.2051 C 93.0176 -37.5977 91.0156 -39.5508 88.6719 -39.5508 L 57.1289 -39.5508 L 57.1289 -72.0703 C 57.1289 -74.4141 55.127 -76.3184 52.7344 -76.3184 C 50.3418 -76.3184 48.3887 -74.4141 48.3887 -72.0703 L 48.3887 -39.5508 L 16.7969 -39.5508 C 14.4531 -39.5508 12.4512 -37.5977 12.4512 -35.2051 C 12.4512 -32.8125 14.4531 -30.8105 16.7969 -30.8105 L 48.3887 -30.8105 L 48.3887 1.66016 C 48.3887 4.00391 50.3418 5.9082 52.7344 5.9082 Z"/>
  </g>
  <g id="Light-M" transform="matrix(1 0 0 1 1101.13 1126)">
   <path d="M 52.002 5.37109 C 53.8086 5.37109 55.3223 3.90625 55.3223 2.09961 L 55.3223 -31.8359 L 88.2812 -31.8359 C 90.0391 -31.8359 91.5527 -33.3496 91.5527 -35.1562 C 91.5527 -36.9629 90.0391 -38.4766 88.2812 -38.4766 L 55.3223 -38.4766 L 55.3223 -72.4609 C 55.3223 -74.2676 53.8086 -75.7324 52.002 -75.7324 C 50.1953 -75.7324 48.6816 -74.2676 48.6816 -72.4609 L 48.6816 -38.4766 L 15.7715 -38.4766 C 13.9648 -38.4766 12.4512 -36.9629 12.4512 -35.1562 C 12.4512 -33.3496 13.9648 -31.8359 15.7715 -31.8359 L 48.6816 -31.8359 L 48.6816 2.09961 C 48.6816 3.90625 50.1953 5.37109 52.002 5.37109 Z"/>
  </g>
  <g id="Thin-M" transform="matrix(1 0 0 1 805.372 1126)">
   <path d="M 51.0254 4.58984 C 52.0996 4.58984 52.9297 3.75977 52.9297 2.73438 L 52.9297 -33.252 L 87.7441 -33.252 C 88.7695 -33.252 89.6484 -34.082 89.6484 -35.1562 C 89.6484 -36.1816 88.7695 -37.0605 87.7441 -37.0605 L 52.9297 -37.0605 L 52.9297 -72.998 C 52.9297 -74.0723 52.0996 -74.9023 51.0254 -74.9023 C 50 -74.9023 49.1211 -74.0723 49.1211 -72.998 L 49.1211 -37.0605 L 14.3555 -37.0605 C 13.3301 -37.0605 12.4512 -36.1816 12.4512 -35.1562 C 12.4512 -34.082 13.3301 -33.252 14.3555 -33.252 L 49.1211 -33.252 L 49.1211 2.73438 C 49.1211 3.75977 50 4.58984 51.0254 4.58984 Z"/>
  </g>
  <g id="Ultralight-M" transform="matrix(1 0 0 1 509.15 1126)">
   <path d="M 50.5371 4.19922 C 51.2207 4.19922 51.7578 3.66211 51.7578 3.02734 L 51.7578 -33.9355 L 87.4512 -33.9355 C 88.1348 -33.9355 88.6719 -34.4727 88.6719 -35.1562 C 88.6719 -35.791 88.1348 -36.3281 87.4512 -36.3281 L 51.7578 -36.3281 L 51.7578 -73.291 C 51.7578 -73.9746 51.2207 -74.5117 50.5371 -74.5117 C 49.9023 -74.5117 49.3652 -73.9746 49.3652 -73.291 L 49.3652 -36.3281 L 13.623 -36.3281 C 12.9883 -36.3281 12.4512 -35.791 12.4512 -35.1562 C 12.4512 -34.4727 12.9883 -33.9355 13.623 -33.9355 L 49.3652 -33.9355 L 49.3652 3.02734 C 49.3652 3.66211 49.9023 4.19922 50.5371 4.19922 Z"/>
  </g>
  <g id="Black-S" transform="matrix(1 0 0 1 2889.55 696)">
   <path d="M 43.8477 -1.07422 C 48.4863 -1.07422 52.3926 -5.22461 52.3926 -9.42383 L 52.3926 -26.6602 L 69.5801 -26.6602 C 74.0234 -26.6602 77.9297 -30.5664 77.9297 -35.2051 C 77.9297 -39.8438 74.0234 -43.75 69.5801 -43.75 L 52.3926 -43.75 L 52.3926 -60.9375 C 52.3926 -65.3809 48.4863 -69.2871 43.8477 -69.2871 C 39.209 -69.2871 35.3027 -65.3809 35.3027 -60.9375 L 35.3027 -43.75 L 18.1152 -43.75 C 13.916 -43.75 9.76562 -39.8438 9.76562 -35.2051 C 9.76562 -30.5664 13.916 -26.6602 18.1152 -26.6602 L 35.3027 -26.6602 L 35.3027 -9.42383 C 35.3027 -5.22461 39.209 -1.07422 43.8477 -1.07422 Z"/>
  </g>
  <g id="Heavy-S" transform="matrix(1 0 0 1 2593.35 696)">
   <path d="M 43.3594 -1.46484 C 47.4121 -1.46484 50.7812 -5.0293 50.7812 -8.74023 L 50.7812 -27.7344 L 69.5801 -27.7344 C 73.4863 -27.7344 76.9043 -31.1523 76.9043 -35.2051 C 76.9043 -39.2578 73.4863 -42.6758 69.5801 -42.6758 L 50.7812 -42.6758 L 50.7812 -61.6211 C 50.7812 -65.5273 47.4121 -68.8965 43.3594 -68.8965 C 39.3066 -68.8965 35.8887 -65.5273 35.8887 -61.6211 L 35.8887 -42.6758 L 17.0898 -42.6758 C 13.3789 -42.6758 9.76562 -39.2578 9.76562 -35.2051 C 9.76562 -31.1523 13.3789 -27.7344 17.0898 -27.7344 L 35.8887 -27.7344 L 35.8887 -8.74023 C 35.8887 -5.0293 39.3066 -1.46484 43.3594 -1.46484 Z"/>
  </g>
  <g id="Bold-S" transform="matrix(1 0 0 1 2297.2 696)">
   <path d="M 42.7734 -1.9043 C 46.1426 -1.9043 49.0234 -4.83398 49.0234 -8.00781 L 49.0234 -28.9551 L 69.6289 -28.9551 C 72.9004 -28.9551 75.7812 -31.7871 75.7812 -35.2051 C 75.7812 -38.623 72.9004 -41.4551 69.6289 -41.4551 L 49.0234 -41.4551 L 49.0234 -62.4023 C 49.0234 -65.6738 46.1426 -68.5059 42.7734 -68.5059 C 39.3555 -68.5059 36.5234 -65.6738 36.5234 -62.4023 L 36.5234 -41.4551 L 15.918 -41.4551 C 12.7441 -41.4551 9.76562 -38.623 9.76562 -35.2051 C 9.76562 -31.7871 12.7441 -28.9551 15.918 -28.9551 L 36.5234 -28.9551 L 36.5234 -8.00781 C 36.5234 -4.83398 39.3555 -1.9043 42.7734 -1.9043 Z"/>
  </g>
  <g id="Semibold-S" transform="matrix(1 0 0 1 2000.88 696)">
   <path d="M 42.3828 -2.19727 C 45.3125 -2.19727 47.7539 -4.6875 47.7539 -7.4707 L 47.7539 -29.7852 L 69.6289 -29.7852 C 72.5098 -29.7852 75 -32.2754 75 -35.2051 C 75 -38.1348 72.5098 -40.625 69.6289 -40.625 L 47.7539 -40.625 L 47.7539 -62.9395 C 47.7539 -65.8203 45.3125 -68.2129 42.3828 -68.2129 C 39.4043 -68.2129 36.9629 -65.8203 36.9629 -62.9395 L 36.9629 -40.625 L 15.0879 -40.625 C 12.3535 -40.625 9.76562 -38.1348 9.76562 -35.2051 C 9.76562 -32.2754 12.3535 -29.7852 15.0879 -29.7852 L 36.9629 -29.7852 L 36.9629 -7.4707 C 36.9629 -4.6875 39.4043 -2.19727 42.3828 -2.19727 Z"/>
  </g>
  <g id="Medium-S" transform="matrix(1 0 0 1 1704.49 696)">
   <path d="M 42.0898 -2.44141 C 44.6777 -2.44141 46.8262 -4.58984 46.8262 -7.08008 L 46.8262 -30.4199 L 69.6289 -30.4199 C 72.168 -30.4199 74.3652 -32.6172 74.3652 -35.2051 C 74.3652 -37.793 72.168 -39.9902 69.6289 -39.9902 L 46.8262 -39.9902 L 46.8262 -63.3301 C 46.8262 -65.8691 44.6777 -68.0176 42.0898 -68.0176 C 39.4531 -68.0176 37.3047 -65.8691 37.3047 -63.3301 L 37.3047 -39.9902 L 14.502 -39.9902 C 12.0117 -39.9902 9.76562 -37.793 9.76562 -35.2051 C 9.76562 -32.6172 12.0117 -30.4199 14.502 -30.4199 L 37.3047 -30.4199 L 37.3047 -7.08008 C 37.3047 -4.58984 39.4531 -2.44141 42.0898 -2.44141 Z"/>
  </g>
  <g id="Regular-S" transform="matrix(1 0 0 1 1408.17 696)">
   <path d="M 41.6992 -2.73438 C 43.8477 -2.73438 45.6055 -4.44336 45.6055 -6.5918 L 45.6055 -31.25 L 69.6777 -31.25 C 71.7773 -31.25 73.584 -33.0566 73.584 -35.2051 C 73.584 -37.3535 71.7773 -39.1602 69.6777 -39.1602 L 45.6055 -39.1602 L 45.6055 -63.8672 C 45.6055 -66.0156 43.8477 -67.7246 41.6992 -67.7246 C 39.5508 -67.7246 37.7441 -66.0156 37.7441 -63.8672 L 37.7441 -39.1602 L 13.7207 -39.1602 C 11.5723 -39.1602 9.76562 -37.3535 9.76562 -35.2051 C 9.76562 -33.0566 11.5723 -31.25 13.7207 -31.25 L 37.7441 -31.25 L 37.7441 -6.5918 C 37.7441 -4.44336 39.5508 -2.73438 41.6992 -2.73438 Z"/>
  </g>
  <g id="Light-S" transform="matrix(1 0 0 1 1112.09 696)">
   <path d="M 41.0156 -3.22266 C 42.6758 -3.22266 44.043 -4.54102 44.043 -6.15234 L 44.043 -32.1777 L 69.3359 -32.1777 C 70.9473 -32.1777 72.3145 -33.5449 72.3145 -35.2051 C 72.3145 -36.8164 70.9473 -38.1836 69.3359 -38.1836 L 44.043 -38.1836 L 44.043 -64.2578 C 44.043 -65.8691 42.6758 -67.1875 41.0156 -67.1875 C 39.4043 -67.1875 38.0371 -65.8691 38.0371 -64.2578 L 38.0371 -38.1836 L 12.7441 -38.1836 C 11.1328 -38.1836 9.76562 -36.8164 9.76562 -35.2051 C 9.76562 -33.5449 11.1328 -32.1777 12.7441 -32.1777 L 38.0371 -32.1777 L 38.0371 -6.15234 C 38.0371 -4.54102 39.4043 -3.22266 41.0156 -3.22266 Z"/>
  </g>
  <g id="Thin-S" transform="matrix(1 0 0 1 816.237 696)">
   <path d="M 40.1855 -3.85742 C 41.1621 -3.85742 41.9434 -4.63867 41.9434 -5.61523 L 41.9434 -33.3984 L 68.8477 -33.3984 C 69.8242 -33.3984 70.6055 -34.1797 70.6055 -35.1562 C 70.6055 -36.1328 69.8242 -36.9141 68.8477 -36.9141 L 41.9434 -36.9141 L 41.9434 -64.7461 C 41.9434 -65.6738 41.1621 -66.4551 40.1855 -66.4551 C 39.209 -66.4551 38.4277 -65.6738 38.4277 -64.7461 L 38.4277 -36.9141 L 11.5234 -36.9141 C 10.5957 -36.9141 9.76562 -36.1328 9.76562 -35.1562 C 9.76562 -34.1797 10.5957 -33.3984 11.5234 -33.3984 L 38.4277 -33.3984 L 38.4277 -5.61523 C 38.4277 -4.63867 39.209 -3.85742 40.1855 -3.85742 Z"/>
  </g>
  <g id="Ultralight-S" transform="matrix(1 0 0 1 519.965 696)">
   <path d="M 39.7461 -4.19922 C 40.3809 -4.19922 40.8691 -4.73633 40.8691 -5.32227 L 40.8691 -34.0332 L 68.6035 -34.0332 C 69.2383 -34.0332 69.7266 -34.5215 69.7266 -35.1562 C 69.7266 -35.791 69.2383 -36.2793 68.6035 -36.2793 L 40.8691 -36.2793 L 40.8691 -64.9902 C 40.8691 -65.5762 40.3809 -66.1133 39.7461 -66.1133 C 39.1113 -66.1133 38.623 -65.5762 38.623 -64.9902 L 38.623 -36.2793 L 10.8887 -36.2793 C 10.2539 -36.2793 9.76562 -35.791 9.76562 -35.1562 C 9.76562 -34.5215 10.2539 -34.0332 10.8887 -34.0332 L 38.623 -34.0332 L 38.623 -5.32227 C 38.623 -4.73633 39.1113 -4.19922 39.7461 -4.19922 Z"/>
  </g>
 </g>
</svg>
