<?xml version="1.0" encoding="UTF-8"?>
<!--Generator: Apple Native CoreSVG 123-->
<!DOCTYPE svg
PUBLIC "-//W3C//DTD SVG 1.1//EN"
       "http://www.w3.org/Graphics/SVG/1.1/DTD/svg11.dtd">
<svg version="1.1" xmlns="http://www.w3.org/2000/svg" xmlns:xlink="http://www.w3.org/1999/xlink" width="3300" height="2200">
 <!--glyph: "uni10012F.medium", point size: 100.000000, font version: "Version 15.0d7e11", template writer version: "5"-->
 <g id="Notes">
  <rect height="2200" id="artboard" style="fill:white;opacity:1" width="3300" x="0" y="0"/>
  <line id="" style="fill:none;stroke:black;opacity:1;stroke-width:0.5;" x1="263" x2="3036" y1="292" y2="292"/>
  <text style="stroke:none;fill:black;font-family:-apple-system,&quot;SF Pro Display&quot;,&quot;SF Pro Text&quot;,Helvetica,sans-serif;font-weight:bold;" transform="matrix(1 0 0 1 263 322)">Weight/Scale Variations</text>
  <text style="stroke:none;fill:black;font-family:-apple-system,&quot;SF Pro Display&quot;,&quot;SF Pro Text&quot;,Helvetica,sans-serif;text-anchor:middle;" transform="matrix(1 0 0 1 559.711 322)">Ultralight</text>
  <text style="stroke:none;fill:black;font-family:-apple-system,&quot;SF Pro Display&quot;,&quot;SF Pro Text&quot;,Helvetica,sans-serif;text-anchor:middle;" transform="matrix(1 0 0 1 856.422 322)">Thin</text>
  <text style="stroke:none;fill:black;font-family:-apple-system,&quot;SF Pro Display&quot;,&quot;SF Pro Text&quot;,Helvetica,sans-serif;text-anchor:middle;" transform="matrix(1 0 0 1 1153.13 322)">Light</text>
  <text style="stroke:none;fill:black;font-family:-apple-system,&quot;SF Pro Display&quot;,&quot;SF Pro Text&quot;,Helvetica,sans-serif;text-anchor:middle;" transform="matrix(1 0 0 1 1449.84 322)">Regular</text>
  <text style="stroke:none;fill:black;font-family:-apple-system,&quot;SF Pro Display&quot;,&quot;SF Pro Text&quot;,Helvetica,sans-serif;text-anchor:middle;" transform="matrix(1 0 0 1 1746.56 322)">Medium</text>
  <text style="stroke:none;fill:black;font-family:-apple-system,&quot;SF Pro Display&quot;,&quot;SF Pro Text&quot;,Helvetica,sans-serif;text-anchor:middle;" transform="matrix(1 0 0 1 2043.27 322)">Semibold</text>
  <text style="stroke:none;fill:black;font-family:-apple-system,&quot;SF Pro Display&quot;,&quot;SF Pro Text&quot;,Helvetica,sans-serif;text-anchor:middle;" transform="matrix(1 0 0 1 2339.98 322)">Bold</text>
  <text style="stroke:none;fill:black;font-family:-apple-system,&quot;SF Pro Display&quot;,&quot;SF Pro Text&quot;,Helvetica,sans-serif;text-anchor:middle;" transform="matrix(1 0 0 1 2636.69 322)">Heavy</text>
  <text style="stroke:none;fill:black;font-family:-apple-system,&quot;SF Pro Display&quot;,&quot;SF Pro Text&quot;,Helvetica,sans-serif;text-anchor:middle;" transform="matrix(1 0 0 1 2933.4 322)">Black</text>
  <line id="" style="fill:none;stroke:black;opacity:1;stroke-width:0.5;" x1="263" x2="3036" y1="1903" y2="1903"/>
  <g id="" transform="matrix(1 0 0 1 263 1933)">
   <path d="M 9.24805 0.830078 C 13.5547 0.830078 17.1387 -2.74414 17.1387 -7.05078 C 17.1387 -11.3574 13.5449 -14.9316 9.23828 -14.9316 C 4.94141 -14.9316 1.36719 -11.3574 1.36719 -7.05078 C 1.36719 -2.74414 4.95117 0.830078 9.24805 0.830078 Z M 9.24805 -0.654297 C 5.70312 -0.654297 2.87109 -3.49609 2.87109 -7.05078 C 2.87109 -10.6055 5.69336 -13.4473 9.23828 -13.4473 C 12.793 -13.4473 15.6348 -10.6055 15.6445 -7.05078 C 15.6543 -3.49609 12.8027 -0.654297 9.24805 -0.654297 Z M 9.22852 -3.42773 C 9.69727 -3.42773 9.9707 -3.74023 9.9707 -4.25781 L 9.9707 -6.31836 L 12.1973 -6.31836 C 12.6953 -6.31836 13.0371 -6.57227 13.0371 -7.04102 C 13.0371 -7.51953 12.7148 -7.7832 12.1973 -7.7832 L 9.9707 -7.7832 L 9.9707 -10.0098 C 9.9707 -10.5273 9.69727 -10.8496 9.22852 -10.8496 C 8.75977 -10.8496 8.50586 -10.5078 8.50586 -10.0098 L 8.50586 -7.7832 L 6.29883 -7.7832 C 5.78125 -7.7832 5.44922 -7.51953 5.44922 -7.04102 C 5.44922 -6.57227 5.80078 -6.31836 6.29883 -6.31836 L 8.50586 -6.31836 L 8.50586 -4.25781 C 8.50586 -3.75977 8.75977 -3.42773 9.22852 -3.42773 Z"/>
  </g>
  <g id="" transform="matrix(1 0 0 1 281.506 1933)">
   <path d="M 11.709 2.91016 C 17.1582 2.91016 21.6699 -1.60156 21.6699 -7.05078 C 21.6699 -12.4902 17.1484 -17.0117 11.6992 -17.0117 C 6.25977 -17.0117 1.74805 -12.4902 1.74805 -7.05078 C 1.74805 -1.60156 6.26953 2.91016 11.709 2.91016 Z M 11.709 1.25 C 7.09961 1.25 3.41797 -2.44141 3.41797 -7.05078 C 3.41797 -11.6504 7.08984 -15.3516 11.6992 -15.3516 C 16.3086 -15.3516 20 -11.6504 20.0098 -7.05078 C 20.0195 -2.44141 16.3184 1.25 11.709 1.25 Z M 11.6895 -2.41211 C 12.207 -2.41211 12.5195 -2.77344 12.5195 -3.33984 L 12.5195 -6.23047 L 15.5762 -6.23047 C 16.123 -6.23047 16.5039 -6.51367 16.5039 -7.03125 C 16.5039 -7.55859 16.1426 -7.86133 15.5762 -7.86133 L 12.5195 -7.86133 L 12.5195 -10.9277 C 12.5195 -11.5039 12.207 -11.8555 11.6895 -11.8555 C 11.1719 -11.8555 10.8789 -11.4844 10.8789 -10.9277 L 10.8789 -7.86133 L 7.83203 -7.86133 C 7.26562 -7.86133 6.89453 -7.55859 6.89453 -7.03125 C 6.89453 -6.51367 7.28516 -6.23047 7.83203 -6.23047 L 10.8789 -6.23047 L 10.8789 -3.33984 C 10.8789 -2.79297 11.1719 -2.41211 11.6895 -2.41211 Z"/>
  </g>
  <g id="" transform="matrix(1 0 0 1 304.924 1933)">
   <path d="M 14.9707 5.67383 C 21.9336 5.67383 27.6953 -0.078125 27.6953 -7.04102 C 27.6953 -14.0039 21.9238 -19.7559 14.9609 -19.7559 C 8.00781 -19.7559 2.25586 -14.0039 2.25586 -7.04102 C 2.25586 -0.078125 8.01758 5.67383 14.9707 5.67383 Z M 14.9707 3.85742 C 8.93555 3.85742 4.08203 -1.00586 4.08203 -7.04102 C 4.08203 -13.0762 8.92578 -17.9395 14.9609 -17.9395 C 21.0059 -17.9395 25.8594 -13.0762 25.8691 -7.04102 C 25.8789 -1.00586 21.0156 3.85742 14.9707 3.85742 Z M 14.9512 -1.06445 C 15.5176 -1.06445 15.8691 -1.45508 15.8691 -2.06055 L 15.8691 -6.13281 L 20.1074 -6.13281 C 20.6934 -6.13281 21.1133 -6.46484 21.1133 -7.02148 C 21.1133 -7.59766 20.7227 -7.93945 20.1074 -7.93945 L 15.8691 -7.93945 L 15.8691 -12.1875 C 15.8691 -12.8027 15.5176 -13.1934 14.9512 -13.1934 C 14.3848 -13.1934 14.0625 -12.7832 14.0625 -12.1875 L 14.0625 -7.93945 L 9.83398 -7.93945 C 9.21875 -7.93945 8.80859 -7.59766 8.80859 -7.02148 C 8.80859 -6.46484 9.23828 -6.13281 9.83398 -6.13281 L 14.0625 -6.13281 L 14.0625 -2.06055 C 14.0625 -1.47461 14.3848 -1.06445 14.9512 -1.06445 Z"/>
  </g>
  <text style="stroke:none;fill:black;font-family:-apple-system,&quot;SF Pro Display&quot;,&quot;SF Pro Text&quot;,Helvetica,sans-serif;font-weight:bold;" transform="matrix(1 0 0 1 263 1953)">Design Variations</text>
  <text style="stroke:none;fill:black;font-family:-apple-system,&quot;SF Pro Display&quot;,&quot;SF Pro Text&quot;,Helvetica,sans-serif;" transform="matrix(1 0 0 1 263 1971)">Symbols are supported in up to nine weights and three scales.</text>
  <text style="stroke:none;fill:black;font-family:-apple-system,&quot;SF Pro Display&quot;,&quot;SF Pro Text&quot;,Helvetica,sans-serif;" transform="matrix(1 0 0 1 263 1989)">For optimal layout with text and other symbols, vertically align</text>
  <text style="stroke:none;fill:black;font-family:-apple-system,&quot;SF Pro Display&quot;,&quot;SF Pro Text&quot;,Helvetica,sans-serif;" transform="matrix(1 0 0 1 263 2007)">symbols with the adjacent text.</text>
  <rect height="14" id="" style="fill:#00AEEF;stroke:none;opacity:0.4;" width="3" x="776" y="1919"/>
  <g id="" transform="matrix(1 0 0 1 779 1933)">
   <path d="M 10.5273 0 L 12.373 0 L 7.17773 -14.0918 L 5.43945 -14.0918 L 0.244141 0 L 2.08984 0 L 3.50586 -4.0332 L 9.11133 -4.0332 Z M 6.2793 -11.9531 L 6.33789 -11.9531 L 8.59375 -5.52734 L 4.02344 -5.52734 Z"/>
  </g>
  <rect height="14" id="" style="fill:#00AEEF;stroke:none;opacity:0.4;" width="3" x="791.617" y="1919"/>
  <text style="stroke:none;fill:black;font-family:-apple-system,&quot;SF Pro Display&quot;,&quot;SF Pro Text&quot;,Helvetica,sans-serif;font-weight:bold;" transform="matrix(1 0 0 1 776 1953)">Margins</text>
  <text style="stroke:none;fill:black;font-family:-apple-system,&quot;SF Pro Display&quot;,&quot;SF Pro Text&quot;,Helvetica,sans-serif;" transform="matrix(1 0 0 1 776 1971)">Leading and trailing margins on the left and right side of each symbol</text>
  <text style="stroke:none;fill:black;font-family:-apple-system,&quot;SF Pro Display&quot;,&quot;SF Pro Text&quot;,Helvetica,sans-serif;" transform="matrix(1 0 0 1 776 1989)">can be adjusted by modifying the width of the blue rectangles.</text>
  <text style="stroke:none;fill:black;font-family:-apple-system,&quot;SF Pro Display&quot;,&quot;SF Pro Text&quot;,Helvetica,sans-serif;" transform="matrix(1 0 0 1 776 2007)">Modifications are automatically applied proportionally to all</text>
  <text style="stroke:none;fill:black;font-family:-apple-system,&quot;SF Pro Display&quot;,&quot;SF Pro Text&quot;,Helvetica,sans-serif;" transform="matrix(1 0 0 1 776 2025)">scales and weights.</text>
  <g id="" transform="matrix(1 0 0 1 1289 1933)">
   <path d="M 2.83203 3.11523 L 4.375 4.6582 C 5.22461 5.48828 6.19141 5.41992 7.06055 4.46289 L 17.2754 -6.66016 C 17.7051 -6.36719 18.0957 -6.37695 18.5645 -6.47461 L 19.6094 -6.68945 L 20.3027 -5.99609 L 20.2539 -5.47852 C 20.1855 -4.95117 20.3516 -4.53125 20.8496 -4.0332 L 21.6602 -3.22266 C 22.168 -2.71484 22.8223 -2.68555 23.3008 -3.16406 L 26.5527 -6.41602 C 27.0312 -6.89453 27.0117 -7.54883 26.5039 -8.05664 L 25.6836 -8.87695 C 25.1855 -9.375 24.7754 -9.55078 24.2383 -9.47266 L 23.7109 -9.41406 L 23.0566 -10.0781 L 23.3398 -11.2207 C 23.4863 -11.7871 23.3398 -12.2559 22.7148 -12.8613 L 20.3027 -15.2539 C 16.7578 -18.7793 12.2266 -18.6719 9.11133 -15.5371 C 8.69141 -15.1074 8.64258 -14.5215 8.91602 -14.0918 C 9.15039 -13.7207 9.62891 -13.4961 10.2734 -13.6621 C 11.7871 -14.043 13.3008 -13.9258 14.7852 -12.9199 L 14.1602 -11.3379 C 13.9258 -10.752 13.9453 -10.2734 14.1797 -9.83398 L 3.01758 0.439453 C 2.08008 1.30859 1.97266 2.25586 2.83203 3.11523 Z M 10.6738 -15.1465 C 13.3398 -17.1387 16.6504 -16.8262 19.0527 -14.4141 L 21.6797 -11.8066 C 21.9141 -11.5723 21.9434 -11.3867 21.8848 -11.0938 L 21.5039 -9.53125 L 23.0762 -7.95898 L 24.043 -8.04688 C 24.3262 -8.07617 24.4141 -8.05664 24.6387 -7.83203 L 25.2637 -7.20703 L 22.5098 -4.46289 L 21.8848 -5.07812 C 21.6602 -5.30273 21.6406 -5.40039 21.6699 -5.68359 L 21.7578 -6.64062 L 20.1953 -8.20312 L 18.5742 -7.89062 C 18.291 -7.83203 18.1445 -7.83203 17.9102 -8.07617 L 15.7324 -10.2539 C 15.5078 -10.4883 15.4785 -10.625 15.6055 -10.9473 L 16.5527 -13.2227 C 14.9512 -14.7559 12.8418 -15.6055 10.8008 -14.9512 C 10.7129 -14.9219 10.6445 -14.9414 10.6152 -14.9805 C 10.5859 -15.0293 10.5859 -15.0781 10.6738 -15.1465 Z M 4.10156 2.41211 C 3.61328 1.91406 3.78906 1.61133 4.12109 1.30859 L 15.0781 -8.80859 L 16.3086 -7.57812 L 6.15234 3.34961 C 5.84961 3.68164 5.46875 3.7793 5.06836 3.37891 Z"/>
  </g>
  <text style="stroke:none;fill:black;font-family:-apple-system,&quot;SF Pro Display&quot;,&quot;SF Pro Text&quot;,Helvetica,sans-serif;font-weight:bold;" transform="matrix(1 0 0 1 1289 1953)">Exporting</text>
  <text style="stroke:none;fill:black;font-family:-apple-system,&quot;SF Pro Display&quot;,&quot;SF Pro Text&quot;,Helvetica,sans-serif;" transform="matrix(1 0 0 1 1289 1971)">Symbols should be outlined when exporting to ensure the</text>
  <text style="stroke:none;fill:black;font-family:-apple-system,&quot;SF Pro Display&quot;,&quot;SF Pro Text&quot;,Helvetica,sans-serif;" transform="matrix(1 0 0 1 1289 1989)">design is preserved when submitting to Xcode.</text>
  <text id="template-version" style="stroke:none;fill:black;font-family:-apple-system,&quot;SF Pro Display&quot;,&quot;SF Pro Text&quot;,Helvetica,sans-serif;text-anchor:end;" transform="matrix(1 0 0 1 3036 1933)">Template v.1.0</text>
  <text style="stroke:none;fill:black;font-family:-apple-system,&quot;SF Pro Display&quot;,&quot;SF Pro Text&quot;,Helvetica,sans-serif;text-anchor:end;" transform="matrix(1 0 0 1 3036 1951)">Generated from arrow.up.right</text>
  <text style="stroke:none;fill:black;font-family:-apple-system,&quot;SF Pro Display&quot;,&quot;SF Pro Text&quot;,Helvetica,sans-serif;text-anchor:end;" transform="matrix(1 0 0 1 3036 1969)">Typeset at 100 points</text>
  <text style="stroke:none;fill:black;font-family:-apple-system,&quot;SF Pro Display&quot;,&quot;SF Pro Text&quot;,Helvetica,sans-serif;" transform="matrix(1 0 0 1 263 726)">Small</text>
  <text style="stroke:none;fill:black;font-family:-apple-system,&quot;SF Pro Display&quot;,&quot;SF Pro Text&quot;,Helvetica,sans-serif;" transform="matrix(1 0 0 1 263 1156)">Medium</text>
  <text style="stroke:none;fill:black;font-family:-apple-system,&quot;SF Pro Display&quot;,&quot;SF Pro Text&quot;,Helvetica,sans-serif;" transform="matrix(1 0 0 1 263 1586)">Large</text>
 </g>
 <g id="Guides">
  <g id="H-reference" style="fill:#27AAE1;stroke:none;" transform="matrix(1 0 0 1 339 696)">
   <path d="M 54.9316 0 L 57.666 0 L 30.5664 -70.459 L 28.0762 -70.459 L 0.976562 0 L 3.66211 0 L 12.9395 -24.4629 L 45.7031 -24.4629 Z M 29.1992 -67.0898 L 29.4434 -67.0898 L 44.8242 -26.709 L 13.8184 -26.709 Z"/>
  </g>
  <line id="Baseline-S" style="fill:none;stroke:#27AAE1;opacity:1;stroke-width:0.577;" x1="263" x2="3036" y1="696" y2="696"/>
  <line id="Capline-S" style="fill:none;stroke:#27AAE1;opacity:1;stroke-width:0.577;" x1="263" x2="3036" y1="625.541" y2="625.541"/>
  <g id="H-reference" style="fill:#27AAE1;stroke:none;" transform="matrix(1 0 0 1 339 1126)">
   <path d="M 54.9316 0 L 57.666 0 L 30.5664 -70.459 L 28.0762 -70.459 L 0.976562 0 L 3.66211 0 L 12.9395 -24.4629 L 45.7031 -24.4629 Z M 29.1992 -67.0898 L 29.4434 -67.0898 L 44.8242 -26.709 L 13.8184 -26.709 Z"/>
  </g>
  <line id="Baseline-M" style="fill:none;stroke:#27AAE1;opacity:1;stroke-width:0.577;" x1="263" x2="3036" y1="1126" y2="1126"/>
  <line id="Capline-M" style="fill:none;stroke:#27AAE1;opacity:1;stroke-width:0.577;" x1="263" x2="3036" y1="1055.54" y2="1055.54"/>
  <g id="H-reference" style="fill:#27AAE1;stroke:none;" transform="matrix(1 0 0 1 339 1556)">
   <path d="M 54.9316 0 L 57.666 0 L 30.5664 -70.459 L 28.0762 -70.459 L 0.976562 0 L 3.66211 0 L 12.9395 -24.4629 L 45.7031 -24.4629 Z M 29.1992 -67.0898 L 29.4434 -67.0898 L 44.8242 -26.709 L 13.8184 -26.709 Z"/>
  </g>
  <line id="Baseline-L" style="fill:none;stroke:#27AAE1;opacity:1;stroke-width:0.577;" x1="263" x2="3036" y1="1556" y2="1556"/>
  <line id="Capline-L" style="fill:none;stroke:#27AAE1;opacity:1;stroke-width:0.577;" x1="263" x2="3036" y1="1485.54" y2="1485.54"/>
  <rect height="119.336" id="left-margin" style="fill:#00AEEF;stroke:none;opacity:0.4;" width="12.5" x="1403.99" y="1030.79"/>
  <rect height="119.336" id="right-margin" style="fill:#00AEEF;stroke:none;opacity:0.4;" width="12.5" x="1483.19" y="1030.79"/>
 </g>
 <g id="Symbols">
  <g id="Black-L" transform="matrix(1 0 0 1 2869.24 1556)">
   <path d="M 112.158 -14.2578 L 112.256 -71.4355 C 112.256 -78.5156 107.52 -83.3008 100.342 -83.3008 L 43.1152 -83.252 C 36.377 -83.252 31.4453 -78.125 31.4453 -72.1191 C 31.4453 -65.9668 36.6699 -61.4258 43.1641 -61.4258 L 61.9141 -61.4258 L 75.8789 -62.1094 L 66.0645 -53.3691 L 19.9707 -7.22656 C 17.3828 -4.63867 16.0645 -1.61133 16.0645 1.36719 C 16.0645 7.22656 21.582 12.8418 27.5391 12.8418 C 30.5176 12.8418 33.4961 11.5234 36.1328 8.93555 L 82.2754 -37.207 L 91.0156 -47.0215 L 90.332 -33.0078 L 90.332 -14.2578 C 90.332 -7.61719 94.9707 -2.58789 101.025 -2.58789 C 107.178 -2.58789 112.158 -7.76367 112.158 -14.2578 Z"/>
  </g>
  <g id="Heavy-L" transform="matrix(1 0 0 1 2573.77 1556)">
   <path d="M 109.717 -14.0625 L 109.766 -71.8262 C 109.766 -77.9297 105.664 -82.0312 99.4629 -82.0312 L 41.6504 -81.9824 C 35.791 -81.9824 31.5918 -77.5391 31.5918 -72.4121 C 31.5918 -67.0898 36.084 -63.1348 41.6504 -63.1348 L 61.1816 -63.1348 L 78.6621 -63.8672 L 68.5547 -54.834 L 19.3848 -5.66406 C 17.1875 -3.4668 16.0645 -0.830078 16.0645 1.66016 C 16.0645 6.73828 20.8008 11.5723 25.9766 11.5723 C 28.5156 11.5723 31.1035 10.498 33.3008 8.30078 L 82.5195 -40.918 L 91.5527 -51.0254 L 90.8203 -34.082 L 90.8203 -13.9648 C 90.8203 -8.34961 94.8242 -3.95508 100.098 -3.95508 C 105.371 -3.95508 109.717 -8.39844 109.717 -14.0625 Z"/>
  </g>
  <g id="Bold-L" transform="matrix(1 0 0 1 2278.45 1556)">
   <path d="M 106.934 -13.7695 L 106.982 -72.2168 C 106.982 -77.2461 103.613 -80.6641 98.4863 -80.6641 L 40.0391 -80.5664 C 35.1562 -80.5664 31.7383 -76.9531 31.7383 -72.7051 C 31.7383 -68.3594 35.4492 -65.0391 39.9414 -65.0391 L 60.3027 -65.0391 L 81.7383 -65.8203 L 71.3379 -56.4941 L 18.7988 -3.90625 C 16.9922 -2.14844 16.1133 0 16.1133 2.05078 C 16.1133 6.20117 19.9707 10.2051 24.2676 10.2051 C 26.3184 10.2051 28.418 9.32617 30.1758 7.51953 L 82.7637 -45.0684 L 92.1387 -55.4688 L 91.3086 -35.2051 L 91.3086 -13.6719 C 91.3086 -9.13086 94.6777 -5.51758 99.0234 -5.51758 C 103.369 -5.51758 106.934 -9.08203 106.934 -13.7695 Z"/>
  </g>
  <g id="Semibold-L" transform="matrix(1 0 0 1 1982.7 1556)">
   <path d="M 105.029 -13.623 L 105.029 -72.5098 C 105.029 -76.8066 102.197 -79.6875 97.8516 -79.6875 L 38.8672 -79.6387 C 34.7168 -79.6387 31.8848 -76.5137 31.8848 -72.9004 C 31.8848 -69.1895 35.0098 -66.3574 38.7695 -66.3574 L 59.7168 -66.3574 L 83.8867 -67.1875 L 73.2422 -57.6172 L 18.3594 -2.68555 C 16.8457 -1.2207 16.1133 0.537109 16.1133 2.29492 C 16.1133 5.85938 19.3848 9.22852 23.0469 9.22852 C 24.8047 9.22852 26.5625 8.49609 28.0273 7.03125 L 82.959 -47.9004 L 92.5293 -58.5938 L 91.6504 -36.0352 L 91.6504 -13.4766 C 91.6504 -9.66797 94.5801 -6.54297 98.291 -6.54297 C 101.953 -6.54297 105.029 -9.61914 105.029 -13.623 Z"/>
  </g>
  <g id="Medium-L" transform="matrix(1 0 0 1 1686.69 1556)">
   <path d="M 103.613 -13.4766 L 103.564 -72.7539 C 103.564 -76.4648 101.172 -78.9551 97.3145 -78.9551 L 38.0371 -78.9062 C 34.4238 -78.9062 31.9336 -76.1719 31.9336 -73.0469 C 31.9336 -69.873 34.668 -67.334 37.8906 -67.334 L 59.2773 -67.334 L 85.498 -68.2129 L 74.6582 -58.4961 L 18.0176 -1.80664 C 16.748 -0.537109 16.1133 0.976562 16.1133 2.44141 C 16.1133 5.56641 18.8965 8.49609 22.1191 8.49609 C 23.6328 8.49609 25.1465 7.86133 26.3672 6.64062 L 83.1055 -50.0977 L 92.8223 -60.8887 L 91.9434 -36.6211 L 91.9434 -13.3301 C 91.9434 -10.0586 94.5312 -7.32422 97.7051 -7.32422 C 100.928 -7.32422 103.613 -9.96094 103.613 -13.4766 Z"/>
  </g>
  <g id="Regular-L" transform="matrix(1 0 0 1 1390.93 1556)">
   <path d="M 101.709 -13.2812 L 101.66 -72.998 C 101.66 -75.9766 99.7559 -78.0273 96.6797 -78.0273 L 36.9141 -77.9297 C 33.9844 -77.9297 32.0312 -75.7324 32.0312 -73.2422 C 32.0312 -70.7031 34.2285 -68.6523 36.7188 -68.6523 L 58.6914 -68.6523 L 87.5977 -69.5801 L 76.5625 -59.6191 L 17.5781 -0.585938 C 16.6016 0.341797 16.1133 1.5625 16.1133 2.68555 C 16.1133 5.22461 18.3594 7.51953 20.9473 7.51953 C 22.168 7.51953 23.291 7.08008 24.2676 6.10352 L 83.3008 -52.9297 L 93.2129 -63.9648 L 92.2852 -37.4023 L 92.2852 -13.0859 C 92.2852 -10.5957 94.3848 -8.39844 97.0215 -8.39844 C 99.5605 -8.39844 101.709 -10.4492 101.709 -13.2812 Z"/>
  </g>
  <g id="Light-L" transform="matrix(1 0 0 1 1094.56 1556)">
   <path d="M 101.074 -13.4766 L 100.928 -73.9258 C 100.928 -76.1719 99.5117 -77.6855 97.2168 -77.6855 L 36.7188 -77.6367 C 34.5215 -77.6367 33.0566 -76.0254 33.0566 -74.1211 C 33.0566 -72.2168 34.668 -70.7031 36.5723 -70.7031 L 62.8906 -70.7031 L 90.332 -71.3379 L 79.834 -61.5723 L 17.1875 1.07422 C 16.4551 1.80664 16.1133 2.68555 16.1133 3.56445 C 16.1133 5.46875 17.7246 7.17773 19.6777 7.17773 C 20.6055 7.17773 21.4844 6.83594 22.168 6.10352 L 84.8633 -56.5918 L 94.5312 -67.0898 L 93.9453 -43.457 L 93.9453 -13.3789 C 93.9453 -11.4258 95.5078 -9.81445 97.5098 -9.81445 C 99.4629 -9.81445 101.074 -11.3281 101.074 -13.4766 Z"/>
  </g>
  <g id="Thin-L" transform="matrix(1 0 0 1 798.292 1556)">
   <path d="M 100.195 -13.7207 L 99.9512 -75.1465 C 99.9512 -76.3672 99.1699 -77.1973 97.9004 -77.1973 L 36.4258 -77.1973 C 35.2051 -77.1973 34.375 -76.3672 34.375 -75.2441 C 34.375 -74.1699 35.2051 -73.3887 36.377 -73.3887 L 68.457 -73.3887 L 93.9941 -73.7305 L 84.1797 -64.1602 L 16.6992 3.32031 C 16.3086 3.71094 16.0645 4.19922 16.0645 4.73633 C 16.0645 5.81055 16.9434 6.68945 18.0176 6.68945 C 18.5547 6.68945 19.043 6.49414 19.4336 6.05469 L 86.9141 -61.4258 L 96.3379 -71.1914 L 96.1426 -51.416 L 96.1426 -13.7207 C 96.1426 -12.5488 96.9727 -11.6699 98.1445 -11.6699 C 99.3164 -11.6699 100.195 -12.5 100.195 -13.7207 Z"/>
  </g>
  <g id="Ultralight-L" transform="matrix(1 0 0 1 501.801 1556)">
   <path d="M 99.7559 -13.8672 L 99.4629 -75.7812 C 99.4629 -76.5137 98.9746 -76.9531 98.291 -76.9531 L 36.2793 -77.002 C 35.5469 -77.002 35.0586 -76.5137 35.0586 -75.8301 C 35.0586 -75.1465 35.498 -74.8047 36.2793 -74.8047 L 71.3379 -74.8047 L 95.8496 -74.9512 L 86.377 -65.5273 L 16.4062 4.44336 C 16.1621 4.6875 16.0645 4.98047 16.0645 5.32227 C 16.0645 6.00586 16.5039 6.44531 17.1875 6.44531 C 17.4805 6.44531 17.8223 6.29883 18.0664 6.05469 L 87.9883 -63.8672 L 97.2656 -73.291 L 97.2656 -13.8672 C 97.2656 -13.0859 97.7539 -12.6465 98.4863 -12.6465 C 99.2676 -12.6465 99.7559 -13.1348 99.7559 -13.8672 Z"/>
  </g>
  <g id="Black-M" transform="matrix(1 0 0 1 2882.18 1126)">
   <path d="M 89.8926 -19.3848 L 89.9902 -63.3301 C 89.9902 -69.6777 85.6934 -73.9746 79.248 -73.9746 L 35.3027 -73.9746 C 29.248 -73.9746 24.7559 -69.3848 24.7559 -63.916 C 24.7559 -58.3008 29.4434 -54.3457 35.4492 -54.3457 L 51.3184 -54.3457 L 56.5918 -54.6387 L 49.6582 -48.3398 L 16.0645 -14.7461 C 13.6719 -12.3535 12.4512 -9.57031 12.4512 -6.83594 C 12.4512 -1.5625 17.4316 3.51562 22.8027 3.51562 C 25.4883 3.51562 28.2715 2.29492 30.6641 -0.0976562 L 64.3066 -33.6914 L 70.6055 -40.625 L 70.3125 -35.3516 L 70.3125 -19.4824 C 70.3125 -13.3301 74.4141 -8.88672 79.8828 -8.88672 C 85.4492 -8.88672 89.8926 -13.5254 89.8926 -19.3848 Z"/>
  </g>
  <g id="Heavy-M" transform="matrix(1 0 0 1 2586.74 1126)">
   <path d="M 87.4023 -19.0918 L 87.4512 -63.4766 C 87.4512 -68.9941 83.7402 -72.7051 78.1738 -72.7051 L 33.7402 -72.6562 C 28.4668 -72.6562 24.6582 -68.7012 24.6582 -64.0137 C 24.6582 -59.1797 28.6621 -55.6641 33.7891 -55.6641 L 49.3652 -55.6641 L 58.8867 -56.1035 L 51.5137 -49.4629 L 15.5273 -13.4766 C 13.4766 -11.4258 12.4512 -9.0332 12.4512 -6.73828 C 12.4512 -2.14844 16.748 2.24609 21.4355 2.24609 C 23.7305 2.24609 26.123 1.2207 28.1738 -0.830078 L 64.1602 -36.8164 L 70.8008 -44.1895 L 70.3613 -34.9121 L 70.3613 -19.0918 C 70.3613 -13.916 73.9746 -10.0098 78.7109 -10.0098 C 83.4961 -10.0098 87.4023 -14.0137 87.4023 -19.0918 Z"/>
  </g>
  <g id="Bold-M" transform="matrix(1 0 0 1 2291.44 1126)">
   <path d="M 84.5703 -18.75 L 84.6191 -63.623 C 84.6191 -68.2129 81.5918 -71.2891 76.9531 -71.2891 L 32.0312 -71.2402 C 27.6367 -71.2402 24.5117 -67.9199 24.5117 -64.0625 C 24.5117 -60.1074 27.832 -57.1289 31.9824 -57.1289 L 47.168 -57.1289 L 61.4746 -57.7148 L 53.5645 -50.6836 L 14.9414 -12.0605 C 13.3301 -10.4004 12.5 -8.44727 12.5 -6.5918 C 12.5 -2.7832 16.0156 0.830078 19.873 0.830078 C 21.7773 0.830078 23.6816 0 25.3418 -1.66016 L 63.9648 -40.2832 L 71.0449 -48.1934 L 70.459 -34.4238 L 70.459 -18.7012 C 70.459 -14.502 73.4863 -11.2305 77.3926 -11.2305 C 81.2988 -11.2305 84.5703 -14.5508 84.5703 -18.75 Z"/>
  </g>
  <g id="Semibold-M" transform="matrix(1 0 0 1 1995.71 1126)">
   <path d="M 82.6172 -18.5547 L 82.6172 -63.7695 C 82.6172 -67.6758 80.0781 -70.3125 76.0742 -70.3125 L 30.8105 -70.2148 C 27.0508 -70.2148 24.4141 -67.3828 24.4141 -64.1113 C 24.4141 -60.7422 27.2949 -58.1543 30.7129 -58.1543 L 45.7031 -58.1543 L 63.2324 -58.8379 L 54.9805 -51.5137 L 14.5508 -11.084 C 13.1836 -9.7168 12.5 -8.05664 12.5 -6.49414 C 12.5 -3.22266 15.4785 -0.146484 18.7988 -0.146484 C 20.4102 -0.146484 22.0215 -0.830078 23.3887 -2.19727 L 63.8672 -42.6758 L 71.1914 -50.9277 L 70.5078 -34.082 L 70.5078 -18.4082 C 70.5078 -14.9414 73.1445 -12.1094 76.4648 -12.1094 C 79.834 -12.1094 82.6172 -14.8926 82.6172 -18.5547 Z"/>
  </g>
  <g id="Medium-M" transform="matrix(1 0 0 1 1699.73 1126)">
   <path d="M 81.1523 -18.3594 L 81.1523 -63.8672 C 81.1523 -67.2852 78.9551 -69.5801 75.4395 -69.5801 L 29.9316 -69.4824 C 26.6113 -69.4824 24.3652 -66.9922 24.3652 -64.1602 C 24.3652 -61.2305 26.8555 -58.9355 29.7852 -58.9355 L 44.5801 -58.9355 L 64.5508 -59.7168 L 56.0547 -52.1973 L 14.2578 -10.3027 C 13.0859 -9.17969 12.5 -7.76367 12.5 -6.44531 C 12.5 -3.56445 15.0879 -0.927734 18.0176 -0.927734 C 19.3848 -0.927734 20.752 -1.46484 21.9238 -2.63672 L 63.7695 -44.4824 L 71.2891 -53.0273 L 70.5078 -33.8379 L 70.5078 -18.2129 C 70.5078 -15.2344 72.8516 -12.7441 75.7812 -12.7441 C 78.6621 -12.7441 81.1523 -15.1855 81.1523 -18.3594 Z"/>
  </g>
  <g id="Regular-M" transform="matrix(1 0 0 1 1403.99 1126)">
   <path d="M 79.1992 -18.1152 L 79.1992 -63.9648 C 79.1992 -66.748 77.4414 -68.6035 74.6094 -68.6035 L 28.7598 -68.5059 C 26.0254 -68.5059 24.2676 -66.5039 24.2676 -64.209 C 24.2676 -61.9141 26.2695 -59.9609 28.5645 -59.9609 L 43.0664 -59.9609 L 66.3086 -60.8398 L 57.4707 -53.0273 L 13.8672 -9.32617 C 12.9883 -8.44727 12.5 -7.37305 12.5 -6.34766 C 12.5 -4.05273 14.5508 -1.85547 16.9434 -1.85547 C 18.0664 -1.85547 19.0918 -2.29492 19.9707 -3.17383 L 63.623 -46.875 L 71.4844 -55.7129 L 70.5566 -33.4961 L 70.5566 -17.9199 C 70.5566 -15.6738 72.5098 -13.623 74.9023 -13.623 C 77.1973 -13.623 79.1992 -15.5273 79.1992 -18.1152 Z"/>
  </g>
  <g id="Light-M" transform="matrix(1 0 0 1 1107.58 1126)">
   <path d="M 78.6133 -18.3105 L 78.5645 -64.7949 C 78.5645 -66.8945 77.2461 -68.2617 75.0977 -68.2617 L 28.5645 -68.2129 C 26.5137 -68.2129 25.1953 -66.6992 25.1953 -64.9902 C 25.1953 -63.2324 26.6602 -61.7676 28.418 -61.7676 L 46.875 -61.7676 L 68.7988 -62.4023 L 60.4004 -54.7852 L 13.5254 -7.86133 C 12.8418 -7.17773 12.5 -6.34766 12.5 -5.56641 C 12.5 -3.80859 14.0137 -2.19727 15.8203 -2.19727 C 16.6504 -2.19727 17.4316 -2.53906 18.1152 -3.17383 L 65.0391 -50.1465 L 72.6562 -58.4961 L 72.0703 -38.916 L 72.0703 -18.1641 C 72.0703 -16.4062 73.5352 -14.8926 75.3418 -14.8926 C 77.0996 -14.8926 78.6133 -16.3086 78.6133 -18.3105 Z"/>
  </g>
  <g id="Thin-M" transform="matrix(1 0 0 1 811.281 1126)">
   <path d="M 77.832 -18.5059 L 77.6855 -65.918 C 77.6855 -67.0898 76.9043 -67.8711 75.7324 -67.8711 L 28.2715 -67.8223 C 27.0996 -67.8223 26.3672 -67.041 26.3672 -66.0156 C 26.3672 -64.9902 27.1973 -64.209 28.2227 -64.209 L 51.8555 -64.209 L 72.0703 -64.5508 L 64.3066 -57.0801 L 13.0371 -5.85938 C 12.6465 -5.46875 12.4512 -4.98047 12.4512 -4.54102 C 12.4512 -3.51562 13.2812 -2.63672 14.3555 -2.63672 C 14.7949 -2.63672 15.2832 -2.83203 15.6738 -3.22266 L 66.9434 -54.4922 L 74.2676 -62.207 L 74.0234 -46.0449 L 74.0234 -18.457 C 74.0234 -17.4316 74.8535 -16.6016 75.9277 -16.6016 C 77.002 -16.6016 77.832 -17.3828 77.832 -18.5059 Z"/>
  </g>
  <g id="Ultralight-M" transform="matrix(1 0 0 1 514.765 1126)">
   <path d="M 77.4414 -18.6523 L 77.2461 -66.4551 C 77.2461 -67.1875 76.7578 -67.6758 76.0742 -67.6758 L 28.1738 -67.6758 C 27.4414 -67.6758 26.9531 -67.1875 26.9531 -66.5039 C 26.9531 -65.8691 27.4414 -65.4785 28.1738 -65.4785 L 54.4434 -65.4785 L 73.7305 -65.625 L 66.2598 -58.3008 L 12.793 -4.83398 C 12.5488 -4.58984 12.4512 -4.29688 12.4512 -4.00391 C 12.4512 -3.32031 12.9395 -2.88086 13.5742 -2.88086 C 13.8672 -2.88086 14.1602 -2.97852 14.4043 -3.22266 L 67.8711 -56.6895 L 75.0977 -64.0625 L 75.0488 -49.707 L 75.0488 -18.6523 C 75.0488 -17.9199 75.5371 -17.4316 76.2207 -17.4316 C 76.9531 -17.4316 77.4414 -17.9199 77.4414 -18.6523 Z"/>
  </g>
  <g id="Black-S" transform="matrix(1 0 0 1 2893.36 696)">
   <path d="M 70.2637 -22.8027 L 70.3125 -57.2266 C 70.3125 -62.1582 66.9922 -65.4785 62.0117 -65.4785 L 27.5391 -65.4785 C 22.8516 -65.4785 19.3848 -61.9141 19.3848 -57.7148 C 19.3848 -53.3691 22.998 -50.293 27.6367 -50.293 L 39.9902 -50.293 L 44.4824 -50.5371 L 39.0137 -45.5566 L 12.5488 -19.0918 C 10.6934 -17.2363 9.76562 -15.0879 9.76562 -12.9883 C 9.76562 -8.88672 13.623 -4.98047 17.7734 -4.98047 C 19.873 -4.98047 22.0215 -5.9082 23.877 -7.76367 L 50.3418 -34.2285 L 55.3223 -39.6973 L 55.0781 -35.2051 L 55.0781 -22.8516 C 55.0781 -18.1152 58.252 -14.6484 62.5 -14.6484 C 66.7969 -14.6484 70.2637 -18.2617 70.2637 -22.8027 Z"/>
  </g>
  <g id="Heavy-S" transform="matrix(1 0 0 1 2597.58 696)">
   <path d="M 68.4082 -22.5586 L 68.457 -57.2754 C 68.457 -61.6211 65.5273 -64.5508 61.084 -64.5508 L 26.3672 -64.502 C 22.2168 -64.502 19.1895 -61.377 19.1895 -57.666 C 19.1895 -53.8574 22.3633 -51.0742 26.416 -51.0742 L 38.0859 -51.0742 L 45.9473 -51.4648 L 40.0879 -46.1914 L 12.1582 -18.3105 C 10.5957 -16.6992 9.76562 -14.7949 9.76562 -12.9883 C 9.76562 -9.375 13.1348 -5.9082 16.8457 -5.9082 C 18.6523 -5.9082 20.5566 -6.68945 22.1191 -8.30078 L 50.0488 -36.2305 L 55.3223 -42.1387 L 54.9316 -34.2773 L 54.9316 -22.5586 C 54.9316 -18.457 57.8125 -15.3809 61.5234 -15.3809 C 65.332 -15.3809 68.4082 -18.5547 68.4082 -22.5586 Z"/>
  </g>
  <g id="Bold-S" transform="matrix(1 0 0 1 2301.94 696)">
   <path d="M 66.3086 -22.2656 L 66.3086 -57.2754 C 66.3086 -60.9863 63.8672 -63.5254 60.1074 -63.5254 L 25.0488 -63.4766 C 21.4844 -63.4766 18.9453 -60.7422 18.9453 -57.6172 C 18.9453 -54.4434 21.6797 -52.002 25 -52.002 L 35.9375 -52.002 L 47.6074 -52.5391 L 41.3086 -46.9238 L 11.7676 -17.3828 C 10.4492 -16.0645 9.76562 -14.502 9.76562 -12.9883 C 9.76562 -9.91211 12.6465 -6.98242 15.7715 -6.98242 C 17.334 -6.98242 18.8477 -7.61719 20.2148 -8.93555 L 49.7559 -38.4766 L 55.3223 -44.8242 L 54.7852 -33.252 L 54.7852 -22.2168 C 54.7852 -18.8477 57.2754 -16.1621 60.4492 -16.1621 C 63.623 -16.1621 66.3086 -18.8477 66.3086 -22.2656 Z"/>
  </g>
  <g id="Semibold-S" transform="matrix(1 0 0 1 2005.94 696)">
   <path d="M 64.8438 -22.0703 L 64.8926 -57.3242 C 64.8926 -60.5957 62.7441 -62.793 59.4238 -62.793 L 24.1699 -62.6953 C 20.9961 -62.6953 18.7988 -60.3516 18.7988 -57.6172 C 18.7988 -54.7852 21.1914 -52.6367 24.0723 -52.6367 L 34.4727 -52.6367 L 48.7305 -53.2227 L 42.1387 -47.4609 L 11.4746 -16.748 C 10.3516 -15.625 9.76562 -14.2578 9.76562 -12.9883 C 9.76562 -10.2539 12.2559 -7.66602 15.0391 -7.66602 C 16.4062 -7.66602 17.7246 -8.25195 18.8477 -9.375 L 49.5117 -40.0391 L 55.3711 -46.6797 L 54.6875 -32.5195 L 54.6875 -21.9727 C 54.6875 -19.0918 56.9336 -16.6992 59.7168 -16.6992 C 62.5 -16.6992 64.8438 -19.043 64.8438 -22.0703 Z"/>
  </g>
  <g id="Medium-S" transform="matrix(1 0 0 1 1709.79 696)">
   <path d="M 63.7207 -21.9238 L 63.7695 -57.3242 C 63.7695 -60.2539 61.8652 -62.2559 58.8867 -62.2559 L 23.4863 -62.1582 C 20.6543 -62.1582 18.7012 -60.0098 18.7012 -57.5684 C 18.7012 -55.0781 20.8496 -53.0762 23.3398 -53.0762 L 33.3496 -53.0762 L 49.6094 -53.8086 L 42.7734 -47.8027 L 11.2793 -16.3086 C 10.2539 -15.332 9.76562 -14.1113 9.76562 -12.9883 C 9.76562 -10.5469 12.0117 -8.20312 14.502 -8.20312 C 15.6738 -8.20312 16.8457 -8.69141 17.8223 -9.66797 L 49.3652 -41.2109 L 55.3711 -48.0957 L 54.6387 -31.9824 L 54.6387 -21.7773 C 54.6387 -19.2871 56.6406 -17.1387 59.1797 -17.1387 C 61.6211 -17.1387 63.7207 -19.1895 63.7207 -21.9238 Z"/>
  </g>
  <g id="Regular-S" transform="matrix(1 0 0 1 1413.78 696)">
   <path d="M 62.3047 -21.7773 L 62.3535 -57.373 C 62.3535 -59.8145 60.7422 -61.5234 58.2031 -61.5234 L 22.5586 -61.4258 C 20.166 -61.4258 18.5547 -59.6191 18.5547 -57.5195 C 18.5547 -55.4688 20.3613 -53.7109 22.4121 -53.7109 L 31.8848 -53.7109 L 50.7324 -54.4922 L 43.5547 -48.3398 L 10.9863 -15.6738 C 10.2051 -14.8926 9.76562 -13.916 9.76562 -12.9883 C 9.76562 -10.8887 11.6211 -8.93555 13.7695 -8.93555 C 14.7949 -8.93555 15.7227 -9.32617 16.5039 -10.1074 L 49.1699 -42.7246 L 55.3711 -49.9512 L 54.541 -31.25 L 54.541 -21.582 C 54.541 -19.5312 56.2988 -17.6758 58.3984 -17.6758 C 60.498 -17.6758 62.3047 -19.4336 62.3047 -21.7773 Z"/>
  </g>
  <g id="Light-S" transform="matrix(1 0 0 1 1117.34 696)">
   <path d="M 61.8164 -21.9238 L 61.7676 -58.1055 C 61.7676 -59.9609 60.5469 -61.2305 58.6426 -61.2305 L 22.4121 -61.1816 C 20.5566 -61.1816 19.3359 -59.8145 19.3359 -58.252 C 19.3359 -56.6406 20.7031 -55.3223 22.3145 -55.3223 L 35.2539 -55.3223 L 52.9297 -55.9082 L 46.1914 -49.8535 L 10.6934 -14.3555 C 10.1074 -13.7207 9.76562 -12.9883 9.76562 -12.2559 C 9.76562 -10.6934 11.1816 -9.22852 12.793 -9.22852 C 13.5742 -9.22852 14.2578 -9.52148 14.8926 -10.1074 L 50.3906 -45.6543 L 56.4453 -52.3926 L 55.8594 -36.0352 L 55.8594 -21.7773 C 55.8594 -20.2148 57.2266 -18.7988 58.8379 -18.7988 C 60.4492 -18.7988 61.8164 -20.1172 61.8164 -21.9238 Z"/>
  </g>
  <g id="Thin-S" transform="matrix(1 0 0 1 820.973 696)">
   <path d="M 61.1328 -22.0703 L 61.0352 -59.0332 C 61.0352 -60.1562 60.3027 -60.8887 59.1797 -60.8887 L 22.2168 -60.8398 C 21.1426 -60.8398 20.4102 -60.0586 20.4102 -59.1309 C 20.4102 -58.2031 21.1914 -57.4707 22.168 -57.4707 L 39.6973 -57.4707 L 55.8105 -57.8125 L 49.6094 -51.9043 L 10.3027 -12.5977 C 9.96094 -12.2559 9.76562 -11.8164 9.76562 -11.377 C 9.76562 -10.4492 10.5469 -9.61914 11.5234 -9.61914 C 11.9629 -9.61914 12.4023 -9.76562 12.7441 -10.1562 L 52.0508 -49.4629 L 57.8613 -55.6641 L 57.6172 -42.334 L 57.6172 -22.0215 C 57.6172 -21.0938 58.3984 -20.3125 59.375 -20.3125 C 60.3516 -20.3125 61.1328 -21.0449 61.1328 -22.0703 Z"/>
  </g>
  <g id="Ultralight-S" transform="matrix(1 0 0 1 524.433 696)">
   <path d="M 60.791 -22.2168 L 60.6445 -59.5703 C 60.6445 -60.2539 60.2051 -60.6934 59.5215 -60.6934 L 22.1191 -60.6934 C 21.4355 -60.6934 20.9473 -60.2051 20.9473 -59.6191 C 20.9473 -58.9844 21.4355 -58.5938 22.0703 -58.5938 L 41.9434 -58.5938 L 57.3242 -58.7402 L 51.416 -52.9785 L 10.1074 -11.6699 C 9.86328 -11.4746 9.76562 -11.1816 9.76562 -10.8887 C 9.76562 -10.3027 10.2051 -9.81445 10.8398 -9.81445 C 11.1328 -9.81445 11.4258 -9.91211 11.6211 -10.1562 L 52.9297 -51.4648 L 58.6426 -57.3242 L 58.5449 -45.6055 L 58.5449 -22.168 C 58.5449 -21.5332 58.9844 -21.0449 59.668 -21.0449 C 60.3027 -21.0449 60.791 -21.5332 60.791 -22.2168 Z"/>
  </g>
 </g>
</svg>
