<?xml version="1.0" encoding="UTF-8"?>
<!--Generator: Apple Native CoreSVG 123-->
<!DOCTYPE svg
PUBLIC "-//W3C//DTD SVG 1.1//EN"
       "http://www.w3.org/Graphics/SVG/1.1/DTD/svg11.dtd">
<svg version="1.1" xmlns="http://www.w3.org/2000/svg" xmlns:xlink="http://www.w3.org/1999/xlink" width="3300" height="2200">
 <!--glyph: "uni100360.medium", point size: 100.000000, font version: "Version 15.0d7e11", template writer version: "5"-->
 <g id="Notes">
  <rect height="2200" id="artboard" style="fill:white;opacity:1" width="3300" x="0" y="0"/>
  <line id="" style="fill:none;stroke:black;opacity:1;stroke-width:0.5;" x1="263" x2="3036" y1="292" y2="292"/>
  <text style="stroke:none;fill:black;font-family:-apple-system,&quot;SF Pro Display&quot;,&quot;SF Pro Text&quot;,Helvetica,sans-serif;font-weight:bold;" transform="matrix(1 0 0 1 263 322)">Weight/Scale Variations</text>
  <text style="stroke:none;fill:black;font-family:-apple-system,&quot;SF Pro Display&quot;,&quot;SF Pro Text&quot;,Helvetica,sans-serif;text-anchor:middle;" transform="matrix(1 0 0 1 559.711 322)">Ultralight</text>
  <text style="stroke:none;fill:black;font-family:-apple-system,&quot;SF Pro Display&quot;,&quot;SF Pro Text&quot;,Helvetica,sans-serif;text-anchor:middle;" transform="matrix(1 0 0 1 856.422 322)">Thin</text>
  <text style="stroke:none;fill:black;font-family:-apple-system,&quot;SF Pro Display&quot;,&quot;SF Pro Text&quot;,Helvetica,sans-serif;text-anchor:middle;" transform="matrix(1 0 0 1 1153.13 322)">Light</text>
  <text style="stroke:none;fill:black;font-family:-apple-system,&quot;SF Pro Display&quot;,&quot;SF Pro Text&quot;,Helvetica,sans-serif;text-anchor:middle;" transform="matrix(1 0 0 1 1449.84 322)">Regular</text>
  <text style="stroke:none;fill:black;font-family:-apple-system,&quot;SF Pro Display&quot;,&quot;SF Pro Text&quot;,Helvetica,sans-serif;text-anchor:middle;" transform="matrix(1 0 0 1 1746.56 322)">Medium</text>
  <text style="stroke:none;fill:black;font-family:-apple-system,&quot;SF Pro Display&quot;,&quot;SF Pro Text&quot;,Helvetica,sans-serif;text-anchor:middle;" transform="matrix(1 0 0 1 2043.27 322)">Semibold</text>
  <text style="stroke:none;fill:black;font-family:-apple-system,&quot;SF Pro Display&quot;,&quot;SF Pro Text&quot;,Helvetica,sans-serif;text-anchor:middle;" transform="matrix(1 0 0 1 2339.98 322)">Bold</text>
  <text style="stroke:none;fill:black;font-family:-apple-system,&quot;SF Pro Display&quot;,&quot;SF Pro Text&quot;,Helvetica,sans-serif;text-anchor:middle;" transform="matrix(1 0 0 1 2636.69 322)">Heavy</text>
  <text style="stroke:none;fill:black;font-family:-apple-system,&quot;SF Pro Display&quot;,&quot;SF Pro Text&quot;,Helvetica,sans-serif;text-anchor:middle;" transform="matrix(1 0 0 1 2933.4 322)">Black</text>
  <line id="" style="fill:none;stroke:black;opacity:1;stroke-width:0.5;" x1="263" x2="3036" y1="1903" y2="1903"/>
  <g id="" transform="matrix(1 0 0 1 263 1933)">
   <path d="M 9.24805 0.830078 C 13.5547 0.830078 17.1387 -2.74414 17.1387 -7.05078 C 17.1387 -11.3574 13.5449 -14.9316 9.23828 -14.9316 C 4.94141 -14.9316 1.36719 -11.3574 1.36719 -7.05078 C 1.36719 -2.74414 4.95117 0.830078 9.24805 0.830078 Z M 9.24805 -0.654297 C 5.70312 -0.654297 2.87109 -3.49609 2.87109 -7.05078 C 2.87109 -10.6055 5.69336 -13.4473 9.23828 -13.4473 C 12.793 -13.4473 15.6348 -10.6055 15.6445 -7.05078 C 15.6543 -3.49609 12.8027 -0.654297 9.24805 -0.654297 Z M 9.22852 -3.42773 C 9.69727 -3.42773 9.9707 -3.74023 9.9707 -4.25781 L 9.9707 -6.31836 L 12.1973 -6.31836 C 12.6953 -6.31836 13.0371 -6.57227 13.0371 -7.04102 C 13.0371 -7.51953 12.7148 -7.7832 12.1973 -7.7832 L 9.9707 -7.7832 L 9.9707 -10.0098 C 9.9707 -10.5273 9.69727 -10.8496 9.22852 -10.8496 C 8.75977 -10.8496 8.50586 -10.5078 8.50586 -10.0098 L 8.50586 -7.7832 L 6.29883 -7.7832 C 5.78125 -7.7832 5.44922 -7.51953 5.44922 -7.04102 C 5.44922 -6.57227 5.80078 -6.31836 6.29883 -6.31836 L 8.50586 -6.31836 L 8.50586 -4.25781 C 8.50586 -3.75977 8.75977 -3.42773 9.22852 -3.42773 Z"/>
  </g>
  <g id="" transform="matrix(1 0 0 1 281.506 1933)">
   <path d="M 11.709 2.91016 C 17.1582 2.91016 21.6699 -1.60156 21.6699 -7.05078 C 21.6699 -12.4902 17.1484 -17.0117 11.6992 -17.0117 C 6.25977 -17.0117 1.74805 -12.4902 1.74805 -7.05078 C 1.74805 -1.60156 6.26953 2.91016 11.709 2.91016 Z M 11.709 1.25 C 7.09961 1.25 3.41797 -2.44141 3.41797 -7.05078 C 3.41797 -11.6504 7.08984 -15.3516 11.6992 -15.3516 C 16.3086 -15.3516 20 -11.6504 20.0098 -7.05078 C 20.0195 -2.44141 16.3184 1.25 11.709 1.25 Z M 11.6895 -2.41211 C 12.207 -2.41211 12.5195 -2.77344 12.5195 -3.33984 L 12.5195 -6.23047 L 15.5762 -6.23047 C 16.123 -6.23047 16.5039 -6.51367 16.5039 -7.03125 C 16.5039 -7.55859 16.1426 -7.86133 15.5762 -7.86133 L 12.5195 -7.86133 L 12.5195 -10.9277 C 12.5195 -11.5039 12.207 -11.8555 11.6895 -11.8555 C 11.1719 -11.8555 10.8789 -11.4844 10.8789 -10.9277 L 10.8789 -7.86133 L 7.83203 -7.86133 C 7.26562 -7.86133 6.89453 -7.55859 6.89453 -7.03125 C 6.89453 -6.51367 7.28516 -6.23047 7.83203 -6.23047 L 10.8789 -6.23047 L 10.8789 -3.33984 C 10.8789 -2.79297 11.1719 -2.41211 11.6895 -2.41211 Z"/>
  </g>
  <g id="" transform="matrix(1 0 0 1 304.924 1933)">
   <path d="M 14.9707 5.67383 C 21.9336 5.67383 27.6953 -0.078125 27.6953 -7.04102 C 27.6953 -14.0039 21.9238 -19.7559 14.9609 -19.7559 C 8.00781 -19.7559 2.25586 -14.0039 2.25586 -7.04102 C 2.25586 -0.078125 8.01758 5.67383 14.9707 5.67383 Z M 14.9707 3.85742 C 8.93555 3.85742 4.08203 -1.00586 4.08203 -7.04102 C 4.08203 -13.0762 8.92578 -17.9395 14.9609 -17.9395 C 21.0059 -17.9395 25.8594 -13.0762 25.8691 -7.04102 C 25.8789 -1.00586 21.0156 3.85742 14.9707 3.85742 Z M 14.9512 -1.06445 C 15.5176 -1.06445 15.8691 -1.45508 15.8691 -2.06055 L 15.8691 -6.13281 L 20.1074 -6.13281 C 20.6934 -6.13281 21.1133 -6.46484 21.1133 -7.02148 C 21.1133 -7.59766 20.7227 -7.93945 20.1074 -7.93945 L 15.8691 -7.93945 L 15.8691 -12.1875 C 15.8691 -12.8027 15.5176 -13.1934 14.9512 -13.1934 C 14.3848 -13.1934 14.0625 -12.7832 14.0625 -12.1875 L 14.0625 -7.93945 L 9.83398 -7.93945 C 9.21875 -7.93945 8.80859 -7.59766 8.80859 -7.02148 C 8.80859 -6.46484 9.23828 -6.13281 9.83398 -6.13281 L 14.0625 -6.13281 L 14.0625 -2.06055 C 14.0625 -1.47461 14.3848 -1.06445 14.9512 -1.06445 Z"/>
  </g>
  <text style="stroke:none;fill:black;font-family:-apple-system,&quot;SF Pro Display&quot;,&quot;SF Pro Text&quot;,Helvetica,sans-serif;font-weight:bold;" transform="matrix(1 0 0 1 263 1953)">Design Variations</text>
  <text style="stroke:none;fill:black;font-family:-apple-system,&quot;SF Pro Display&quot;,&quot;SF Pro Text&quot;,Helvetica,sans-serif;" transform="matrix(1 0 0 1 263 1971)">Symbols are supported in up to nine weights and three scales.</text>
  <text style="stroke:none;fill:black;font-family:-apple-system,&quot;SF Pro Display&quot;,&quot;SF Pro Text&quot;,Helvetica,sans-serif;" transform="matrix(1 0 0 1 263 1989)">For optimal layout with text and other symbols, vertically align</text>
  <text style="stroke:none;fill:black;font-family:-apple-system,&quot;SF Pro Display&quot;,&quot;SF Pro Text&quot;,Helvetica,sans-serif;" transform="matrix(1 0 0 1 263 2007)">symbols with the adjacent text.</text>
  <rect height="14" id="" style="fill:#00AEEF;stroke:none;opacity:0.4;" width="3" x="776" y="1919"/>
  <g id="" transform="matrix(1 0 0 1 779 1933)">
   <path d="M 10.5273 0 L 12.373 0 L 7.17773 -14.0918 L 5.43945 -14.0918 L 0.244141 0 L 2.08984 0 L 3.50586 -4.0332 L 9.11133 -4.0332 Z M 6.2793 -11.9531 L 6.33789 -11.9531 L 8.59375 -5.52734 L 4.02344 -5.52734 Z"/>
  </g>
  <rect height="14" id="" style="fill:#00AEEF;stroke:none;opacity:0.4;" width="3" x="791.617" y="1919"/>
  <text style="stroke:none;fill:black;font-family:-apple-system,&quot;SF Pro Display&quot;,&quot;SF Pro Text&quot;,Helvetica,sans-serif;font-weight:bold;" transform="matrix(1 0 0 1 776 1953)">Margins</text>
  <text style="stroke:none;fill:black;font-family:-apple-system,&quot;SF Pro Display&quot;,&quot;SF Pro Text&quot;,Helvetica,sans-serif;" transform="matrix(1 0 0 1 776 1971)">Leading and trailing margins on the left and right side of each symbol</text>
  <text style="stroke:none;fill:black;font-family:-apple-system,&quot;SF Pro Display&quot;,&quot;SF Pro Text&quot;,Helvetica,sans-serif;" transform="matrix(1 0 0 1 776 1989)">can be adjusted by modifying the width of the blue rectangles.</text>
  <text style="stroke:none;fill:black;font-family:-apple-system,&quot;SF Pro Display&quot;,&quot;SF Pro Text&quot;,Helvetica,sans-serif;" transform="matrix(1 0 0 1 776 2007)">Modifications are automatically applied proportionally to all</text>
  <text style="stroke:none;fill:black;font-family:-apple-system,&quot;SF Pro Display&quot;,&quot;SF Pro Text&quot;,Helvetica,sans-serif;" transform="matrix(1 0 0 1 776 2025)">scales and weights.</text>
  <g id="" transform="matrix(1 0 0 1 1289 1933)">
   <path d="M 2.83203 3.11523 L 4.375 4.6582 C 5.22461 5.48828 6.19141 5.41992 7.06055 4.46289 L 17.2754 -6.66016 C 17.7051 -6.36719 18.0957 -6.37695 18.5645 -6.47461 L 19.6094 -6.68945 L 20.3027 -5.99609 L 20.2539 -5.47852 C 20.1855 -4.95117 20.3516 -4.53125 20.8496 -4.0332 L 21.6602 -3.22266 C 22.168 -2.71484 22.8223 -2.68555 23.3008 -3.16406 L 26.5527 -6.41602 C 27.0312 -6.89453 27.0117 -7.54883 26.5039 -8.05664 L 25.6836 -8.87695 C 25.1855 -9.375 24.7754 -9.55078 24.2383 -9.47266 L 23.7109 -9.41406 L 23.0566 -10.0781 L 23.3398 -11.2207 C 23.4863 -11.7871 23.3398 -12.2559 22.7148 -12.8613 L 20.3027 -15.2539 C 16.7578 -18.7793 12.2266 -18.6719 9.11133 -15.5371 C 8.69141 -15.1074 8.64258 -14.5215 8.91602 -14.0918 C 9.15039 -13.7207 9.62891 -13.4961 10.2734 -13.6621 C 11.7871 -14.043 13.3008 -13.9258 14.7852 -12.9199 L 14.1602 -11.3379 C 13.9258 -10.752 13.9453 -10.2734 14.1797 -9.83398 L 3.01758 0.439453 C 2.08008 1.30859 1.97266 2.25586 2.83203 3.11523 Z M 10.6738 -15.1465 C 13.3398 -17.1387 16.6504 -16.8262 19.0527 -14.4141 L 21.6797 -11.8066 C 21.9141 -11.5723 21.9434 -11.3867 21.8848 -11.0938 L 21.5039 -9.53125 L 23.0762 -7.95898 L 24.043 -8.04688 C 24.3262 -8.07617 24.4141 -8.05664 24.6387 -7.83203 L 25.2637 -7.20703 L 22.5098 -4.46289 L 21.8848 -5.07812 C 21.6602 -5.30273 21.6406 -5.40039 21.6699 -5.68359 L 21.7578 -6.64062 L 20.1953 -8.20312 L 18.5742 -7.89062 C 18.291 -7.83203 18.1445 -7.83203 17.9102 -8.07617 L 15.7324 -10.2539 C 15.5078 -10.4883 15.4785 -10.625 15.6055 -10.9473 L 16.5527 -13.2227 C 14.9512 -14.7559 12.8418 -15.6055 10.8008 -14.9512 C 10.7129 -14.9219 10.6445 -14.9414 10.6152 -14.9805 C 10.5859 -15.0293 10.5859 -15.0781 10.6738 -15.1465 Z M 4.10156 2.41211 C 3.61328 1.91406 3.78906 1.61133 4.12109 1.30859 L 15.0781 -8.80859 L 16.3086 -7.57812 L 6.15234 3.34961 C 5.84961 3.68164 5.46875 3.7793 5.06836 3.37891 Z"/>
  </g>
  <text style="stroke:none;fill:black;font-family:-apple-system,&quot;SF Pro Display&quot;,&quot;SF Pro Text&quot;,Helvetica,sans-serif;font-weight:bold;" transform="matrix(1 0 0 1 1289 1953)">Exporting</text>
  <text style="stroke:none;fill:black;font-family:-apple-system,&quot;SF Pro Display&quot;,&quot;SF Pro Text&quot;,Helvetica,sans-serif;" transform="matrix(1 0 0 1 1289 1971)">Symbols should be outlined when exporting to ensure the</text>
  <text style="stroke:none;fill:black;font-family:-apple-system,&quot;SF Pro Display&quot;,&quot;SF Pro Text&quot;,Helvetica,sans-serif;" transform="matrix(1 0 0 1 1289 1989)">design is preserved when submitting to Xcode.</text>
  <text id="template-version" style="stroke:none;fill:black;font-family:-apple-system,&quot;SF Pro Display&quot;,&quot;SF Pro Text&quot;,Helvetica,sans-serif;text-anchor:end;" transform="matrix(1 0 0 1 3036 1933)">Template v.1.0</text>
  <text style="stroke:none;fill:black;font-family:-apple-system,&quot;SF Pro Display&quot;,&quot;SF Pro Text&quot;,Helvetica,sans-serif;text-anchor:end;" transform="matrix(1 0 0 1 3036 1951)">Generated from ellipsis</text>
  <text style="stroke:none;fill:black;font-family:-apple-system,&quot;SF Pro Display&quot;,&quot;SF Pro Text&quot;,Helvetica,sans-serif;text-anchor:end;" transform="matrix(1 0 0 1 3036 1969)">Typeset at 100 points</text>
  <text style="stroke:none;fill:black;font-family:-apple-system,&quot;SF Pro Display&quot;,&quot;SF Pro Text&quot;,Helvetica,sans-serif;" transform="matrix(1 0 0 1 263 726)">Small</text>
  <text style="stroke:none;fill:black;font-family:-apple-system,&quot;SF Pro Display&quot;,&quot;SF Pro Text&quot;,Helvetica,sans-serif;" transform="matrix(1 0 0 1 263 1156)">Medium</text>
  <text style="stroke:none;fill:black;font-family:-apple-system,&quot;SF Pro Display&quot;,&quot;SF Pro Text&quot;,Helvetica,sans-serif;" transform="matrix(1 0 0 1 263 1586)">Large</text>
 </g>
 <g id="Guides">
  <g id="H-reference" style="fill:#27AAE1;stroke:none;" transform="matrix(1 0 0 1 339 696)">
   <path d="M 54.9316 0 L 57.666 0 L 30.5664 -70.459 L 28.0762 -70.459 L 0.976562 0 L 3.66211 0 L 12.9395 -24.4629 L 45.7031 -24.4629 Z M 29.1992 -67.0898 L 29.4434 -67.0898 L 44.8242 -26.709 L 13.8184 -26.709 Z"/>
  </g>
  <line id="Baseline-S" style="fill:none;stroke:#27AAE1;opacity:1;stroke-width:0.577;" x1="263" x2="3036" y1="696" y2="696"/>
  <line id="Capline-S" style="fill:none;stroke:#27AAE1;opacity:1;stroke-width:0.577;" x1="263" x2="3036" y1="625.541" y2="625.541"/>
  <g id="H-reference" style="fill:#27AAE1;stroke:none;" transform="matrix(1 0 0 1 339 1126)">
   <path d="M 54.9316 0 L 57.666 0 L 30.5664 -70.459 L 28.0762 -70.459 L 0.976562 0 L 3.66211 0 L 12.9395 -24.4629 L 45.7031 -24.4629 Z M 29.1992 -67.0898 L 29.4434 -67.0898 L 44.8242 -26.709 L 13.8184 -26.709 Z"/>
  </g>
  <line id="Baseline-M" style="fill:none;stroke:#27AAE1;opacity:1;stroke-width:0.577;" x1="263" x2="3036" y1="1126" y2="1126"/>
  <line id="Capline-M" style="fill:none;stroke:#27AAE1;opacity:1;stroke-width:0.577;" x1="263" x2="3036" y1="1055.54" y2="1055.54"/>
  <g id="H-reference" style="fill:#27AAE1;stroke:none;" transform="matrix(1 0 0 1 339 1556)">
   <path d="M 54.9316 0 L 57.666 0 L 30.5664 -70.459 L 28.0762 -70.459 L 0.976562 0 L 3.66211 0 L 12.9395 -24.4629 L 45.7031 -24.4629 Z M 29.1992 -67.0898 L 29.4434 -67.0898 L 44.8242 -26.709 L 13.8184 -26.709 Z"/>
  </g>
  <line id="Baseline-L" style="fill:none;stroke:#27AAE1;opacity:1;stroke-width:0.577;" x1="263" x2="3036" y1="1556" y2="1556"/>
  <line id="Capline-L" style="fill:none;stroke:#27AAE1;opacity:1;stroke-width:0.577;" x1="263" x2="3036" y1="1485.54" y2="1485.54"/>
  <rect height="119.336" id="left-margin" style="fill:#00AEEF;stroke:none;opacity:0.4;" width="8.74023" x="1395.06" y="1030.79"/>
  <rect height="119.336" id="right-margin" style="fill:#00AEEF;stroke:none;opacity:0.4;" width="8.74023" x="1495.89" y="1030.79"/>
 </g>
 <g id="Symbols">
  <g id="Black-L" transform="matrix(1 0 0 1 2857.86 1556)">
   <path d="M 43.1152 -35.2051 C 43.1152 -44.2871 36.3281 -51.0742 27.1973 -51.0742 C 18.457 -51.0742 11.2793 -43.9941 11.2793 -35.2051 C 11.2793 -26.7578 18.457 -19.2871 27.1973 -19.2871 C 35.6934 -19.2871 43.1152 -26.7578 43.1152 -35.2051 Z M 91.4062 -35.2051 C 91.4062 -44.2871 84.668 -51.0742 75.5371 -51.0742 C 66.8457 -51.0742 59.668 -43.9941 59.668 -35.2051 C 59.668 -26.7578 66.8457 -19.2871 75.5371 -19.2871 C 84.0332 -19.2871 91.4062 -26.7578 91.4062 -35.2051 Z M 139.795 -35.2051 C 139.795 -44.2871 133.008 -51.0742 123.877 -51.0742 C 115.137 -51.0742 107.959 -43.9941 107.959 -35.2051 C 107.959 -26.7578 115.137 -19.2871 123.877 -19.2871 C 132.373 -19.2871 139.795 -26.7578 139.795 -35.2051 Z"/>
  </g>
  <g id="Heavy-L" transform="matrix(1 0 0 1 2562.74 1556)">
   <path d="M 41.2598 -35.2051 C 41.2598 -43.7012 34.8145 -50.1465 26.2695 -50.1465 C 18.0664 -50.1465 11.2793 -43.5059 11.2793 -35.2051 C 11.2793 -27.1973 18.0664 -20.2637 26.2695 -20.2637 C 34.3262 -20.2637 41.2598 -27.1973 41.2598 -35.2051 Z M 88.8672 -35.2051 C 88.8672 -43.7012 82.4707 -50.1465 73.9258 -50.1465 C 65.7227 -50.1465 58.9844 -43.5059 58.9844 -35.2051 C 58.9844 -27.1973 65.7227 -20.2637 73.9258 -20.2637 C 81.9824 -20.2637 88.8672 -27.1973 88.8672 -35.2051 Z M 136.621 -35.2051 C 136.621 -43.7012 130.176 -50.1465 121.631 -50.1465 C 113.379 -50.1465 106.592 -43.5059 106.592 -35.2051 C 106.592 -27.1973 113.379 -20.2637 121.631 -20.2637 C 129.639 -20.2637 136.621 -27.1973 136.621 -35.2051 Z"/>
  </g>
  <g id="Bold-L" transform="matrix(1 0 0 1 2267.83 1556)">
   <path d="M 39.209 -35.1562 C 39.209 -43.0176 33.1055 -49.0723 25.1953 -49.0723 C 17.5293 -49.0723 11.2793 -42.8711 11.2793 -35.1562 C 11.2793 -27.6855 17.5293 -21.2891 25.1953 -21.2891 C 32.8125 -21.2891 39.209 -27.6855 39.209 -35.1562 Z M 86.0352 -35.1562 C 86.0352 -43.0176 79.9805 -49.0723 72.168 -49.0723 C 64.502 -49.0723 58.252 -42.8711 58.252 -35.1562 C 58.252 -27.6855 64.502 -21.2891 72.168 -21.2891 C 79.6875 -21.2891 86.0352 -27.6855 86.0352 -35.1562 Z M 133.008 -35.1562 C 133.008 -43.0176 126.953 -49.0723 119.092 -49.0723 C 111.377 -49.0723 105.127 -42.8711 105.127 -35.1562 C 105.127 -27.6855 111.377 -21.2891 119.092 -21.2891 C 126.611 -21.2891 133.008 -27.6855 133.008 -35.1562 Z"/>
  </g>
  <g id="Semibold-L" transform="matrix(1 0 0 1 1972.34 1556)">
   <path d="M 37.7441 -35.1562 C 37.7441 -42.5781 31.9336 -48.3398 24.4629 -48.3398 C 17.2363 -48.3398 11.2793 -42.4805 11.2793 -35.1562 C 11.2793 -27.9785 17.2363 -22.0215 24.4629 -22.0215 C 31.7383 -22.0215 37.7441 -27.9785 37.7441 -35.1562 Z M 84.082 -35.1562 C 84.082 -42.5781 78.3203 -48.3398 70.8984 -48.3398 C 63.6719 -48.3398 57.7637 -42.4805 57.7637 -35.1562 C 57.7637 -27.9785 63.6719 -22.0215 70.8984 -22.0215 C 78.125 -22.0215 84.082 -27.9785 84.082 -35.1562 Z M 130.566 -35.1562 C 130.566 -42.5781 124.756 -48.3398 117.383 -48.3398 C 110.01 -48.3398 104.102 -42.4805 104.102 -35.1562 C 104.102 -27.9785 110.01 -22.0215 117.383 -22.0215 C 124.561 -22.0215 130.566 -27.9785 130.566 -35.1562 Z"/>
  </g>
  <g id="Medium-L" transform="matrix(1 0 0 1 1676.56 1556)">
   <path d="M 36.6699 -35.1562 C 36.6699 -42.2363 31.0547 -47.8027 23.9258 -47.8027 C 16.9434 -47.8027 11.2793 -42.1875 11.2793 -35.1562 C 11.2793 -28.2227 16.9434 -22.5586 23.9258 -22.5586 C 30.957 -22.5586 36.6699 -28.2227 36.6699 -35.1562 Z M 82.5684 -35.1562 C 82.5684 -42.2363 77.002 -47.8027 69.9707 -47.8027 C 63.0371 -47.8027 57.373 -42.1875 57.373 -35.1562 C 57.373 -28.2227 63.0371 -22.5586 69.9707 -22.5586 C 76.9043 -22.5586 82.5684 -28.2227 82.5684 -35.1562 Z M 128.711 -35.1562 C 128.711 -42.2363 123.096 -47.8027 116.064 -47.8027 C 108.984 -47.8027 103.32 -42.1875 103.32 -35.1562 C 103.32 -28.2227 108.984 -22.5586 116.064 -22.5586 C 122.949 -22.5586 128.711 -28.2227 128.711 -35.1562 Z"/>
  </g>
  <g id="Regular-L" transform="matrix(1 0 0 1 1381.07 1556)">
   <path d="M 35.2539 -35.1562 C 35.2539 -41.748 29.8828 -47.0703 23.1934 -47.0703 C 16.6504 -47.0703 11.2793 -41.748 11.2793 -35.1562 C 11.2793 -28.5645 16.6504 -23.291 23.1934 -23.291 C 29.8828 -23.291 35.2539 -28.5645 35.2539 -35.1562 Z M 80.6641 -35.1562 C 80.6641 -41.748 75.3418 -47.0703 68.75 -47.0703 C 62.207 -47.0703 56.8848 -41.748 56.8848 -35.1562 C 56.8848 -28.5645 62.207 -23.291 68.75 -23.291 C 75.3418 -23.291 80.6641 -28.5645 80.6641 -35.1562 Z M 126.27 -35.1562 C 126.27 -41.748 120.898 -47.0703 114.307 -47.0703 C 107.666 -47.0703 102.295 -41.748 102.295 -35.1562 C 102.295 -28.5645 107.666 -23.291 114.307 -23.291 C 120.898 -23.291 126.27 -28.5645 126.27 -35.1562 Z"/>
  </g>
  <g id="Light-L" transform="matrix(1 0 0 1 1087.02 1556)">
   <path d="M 33.3008 -35.1562 C 33.3008 -41.2109 28.3691 -46.1426 22.2656 -46.1426 C 16.2109 -46.1426 11.2793 -41.2109 11.2793 -35.1562 C 11.2793 -29.0527 16.2109 -24.1699 22.2656 -24.1699 C 28.3691 -24.1699 33.3008 -29.0527 33.3008 -35.1562 Z M 77.0996 -35.1562 C 77.0996 -41.2109 72.168 -46.1426 66.1133 -46.1426 C 60.0586 -46.1426 55.1758 -41.2109 55.1758 -35.1562 C 55.1758 -29.0527 60.0586 -24.1699 66.1133 -24.1699 C 72.168 -24.1699 77.0996 -29.0527 77.0996 -35.1562 Z M 120.947 -35.1562 C 120.947 -41.2109 116.016 -46.1426 109.961 -46.1426 C 103.857 -46.1426 98.9258 -41.2109 98.9258 -35.1562 C 98.9258 -29.0527 103.857 -24.1699 109.961 -24.1699 C 116.016 -24.1699 120.947 -29.0527 120.947 -35.1562 Z"/>
  </g>
  <g id="Thin-L" transform="matrix(1 0 0 1 793.8 1556)">
   <path d="M 30.7617 -35.1074 C 30.7617 -40.5273 26.3672 -44.873 20.9961 -44.873 C 15.6738 -44.873 11.2793 -40.5273 11.2793 -35.1074 C 11.2793 -29.6875 15.6738 -25.3906 20.9961 -25.3906 C 26.3672 -25.3906 30.7617 -29.6875 30.7617 -35.1074 Z M 72.3633 -35.1074 C 72.3633 -40.5273 67.9688 -44.873 62.6465 -44.873 C 57.2754 -44.873 52.8809 -40.5273 52.8809 -35.1074 C 52.8809 -29.6875 57.2754 -25.3906 62.6465 -25.3906 C 67.9688 -25.3906 72.3633 -29.6875 72.3633 -35.1074 Z M 113.965 -35.1074 C 113.965 -40.5273 109.57 -44.873 104.248 -44.873 C 98.877 -44.873 94.4824 -40.5273 94.4824 -35.1074 C 94.4824 -29.6875 98.877 -25.3906 104.248 -25.3906 C 109.57 -25.3906 113.965 -29.6875 113.965 -35.1074 Z"/>
  </g>
  <g id="Ultralight-L" transform="matrix(1 0 0 1 498.871 1556)">
   <path d="M 29.4922 -35.1074 C 29.4922 -40.1367 25.3418 -44.1895 20.3613 -44.1895 C 15.4297 -44.1895 11.2793 -40.1367 11.2793 -35.1074 C 11.2793 -30.0293 15.4297 -25.9766 20.3613 -25.9766 C 25.3418 -25.9766 29.4922 -30.0293 29.4922 -35.1074 Z M 69.9219 -35.1074 C 69.9219 -40.1367 65.8203 -44.1895 60.8398 -44.1895 C 55.8594 -44.1895 51.709 -40.1367 51.709 -35.1074 C 51.709 -30.0293 55.8594 -25.9766 60.8398 -25.9766 C 65.8203 -25.9766 69.9219 -30.0293 69.9219 -35.1074 Z M 110.4 -35.1074 C 110.4 -40.1367 106.25 -44.1895 101.318 -44.1895 C 96.3379 -44.1895 92.1875 -40.1367 92.1875 -35.1074 C 92.1875 -30.0293 96.3379 -25.9766 101.318 -25.9766 C 106.25 -25.9766 110.4 -30.0293 110.4 -35.1074 Z"/>
  </g>
  <g id="Black-M" transform="matrix(1 0 0 1 2874.12 1126)">
   <path d="M 34.9121 -35.2051 C 34.9121 -42.7734 29.3945 -48.291 21.8262 -48.291 C 14.6973 -48.291 8.74023 -42.4805 8.74023 -35.2051 C 8.74023 -28.3691 14.6973 -22.1191 21.8262 -22.1191 C 28.7109 -22.1191 34.9121 -28.3691 34.9121 -35.2051 Z M 72.3633 -35.2051 C 72.3633 -42.7734 66.8457 -48.291 59.2773 -48.291 C 52.1484 -48.291 46.1914 -42.4805 46.1914 -35.2051 C 46.1914 -28.3691 52.1484 -22.1191 59.2773 -22.1191 C 66.1621 -22.1191 72.3633 -28.3691 72.3633 -35.2051 Z M 109.814 -35.2051 C 109.814 -42.7734 104.346 -48.291 96.7285 -48.291 C 89.5996 -48.291 83.6426 -42.4805 83.6426 -35.2051 C 83.6426 -28.3691 89.5996 -22.1191 96.7285 -22.1191 C 103.613 -22.1191 109.814 -28.3691 109.814 -35.2051 Z"/>
  </g>
  <g id="Heavy-M" transform="matrix(1 0 0 1 2578.46 1126)">
   <path d="M 33.3984 -35.2051 C 33.3984 -42.2852 28.125 -47.5098 21.0449 -47.5098 C 14.3066 -47.5098 8.74023 -42.041 8.74023 -35.2051 C 8.74023 -28.7109 14.3066 -22.9004 21.0449 -22.9004 C 27.5879 -22.9004 33.3984 -28.7109 33.3984 -35.2051 Z M 70.5078 -35.2051 C 70.5078 -42.2852 65.2832 -47.5098 58.2031 -47.5098 C 51.5137 -47.5098 45.9473 -42.041 45.9473 -35.2051 C 45.9473 -28.7109 51.5137 -22.9004 58.2031 -22.9004 C 64.7461 -22.9004 70.5078 -28.7109 70.5078 -35.2051 Z M 107.715 -35.2051 C 107.715 -42.2852 102.49 -47.5098 95.4102 -47.5098 C 88.6719 -47.5098 83.0566 -42.041 83.0566 -35.2051 C 83.0566 -28.7109 88.6719 -22.9004 95.4102 -22.9004 C 101.953 -22.9004 107.715 -28.7109 107.715 -35.2051 Z"/>
  </g>
  <g id="Bold-M" transform="matrix(1 0 0 1 2282.95 1126)">
   <path d="M 31.6406 -35.2051 C 31.6406 -41.6992 26.709 -46.6309 20.166 -46.6309 C 13.916 -46.6309 8.74023 -41.5527 8.74023 -35.2051 C 8.74023 -29.0527 13.916 -23.7793 20.166 -23.7793 C 26.3672 -23.7793 31.6406 -29.0527 31.6406 -35.2051 Z M 68.457 -35.2051 C 68.457 -41.6992 63.5254 -46.6309 57.0312 -46.6309 C 50.7812 -46.6309 45.6055 -41.5527 45.6055 -35.2051 C 45.6055 -29.0527 50.7812 -23.7793 57.0312 -23.7793 C 63.1836 -23.7793 68.457 -29.0527 68.457 -35.2051 Z M 105.322 -35.2051 C 105.322 -41.6992 100.391 -46.6309 93.8965 -46.6309 C 87.5977 -46.6309 82.4219 -41.5527 82.4219 -35.2051 C 82.4219 -29.0527 87.5977 -23.7793 93.8965 -23.7793 C 100.049 -23.7793 105.322 -29.0527 105.322 -35.2051 Z"/>
  </g>
  <g id="Semibold-M" transform="matrix(1 0 0 1 1987.04 1126)">
   <path d="M 30.4688 -35.2051 C 30.4688 -41.3086 25.7324 -46.0449 19.5801 -46.0449 C 13.623 -46.0449 8.74023 -41.2109 8.74023 -35.2051 C 8.74023 -29.3457 13.623 -24.3652 19.5801 -24.3652 C 25.4883 -24.3652 30.4688 -29.3457 30.4688 -35.2051 Z M 67.041 -35.2051 C 67.041 -41.3086 62.3047 -46.0449 56.2012 -46.0449 C 50.2441 -46.0449 45.4102 -41.2109 45.4102 -35.2051 C 45.4102 -29.3457 50.2441 -24.3652 56.2012 -24.3652 C 62.1094 -24.3652 67.041 -29.3457 67.041 -35.2051 Z M 103.711 -35.2051 C 103.711 -41.3086 98.9746 -46.0449 92.8711 -46.0449 C 86.8652 -46.0449 81.9824 -41.2109 81.9824 -35.2051 C 81.9824 -29.3457 86.8652 -24.3652 92.8711 -24.3652 C 98.7305 -24.3652 103.711 -29.3457 103.711 -35.2051 Z"/>
  </g>
  <g id="Medium-M" transform="matrix(1 0 0 1 1690.94 1126)">
   <path d="M 29.5898 -35.2051 C 29.5898 -41.0156 25 -45.5566 19.1406 -45.5566 C 13.3789 -45.5566 8.74023 -40.918 8.74023 -35.2051 C 8.74023 -29.541 13.3789 -24.8535 19.1406 -24.8535 C 24.8535 -24.8535 29.5898 -29.541 29.5898 -35.2051 Z M 65.918 -35.2051 C 65.918 -41.0156 61.377 -45.5566 55.6152 -45.5566 C 49.9023 -45.5566 45.2637 -40.918 45.2637 -35.2051 C 45.2637 -29.541 49.9023 -24.8535 55.6152 -24.8535 C 61.2793 -24.8535 65.918 -29.541 65.918 -35.2051 Z M 102.49 -35.2051 C 102.49 -41.0156 97.9004 -45.5566 92.0898 -45.5566 C 86.2793 -45.5566 81.6406 -40.918 81.6406 -35.2051 C 81.6406 -29.541 86.2793 -24.8535 92.0898 -24.8535 C 97.7539 -24.8535 102.49 -29.541 102.49 -35.2051 Z"/>
  </g>
  <g id="Regular-M" transform="matrix(1 0 0 1 1395.06 1126)">
   <path d="M 28.418 -35.2051 C 28.418 -40.625 24.0234 -44.9707 18.5059 -44.9707 C 13.1348 -44.9707 8.74023 -40.625 8.74023 -35.2051 C 8.74023 -29.7852 13.1348 -25.4395 18.5059 -25.4395 C 24.0234 -25.4395 28.418 -29.7852 28.418 -35.2051 Z M 64.5508 -35.2051 C 64.5508 -40.625 60.2051 -44.9707 54.7852 -44.9707 C 49.4141 -44.9707 45.0684 -40.625 45.0684 -35.2051 C 45.0684 -29.7852 49.4141 -25.4395 54.7852 -25.4395 C 60.2051 -25.4395 64.5508 -29.7852 64.5508 -35.2051 Z M 100.83 -35.2051 C 100.83 -40.625 96.4844 -44.9707 91.0645 -44.9707 C 85.5469 -44.9707 81.2012 -40.625 81.2012 -35.2051 C 81.2012 -29.7852 85.5469 -25.4395 91.0645 -25.4395 C 96.4844 -25.4395 100.83 -29.7852 100.83 -35.2051 Z"/>
  </g>
  <g id="Light-M" transform="matrix(1 0 0 1 1100.72 1126)">
   <path d="M 26.6602 -35.1562 C 26.6602 -40.1367 22.6562 -44.0918 17.6758 -44.0918 C 12.7441 -44.0918 8.74023 -40.1367 8.74023 -35.1562 C 8.74023 -30.2246 12.7441 -26.2695 17.6758 -26.2695 C 22.6562 -26.2695 26.6602 -30.2246 26.6602 -35.1562 Z M 61.3281 -35.1562 C 61.3281 -40.1367 57.373 -44.0918 52.4414 -44.0918 C 47.5098 -44.0918 43.5059 -40.1367 43.5059 -35.1562 C 43.5059 -30.2246 47.5098 -26.2695 52.4414 -26.2695 C 57.373 -26.2695 61.3281 -30.2246 61.3281 -35.1562 Z M 96.0938 -35.1562 C 96.0938 -40.1367 92.0898 -44.0918 87.1582 -44.0918 C 82.1777 -44.0918 78.1738 -40.1367 78.1738 -35.1562 C 78.1738 -30.2246 82.1777 -26.2695 87.1582 -26.2695 C 92.0898 -26.2695 96.0938 -30.2246 96.0938 -35.1562 Z"/>
  </g>
  <g id="Thin-M" transform="matrix(1 0 0 1 807.13 1126)">
   <path d="M 24.4141 -35.1562 C 24.4141 -39.502 20.8496 -42.9688 16.5527 -42.9688 C 12.2559 -42.9688 8.74023 -39.502 8.74023 -35.1562 C 8.74023 -30.8105 12.2559 -27.3438 16.5527 -27.3438 C 20.8496 -27.3438 24.4141 -30.8105 24.4141 -35.1562 Z M 57.0801 -35.1562 C 57.0801 -39.502 53.5645 -42.9688 49.3164 -42.9688 C 45.0195 -42.9688 41.5039 -39.502 41.5039 -35.1562 C 41.5039 -30.8105 45.0195 -27.3438 49.3164 -27.3438 C 53.5645 -27.3438 57.0801 -30.8105 57.0801 -35.1562 Z M 89.8438 -35.1562 C 89.8438 -39.502 86.3281 -42.9688 82.0312 -42.9688 C 77.7344 -42.9688 74.1699 -39.502 74.1699 -35.1562 C 74.1699 -30.8105 77.7344 -27.3438 82.0312 -27.3438 C 86.3281 -27.3438 89.8438 -30.8105 89.8438 -35.1562 Z"/>
  </g>
  <g id="Ultralight-M" transform="matrix(1 0 0 1 512.03 1126)">
   <path d="M 23.2422 -35.1562 C 23.2422 -39.1602 19.9219 -42.3828 15.9668 -42.3828 C 12.0117 -42.3828 8.74023 -39.1602 8.74023 -35.1562 C 8.74023 -31.1035 12.0117 -27.8809 15.9668 -27.8809 C 19.9219 -27.8809 23.2422 -31.1035 23.2422 -35.1562 Z M 54.9316 -35.1562 C 54.9316 -39.1602 51.6602 -42.3828 47.7051 -42.3828 C 43.7012 -42.3828 40.4297 -39.1602 40.4297 -35.1562 C 40.4297 -31.1035 43.7012 -27.8809 47.7051 -27.8809 C 51.6602 -27.8809 54.9316 -31.1035 54.9316 -35.1562 Z M 86.6211 -35.1562 C 86.6211 -39.1602 83.3496 -42.3828 79.3945 -42.3828 C 75.4395 -42.3828 72.168 -39.1602 72.168 -35.1562 C 72.168 -31.1035 75.4395 -27.8809 79.3945 -27.8809 C 83.3496 -27.8809 86.6211 -31.1035 86.6211 -35.1562 Z"/>
  </g>
  <g id="Black-S" transform="matrix(1 0 0 1 2887.01 696)">
   <path d="M 27.2461 -35.2051 C 27.2461 -41.1133 22.9492 -45.4102 17.041 -45.4102 C 11.4746 -45.4102 6.83594 -40.8691 6.83594 -35.2051 C 6.83594 -29.8828 11.4746 -25 17.041 -25 C 22.4121 -25 27.2461 -29.8828 27.2461 -35.2051 Z M 56.5918 -35.2051 C 56.5918 -41.1133 52.2949 -45.4102 46.3867 -45.4102 C 40.8203 -45.4102 36.1816 -40.8691 36.1816 -35.2051 C 36.1816 -29.8828 40.8203 -25 46.3867 -25 C 51.7578 -25 56.5918 -29.8828 56.5918 -35.2051 Z M 85.9375 -35.2051 C 85.9375 -41.1133 81.6406 -45.4102 75.7324 -45.4102 C 70.166 -45.4102 65.5273 -40.8691 65.5273 -35.2051 C 65.5273 -29.8828 70.166 -25 75.7324 -25 C 81.1035 -25 85.9375 -29.8828 85.9375 -35.2051 Z"/>
  </g>
  <g id="Heavy-S" transform="matrix(1 0 0 1 2590.84 696)">
   <path d="M 26.2695 -35.2051 C 26.2695 -40.7715 22.1191 -44.9219 16.5527 -44.9219 C 11.2305 -44.9219 6.83594 -40.5762 6.83594 -35.2051 C 6.83594 -30.0781 11.2305 -25.5371 16.5527 -25.5371 C 21.7285 -25.5371 26.2695 -30.0781 26.2695 -35.2051 Z M 55.5176 -35.2051 C 55.5176 -40.7715 51.416 -44.9219 45.8496 -44.9219 C 40.5273 -44.9219 36.1328 -40.5762 36.1328 -35.2051 C 36.1328 -30.0781 40.5273 -25.5371 45.8496 -25.5371 C 50.9766 -25.5371 55.5176 -30.0781 55.5176 -35.2051 Z M 84.8633 -35.2051 C 84.8633 -40.7715 80.7129 -44.9219 75.1465 -44.9219 C 69.8242 -44.9219 65.4297 -40.5762 65.4297 -35.2051 C 65.4297 -30.0781 69.8242 -25.5371 75.1465 -25.5371 C 80.3223 -25.5371 84.8633 -30.0781 84.8633 -35.2051 Z"/>
  </g>
  <g id="Bold-S" transform="matrix(1 0 0 1 2294.76 696)">
   <path d="M 25.1465 -35.2051 C 25.1465 -40.3809 21.1914 -44.3359 15.9668 -44.3359 C 10.9375 -44.3359 6.83594 -40.2832 6.83594 -35.2051 C 6.83594 -30.3223 10.9375 -26.0742 15.9668 -26.0742 C 20.9473 -26.0742 25.1465 -30.3223 25.1465 -35.2051 Z M 54.3457 -35.2051 C 54.3457 -40.3809 50.3906 -44.3359 45.2148 -44.3359 C 40.2344 -44.3359 36.1328 -40.2832 36.1328 -35.2051 C 36.1328 -30.3223 40.2344 -26.0742 45.2148 -26.0742 C 50.1465 -26.0742 54.3457 -30.3223 54.3457 -35.2051 Z M 83.5938 -35.2051 C 83.5938 -40.3809 79.6875 -44.3359 74.4629 -44.3359 C 69.4336 -44.3359 65.2832 -40.2832 65.2832 -35.2051 C 65.2832 -30.3223 69.4336 -26.0742 74.4629 -26.0742 C 79.3945 -26.0742 83.5938 -30.3223 83.5938 -35.2051 Z"/>
  </g>
  <g id="Semibold-S" transform="matrix(1 0 0 1 1998.47 696)">
   <path d="M 24.4141 -35.2051 C 24.4141 -40.1367 20.5566 -43.9453 15.5762 -43.9453 C 10.791 -43.9453 6.83594 -40.0391 6.83594 -35.2051 C 6.83594 -30.4688 10.791 -26.4648 15.5762 -26.4648 C 20.4102 -26.4648 24.4141 -30.4688 24.4141 -35.2051 Z M 53.5156 -35.2051 C 53.5156 -40.1367 49.707 -43.9453 44.8242 -43.9453 C 39.9902 -43.9453 36.084 -40.0391 36.084 -35.2051 C 36.084 -30.4688 39.9902 -26.4648 44.8242 -26.4648 C 49.5605 -26.4648 53.5156 -30.4688 53.5156 -35.2051 Z M 82.7637 -35.2051 C 82.7637 -40.1367 78.9551 -43.9453 74.0234 -43.9453 C 69.1406 -43.9453 65.1855 -40.0391 65.1855 -35.2051 C 65.1855 -30.4688 69.1406 -26.4648 74.0234 -26.4648 C 78.7598 -26.4648 82.7637 -30.4688 82.7637 -35.2051 Z"/>
  </g>
  <g id="Medium-S" transform="matrix(1 0 0 1 1702.07 696)">
   <path d="M 23.8281 -35.2051 C 23.8281 -39.9414 20.1172 -43.6523 15.2832 -43.6523 C 10.6445 -43.6523 6.83594 -39.8926 6.83594 -35.2051 C 6.83594 -30.5664 10.6445 -26.8066 15.2832 -26.8066 C 20.0195 -26.8066 23.8281 -30.5664 23.8281 -35.2051 Z M 52.8809 -35.2051 C 52.8809 -39.9414 49.2188 -43.6523 44.4824 -43.6523 C 39.8438 -43.6523 36.084 -39.8926 36.084 -35.2051 C 36.084 -30.5664 39.8438 -26.8066 44.4824 -26.8066 C 49.1211 -26.8066 52.8809 -30.5664 52.8809 -35.2051 Z M 82.1289 -35.2051 C 82.1289 -39.9414 78.418 -43.6523 73.6816 -43.6523 C 68.9453 -43.6523 65.1367 -39.8926 65.1367 -35.2051 C 65.1367 -30.5664 68.9453 -26.8066 73.6816 -26.8066 C 78.3203 -26.8066 82.1289 -30.5664 82.1289 -35.2051 Z"/>
  </g>
  <g id="Regular-S" transform="matrix(1 0 0 1 1405.78 696)">
   <path d="M 23.0957 -35.2051 C 23.0957 -39.6484 19.4824 -43.2617 14.8926 -43.2617 C 10.4492 -43.2617 6.83594 -39.6484 6.83594 -35.2051 C 6.83594 -30.7129 10.4492 -27.1973 14.8926 -27.1973 C 19.4824 -27.1973 23.0957 -30.7129 23.0957 -35.2051 Z M 52.0996 -35.2051 C 52.0996 -39.6484 48.5352 -43.2617 44.043 -43.2617 C 39.5996 -43.2617 36.0352 -39.6484 36.0352 -35.2051 C 36.0352 -30.7129 39.5996 -27.1973 44.043 -27.1973 C 48.5352 -27.1973 52.0996 -30.7129 52.0996 -35.2051 Z M 81.2988 -35.2051 C 81.2988 -39.6484 77.6855 -43.2617 73.2422 -43.2617 C 68.6523 -43.2617 65.0391 -39.6484 65.0391 -35.2051 C 65.0391 -30.7129 68.6523 -27.1973 73.2422 -27.1973 C 77.6855 -27.1973 81.2988 -30.7129 81.2988 -35.2051 Z"/>
  </g>
  <g id="Light-S" transform="matrix(1 0 0 1 1111.17 696)">
   <path d="M 21.5332 -35.2051 C 21.5332 -39.2578 18.2617 -42.5293 14.1602 -42.5293 C 10.1074 -42.5293 6.83594 -39.2578 6.83594 -35.2051 C 6.83594 -31.1523 10.1074 -27.8809 14.1602 -27.8809 C 18.2617 -27.8809 21.5332 -31.1523 21.5332 -35.2051 Z M 49.2676 -35.2051 C 49.2676 -39.2578 45.9961 -42.5293 41.9922 -42.5293 C 37.9395 -42.5293 34.668 -39.2578 34.668 -35.2051 C 34.668 -31.1523 37.9395 -27.8809 41.9922 -27.8809 C 45.9961 -27.8809 49.2676 -31.1523 49.2676 -35.2051 Z M 77.0996 -35.2051 C 77.0996 -39.2578 73.8281 -42.5293 69.7754 -42.5293 C 65.6738 -42.5293 62.4023 -39.2578 62.4023 -35.2051 C 62.4023 -31.1523 65.6738 -27.8809 69.7754 -27.8809 C 73.8281 -27.8809 77.0996 -31.1523 77.0996 -35.2051 Z"/>
  </g>
  <g id="Thin-S" transform="matrix(1 0 0 1 817.213 696)">
   <path d="M 19.5312 -35.1562 C 19.5312 -38.6719 16.6992 -41.5039 13.1836 -41.5039 C 9.7168 -41.5039 6.83594 -38.6719 6.83594 -35.1562 C 6.83594 -31.6406 9.7168 -28.8574 13.1836 -28.8574 C 16.6992 -28.8574 19.5312 -31.6406 19.5312 -35.1562 Z M 45.5078 -35.1562 C 45.5078 -38.6719 42.6758 -41.5039 39.209 -41.5039 C 35.7422 -41.5039 32.8613 -38.6719 32.8613 -35.1562 C 32.8613 -31.6406 35.7422 -28.8574 39.209 -28.8574 C 42.6758 -28.8574 45.5078 -31.6406 45.5078 -35.1562 Z M 71.582 -35.1562 C 71.582 -38.6719 68.7012 -41.5039 65.2344 -41.5039 C 61.7188 -41.5039 58.8867 -38.6719 58.8867 -35.1562 C 58.8867 -31.6406 61.7188 -28.8574 65.2344 -28.8574 C 68.7012 -28.8574 71.582 -31.6406 71.582 -35.1562 Z"/>
  </g>
  <g id="Ultralight-S" transform="matrix(1 0 0 1 521.943 696)">
   <path d="M 18.5059 -35.1562 C 18.5059 -38.3789 15.8691 -40.9668 12.6465 -40.9668 C 9.47266 -40.9668 6.83594 -38.3789 6.83594 -35.1562 C 6.83594 -31.9336 9.47266 -29.3457 12.6465 -29.3457 C 15.8691 -29.3457 18.5059 -31.9336 18.5059 -35.1562 Z M 43.6035 -35.1562 C 43.6035 -38.3789 40.9668 -40.9668 37.793 -40.9668 C 34.5703 -40.9668 31.9336 -38.3789 31.9336 -35.1562 C 31.9336 -31.9336 34.5703 -29.3457 37.793 -29.3457 C 40.9668 -29.3457 43.6035 -31.9336 43.6035 -35.1562 Z M 68.7012 -35.1562 C 68.7012 -38.3789 66.0645 -40.9668 62.8906 -40.9668 C 59.7168 -40.9668 57.0801 -38.3789 57.0801 -35.1562 C 57.0801 -31.9336 59.7168 -29.3457 62.8906 -29.3457 C 66.0645 -29.3457 68.7012 -31.9336 68.7012 -35.1562 Z"/>
  </g>
 </g>
</svg>
