<?xml version="1.0" encoding="UTF-8"?>
<!--Generator: Apple Native CoreSVG 123-->
<!DOCTYPE svg
PUBLIC "-//W3C//DTD SVG 1.1//EN"
       "http://www.w3.org/Graphics/SVG/1.1/DTD/svg11.dtd">
<svg version="1.1" xmlns="http://www.w3.org/2000/svg" xmlns:xlink="http://www.w3.org/1999/xlink" width="3300" height="2200">
 <!--glyph: "uni1002EE.medium", point size: 100.000000, font version: "Version 15.0d7e11", template writer version: "5"-->
 <g id="Notes">
  <rect height="2200" id="artboard" style="fill:white;opacity:1" width="3300" x="0" y="0"/>
  <line id="" style="fill:none;stroke:black;opacity:1;stroke-width:0.5;" x1="263" x2="3036" y1="292" y2="292"/>
  <text style="stroke:none;fill:black;font-family:-apple-system,&quot;SF Pro Display&quot;,&quot;SF Pro Text&quot;,Helvetica,sans-serif;font-weight:bold;" transform="matrix(1 0 0 1 263 322)">Weight/Scale Variations</text>
  <text style="stroke:none;fill:black;font-family:-apple-system,&quot;SF Pro Display&quot;,&quot;SF Pro Text&quot;,Helvetica,sans-serif;text-anchor:middle;" transform="matrix(1 0 0 1 559.711 322)">Ultralight</text>
  <text style="stroke:none;fill:black;font-family:-apple-system,&quot;SF Pro Display&quot;,&quot;SF Pro Text&quot;,Helvetica,sans-serif;text-anchor:middle;" transform="matrix(1 0 0 1 856.422 322)">Thin</text>
  <text style="stroke:none;fill:black;font-family:-apple-system,&quot;SF Pro Display&quot;,&quot;SF Pro Text&quot;,Helvetica,sans-serif;text-anchor:middle;" transform="matrix(1 0 0 1 1153.13 322)">Light</text>
  <text style="stroke:none;fill:black;font-family:-apple-system,&quot;SF Pro Display&quot;,&quot;SF Pro Text&quot;,Helvetica,sans-serif;text-anchor:middle;" transform="matrix(1 0 0 1 1449.84 322)">Regular</text>
  <text style="stroke:none;fill:black;font-family:-apple-system,&quot;SF Pro Display&quot;,&quot;SF Pro Text&quot;,Helvetica,sans-serif;text-anchor:middle;" transform="matrix(1 0 0 1 1746.56 322)">Medium</text>
  <text style="stroke:none;fill:black;font-family:-apple-system,&quot;SF Pro Display&quot;,&quot;SF Pro Text&quot;,Helvetica,sans-serif;text-anchor:middle;" transform="matrix(1 0 0 1 2043.27 322)">Semibold</text>
  <text style="stroke:none;fill:black;font-family:-apple-system,&quot;SF Pro Display&quot;,&quot;SF Pro Text&quot;,Helvetica,sans-serif;text-anchor:middle;" transform="matrix(1 0 0 1 2339.98 322)">Bold</text>
  <text style="stroke:none;fill:black;font-family:-apple-system,&quot;SF Pro Display&quot;,&quot;SF Pro Text&quot;,Helvetica,sans-serif;text-anchor:middle;" transform="matrix(1 0 0 1 2636.69 322)">Heavy</text>
  <text style="stroke:none;fill:black;font-family:-apple-system,&quot;SF Pro Display&quot;,&quot;SF Pro Text&quot;,Helvetica,sans-serif;text-anchor:middle;" transform="matrix(1 0 0 1 2933.4 322)">Black</text>
  <line id="" style="fill:none;stroke:black;opacity:1;stroke-width:0.5;" x1="263" x2="3036" y1="1903" y2="1903"/>
  <g id="" transform="matrix(1 0 0 1 263 1933)">
   <path d="M 9.24805 0.830078 C 13.5547 0.830078 17.1387 -2.74414 17.1387 -7.05078 C 17.1387 -11.3574 13.5449 -14.9316 9.23828 -14.9316 C 4.94141 -14.9316 1.36719 -11.3574 1.36719 -7.05078 C 1.36719 -2.74414 4.95117 0.830078 9.24805 0.830078 Z M 9.24805 -0.654297 C 5.70312 -0.654297 2.87109 -3.49609 2.87109 -7.05078 C 2.87109 -10.6055 5.69336 -13.4473 9.23828 -13.4473 C 12.793 -13.4473 15.6348 -10.6055 15.6445 -7.05078 C 15.6543 -3.49609 12.8027 -0.654297 9.24805 -0.654297 Z M 9.22852 -3.42773 C 9.69727 -3.42773 9.9707 -3.74023 9.9707 -4.25781 L 9.9707 -6.31836 L 12.1973 -6.31836 C 12.6953 -6.31836 13.0371 -6.57227 13.0371 -7.04102 C 13.0371 -7.51953 12.7148 -7.7832 12.1973 -7.7832 L 9.9707 -7.7832 L 9.9707 -10.0098 C 9.9707 -10.5273 9.69727 -10.8496 9.22852 -10.8496 C 8.75977 -10.8496 8.50586 -10.5078 8.50586 -10.0098 L 8.50586 -7.7832 L 6.29883 -7.7832 C 5.78125 -7.7832 5.44922 -7.51953 5.44922 -7.04102 C 5.44922 -6.57227 5.80078 -6.31836 6.29883 -6.31836 L 8.50586 -6.31836 L 8.50586 -4.25781 C 8.50586 -3.75977 8.75977 -3.42773 9.22852 -3.42773 Z"/>
  </g>
  <g id="" transform="matrix(1 0 0 1 281.506 1933)">
   <path d="M 11.709 2.91016 C 17.1582 2.91016 21.6699 -1.60156 21.6699 -7.05078 C 21.6699 -12.4902 17.1484 -17.0117 11.6992 -17.0117 C 6.25977 -17.0117 1.74805 -12.4902 1.74805 -7.05078 C 1.74805 -1.60156 6.26953 2.91016 11.709 2.91016 Z M 11.709 1.25 C 7.09961 1.25 3.41797 -2.44141 3.41797 -7.05078 C 3.41797 -11.6504 7.08984 -15.3516 11.6992 -15.3516 C 16.3086 -15.3516 20 -11.6504 20.0098 -7.05078 C 20.0195 -2.44141 16.3184 1.25 11.709 1.25 Z M 11.6895 -2.41211 C 12.207 -2.41211 12.5195 -2.77344 12.5195 -3.33984 L 12.5195 -6.23047 L 15.5762 -6.23047 C 16.123 -6.23047 16.5039 -6.51367 16.5039 -7.03125 C 16.5039 -7.55859 16.1426 -7.86133 15.5762 -7.86133 L 12.5195 -7.86133 L 12.5195 -10.9277 C 12.5195 -11.5039 12.207 -11.8555 11.6895 -11.8555 C 11.1719 -11.8555 10.8789 -11.4844 10.8789 -10.9277 L 10.8789 -7.86133 L 7.83203 -7.86133 C 7.26562 -7.86133 6.89453 -7.55859 6.89453 -7.03125 C 6.89453 -6.51367 7.28516 -6.23047 7.83203 -6.23047 L 10.8789 -6.23047 L 10.8789 -3.33984 C 10.8789 -2.79297 11.1719 -2.41211 11.6895 -2.41211 Z"/>
  </g>
  <g id="" transform="matrix(1 0 0 1 304.924 1933)">
   <path d="M 14.9707 5.67383 C 21.9336 5.67383 27.6953 -0.078125 27.6953 -7.04102 C 27.6953 -14.0039 21.9238 -19.7559 14.9609 -19.7559 C 8.00781 -19.7559 2.25586 -14.0039 2.25586 -7.04102 C 2.25586 -0.078125 8.01758 5.67383 14.9707 5.67383 Z M 14.9707 3.85742 C 8.93555 3.85742 4.08203 -1.00586 4.08203 -7.04102 C 4.08203 -13.0762 8.92578 -17.9395 14.9609 -17.9395 C 21.0059 -17.9395 25.8594 -13.0762 25.8691 -7.04102 C 25.8789 -1.00586 21.0156 3.85742 14.9707 3.85742 Z M 14.9512 -1.06445 C 15.5176 -1.06445 15.8691 -1.45508 15.8691 -2.06055 L 15.8691 -6.13281 L 20.1074 -6.13281 C 20.6934 -6.13281 21.1133 -6.46484 21.1133 -7.02148 C 21.1133 -7.59766 20.7227 -7.93945 20.1074 -7.93945 L 15.8691 -7.93945 L 15.8691 -12.1875 C 15.8691 -12.8027 15.5176 -13.1934 14.9512 -13.1934 C 14.3848 -13.1934 14.0625 -12.7832 14.0625 -12.1875 L 14.0625 -7.93945 L 9.83398 -7.93945 C 9.21875 -7.93945 8.80859 -7.59766 8.80859 -7.02148 C 8.80859 -6.46484 9.23828 -6.13281 9.83398 -6.13281 L 14.0625 -6.13281 L 14.0625 -2.06055 C 14.0625 -1.47461 14.3848 -1.06445 14.9512 -1.06445 Z"/>
  </g>
  <text style="stroke:none;fill:black;font-family:-apple-system,&quot;SF Pro Display&quot;,&quot;SF Pro Text&quot;,Helvetica,sans-serif;font-weight:bold;" transform="matrix(1 0 0 1 263 1953)">Design Variations</text>
  <text style="stroke:none;fill:black;font-family:-apple-system,&quot;SF Pro Display&quot;,&quot;SF Pro Text&quot;,Helvetica,sans-serif;" transform="matrix(1 0 0 1 263 1971)">Symbols are supported in up to nine weights and three scales.</text>
  <text style="stroke:none;fill:black;font-family:-apple-system,&quot;SF Pro Display&quot;,&quot;SF Pro Text&quot;,Helvetica,sans-serif;" transform="matrix(1 0 0 1 263 1989)">For optimal layout with text and other symbols, vertically align</text>
  <text style="stroke:none;fill:black;font-family:-apple-system,&quot;SF Pro Display&quot;,&quot;SF Pro Text&quot;,Helvetica,sans-serif;" transform="matrix(1 0 0 1 263 2007)">symbols with the adjacent text.</text>
  <rect height="14" id="" style="fill:#00AEEF;stroke:none;opacity:0.4;" width="3" x="776" y="1919"/>
  <g id="" transform="matrix(1 0 0 1 779 1933)">
   <path d="M 10.5273 0 L 12.373 0 L 7.17773 -14.0918 L 5.43945 -14.0918 L 0.244141 0 L 2.08984 0 L 3.50586 -4.0332 L 9.11133 -4.0332 Z M 6.2793 -11.9531 L 6.33789 -11.9531 L 8.59375 -5.52734 L 4.02344 -5.52734 Z"/>
  </g>
  <rect height="14" id="" style="fill:#00AEEF;stroke:none;opacity:0.4;" width="3" x="791.617" y="1919"/>
  <text style="stroke:none;fill:black;font-family:-apple-system,&quot;SF Pro Display&quot;,&quot;SF Pro Text&quot;,Helvetica,sans-serif;font-weight:bold;" transform="matrix(1 0 0 1 776 1953)">Margins</text>
  <text style="stroke:none;fill:black;font-family:-apple-system,&quot;SF Pro Display&quot;,&quot;SF Pro Text&quot;,Helvetica,sans-serif;" transform="matrix(1 0 0 1 776 1971)">Leading and trailing margins on the left and right side of each symbol</text>
  <text style="stroke:none;fill:black;font-family:-apple-system,&quot;SF Pro Display&quot;,&quot;SF Pro Text&quot;,Helvetica,sans-serif;" transform="matrix(1 0 0 1 776 1989)">can be adjusted by modifying the width of the blue rectangles.</text>
  <text style="stroke:none;fill:black;font-family:-apple-system,&quot;SF Pro Display&quot;,&quot;SF Pro Text&quot;,Helvetica,sans-serif;" transform="matrix(1 0 0 1 776 2007)">Modifications are automatically applied proportionally to all</text>
  <text style="stroke:none;fill:black;font-family:-apple-system,&quot;SF Pro Display&quot;,&quot;SF Pro Text&quot;,Helvetica,sans-serif;" transform="matrix(1 0 0 1 776 2025)">scales and weights.</text>
  <g id="" transform="matrix(1 0 0 1 1289 1933)">
   <path d="M 2.83203 3.11523 L 4.375 4.6582 C 5.22461 5.48828 6.19141 5.41992 7.06055 4.46289 L 17.2754 -6.66016 C 17.7051 -6.36719 18.0957 -6.37695 18.5645 -6.47461 L 19.6094 -6.68945 L 20.3027 -5.99609 L 20.2539 -5.47852 C 20.1855 -4.95117 20.3516 -4.53125 20.8496 -4.0332 L 21.6602 -3.22266 C 22.168 -2.71484 22.8223 -2.68555 23.3008 -3.16406 L 26.5527 -6.41602 C 27.0312 -6.89453 27.0117 -7.54883 26.5039 -8.05664 L 25.6836 -8.87695 C 25.1855 -9.375 24.7754 -9.55078 24.2383 -9.47266 L 23.7109 -9.41406 L 23.0566 -10.0781 L 23.3398 -11.2207 C 23.4863 -11.7871 23.3398 -12.2559 22.7148 -12.8613 L 20.3027 -15.2539 C 16.7578 -18.7793 12.2266 -18.6719 9.11133 -15.5371 C 8.69141 -15.1074 8.64258 -14.5215 8.91602 -14.0918 C 9.15039 -13.7207 9.62891 -13.4961 10.2734 -13.6621 C 11.7871 -14.043 13.3008 -13.9258 14.7852 -12.9199 L 14.1602 -11.3379 C 13.9258 -10.752 13.9453 -10.2734 14.1797 -9.83398 L 3.01758 0.439453 C 2.08008 1.30859 1.97266 2.25586 2.83203 3.11523 Z M 10.6738 -15.1465 C 13.3398 -17.1387 16.6504 -16.8262 19.0527 -14.4141 L 21.6797 -11.8066 C 21.9141 -11.5723 21.9434 -11.3867 21.8848 -11.0938 L 21.5039 -9.53125 L 23.0762 -7.95898 L 24.043 -8.04688 C 24.3262 -8.07617 24.4141 -8.05664 24.6387 -7.83203 L 25.2637 -7.20703 L 22.5098 -4.46289 L 21.8848 -5.07812 C 21.6602 -5.30273 21.6406 -5.40039 21.6699 -5.68359 L 21.7578 -6.64062 L 20.1953 -8.20312 L 18.5742 -7.89062 C 18.291 -7.83203 18.1445 -7.83203 17.9102 -8.07617 L 15.7324 -10.2539 C 15.5078 -10.4883 15.4785 -10.625 15.6055 -10.9473 L 16.5527 -13.2227 C 14.9512 -14.7559 12.8418 -15.6055 10.8008 -14.9512 C 10.7129 -14.9219 10.6445 -14.9414 10.6152 -14.9805 C 10.5859 -15.0293 10.5859 -15.0781 10.6738 -15.1465 Z M 4.10156 2.41211 C 3.61328 1.91406 3.78906 1.61133 4.12109 1.30859 L 15.0781 -8.80859 L 16.3086 -7.57812 L 6.15234 3.34961 C 5.84961 3.68164 5.46875 3.7793 5.06836 3.37891 Z"/>
  </g>
  <text style="stroke:none;fill:black;font-family:-apple-system,&quot;SF Pro Display&quot;,&quot;SF Pro Text&quot;,Helvetica,sans-serif;font-weight:bold;" transform="matrix(1 0 0 1 1289 1953)">Exporting</text>
  <text style="stroke:none;fill:black;font-family:-apple-system,&quot;SF Pro Display&quot;,&quot;SF Pro Text&quot;,Helvetica,sans-serif;" transform="matrix(1 0 0 1 1289 1971)">Symbols should be outlined when exporting to ensure the</text>
  <text style="stroke:none;fill:black;font-family:-apple-system,&quot;SF Pro Display&quot;,&quot;SF Pro Text&quot;,Helvetica,sans-serif;" transform="matrix(1 0 0 1 1289 1989)">design is preserved when submitting to Xcode.</text>
  <text id="template-version" style="stroke:none;fill:black;font-family:-apple-system,&quot;SF Pro Display&quot;,&quot;SF Pro Text&quot;,Helvetica,sans-serif;text-anchor:end;" transform="matrix(1 0 0 1 3036 1933)">Template v.1.0</text>
  <text style="stroke:none;fill:black;font-family:-apple-system,&quot;SF Pro Display&quot;,&quot;SF Pro Text&quot;,Helvetica,sans-serif;text-anchor:end;" transform="matrix(1 0 0 1 3036 1951)">Generated from eye.fill</text>
  <text style="stroke:none;fill:black;font-family:-apple-system,&quot;SF Pro Display&quot;,&quot;SF Pro Text&quot;,Helvetica,sans-serif;text-anchor:end;" transform="matrix(1 0 0 1 3036 1969)">Typeset at 100 points</text>
  <text style="stroke:none;fill:black;font-family:-apple-system,&quot;SF Pro Display&quot;,&quot;SF Pro Text&quot;,Helvetica,sans-serif;" transform="matrix(1 0 0 1 263 726)">Small</text>
  <text style="stroke:none;fill:black;font-family:-apple-system,&quot;SF Pro Display&quot;,&quot;SF Pro Text&quot;,Helvetica,sans-serif;" transform="matrix(1 0 0 1 263 1156)">Medium</text>
  <text style="stroke:none;fill:black;font-family:-apple-system,&quot;SF Pro Display&quot;,&quot;SF Pro Text&quot;,Helvetica,sans-serif;" transform="matrix(1 0 0 1 263 1586)">Large</text>
 </g>
 <g id="Guides">
  <g id="H-reference" style="fill:#27AAE1;stroke:none;" transform="matrix(1 0 0 1 339 696)">
   <path d="M 54.9316 0 L 57.666 0 L 30.5664 -70.459 L 28.0762 -70.459 L 0.976562 0 L 3.66211 0 L 12.9395 -24.4629 L 45.7031 -24.4629 Z M 29.1992 -67.0898 L 29.4434 -67.0898 L 44.8242 -26.709 L 13.8184 -26.709 Z"/>
  </g>
  <line id="Baseline-S" style="fill:none;stroke:#27AAE1;opacity:1;stroke-width:0.577;" x1="263" x2="3036" y1="696" y2="696"/>
  <line id="Capline-S" style="fill:none;stroke:#27AAE1;opacity:1;stroke-width:0.577;" x1="263" x2="3036" y1="625.541" y2="625.541"/>
  <g id="H-reference" style="fill:#27AAE1;stroke:none;" transform="matrix(1 0 0 1 339 1126)">
   <path d="M 54.9316 0 L 57.666 0 L 30.5664 -70.459 L 28.0762 -70.459 L 0.976562 0 L 3.66211 0 L 12.9395 -24.4629 L 45.7031 -24.4629 Z M 29.1992 -67.0898 L 29.4434 -67.0898 L 44.8242 -26.709 L 13.8184 -26.709 Z"/>
  </g>
  <line id="Baseline-M" style="fill:none;stroke:#27AAE1;opacity:1;stroke-width:0.577;" x1="263" x2="3036" y1="1126" y2="1126"/>
  <line id="Capline-M" style="fill:none;stroke:#27AAE1;opacity:1;stroke-width:0.577;" x1="263" x2="3036" y1="1055.54" y2="1055.54"/>
  <g id="H-reference" style="fill:#27AAE1;stroke:none;" transform="matrix(1 0 0 1 339 1556)">
   <path d="M 54.9316 0 L 57.666 0 L 30.5664 -70.459 L 28.0762 -70.459 L 0.976562 0 L 3.66211 0 L 12.9395 -24.4629 L 45.7031 -24.4629 Z M 29.1992 -67.0898 L 29.4434 -67.0898 L 44.8242 -26.709 L 13.8184 -26.709 Z"/>
  </g>
  <line id="Baseline-L" style="fill:none;stroke:#27AAE1;opacity:1;stroke-width:0.577;" x1="263" x2="3036" y1="1556" y2="1556"/>
  <line id="Capline-L" style="fill:none;stroke:#27AAE1;opacity:1;stroke-width:0.577;" x1="263" x2="3036" y1="1485.54" y2="1485.54"/>
  <rect height="119.336" id="left-margin" style="fill:#00AEEF;stroke:none;opacity:0.4;" width="10.498" x="1373.16" y="1030.79"/>
  <rect height="119.336" id="right-margin" style="fill:#00AEEF;stroke:none;opacity:0.4;" width="10.498" x="1516.03" y="1030.79"/>
 </g>
 <g id="Symbols">
  <g id="Black-L" transform="matrix(1 0 0 1 2832.15 1556)">
   <path d="M 101.221 20.3125 C 154.639 20.3125 188.086 -22.3145 188.086 -35.1074 C 188.086 -47.9004 154.639 -90.5273 101.221 -90.5273 C 48.6816 -90.5273 14.4043 -47.9004 14.4043 -35.1074 C 14.4043 -22.3145 48.6816 20.3125 101.221 20.3125 Z M 101.318 -2.7832 C 83.3496 -2.7832 68.75 -17.627 68.7012 -35.0586 C 68.7012 -53.125 83.3496 -67.3828 101.318 -67.3828 C 119.238 -67.3828 133.838 -53.0273 133.838 -35.0586 C 133.838 -17.627 119.238 -2.7832 101.318 -2.7832 Z M 101.221 -21.582 C 108.691 -21.582 114.746 -27.6367 114.746 -35.0098 C 114.746 -42.3828 108.691 -48.584 101.221 -48.584 C 93.75 -48.584 87.793 -42.3828 87.793 -35.0098 C 87.793 -27.6367 93.75 -21.582 101.221 -21.582 Z"/>
  </g>
  <g id="Heavy-L" transform="matrix(1 0 0 1 2536.2 1556)">
   <path d="M 100.439 19.8242 C 153.027 19.8242 186.816 -22.3633 186.816 -35.1562 C 186.816 -47.9004 152.979 -90.0391 100.439 -90.0391 C 48.7305 -90.0391 14.1602 -47.9004 14.1602 -35.1562 C 14.1602 -22.3633 48.7305 19.8242 100.439 19.8242 Z M 100.537 -2.19727 C 82.2266 -2.19727 67.3828 -17.2852 67.334 -35.1074 C 67.334 -53.4668 82.2266 -68.0664 100.537 -68.0664 C 118.799 -68.0664 133.691 -53.418 133.691 -35.1074 C 133.691 -17.2852 118.799 -2.19727 100.537 -2.19727 Z M 100.488 -21.9238 C 107.764 -21.9238 113.721 -27.8809 113.721 -35.0586 C 113.721 -42.2852 107.764 -48.291 100.488 -48.291 C 93.1641 -48.291 87.3047 -42.2852 87.3047 -35.0586 C 87.3047 -27.8809 93.1641 -21.9238 100.488 -21.9238 Z"/>
  </g>
  <g id="Bold-L" transform="matrix(1 0 0 1 2240.34 1556)">
   <path d="M 99.6094 19.2383 C 151.221 19.2383 185.352 -22.4609 185.352 -35.1562 C 185.352 -47.9004 151.172 -89.502 99.6094 -89.502 C 48.7793 -89.502 13.916 -47.9004 13.916 -35.1562 C 13.916 -22.4609 48.7305 19.2383 99.6094 19.2383 Z M 99.707 -1.51367 C 80.9082 -1.51367 65.8691 -16.8945 65.8203 -35.1074 C 65.7715 -53.9062 80.9082 -68.7988 99.707 -68.7988 C 118.311 -68.7988 133.496 -53.9062 133.496 -35.1074 C 133.496 -16.8945 118.311 -1.51367 99.707 -1.51367 Z M 99.6582 -22.3145 C 106.738 -22.3145 112.549 -28.0762 112.549 -35.1074 C 112.549 -42.1387 106.738 -47.998 99.6582 -47.998 C 92.5293 -47.998 86.7676 -42.1387 86.7676 -35.1074 C 86.7676 -28.0762 92.5293 -22.3145 99.6582 -22.3145 Z"/>
  </g>
  <g id="Semibold-L" transform="matrix(1 0 0 1 1944.22 1556)">
   <path d="M 99.0723 18.7988 C 150 18.7988 184.375 -22.5098 184.375 -35.1562 C 184.375 -47.8516 149.902 -89.1113 99.0723 -89.1113 C 48.8281 -89.1113 13.7207 -47.8516 13.7207 -35.1562 C 13.7207 -22.5098 48.7305 18.7988 99.0723 18.7988 Z M 99.0723 -1.02539 C 80.0293 -1.02539 64.8438 -16.6016 64.7461 -35.1562 C 64.6973 -54.1992 80.0293 -69.2871 99.0723 -69.2871 C 117.969 -69.2871 133.35 -54.1992 133.35 -35.1562 C 133.35 -16.6016 117.969 -1.02539 99.0723 -1.02539 Z M 99.0723 -22.5586 C 106.006 -22.5586 111.719 -28.2715 111.719 -35.1562 C 111.719 -42.0898 106.006 -47.7539 99.0723 -47.7539 C 92.0898 -47.7539 86.377 -42.0898 86.377 -35.1562 C 86.377 -28.2715 92.0898 -22.5586 99.0723 -22.5586 Z"/>
  </g>
  <g id="Medium-L" transform="matrix(1 0 0 1 1647.95 1556)">
   <path d="M 98.6328 18.5059 C 149.072 18.5059 183.594 -22.5098 183.594 -35.1562 C 183.594 -47.8516 148.926 -88.8672 98.6328 -88.8672 C 48.8281 -88.8672 13.623 -47.8516 13.623 -35.1562 C 13.623 -22.5098 48.7305 18.5059 98.6328 18.5059 Z M 98.6328 -0.683594 C 79.3945 -0.683594 64.0625 -16.4062 63.9648 -35.1562 C 63.916 -54.4434 79.3945 -69.6777 98.6328 -69.6777 C 117.725 -69.6777 133.252 -54.4434 133.252 -35.1562 C 133.252 -16.4062 117.725 -0.683594 98.6328 -0.683594 Z M 98.6328 -22.7539 C 105.469 -22.7539 111.133 -28.3691 111.133 -35.1562 C 111.133 -41.9922 105.469 -47.6074 98.6328 -47.6074 C 91.748 -47.6074 86.084 -41.9922 86.084 -35.1562 C 86.084 -28.3691 91.748 -22.7539 98.6328 -22.7539 Z"/>
  </g>
  <g id="Regular-L" transform="matrix(1 0 0 1 1351.82 1556)">
   <path d="M 98.0469 18.1152 C 147.803 18.1152 182.617 -22.5586 182.617 -35.2051 C 182.617 -47.8516 147.656 -88.4766 98.0469 -88.4766 C 48.877 -88.4766 13.4277 -47.8516 13.4277 -35.2051 C 13.4277 -22.5586 48.7793 18.1152 98.0469 18.1152 Z M 98.0469 -0.244141 C 78.5156 -0.244141 63.0371 -16.1621 62.9395 -35.2051 C 62.8418 -54.7363 78.5156 -70.166 98.0469 -70.166 C 117.432 -70.166 133.105 -54.7363 133.105 -35.2051 C 133.105 -16.1621 117.432 -0.244141 98.0469 -0.244141 Z M 98.0957 -22.998 C 104.785 -22.998 110.352 -28.5645 110.352 -35.2051 C 110.352 -41.8945 104.785 -47.4121 98.0957 -47.4121 C 91.3086 -47.4121 85.6934 -41.8945 85.6934 -35.2051 C 85.6934 -28.5645 91.3086 -22.998 98.0957 -22.998 Z"/>
  </g>
  <g id="Light-L" transform="matrix(1 0 0 1 1056.4 1556)">
   <path d="M 96.7285 17.7734 C 145.557 17.7734 180.225 -22.7051 180.225 -35.2051 C 180.225 -47.7051 145.312 -88.1348 96.7285 -88.1348 C 48.3887 -88.1348 13.2324 -47.7051 13.2324 -35.2051 C 13.2324 -22.7051 48.2422 17.7734 96.7285 17.7734 Z M 96.7285 -0.439453 C 77.3438 -0.439453 61.9629 -16.2598 61.8164 -35.2051 C 61.7676 -54.5898 77.3438 -69.9707 96.7285 -69.9707 C 115.918 -69.9707 131.641 -54.5898 131.641 -35.2051 C 131.641 -16.2598 115.918 -0.439453 96.7285 -0.439453 Z M 96.7773 -23.7305 C 103.125 -23.7305 108.35 -28.9062 108.35 -35.2051 C 108.35 -41.5527 103.125 -46.6797 96.7773 -46.6797 C 90.3809 -46.6797 85.1074 -41.5527 85.1074 -35.2051 C 85.1074 -28.9062 90.3809 -23.7305 96.7773 -23.7305 Z"/>
  </g>
  <g id="Thin-L" transform="matrix(1 0 0 1 761.403 1556)">
   <path d="M 95.0195 17.2852 C 142.578 17.2852 177.1 -22.9004 177.1 -35.2051 C 177.1 -47.4609 142.188 -87.6465 95.0195 -87.6465 C 47.7539 -87.6465 12.9395 -47.4609 12.9395 -35.2051 C 12.9395 -22.9004 47.5586 17.2852 95.0195 17.2852 Z M 95.0195 -0.683594 C 75.8301 -0.683594 60.5469 -16.4062 60.3516 -35.2051 C 60.3027 -54.3945 75.8301 -69.6777 95.0195 -69.6777 C 113.916 -69.6777 129.688 -54.3945 129.688 -35.2051 C 129.688 -16.4062 113.916 -0.683594 95.0195 -0.683594 Z M 95.1172 -24.6582 C 100.928 -24.6582 105.713 -29.3457 105.713 -35.2051 C 105.713 -41.1133 100.928 -45.752 95.1172 -45.752 C 89.1602 -45.752 84.3262 -41.1133 84.3262 -35.2051 C 84.3262 -29.3457 89.1602 -24.6582 95.1172 -24.6582 Z"/>
  </g>
  <g id="Ultralight-L" transform="matrix(1 0 0 1 465.57 1556)">
   <path d="M 94.1406 17.041 C 141.016 17.041 175.488 -22.998 175.488 -35.2051 C 175.488 -47.3633 140.625 -87.4512 94.1406 -87.4512 C 47.4609 -87.4512 12.793 -47.3633 12.793 -35.2051 C 12.793 -22.998 47.168 17.041 94.1406 17.041 Z M 94.1406 -0.830078 C 75.0488 -0.830078 59.8145 -16.5039 59.6191 -35.2051 C 59.5703 -54.2969 75.0488 -69.5312 94.1406 -69.5312 C 112.891 -69.5312 128.662 -54.2969 128.662 -35.2051 C 128.662 -16.5039 112.891 -0.830078 94.1406 -0.830078 Z M 94.2383 -25.1465 C 99.8047 -25.1465 104.395 -29.5898 104.395 -35.2051 C 104.395 -40.8691 99.8047 -45.2637 94.2383 -45.2637 C 88.5742 -45.2637 83.9355 -40.8691 83.9355 -35.2051 C 83.9355 -29.5898 88.5742 -25.1465 94.2383 -25.1465 Z"/>
  </g>
  <g id="Black-M" transform="matrix(1 0 0 1 2854.57 1126)">
   <path d="M 78.7598 8.34961 C 120.801 8.34961 146.289 -25.2441 146.289 -35.1562 C 146.289 -44.9707 120.801 -78.5645 78.7598 -78.5645 C 37.4512 -78.5645 11.377 -44.9707 11.377 -35.1562 C 11.377 -25.2441 37.4512 8.34961 78.7598 8.34961 Z M 78.9062 -11.0352 C 65.5273 -11.0352 54.541 -22.0703 54.541 -35.0586 C 54.541 -48.4863 65.5273 -59.1797 78.9062 -59.1797 C 92.1875 -59.1797 103.174 -48.4375 103.174 -35.0586 C 103.174 -22.0703 92.1875 -11.0352 78.9062 -11.0352 Z M 78.7598 -24.6094 C 84.6191 -24.6094 89.3066 -29.248 89.3066 -35.0098 C 89.3066 -40.7227 84.6191 -45.5566 78.7598 -45.5566 C 72.9492 -45.5566 68.4082 -40.7227 68.4082 -35.0098 C 68.4082 -29.248 72.9492 -24.6094 78.7598 -24.6094 Z"/>
  </g>
  <g id="Heavy-M" transform="matrix(1 0 0 1 2558.37 1126)">
   <path d="M 78.2715 7.86133 C 119.629 7.86133 145.459 -25.2441 145.459 -35.1562 C 145.459 -45.0195 119.629 -78.125 78.2715 -78.125 C 37.5977 -78.125 11.1816 -45.0195 11.1816 -35.1562 C 11.1816 -25.2441 37.5977 7.86133 78.2715 7.86133 Z M 78.3691 -10.3027 C 64.5996 -10.3027 53.3203 -21.6797 53.3203 -35.1074 C 53.3203 -48.9258 64.5996 -59.9609 78.3691 -59.9609 C 92.0898 -59.9609 103.369 -48.877 103.369 -35.1074 C 103.369 -21.6797 92.0898 -10.3027 78.3691 -10.3027 Z M 78.2715 -24.7559 C 84.0332 -24.7559 88.6719 -29.3945 88.6719 -35.0586 C 88.6719 -40.7227 84.0332 -45.4102 78.2715 -45.4102 C 72.5586 -45.4102 68.0176 -40.7227 68.0176 -35.0586 C 68.0176 -29.3945 72.5586 -24.7559 78.2715 -24.7559 Z"/>
  </g>
  <g id="Bold-M" transform="matrix(1 0 0 1 2262.22 1126)">
   <path d="M 77.7344 7.32422 C 118.311 7.32422 144.58 -25.293 144.58 -35.1562 C 144.58 -45.0684 118.262 -77.6367 77.7344 -77.6367 C 37.793 -77.6367 10.9375 -45.0684 10.9375 -35.1562 C 10.9375 -25.293 37.7441 7.32422 77.7344 7.32422 Z M 77.7832 -9.52148 C 63.5254 -9.52148 52.002 -21.2402 51.9531 -35.1562 C 51.9043 -49.4629 63.5254 -60.791 77.7832 -60.791 C 91.9922 -60.791 103.564 -49.4141 103.564 -35.1562 C 103.564 -21.2402 91.9922 -9.52148 77.7832 -9.52148 Z M 77.7344 -25 C 83.3496 -25 87.9395 -29.541 87.9395 -35.1074 C 87.9395 -40.6738 83.3496 -45.3125 77.7344 -45.3125 C 72.1191 -45.3125 67.5781 -40.6738 67.5781 -35.1074 C 67.5781 -29.541 72.1191 -25 77.7344 -25 Z"/>
  </g>
  <g id="Semibold-M" transform="matrix(1 0 0 1 1965.9 1126)">
   <path d="M 77.3438 6.93359 C 117.432 6.93359 143.945 -25.293 143.945 -35.1562 C 143.945 -45.0684 117.383 -77.2949 77.3438 -77.2949 C 37.8906 -77.2949 10.791 -45.0684 10.791 -35.1562 C 10.791 -25.293 37.8906 6.93359 77.3438 6.93359 Z M 77.3926 -8.93555 C 62.7441 -8.93555 51.0742 -20.9473 51.0254 -35.1562 C 50.9766 -49.8047 62.7441 -61.377 77.3926 -61.377 C 91.9434 -61.377 103.711 -49.8047 103.711 -35.1562 C 103.711 -20.9473 91.9434 -8.93555 77.3926 -8.93555 Z M 77.3438 -25.0977 C 82.9102 -25.0977 87.4512 -29.6387 87.4512 -35.1562 C 87.4512 -40.6738 82.9102 -45.2148 77.3438 -45.2148 C 71.7773 -45.2148 67.2852 -40.6738 67.2852 -35.1562 C 67.2852 -29.6387 71.7773 -25.0977 77.3438 -25.0977 Z"/>
  </g>
  <g id="Medium-M" transform="matrix(1 0 0 1 1669.5 1126)">
   <path d="M 77.0508 6.68945 C 116.699 6.68945 143.457 -25.293 143.457 -35.2051 C 143.457 -45.0684 116.65 -77.0508 77.0508 -77.0508 C 37.9883 -77.0508 10.6445 -45.0684 10.6445 -35.2051 C 10.6445 -25.293 37.9395 6.68945 77.0508 6.68945 Z M 77.0996 -8.54492 C 62.207 -8.54492 50.3418 -20.7031 50.293 -35.1562 C 50.2441 -50.0977 62.207 -61.8164 77.0996 -61.8164 C 91.8945 -61.8164 103.857 -50.0488 103.857 -35.1562 C 103.857 -20.7031 91.8945 -8.54492 77.0996 -8.54492 Z M 77.0996 -25.2441 C 82.5684 -25.2441 87.1094 -29.7363 87.1094 -35.1562 C 87.1094 -40.625 82.5684 -45.166 77.0996 -45.166 C 71.5332 -45.166 67.041 -40.625 67.041 -35.1562 C 67.041 -29.7363 71.5332 -25.2441 77.0996 -25.2441 Z"/>
  </g>
  <g id="Regular-M" transform="matrix(1 0 0 1 1373.16 1126)">
   <path d="M 76.709 6.29883 C 115.82 6.29883 142.871 -25.3418 142.871 -35.2051 C 142.871 -45.1172 115.771 -76.709 76.709 -76.709 C 38.0859 -76.709 10.498 -45.1172 10.498 -35.2051 C 10.498 -25.3418 38.0859 6.29883 76.709 6.29883 Z M 76.709 -8.00781 C 61.4746 -8.00781 49.4141 -20.3613 49.3652 -35.2051 C 49.3164 -50.4395 61.4746 -62.4023 76.709 -62.4023 C 91.7969 -62.4023 104.004 -50.4395 104.004 -35.2051 C 104.004 -20.3613 91.7969 -8.00781 76.709 -8.00781 Z M 76.709 -25.3906 C 82.1289 -25.3906 86.6211 -29.834 86.6211 -35.2051 C 86.6211 -40.625 82.1289 -45.0684 76.709 -45.0684 C 71.2402 -45.0684 66.748 -40.625 66.748 -35.2051 C 66.748 -29.834 71.2402 -25.3906 76.709 -25.3906 Z"/>
  </g>
  <g id="Light-M" transform="matrix(1 0 0 1 1077.62 1126)">
   <path d="M 75.5371 6.00586 C 113.818 6.00586 140.723 -25.4883 140.723 -35.2051 C 140.723 -44.9707 113.672 -76.3672 75.5371 -76.3672 C 37.6953 -76.3672 10.3027 -44.9707 10.3027 -35.2051 C 10.3027 -25.4883 37.5977 6.00586 75.5371 6.00586 Z M 75.5371 -8.1543 C 60.4492 -8.1543 48.4863 -20.5078 48.3887 -35.2051 C 48.3398 -50.293 60.4492 -62.207 75.5371 -62.207 C 90.4785 -62.207 102.637 -50.293 102.637 -35.2051 C 102.637 -20.5078 90.4785 -8.1543 75.5371 -8.1543 Z M 75.5859 -25.9766 C 80.6152 -25.9766 84.8145 -30.1758 84.8145 -35.2051 C 84.8145 -40.2832 80.6152 -44.4336 75.5859 -44.4336 C 70.459 -44.4336 66.2109 -40.2832 66.2109 -35.2051 C 66.2109 -30.1758 70.459 -25.9766 75.5859 -25.9766 Z"/>
  </g>
  <g id="Thin-M" transform="matrix(1 0 0 1 782.423 1126)">
   <path d="M 74.0234 5.56641 C 111.133 5.56641 137.939 -25.6348 137.939 -35.2051 C 137.939 -44.7754 110.889 -75.9766 74.0234 -75.9766 C 37.1582 -75.9766 10.0586 -44.7754 10.0586 -35.2051 C 10.0586 -25.6348 37.0117 5.56641 74.0234 5.56641 Z M 74.0234 -8.39844 C 59.082 -8.39844 47.2168 -20.6055 47.0703 -35.2051 C 47.0215 -50.0977 59.082 -61.9629 74.0234 -61.9629 C 88.7207 -61.9629 100.928 -50.0977 100.928 -35.2051 C 100.928 -20.6055 88.7207 -8.39844 74.0234 -8.39844 Z M 74.0723 -26.8066 C 78.7109 -26.8066 82.4707 -30.5664 82.4707 -35.2051 C 82.4707 -39.8926 78.7109 -43.5547 74.0723 -43.5547 C 69.3848 -43.5547 65.5273 -39.8926 65.5273 -35.2051 C 65.5273 -30.5664 69.3848 -26.8066 74.0723 -26.8066 Z"/>
  </g>
  <g id="Ultralight-M" transform="matrix(1 0 0 1 486.493 1126)">
   <path d="M 73.2422 5.37109 C 109.766 5.37109 136.475 -25.7324 136.475 -35.2051 C 136.475 -44.6777 109.424 -75.7324 73.2422 -75.7324 C 36.8652 -75.7324 9.96094 -44.6777 9.96094 -35.2051 C 9.96094 -25.7324 36.6699 5.37109 73.2422 5.37109 Z M 73.2422 -8.54492 C 58.3984 -8.54492 46.5332 -20.7031 46.4355 -35.2051 C 46.3867 -50 58.3984 -61.8652 73.2422 -61.8652 C 87.793 -61.8652 100 -50 100 -35.2051 C 100 -20.7031 87.793 -8.54492 73.2422 -8.54492 Z M 73.291 -27.2461 C 77.6855 -27.2461 81.2988 -30.8105 81.2988 -35.2051 C 81.2988 -39.6484 77.6855 -43.1641 73.291 -43.1641 C 68.7988 -43.1641 65.1367 -39.6484 65.1367 -35.2051 C 65.1367 -30.8105 68.7988 -27.2461 73.291 -27.2461 Z"/>
  </g>
  <g id="Black-S" transform="matrix(1 0 0 1 2871.63 696)">
   <path d="M 61.7188 -1.12305 C 94.6289 -1.12305 114.6 -27.3926 114.6 -35.1562 C 114.6 -42.8711 94.6289 -69.1406 61.7188 -69.1406 C 29.3945 -69.1406 8.93555 -42.8711 8.93555 -35.1562 C 8.93555 -27.3926 29.3945 -1.12305 61.7188 -1.12305 Z M 61.8164 -16.2109 C 51.3184 -16.2109 42.6758 -24.9023 42.6758 -35.1074 C 42.6758 -45.6543 51.3184 -54.0527 61.8164 -54.0527 C 72.2656 -54.0527 80.9082 -45.6055 80.9082 -35.1074 C 80.9082 -24.9023 72.2656 -16.2109 61.8164 -16.2109 Z M 61.7188 -26.9043 C 66.3086 -26.9043 69.9707 -30.5664 69.9707 -35.0586 C 69.9707 -39.5508 66.3086 -43.3105 61.7188 -43.3105 C 57.1777 -43.3105 53.6133 -39.5508 53.6133 -35.0586 C 53.6133 -30.5664 57.1777 -26.9043 61.7188 -26.9043 Z"/>
  </g>
  <g id="Heavy-S" transform="matrix(1 0 0 1 2575.19 696)">
   <path d="M 61.4746 -1.46484 C 93.9453 -1.46484 114.209 -27.3926 114.209 -35.1562 C 114.209 -42.9199 93.9453 -68.8477 61.4746 -68.8477 C 29.541 -68.8477 8.78906 -42.9199 8.78906 -35.1562 C 8.78906 -27.3926 29.541 -1.46484 61.4746 -1.46484 Z M 61.5234 -15.625 C 50.6836 -15.625 41.8457 -24.5605 41.8457 -35.1074 C 41.8457 -45.9961 50.6836 -54.6387 61.5234 -54.6387 C 72.3145 -54.6387 81.2012 -45.9961 81.2012 -35.1074 C 81.2012 -24.5605 72.3145 -15.625 61.5234 -15.625 Z M 61.4746 -26.9531 C 66.0156 -26.9531 69.6777 -30.6152 69.6777 -35.1074 C 69.6777 -39.5508 66.0156 -43.3105 61.4746 -43.3105 C 56.9336 -43.3105 53.3691 -39.5508 53.3691 -35.1074 C 53.3691 -30.6152 56.9336 -26.9531 61.4746 -26.9531 Z"/>
  </g>
  <g id="Bold-S" transform="matrix(1 0 0 1 2278.8 696)">
   <path d="M 61.1816 -1.85547 C 93.1641 -1.85547 113.77 -27.3926 113.77 -35.2051 C 113.77 -42.9688 93.1641 -68.5059 61.1816 -68.5059 C 29.7363 -68.5059 8.64258 -42.9688 8.64258 -35.2051 C 8.64258 -27.3926 29.7363 -1.85547 61.1816 -1.85547 Z M 61.2305 -14.9902 C 50 -14.9902 40.918 -24.2188 40.918 -35.1562 C 40.8691 -46.4355 50 -55.3223 61.2305 -55.3223 C 72.4121 -55.3223 81.4941 -46.3867 81.4941 -35.1562 C 81.4941 -24.2188 72.4121 -14.9902 61.2305 -14.9902 Z M 61.1816 -27.0508 C 65.6738 -27.0508 69.3359 -30.7129 69.3359 -35.1562 C 69.3359 -39.5996 65.6738 -43.2617 61.1816 -43.2617 C 56.6895 -43.2617 53.0762 -39.5996 53.0762 -35.1562 C 53.0762 -30.7129 56.6895 -27.0508 61.1816 -27.0508 Z"/>
  </g>
  <g id="Semibold-S" transform="matrix(1 0 0 1 1982.28 696)">
   <path d="M 60.9863 -2.09961 C 92.627 -2.09961 113.477 -27.3926 113.477 -35.2051 C 113.477 -42.9688 92.627 -68.2617 60.9863 -68.2617 C 29.834 -68.2617 8.49609 -42.9688 8.49609 -35.2051 C 8.49609 -27.3926 29.834 -2.09961 60.9863 -2.09961 Z M 61.0352 -14.5508 C 49.5117 -14.5508 40.2832 -23.9746 40.2832 -35.1562 C 40.2344 -46.7285 49.5117 -55.8105 61.0352 -55.8105 C 72.4609 -55.8105 81.7383 -46.6797 81.7383 -35.1562 C 81.7383 -23.9746 72.4609 -14.5508 61.0352 -14.5508 Z M 60.9863 -27.0996 C 65.4297 -27.0996 69.0918 -30.7617 69.0918 -35.1562 C 69.0918 -39.5996 65.4297 -43.2617 60.9863 -43.2617 C 56.4941 -43.2617 52.8809 -39.5996 52.8809 -35.1562 C 52.8809 -30.7617 56.4941 -27.0996 60.9863 -27.0996 Z"/>
  </g>
  <g id="Medium-S" transform="matrix(1 0 0 1 1685.74 696)">
   <path d="M 60.8398 -2.29492 C 92.2363 -2.29492 113.232 -27.3926 113.232 -35.2051 C 113.232 -43.0176 92.2363 -68.1152 60.8398 -68.1152 C 29.9316 -68.1152 8.39844 -43.0176 8.39844 -35.2051 C 8.39844 -27.3926 29.9316 -2.29492 60.8398 -2.29492 Z M 60.8398 -14.209 C 49.1211 -14.209 39.7949 -23.7793 39.7949 -35.2051 C 39.7461 -46.9238 49.1211 -56.1523 60.8398 -56.1523 C 72.5098 -56.1523 81.8848 -46.9238 81.8848 -35.2051 C 81.8848 -23.7793 72.5098 -14.209 60.8398 -14.209 Z M 60.8398 -27.1484 C 65.2832 -27.1484 68.9453 -30.8105 68.9453 -35.1562 C 68.9453 -39.5996 65.2832 -43.2617 60.8398 -43.2617 C 56.3965 -43.2617 52.7344 -39.5996 52.7344 -35.1562 C 52.7344 -30.8105 56.3965 -27.1484 60.8398 -27.1484 Z"/>
  </g>
  <g id="Regular-S" transform="matrix(1 0 0 1 1389.22 696)">
   <path d="M 60.6445 -2.53906 C 91.6992 -2.53906 112.939 -27.3926 112.939 -35.2051 C 112.939 -43.0664 91.6992 -67.8711 60.6445 -67.8711 C 30.0293 -67.8711 8.30078 -43.0664 8.30078 -35.2051 C 8.30078 -27.3926 30.0293 -2.53906 60.6445 -2.53906 Z M 60.6445 -13.8184 C 48.6328 -13.8184 39.209 -23.5352 39.1113 -35.2051 C 39.0625 -47.2168 48.6328 -56.5918 60.6445 -56.5918 C 72.5586 -56.5918 82.0801 -47.2168 82.0801 -35.2051 C 82.0801 -23.5352 72.5586 -13.8184 60.6445 -13.8184 Z M 60.6445 -27.1973 C 65.0391 -27.1973 68.7012 -30.8594 68.7012 -35.2051 C 68.7012 -39.5996 65.0391 -43.2617 60.6445 -43.2617 C 56.2012 -43.2617 52.5391 -39.5996 52.5391 -35.2051 C 52.5391 -30.8594 56.2012 -27.1973 60.6445 -27.1973 Z"/>
  </g>
  <g id="Light-S" transform="matrix(1 0 0 1 1093.51 696)">
   <path d="M 59.6191 -2.83203 C 89.9414 -2.83203 111.084 -27.5391 111.084 -35.2051 C 111.084 -42.9199 89.8438 -67.5781 59.6191 -67.5781 C 29.6875 -67.5781 8.1543 -42.9199 8.1543 -35.2051 C 8.1543 -27.5391 29.6387 -2.83203 59.6191 -2.83203 Z M 59.6191 -13.9648 C 47.7539 -13.9648 38.3301 -23.6328 38.2812 -35.2051 C 38.2324 -47.0703 47.7539 -56.4453 59.6191 -56.4453 C 71.3867 -56.4453 80.957 -47.0703 80.957 -35.2051 C 80.957 -23.6328 71.3867 -13.9648 59.6191 -13.9648 Z M 59.6191 -27.7344 C 63.7207 -27.7344 67.1387 -31.1523 67.1387 -35.2051 C 67.1387 -39.3066 63.7207 -42.6758 59.6191 -42.6758 C 55.4688 -42.6758 52.0508 -39.3066 52.0508 -35.2051 C 52.0508 -31.1523 55.4688 -27.7344 59.6191 -27.7344 Z"/>
  </g>
  <g id="Thin-S" transform="matrix(1 0 0 1 798.146 696)">
   <path d="M 58.3008 -3.17383 C 87.5977 -3.17383 108.594 -27.6855 108.594 -35.2051 C 108.594 -42.7246 87.4023 -67.2363 58.3008 -67.2363 C 29.1992 -67.2363 7.95898 -42.7246 7.95898 -35.2051 C 7.95898 -27.6855 29.1016 -3.17383 58.3008 -3.17383 Z M 58.3008 -14.1602 C 46.582 -14.1602 37.2559 -23.7305 37.1582 -35.2051 C 37.1094 -46.9238 46.582 -56.25 58.3008 -56.25 C 69.8242 -56.25 79.3945 -46.9238 79.3945 -35.2051 C 79.3945 -23.7305 69.8242 -14.1602 58.3008 -14.1602 Z M 58.3008 -28.4668 C 62.0117 -28.4668 65.0879 -31.4941 65.0879 -35.2051 C 65.0879 -38.9648 62.0117 -41.9434 58.3008 -41.9434 C 54.541 -41.9434 51.4648 -38.9648 51.4648 -35.2051 C 51.4648 -31.4941 54.541 -28.4668 58.3008 -28.4668 Z"/>
  </g>
  <g id="Ultralight-S" transform="matrix(1 0 0 1 502.118 696)">
   <path d="M 57.5684 -3.36914 C 86.377 -3.36914 107.324 -27.7832 107.324 -35.2051 C 107.324 -42.627 86.1328 -67.041 57.5684 -67.041 C 28.9551 -67.041 7.86133 -42.627 7.86133 -35.2051 C 7.86133 -27.7832 28.8086 -3.36914 57.5684 -3.36914 Z M 57.5684 -14.2578 C 45.9473 -14.2578 36.6699 -23.8281 36.5723 -35.2051 C 36.5234 -46.8262 45.9473 -56.1523 57.5684 -56.1523 C 69.043 -56.1523 78.6133 -46.8262 78.6133 -35.2051 C 78.6133 -23.8281 69.043 -14.2578 57.5684 -14.2578 Z M 57.6172 -28.8574 C 61.1328 -28.8574 64.0137 -31.6895 64.0137 -35.2051 C 64.0137 -38.7695 61.1328 -41.5527 57.6172 -41.5527 C 54.0527 -41.5527 51.1719 -38.7695 51.1719 -35.2051 C 51.1719 -31.6895 54.0527 -28.8574 57.6172 -28.8574 Z"/>
  </g>
 </g>
</svg>
