<?xml version="1.0" encoding="UTF-8"?>
<!--Generator: Apple Native CoreSVG 123-->
<!DOCTYPE svg
PUBLIC "-//W3C//DTD SVG 1.1//EN"
       "http://www.w3.org/Graphics/SVG/1.1/DTD/svg11.dtd">
<svg version="1.1" xmlns="http://www.w3.org/2000/svg" xmlns:xlink="http://www.w3.org/1999/xlink" width="3300" height="2200">
 <!--glyph: "uni10066C.medium", point size: 100.000000, font version: "Version 15.0d7e11", template writer version: "5"-->
 <g id="Notes">
  <rect height="2200" id="artboard" style="fill:white;opacity:1" width="3300" x="0" y="0"/>
  <line id="" style="fill:none;stroke:black;opacity:1;stroke-width:0.5;" x1="263" x2="3036" y1="292" y2="292"/>
  <text style="stroke:none;fill:black;font-family:-apple-system,&quot;SF Pro Display&quot;,&quot;SF Pro Text&quot;,Helvetica,sans-serif;font-weight:bold;" transform="matrix(1 0 0 1 263 322)">Weight/Scale Variations</text>
  <text style="stroke:none;fill:black;font-family:-apple-system,&quot;SF Pro Display&quot;,&quot;SF Pro Text&quot;,Helvetica,sans-serif;text-anchor:middle;" transform="matrix(1 0 0 1 559.711 322)">Ultralight</text>
  <text style="stroke:none;fill:black;font-family:-apple-system,&quot;SF Pro Display&quot;,&quot;SF Pro Text&quot;,Helvetica,sans-serif;text-anchor:middle;" transform="matrix(1 0 0 1 856.422 322)">Thin</text>
  <text style="stroke:none;fill:black;font-family:-apple-system,&quot;SF Pro Display&quot;,&quot;SF Pro Text&quot;,Helvetica,sans-serif;text-anchor:middle;" transform="matrix(1 0 0 1 1153.13 322)">Light</text>
  <text style="stroke:none;fill:black;font-family:-apple-system,&quot;SF Pro Display&quot;,&quot;SF Pro Text&quot;,Helvetica,sans-serif;text-anchor:middle;" transform="matrix(1 0 0 1 1449.84 322)">Regular</text>
  <text style="stroke:none;fill:black;font-family:-apple-system,&quot;SF Pro Display&quot;,&quot;SF Pro Text&quot;,Helvetica,sans-serif;text-anchor:middle;" transform="matrix(1 0 0 1 1746.56 322)">Medium</text>
  <text style="stroke:none;fill:black;font-family:-apple-system,&quot;SF Pro Display&quot;,&quot;SF Pro Text&quot;,Helvetica,sans-serif;text-anchor:middle;" transform="matrix(1 0 0 1 2043.27 322)">Semibold</text>
  <text style="stroke:none;fill:black;font-family:-apple-system,&quot;SF Pro Display&quot;,&quot;SF Pro Text&quot;,Helvetica,sans-serif;text-anchor:middle;" transform="matrix(1 0 0 1 2339.98 322)">Bold</text>
  <text style="stroke:none;fill:black;font-family:-apple-system,&quot;SF Pro Display&quot;,&quot;SF Pro Text&quot;,Helvetica,sans-serif;text-anchor:middle;" transform="matrix(1 0 0 1 2636.69 322)">Heavy</text>
  <text style="stroke:none;fill:black;font-family:-apple-system,&quot;SF Pro Display&quot;,&quot;SF Pro Text&quot;,Helvetica,sans-serif;text-anchor:middle;" transform="matrix(1 0 0 1 2933.4 322)">Black</text>
  <line id="" style="fill:none;stroke:black;opacity:1;stroke-width:0.5;" x1="263" x2="3036" y1="1903" y2="1903"/>
  <g id="" transform="matrix(1 0 0 1 263 1933)">
   <path d="M 9.24805 0.830078 C 13.5547 0.830078 17.1387 -2.74414 17.1387 -7.05078 C 17.1387 -11.3574 13.5449 -14.9316 9.23828 -14.9316 C 4.94141 -14.9316 1.36719 -11.3574 1.36719 -7.05078 C 1.36719 -2.74414 4.95117 0.830078 9.24805 0.830078 Z M 9.24805 -0.654297 C 5.70312 -0.654297 2.87109 -3.49609 2.87109 -7.05078 C 2.87109 -10.6055 5.69336 -13.4473 9.23828 -13.4473 C 12.793 -13.4473 15.6348 -10.6055 15.6445 -7.05078 C 15.6543 -3.49609 12.8027 -0.654297 9.24805 -0.654297 Z M 9.22852 -3.42773 C 9.69727 -3.42773 9.9707 -3.74023 9.9707 -4.25781 L 9.9707 -6.31836 L 12.1973 -6.31836 C 12.6953 -6.31836 13.0371 -6.57227 13.0371 -7.04102 C 13.0371 -7.51953 12.7148 -7.7832 12.1973 -7.7832 L 9.9707 -7.7832 L 9.9707 -10.0098 C 9.9707 -10.5273 9.69727 -10.8496 9.22852 -10.8496 C 8.75977 -10.8496 8.50586 -10.5078 8.50586 -10.0098 L 8.50586 -7.7832 L 6.29883 -7.7832 C 5.78125 -7.7832 5.44922 -7.51953 5.44922 -7.04102 C 5.44922 -6.57227 5.80078 -6.31836 6.29883 -6.31836 L 8.50586 -6.31836 L 8.50586 -4.25781 C 8.50586 -3.75977 8.75977 -3.42773 9.22852 -3.42773 Z"/>
  </g>
  <g id="" transform="matrix(1 0 0 1 281.506 1933)">
   <path d="M 11.709 2.91016 C 17.1582 2.91016 21.6699 -1.60156 21.6699 -7.05078 C 21.6699 -12.4902 17.1484 -17.0117 11.6992 -17.0117 C 6.25977 -17.0117 1.74805 -12.4902 1.74805 -7.05078 C 1.74805 -1.60156 6.26953 2.91016 11.709 2.91016 Z M 11.709 1.25 C 7.09961 1.25 3.41797 -2.44141 3.41797 -7.05078 C 3.41797 -11.6504 7.08984 -15.3516 11.6992 -15.3516 C 16.3086 -15.3516 20 -11.6504 20.0098 -7.05078 C 20.0195 -2.44141 16.3184 1.25 11.709 1.25 Z M 11.6895 -2.41211 C 12.207 -2.41211 12.5195 -2.77344 12.5195 -3.33984 L 12.5195 -6.23047 L 15.5762 -6.23047 C 16.123 -6.23047 16.5039 -6.51367 16.5039 -7.03125 C 16.5039 -7.55859 16.1426 -7.86133 15.5762 -7.86133 L 12.5195 -7.86133 L 12.5195 -10.9277 C 12.5195 -11.5039 12.207 -11.8555 11.6895 -11.8555 C 11.1719 -11.8555 10.8789 -11.4844 10.8789 -10.9277 L 10.8789 -7.86133 L 7.83203 -7.86133 C 7.26562 -7.86133 6.89453 -7.55859 6.89453 -7.03125 C 6.89453 -6.51367 7.28516 -6.23047 7.83203 -6.23047 L 10.8789 -6.23047 L 10.8789 -3.33984 C 10.8789 -2.79297 11.1719 -2.41211 11.6895 -2.41211 Z"/>
  </g>
  <g id="" transform="matrix(1 0 0 1 304.924 1933)">
   <path d="M 14.9707 5.67383 C 21.9336 5.67383 27.6953 -0.078125 27.6953 -7.04102 C 27.6953 -14.0039 21.9238 -19.7559 14.9609 -19.7559 C 8.00781 -19.7559 2.25586 -14.0039 2.25586 -7.04102 C 2.25586 -0.078125 8.01758 5.67383 14.9707 5.67383 Z M 14.9707 3.85742 C 8.93555 3.85742 4.08203 -1.00586 4.08203 -7.04102 C 4.08203 -13.0762 8.92578 -17.9395 14.9609 -17.9395 C 21.0059 -17.9395 25.8594 -13.0762 25.8691 -7.04102 C 25.8789 -1.00586 21.0156 3.85742 14.9707 3.85742 Z M 14.9512 -1.06445 C 15.5176 -1.06445 15.8691 -1.45508 15.8691 -2.06055 L 15.8691 -6.13281 L 20.1074 -6.13281 C 20.6934 -6.13281 21.1133 -6.46484 21.1133 -7.02148 C 21.1133 -7.59766 20.7227 -7.93945 20.1074 -7.93945 L 15.8691 -7.93945 L 15.8691 -12.1875 C 15.8691 -12.8027 15.5176 -13.1934 14.9512 -13.1934 C 14.3848 -13.1934 14.0625 -12.7832 14.0625 -12.1875 L 14.0625 -7.93945 L 9.83398 -7.93945 C 9.21875 -7.93945 8.80859 -7.59766 8.80859 -7.02148 C 8.80859 -6.46484 9.23828 -6.13281 9.83398 -6.13281 L 14.0625 -6.13281 L 14.0625 -2.06055 C 14.0625 -1.47461 14.3848 -1.06445 14.9512 -1.06445 Z"/>
  </g>
  <text style="stroke:none;fill:black;font-family:-apple-system,&quot;SF Pro Display&quot;,&quot;SF Pro Text&quot;,Helvetica,sans-serif;font-weight:bold;" transform="matrix(1 0 0 1 263 1953)">Design Variations</text>
  <text style="stroke:none;fill:black;font-family:-apple-system,&quot;SF Pro Display&quot;,&quot;SF Pro Text&quot;,Helvetica,sans-serif;" transform="matrix(1 0 0 1 263 1971)">Symbols are supported in up to nine weights and three scales.</text>
  <text style="stroke:none;fill:black;font-family:-apple-system,&quot;SF Pro Display&quot;,&quot;SF Pro Text&quot;,Helvetica,sans-serif;" transform="matrix(1 0 0 1 263 1989)">For optimal layout with text and other symbols, vertically align</text>
  <text style="stroke:none;fill:black;font-family:-apple-system,&quot;SF Pro Display&quot;,&quot;SF Pro Text&quot;,Helvetica,sans-serif;" transform="matrix(1 0 0 1 263 2007)">symbols with the adjacent text.</text>
  <rect height="14" id="" style="fill:#00AEEF;stroke:none;opacity:0.4;" width="3" x="776" y="1919"/>
  <g id="" transform="matrix(1 0 0 1 779 1933)">
   <path d="M 10.5273 0 L 12.373 0 L 7.17773 -14.0918 L 5.43945 -14.0918 L 0.244141 0 L 2.08984 0 L 3.50586 -4.0332 L 9.11133 -4.0332 Z M 6.2793 -11.9531 L 6.33789 -11.9531 L 8.59375 -5.52734 L 4.02344 -5.52734 Z"/>
  </g>
  <rect height="14" id="" style="fill:#00AEEF;stroke:none;opacity:0.4;" width="3" x="791.617" y="1919"/>
  <text style="stroke:none;fill:black;font-family:-apple-system,&quot;SF Pro Display&quot;,&quot;SF Pro Text&quot;,Helvetica,sans-serif;font-weight:bold;" transform="matrix(1 0 0 1 776 1953)">Margins</text>
  <text style="stroke:none;fill:black;font-family:-apple-system,&quot;SF Pro Display&quot;,&quot;SF Pro Text&quot;,Helvetica,sans-serif;" transform="matrix(1 0 0 1 776 1971)">Leading and trailing margins on the left and right side of each symbol</text>
  <text style="stroke:none;fill:black;font-family:-apple-system,&quot;SF Pro Display&quot;,&quot;SF Pro Text&quot;,Helvetica,sans-serif;" transform="matrix(1 0 0 1 776 1989)">can be adjusted by modifying the width of the blue rectangles.</text>
  <text style="stroke:none;fill:black;font-family:-apple-system,&quot;SF Pro Display&quot;,&quot;SF Pro Text&quot;,Helvetica,sans-serif;" transform="matrix(1 0 0 1 776 2007)">Modifications are automatically applied proportionally to all</text>
  <text style="stroke:none;fill:black;font-family:-apple-system,&quot;SF Pro Display&quot;,&quot;SF Pro Text&quot;,Helvetica,sans-serif;" transform="matrix(1 0 0 1 776 2025)">scales and weights.</text>
  <g id="" transform="matrix(1 0 0 1 1289 1933)">
   <path d="M 2.83203 3.11523 L 4.375 4.6582 C 5.22461 5.48828 6.19141 5.41992 7.06055 4.46289 L 17.2754 -6.66016 C 17.7051 -6.36719 18.0957 -6.37695 18.5645 -6.47461 L 19.6094 -6.68945 L 20.3027 -5.99609 L 20.2539 -5.47852 C 20.1855 -4.95117 20.3516 -4.53125 20.8496 -4.0332 L 21.6602 -3.22266 C 22.168 -2.71484 22.8223 -2.68555 23.3008 -3.16406 L 26.5527 -6.41602 C 27.0312 -6.89453 27.0117 -7.54883 26.5039 -8.05664 L 25.6836 -8.87695 C 25.1855 -9.375 24.7754 -9.55078 24.2383 -9.47266 L 23.7109 -9.41406 L 23.0566 -10.0781 L 23.3398 -11.2207 C 23.4863 -11.7871 23.3398 -12.2559 22.7148 -12.8613 L 20.3027 -15.2539 C 16.7578 -18.7793 12.2266 -18.6719 9.11133 -15.5371 C 8.69141 -15.1074 8.64258 -14.5215 8.91602 -14.0918 C 9.15039 -13.7207 9.62891 -13.4961 10.2734 -13.6621 C 11.7871 -14.043 13.3008 -13.9258 14.7852 -12.9199 L 14.1602 -11.3379 C 13.9258 -10.752 13.9453 -10.2734 14.1797 -9.83398 L 3.01758 0.439453 C 2.08008 1.30859 1.97266 2.25586 2.83203 3.11523 Z M 10.6738 -15.1465 C 13.3398 -17.1387 16.6504 -16.8262 19.0527 -14.4141 L 21.6797 -11.8066 C 21.9141 -11.5723 21.9434 -11.3867 21.8848 -11.0938 L 21.5039 -9.53125 L 23.0762 -7.95898 L 24.043 -8.04688 C 24.3262 -8.07617 24.4141 -8.05664 24.6387 -7.83203 L 25.2637 -7.20703 L 22.5098 -4.46289 L 21.8848 -5.07812 C 21.6602 -5.30273 21.6406 -5.40039 21.6699 -5.68359 L 21.7578 -6.64062 L 20.1953 -8.20312 L 18.5742 -7.89062 C 18.291 -7.83203 18.1445 -7.83203 17.9102 -8.07617 L 15.7324 -10.2539 C 15.5078 -10.4883 15.4785 -10.625 15.6055 -10.9473 L 16.5527 -13.2227 C 14.9512 -14.7559 12.8418 -15.6055 10.8008 -14.9512 C 10.7129 -14.9219 10.6445 -14.9414 10.6152 -14.9805 C 10.5859 -15.0293 10.5859 -15.0781 10.6738 -15.1465 Z M 4.10156 2.41211 C 3.61328 1.91406 3.78906 1.61133 4.12109 1.30859 L 15.0781 -8.80859 L 16.3086 -7.57812 L 6.15234 3.34961 C 5.84961 3.68164 5.46875 3.7793 5.06836 3.37891 Z"/>
  </g>
  <text style="stroke:none;fill:black;font-family:-apple-system,&quot;SF Pro Display&quot;,&quot;SF Pro Text&quot;,Helvetica,sans-serif;font-weight:bold;" transform="matrix(1 0 0 1 1289 1953)">Exporting</text>
  <text style="stroke:none;fill:black;font-family:-apple-system,&quot;SF Pro Display&quot;,&quot;SF Pro Text&quot;,Helvetica,sans-serif;" transform="matrix(1 0 0 1 1289 1971)">Symbols should be outlined when exporting to ensure the</text>
  <text style="stroke:none;fill:black;font-family:-apple-system,&quot;SF Pro Display&quot;,&quot;SF Pro Text&quot;,Helvetica,sans-serif;" transform="matrix(1 0 0 1 1289 1989)">design is preserved when submitting to Xcode.</text>
  <text id="template-version" style="stroke:none;fill:black;font-family:-apple-system,&quot;SF Pro Display&quot;,&quot;SF Pro Text&quot;,Helvetica,sans-serif;text-anchor:end;" transform="matrix(1 0 0 1 3036 1933)">Template v.1.0</text>
  <text style="stroke:none;fill:black;font-family:-apple-system,&quot;SF Pro Display&quot;,&quot;SF Pro Text&quot;,Helvetica,sans-serif;text-anchor:end;" transform="matrix(1 0 0 1 3036 1951)">Generated from flame</text>
  <text style="stroke:none;fill:black;font-family:-apple-system,&quot;SF Pro Display&quot;,&quot;SF Pro Text&quot;,Helvetica,sans-serif;text-anchor:end;" transform="matrix(1 0 0 1 3036 1969)">Typeset at 100 points</text>
  <text style="stroke:none;fill:black;font-family:-apple-system,&quot;SF Pro Display&quot;,&quot;SF Pro Text&quot;,Helvetica,sans-serif;" transform="matrix(1 0 0 1 263 726)">Small</text>
  <text style="stroke:none;fill:black;font-family:-apple-system,&quot;SF Pro Display&quot;,&quot;SF Pro Text&quot;,Helvetica,sans-serif;" transform="matrix(1 0 0 1 263 1156)">Medium</text>
  <text style="stroke:none;fill:black;font-family:-apple-system,&quot;SF Pro Display&quot;,&quot;SF Pro Text&quot;,Helvetica,sans-serif;" transform="matrix(1 0 0 1 263 1586)">Large</text>
 </g>
 <g id="Guides">
  <g id="H-reference" style="fill:#27AAE1;stroke:none;" transform="matrix(1 0 0 1 339 696)">
   <path d="M 54.9316 0 L 57.666 0 L 30.5664 -70.459 L 28.0762 -70.459 L 0.976562 0 L 3.66211 0 L 12.9395 -24.4629 L 45.7031 -24.4629 Z M 29.1992 -67.0898 L 29.4434 -67.0898 L 44.8242 -26.709 L 13.8184 -26.709 Z"/>
  </g>
  <line id="Baseline-S" style="fill:none;stroke:#27AAE1;opacity:1;stroke-width:0.577;" x1="263" x2="3036" y1="696" y2="696"/>
  <line id="Capline-S" style="fill:none;stroke:#27AAE1;opacity:1;stroke-width:0.577;" x1="263" x2="3036" y1="625.541" y2="625.541"/>
  <g id="H-reference" style="fill:#27AAE1;stroke:none;" transform="matrix(1 0 0 1 339 1126)">
   <path d="M 54.9316 0 L 57.666 0 L 30.5664 -70.459 L 28.0762 -70.459 L 0.976562 0 L 3.66211 0 L 12.9395 -24.4629 L 45.7031 -24.4629 Z M 29.1992 -67.0898 L 29.4434 -67.0898 L 44.8242 -26.709 L 13.8184 -26.709 Z"/>
  </g>
  <line id="Baseline-M" style="fill:none;stroke:#27AAE1;opacity:1;stroke-width:0.577;" x1="263" x2="3036" y1="1126" y2="1126"/>
  <line id="Capline-M" style="fill:none;stroke:#27AAE1;opacity:1;stroke-width:0.577;" x1="263" x2="3036" y1="1055.54" y2="1055.54"/>
  <g id="H-reference" style="fill:#27AAE1;stroke:none;" transform="matrix(1 0 0 1 339 1556)">
   <path d="M 54.9316 0 L 57.666 0 L 30.5664 -70.459 L 28.0762 -70.459 L 0.976562 0 L 3.66211 0 L 12.9395 -24.4629 L 45.7031 -24.4629 Z M 29.1992 -67.0898 L 29.4434 -67.0898 L 44.8242 -26.709 L 13.8184 -26.709 Z"/>
  </g>
  <line id="Baseline-L" style="fill:none;stroke:#27AAE1;opacity:1;stroke-width:0.577;" x1="263" x2="3036" y1="1556" y2="1556"/>
  <line id="Capline-L" style="fill:none;stroke:#27AAE1;opacity:1;stroke-width:0.577;" x1="263" x2="3036" y1="1485.54" y2="1485.54"/>
  <rect height="119.336" id="left-margin" style="fill:#00AEEF;stroke:none;opacity:0.4;" width="8.74023" x="1399.82" y="1030.79"/>
  <rect height="119.336" id="right-margin" style="fill:#00AEEF;stroke:none;opacity:0.4;" width="8.74023" x="1491.13" y="1030.79"/>
 </g>
 <g id="Symbols">
  <g id="Black-L" transform="matrix(1 0 0 1 2868.85 1556)">
   <path d="M 11.2793 -15.7227 C 11.2793 10.498 31.2988 27.9297 61.377 27.9297 C 95.2148 27.9297 117.822 5.07812 117.822 -29.248 C 117.822 -86.2793 69.1895 -109.912 36.1328 -109.912 C 29.541 -109.912 25.1953 -107.568 25.1953 -102.979 C 25.1953 -101.221 25.9766 -99.3652 27.3438 -97.7539 C 34.7656 -88.916 42.2363 -78.6133 42.3828 -66.5527 C 42.4316 -65.4785 42.3828 -64.3555 42.2852 -63.2812 C 38.7695 -69.873 32.8613 -74.6094 26.8066 -74.6094 C 23.7305 -74.6094 21.6309 -72.3633 21.6309 -69.043 C 21.6309 -67.4316 22.1191 -63.5742 22.1191 -60.8398 C 22.1191 -47.6562 11.2793 -38.8184 11.2793 -15.7227 Z M 21.7285 -15.7227 C 21.7285 -35.2539 32.5195 -43.4082 33.0566 -61.5234 C 36.6211 -56.9336 39.209 -51.4648 40.0879 -43.5547 C 40.2344 -42.334 40.9668 -41.7969 42.0898 -41.7969 C 48.0957 -41.7969 51.5625 -56.9824 51.5625 -66.5527 C 51.5625 -78.9062 46.3379 -91.748 38.2324 -100 C 81.2988 -96.5332 106.982 -67.1875 106.982 -29.6387 C 106.982 -1.31836 89.0625 17.5781 62.207 17.5781 C 37.8906 17.5781 21.7285 4.19922 21.7285 -15.7227 Z M 63.0859 10.2539 C 78.5156 10.2539 86.084 -1.07422 86.084 -13.9648 C 86.084 -26.6602 78.7598 -40.918 64.4531 -47.5098 C 63.8672 -47.7539 63.4766 -47.4121 63.5742 -46.7773 C 64.3555 -35.8887 63.7207 -27.2461 60.4004 -21.4355 C 60.1074 -20.8984 59.6191 -20.9473 59.375 -21.582 C 57.8613 -25.3906 56.0059 -28.6133 53.0273 -31.25 C 52.5391 -31.6406 52.1484 -31.4941 52.0508 -30.8594 C 51.0254 -23.5352 42.8711 -19.4336 42.8711 -8.00781 C 42.8711 2.92969 50.9277 10.2539 63.0859 10.2539 Z"/>
  </g>
  <g id="Heavy-L" transform="matrix(1 0 0 1 2572.14 1556)">
   <path d="M 11.2793 -15.7227 C 11.2793 10.498 31.2988 27.9297 61.377 27.9297 C 95.2148 27.9297 117.822 5.07812 117.822 -29.248 C 117.822 -86.2793 69.1895 -109.912 36.1328 -109.912 C 29.541 -109.912 25.1953 -107.568 25.1953 -102.979 C 25.1953 -101.221 25.9766 -99.3652 27.3438 -97.7539 C 34.7656 -88.916 42.2363 -78.6133 42.3828 -66.5527 C 42.4316 -65.4785 42.3828 -64.3555 42.2852 -63.2812 C 38.7695 -69.873 32.8613 -74.6094 26.8066 -74.6094 C 23.7305 -74.6094 21.6309 -72.3633 21.6309 -69.043 C 21.6309 -67.4316 22.1191 -63.5742 22.1191 -60.8398 C 22.1191 -47.6562 11.2793 -38.8184 11.2793 -15.7227 Z M 21.7285 -15.7227 C 21.7285 -35.2539 32.5195 -43.4082 33.0566 -61.5234 C 36.6211 -56.9336 39.209 -51.4648 40.0879 -43.5547 C 40.2344 -42.334 40.9668 -41.7969 42.0898 -41.7969 C 48.0957 -41.7969 51.5625 -56.9824 51.5625 -66.5527 C 51.5625 -78.9062 46.3379 -91.748 38.2324 -100 C 81.2988 -96.5332 106.982 -67.1875 106.982 -29.6387 C 106.982 -1.31836 89.0625 17.5781 62.207 17.5781 C 37.8906 17.5781 21.7285 4.19922 21.7285 -15.7227 Z M 63.0859 10.2539 C 78.5156 10.2539 86.084 -1.07422 86.084 -13.9648 C 86.084 -26.6602 78.7598 -40.918 64.4531 -47.5098 C 63.8672 -47.7539 63.4766 -47.4121 63.5742 -46.7773 C 64.3555 -35.8887 63.7207 -27.2461 60.4004 -21.4355 C 60.1074 -20.8984 59.6191 -20.9473 59.375 -21.582 C 57.8613 -25.3906 56.0059 -28.6133 53.0273 -31.25 C 52.5391 -31.6406 52.1484 -31.4941 52.0508 -30.8594 C 51.0254 -23.5352 42.8711 -19.4336 42.8711 -8.00781 C 42.8711 2.92969 50.9277 10.2539 63.0859 10.2539 Z"/>
  </g>
  <g id="Bold-L" transform="matrix(1 0 0 1 2275.43 1556)">
   <path d="M 11.2793 -15.7227 C 11.2793 10.498 31.2988 27.9297 61.377 27.9297 C 95.2148 27.9297 117.822 5.07812 117.822 -29.248 C 117.822 -86.2793 69.1895 -109.912 36.1328 -109.912 C 29.541 -109.912 25.1953 -107.568 25.1953 -102.979 C 25.1953 -101.221 25.9766 -99.3652 27.3438 -97.7539 C 34.7656 -88.916 42.2363 -78.6133 42.3828 -66.5527 C 42.4316 -65.4785 42.3828 -64.3555 42.2852 -63.2812 C 38.7695 -69.873 32.8613 -74.6094 26.8066 -74.6094 C 23.7305 -74.6094 21.6309 -72.3633 21.6309 -69.043 C 21.6309 -67.4316 22.1191 -63.5742 22.1191 -60.8398 C 22.1191 -47.6562 11.2793 -38.8184 11.2793 -15.7227 Z M 21.7285 -15.7227 C 21.7285 -35.2539 32.5195 -43.4082 33.0566 -61.5234 C 36.6211 -56.9336 39.209 -51.4648 40.0879 -43.5547 C 40.2344 -42.334 40.9668 -41.7969 42.0898 -41.7969 C 48.0957 -41.7969 51.5625 -56.9824 51.5625 -66.5527 C 51.5625 -78.9062 46.3379 -91.748 38.2324 -100 C 81.2988 -96.5332 106.982 -67.1875 106.982 -29.6387 C 106.982 -1.31836 89.0625 17.5781 62.207 17.5781 C 37.8906 17.5781 21.7285 4.19922 21.7285 -15.7227 Z M 63.0859 10.2539 C 78.5156 10.2539 86.084 -1.07422 86.084 -13.9648 C 86.084 -26.6602 78.7598 -40.918 64.4531 -47.5098 C 63.8672 -47.7539 63.4766 -47.4121 63.5742 -46.7773 C 64.3555 -35.8887 63.7207 -27.2461 60.4004 -21.4355 C 60.1074 -20.8984 59.6191 -20.9473 59.375 -21.582 C 57.8613 -25.3906 56.0059 -28.6133 53.0273 -31.25 C 52.5391 -31.6406 52.1484 -31.4941 52.0508 -30.8594 C 51.0254 -23.5352 42.8711 -19.4336 42.8711 -8.00781 C 42.8711 2.92969 50.9277 10.2539 63.0859 10.2539 Z"/>
  </g>
  <g id="Semibold-L" transform="matrix(1 0 0 1 1978.72 1556)">
   <path d="M 11.2793 -15.7227 C 11.2793 10.498 31.2988 27.9297 61.377 27.9297 C 95.2148 27.9297 117.822 5.07812 117.822 -29.248 C 117.822 -86.2793 69.1895 -109.912 36.1328 -109.912 C 29.541 -109.912 25.1953 -107.568 25.1953 -102.979 C 25.1953 -101.221 25.9766 -99.3652 27.3438 -97.7539 C 34.7656 -88.916 42.2363 -78.6133 42.3828 -66.5527 C 42.4316 -65.4785 42.3828 -64.3555 42.2852 -63.2812 C 38.7695 -69.873 32.8613 -74.6094 26.8066 -74.6094 C 23.7305 -74.6094 21.6309 -72.3633 21.6309 -69.043 C 21.6309 -67.4316 22.1191 -63.5742 22.1191 -60.8398 C 22.1191 -47.6562 11.2793 -38.8184 11.2793 -15.7227 Z M 21.7285 -15.7227 C 21.7285 -35.2539 32.5195 -43.4082 33.0566 -61.5234 C 36.6211 -56.9336 39.209 -51.4648 40.0879 -43.5547 C 40.2344 -42.334 40.9668 -41.7969 42.0898 -41.7969 C 48.0957 -41.7969 51.5625 -56.9824 51.5625 -66.5527 C 51.5625 -78.9062 46.3379 -91.748 38.2324 -100 C 81.2988 -96.5332 106.982 -67.1875 106.982 -29.6387 C 106.982 -1.31836 89.0625 17.5781 62.207 17.5781 C 37.8906 17.5781 21.7285 4.19922 21.7285 -15.7227 Z M 63.0859 10.2539 C 78.5156 10.2539 86.084 -1.07422 86.084 -13.9648 C 86.084 -26.6602 78.7598 -40.918 64.4531 -47.5098 C 63.8672 -47.7539 63.4766 -47.4121 63.5742 -46.7773 C 64.3555 -35.8887 63.7207 -27.2461 60.4004 -21.4355 C 60.1074 -20.8984 59.6191 -20.9473 59.375 -21.582 C 57.8613 -25.3906 56.0059 -28.6133 53.0273 -31.25 C 52.5391 -31.6406 52.1484 -31.4941 52.0508 -30.8594 C 51.0254 -23.5352 42.8711 -19.4336 42.8711 -8.00781 C 42.8711 2.92969 50.9277 10.2539 63.0859 10.2539 Z"/>
  </g>
  <g id="Medium-L" transform="matrix(1 0 0 1 1682 1556)">
   <path d="M 11.2793 -15.7227 C 11.2793 10.498 31.2988 27.9297 61.377 27.9297 C 95.2148 27.9297 117.822 5.07812 117.822 -29.248 C 117.822 -86.2793 69.1895 -109.912 36.1328 -109.912 C 29.541 -109.912 25.1953 -107.568 25.1953 -102.979 C 25.1953 -101.221 25.9766 -99.3652 27.3438 -97.7539 C 34.7656 -88.916 42.2363 -78.6133 42.3828 -66.5527 C 42.4316 -65.4785 42.3828 -64.3555 42.2852 -63.2812 C 38.7695 -69.873 32.8613 -74.6094 26.8066 -74.6094 C 23.7305 -74.6094 21.6309 -72.3633 21.6309 -69.043 C 21.6309 -67.4316 22.1191 -63.5742 22.1191 -60.8398 C 22.1191 -47.6562 11.2793 -38.8184 11.2793 -15.7227 Z M 21.7285 -15.7227 C 21.7285 -35.2539 32.5195 -43.4082 33.0566 -61.5234 C 36.6211 -56.9336 39.209 -51.4648 40.0879 -43.5547 C 40.2344 -42.334 40.9668 -41.7969 42.0898 -41.7969 C 48.0957 -41.7969 51.5625 -56.9824 51.5625 -66.5527 C 51.5625 -78.9062 46.3379 -91.748 38.2324 -100 C 81.2988 -96.5332 106.982 -67.1875 106.982 -29.6387 C 106.982 -1.31836 89.0625 17.5781 62.207 17.5781 C 37.8906 17.5781 21.7285 4.19922 21.7285 -15.7227 Z M 63.0859 10.2539 C 78.5156 10.2539 86.084 -1.07422 86.084 -13.9648 C 86.084 -26.6602 78.7598 -40.918 64.4531 -47.5098 C 63.8672 -47.7539 63.4766 -47.4121 63.5742 -46.7773 C 64.3555 -35.8887 63.7207 -27.2461 60.4004 -21.4355 C 60.1074 -20.8984 59.6191 -20.9473 59.375 -21.582 C 57.8613 -25.3906 56.0059 -28.6133 53.0273 -31.25 C 52.5391 -31.6406 52.1484 -31.4941 52.0508 -30.8594 C 51.0254 -23.5352 42.8711 -19.4336 42.8711 -8.00781 C 42.8711 2.92969 50.9277 10.2539 63.0859 10.2539 Z"/>
  </g>
  <g id="Regular-L" transform="matrix(1 0 0 1 1385.29 1556)">
   <path d="M 11.2793 -15.7227 C 11.2793 10.498 31.2988 27.9297 61.377 27.9297 C 95.2148 27.9297 117.822 5.07812 117.822 -29.248 C 117.822 -86.2793 69.1895 -109.912 36.1328 -109.912 C 29.541 -109.912 25.1953 -107.568 25.1953 -102.979 C 25.1953 -101.221 25.9766 -99.3652 27.3438 -97.7539 C 34.7656 -88.916 42.2363 -78.6133 42.3828 -66.5527 C 42.4316 -65.4785 42.3828 -64.3555 42.2852 -63.2812 C 38.7695 -69.873 32.8613 -74.6094 26.8066 -74.6094 C 23.7305 -74.6094 21.6309 -72.3633 21.6309 -69.043 C 21.6309 -67.4316 22.1191 -63.5742 22.1191 -60.8398 C 22.1191 -47.6562 11.2793 -38.8184 11.2793 -15.7227 Z M 21.7285 -15.7227 C 21.7285 -35.2539 32.5195 -43.4082 33.0566 -61.5234 C 36.6211 -56.9336 39.209 -51.4648 40.0879 -43.5547 C 40.2344 -42.334 40.9668 -41.7969 42.0898 -41.7969 C 48.0957 -41.7969 51.5625 -56.9824 51.5625 -66.5527 C 51.5625 -78.9062 46.3379 -91.748 38.2324 -100 C 81.2988 -96.5332 106.982 -67.1875 106.982 -29.6387 C 106.982 -1.31836 89.0625 17.5781 62.207 17.5781 C 37.8906 17.5781 21.7285 4.19922 21.7285 -15.7227 Z M 63.0859 10.2539 C 78.5156 10.2539 86.084 -1.07422 86.084 -13.9648 C 86.084 -26.6602 78.7598 -40.918 64.4531 -47.5098 C 63.8672 -47.7539 63.4766 -47.4121 63.5742 -46.7773 C 64.3555 -35.8887 63.7207 -27.2461 60.4004 -21.4355 C 60.1074 -20.8984 59.6191 -20.9473 59.375 -21.582 C 57.8613 -25.3906 56.0059 -28.6133 53.0273 -31.25 C 52.5391 -31.6406 52.1484 -31.4941 52.0508 -30.8594 C 51.0254 -23.5352 42.8711 -19.4336 42.8711 -8.00781 C 42.8711 2.92969 50.9277 10.2539 63.0859 10.2539 Z"/>
  </g>
  <g id="Light-L" transform="matrix(1 0 0 1 1088.58 1556)">
   <path d="M 11.2793 -15.7227 C 11.2793 10.498 31.2988 27.9297 61.377 27.9297 C 95.2148 27.9297 117.822 5.07812 117.822 -29.248 C 117.822 -86.2793 69.1895 -109.912 36.1328 -109.912 C 29.541 -109.912 25.1953 -107.568 25.1953 -102.979 C 25.1953 -101.221 25.9766 -99.3652 27.3438 -97.7539 C 34.7656 -88.916 42.2363 -78.6133 42.3828 -66.5527 C 42.4316 -65.4785 42.3828 -64.3555 42.2852 -63.2812 C 38.7695 -69.873 32.8613 -74.6094 26.8066 -74.6094 C 23.7305 -74.6094 21.6309 -72.3633 21.6309 -69.043 C 21.6309 -67.4316 22.1191 -63.5742 22.1191 -60.8398 C 22.1191 -47.6562 11.2793 -38.8184 11.2793 -15.7227 Z M 21.7285 -15.7227 C 21.7285 -35.2539 32.5195 -43.4082 33.0566 -61.5234 C 36.6211 -56.9336 39.209 -51.4648 40.0879 -43.5547 C 40.2344 -42.334 40.9668 -41.7969 42.0898 -41.7969 C 48.0957 -41.7969 51.5625 -56.9824 51.5625 -66.5527 C 51.5625 -78.9062 46.3379 -91.748 38.2324 -100 C 81.2988 -96.5332 106.982 -67.1875 106.982 -29.6387 C 106.982 -1.31836 89.0625 17.5781 62.207 17.5781 C 37.8906 17.5781 21.7285 4.19922 21.7285 -15.7227 Z M 63.0859 10.2539 C 78.5156 10.2539 86.084 -1.07422 86.084 -13.9648 C 86.084 -26.6602 78.7598 -40.918 64.4531 -47.5098 C 63.8672 -47.7539 63.4766 -47.4121 63.5742 -46.7773 C 64.3555 -35.8887 63.7207 -27.2461 60.4004 -21.4355 C 60.1074 -20.8984 59.6191 -20.9473 59.375 -21.582 C 57.8613 -25.3906 56.0059 -28.6133 53.0273 -31.25 C 52.5391 -31.6406 52.1484 -31.4941 52.0508 -30.8594 C 51.0254 -23.5352 42.8711 -19.4336 42.8711 -8.00781 C 42.8711 2.92969 50.9277 10.2539 63.0859 10.2539 Z"/>
  </g>
  <g id="Thin-L" transform="matrix(1 0 0 1 791.871 1556)">
   <path d="M 11.2793 -15.7227 C 11.2793 10.498 31.2988 27.9297 61.377 27.9297 C 95.2148 27.9297 117.822 5.07812 117.822 -29.248 C 117.822 -86.2793 69.1895 -109.912 36.1328 -109.912 C 29.541 -109.912 25.1953 -107.568 25.1953 -102.979 C 25.1953 -101.221 25.9766 -99.3652 27.3438 -97.7539 C 34.7656 -88.916 42.2363 -78.6133 42.3828 -66.5527 C 42.4316 -65.4785 42.3828 -64.3555 42.2852 -63.2812 C 38.7695 -69.873 32.8613 -74.6094 26.8066 -74.6094 C 23.7305 -74.6094 21.6309 -72.3633 21.6309 -69.043 C 21.6309 -67.4316 22.1191 -63.5742 22.1191 -60.8398 C 22.1191 -47.6562 11.2793 -38.8184 11.2793 -15.7227 Z M 21.7285 -15.7227 C 21.7285 -35.2539 32.5195 -43.4082 33.0566 -61.5234 C 36.6211 -56.9336 39.209 -51.4648 40.0879 -43.5547 C 40.2344 -42.334 40.9668 -41.7969 42.0898 -41.7969 C 48.0957 -41.7969 51.5625 -56.9824 51.5625 -66.5527 C 51.5625 -78.9062 46.3379 -91.748 38.2324 -100 C 81.2988 -96.5332 106.982 -67.1875 106.982 -29.6387 C 106.982 -1.31836 89.0625 17.5781 62.207 17.5781 C 37.8906 17.5781 21.7285 4.19922 21.7285 -15.7227 Z M 63.0859 10.2539 C 78.5156 10.2539 86.084 -1.07422 86.084 -13.9648 C 86.084 -26.6602 78.7598 -40.918 64.4531 -47.5098 C 63.8672 -47.7539 63.4766 -47.4121 63.5742 -46.7773 C 64.3555 -35.8887 63.7207 -27.2461 60.4004 -21.4355 C 60.1074 -20.8984 59.6191 -20.9473 59.375 -21.582 C 57.8613 -25.3906 56.0059 -28.6133 53.0273 -31.25 C 52.5391 -31.6406 52.1484 -31.4941 52.0508 -30.8594 C 51.0254 -23.5352 42.8711 -19.4336 42.8711 -8.00781 C 42.8711 2.92969 50.9277 10.2539 63.0859 10.2539 Z"/>
  </g>
  <g id="Ultralight-L" transform="matrix(1 0 0 1 495.16 1556)">
   <path d="M 11.2793 -15.7227 C 11.2793 10.498 31.2988 27.9297 61.377 27.9297 C 95.2148 27.9297 117.822 5.07812 117.822 -29.248 C 117.822 -86.2793 69.1895 -109.912 36.1328 -109.912 C 29.541 -109.912 25.1953 -107.568 25.1953 -102.979 C 25.1953 -101.221 25.9766 -99.3652 27.3438 -97.7539 C 34.7656 -88.916 42.2363 -78.6133 42.3828 -66.5527 C 42.4316 -65.4785 42.3828 -64.3555 42.2852 -63.2812 C 38.7695 -69.873 32.8613 -74.6094 26.8066 -74.6094 C 23.7305 -74.6094 21.6309 -72.3633 21.6309 -69.043 C 21.6309 -67.4316 22.1191 -63.5742 22.1191 -60.8398 C 22.1191 -47.6562 11.2793 -38.8184 11.2793 -15.7227 Z M 21.7285 -15.7227 C 21.7285 -35.2539 32.5195 -43.4082 33.0566 -61.5234 C 36.6211 -56.9336 39.209 -51.4648 40.0879 -43.5547 C 40.2344 -42.334 40.9668 -41.7969 42.0898 -41.7969 C 48.0957 -41.7969 51.5625 -56.9824 51.5625 -66.5527 C 51.5625 -78.9062 46.3379 -91.748 38.2324 -100 C 81.2988 -96.5332 106.982 -67.1875 106.982 -29.6387 C 106.982 -1.31836 89.0625 17.5781 62.207 17.5781 C 37.8906 17.5781 21.7285 4.19922 21.7285 -15.7227 Z M 63.0859 10.2539 C 78.5156 10.2539 86.084 -1.07422 86.084 -13.9648 C 86.084 -26.6602 78.7598 -40.918 64.4531 -47.5098 C 63.8672 -47.7539 63.4766 -47.4121 63.5742 -46.7773 C 64.3555 -35.8887 63.7207 -27.2461 60.4004 -21.4355 C 60.1074 -20.8984 59.6191 -20.9473 59.375 -21.582 C 57.8613 -25.3906 56.0059 -28.6133 53.0273 -31.25 C 52.5391 -31.6406 52.1484 -31.4941 52.0508 -30.8594 C 51.0254 -23.5352 42.8711 -19.4336 42.8711 -8.00781 C 42.8711 2.92969 50.9277 10.2539 63.0859 10.2539 Z"/>
  </g>
  <g id="Black-M" transform="matrix(1 0 0 1 2883.38 1126)">
   <path d="M 8.74023 -20.1172 C 8.74023 0.195312 24.2676 13.7207 47.5586 13.7207 C 73.8281 13.7207 91.3086 -3.95508 91.3086 -30.5664 C 91.3086 -74.7559 53.6133 -93.1152 27.9785 -93.1152 C 22.9004 -93.1152 19.5312 -91.3086 19.5312 -87.7441 C 19.5312 -86.377 20.166 -84.9121 21.1914 -83.6914 C 26.9531 -76.8066 32.7148 -68.8477 32.8613 -59.5215 C 32.9102 -58.6426 32.8613 -57.8125 32.7637 -56.9336 C 30.0781 -62.0605 25.4883 -65.7227 20.752 -65.7227 C 18.4082 -65.7227 16.7969 -64.0137 16.7969 -61.4258 C 16.7969 -60.2051 17.1387 -57.1777 17.1387 -55.0781 C 17.1387 -44.873 8.74023 -37.9883 8.74023 -20.1172 Z M 16.8457 -20.1172 C 16.8457 -35.2539 25.1953 -41.5527 25.6348 -55.5664 C 28.3691 -52.0508 30.3711 -47.8027 31.0547 -41.6992 C 31.2012 -40.7227 31.7383 -40.332 32.6172 -40.332 C 37.3047 -40.332 39.9414 -52.0996 39.9414 -59.5215 C 39.9414 -69.043 35.8887 -79.0039 29.6387 -85.4004 C 62.9883 -82.7148 82.9102 -60.0098 82.9102 -30.9082 C 82.9102 -8.93555 68.9941 5.66406 48.1934 5.66406 C 29.3457 5.66406 16.8457 -4.63867 16.8457 -20.1172 Z M 48.877 0 C 60.8398 0 66.6992 -8.78906 66.6992 -18.75 C 66.6992 -28.6133 61.0352 -39.5996 49.9512 -44.7266 C 49.5117 -44.9219 49.1699 -44.6777 49.2676 -44.1895 C 49.8535 -35.7422 49.3652 -29.0039 46.8262 -24.5605 C 46.582 -24.1211 46.1914 -24.1699 45.9961 -24.6582 C 44.8242 -27.5879 43.4082 -30.0781 41.0645 -32.1289 C 40.7227 -32.4707 40.3809 -32.3242 40.332 -31.8359 C 39.5508 -26.1719 33.252 -22.998 33.252 -14.1113 C 33.252 -5.66406 39.4531 0 48.877 0 Z"/>
  </g>
  <g id="Heavy-M" transform="matrix(1 0 0 1 2586.66 1126)">
   <path d="M 8.74023 -20.1172 C 8.74023 0.195312 24.2676 13.7207 47.5586 13.7207 C 73.8281 13.7207 91.3086 -3.95508 91.3086 -30.5664 C 91.3086 -74.7559 53.6133 -93.1152 27.9785 -93.1152 C 22.9004 -93.1152 19.5312 -91.3086 19.5312 -87.7441 C 19.5312 -86.377 20.166 -84.9121 21.1914 -83.6914 C 26.9531 -76.8066 32.7148 -68.8477 32.8613 -59.5215 C 32.9102 -58.6426 32.8613 -57.8125 32.7637 -56.9336 C 30.0781 -62.0605 25.4883 -65.7227 20.752 -65.7227 C 18.4082 -65.7227 16.7969 -64.0137 16.7969 -61.4258 C 16.7969 -60.2051 17.1387 -57.1777 17.1387 -55.0781 C 17.1387 -44.873 8.74023 -37.9883 8.74023 -20.1172 Z M 16.8457 -20.1172 C 16.8457 -35.2539 25.1953 -41.5527 25.6348 -55.5664 C 28.3691 -52.0508 30.3711 -47.8027 31.0547 -41.6992 C 31.2012 -40.7227 31.7383 -40.332 32.6172 -40.332 C 37.3047 -40.332 39.9414 -52.0996 39.9414 -59.5215 C 39.9414 -69.043 35.8887 -79.0039 29.6387 -85.4004 C 62.9883 -82.7148 82.9102 -60.0098 82.9102 -30.9082 C 82.9102 -8.93555 68.9941 5.66406 48.1934 5.66406 C 29.3457 5.66406 16.8457 -4.63867 16.8457 -20.1172 Z M 48.877 0 C 60.8398 0 66.6992 -8.78906 66.6992 -18.75 C 66.6992 -28.6133 61.0352 -39.5996 49.9512 -44.7266 C 49.5117 -44.9219 49.1699 -44.6777 49.2676 -44.1895 C 49.8535 -35.7422 49.3652 -29.0039 46.8262 -24.5605 C 46.582 -24.1211 46.1914 -24.1699 45.9961 -24.6582 C 44.8242 -27.5879 43.4082 -30.0781 41.0645 -32.1289 C 40.7227 -32.4707 40.3809 -32.3242 40.332 -31.8359 C 39.5508 -26.1719 33.252 -22.998 33.252 -14.1113 C 33.252 -5.66406 39.4531 0 48.877 0 Z"/>
  </g>
  <g id="Bold-M" transform="matrix(1 0 0 1 2289.95 1126)">
   <path d="M 8.74023 -20.1172 C 8.74023 0.195312 24.2676 13.7207 47.5586 13.7207 C 73.8281 13.7207 91.3086 -3.95508 91.3086 -30.5664 C 91.3086 -74.7559 53.6133 -93.1152 27.9785 -93.1152 C 22.9004 -93.1152 19.5312 -91.3086 19.5312 -87.7441 C 19.5312 -86.377 20.166 -84.9121 21.1914 -83.6914 C 26.9531 -76.8066 32.7148 -68.8477 32.8613 -59.5215 C 32.9102 -58.6426 32.8613 -57.8125 32.7637 -56.9336 C 30.0781 -62.0605 25.4883 -65.7227 20.752 -65.7227 C 18.4082 -65.7227 16.7969 -64.0137 16.7969 -61.4258 C 16.7969 -60.2051 17.1387 -57.1777 17.1387 -55.0781 C 17.1387 -44.873 8.74023 -37.9883 8.74023 -20.1172 Z M 16.8457 -20.1172 C 16.8457 -35.2539 25.1953 -41.5527 25.6348 -55.5664 C 28.3691 -52.0508 30.3711 -47.8027 31.0547 -41.6992 C 31.2012 -40.7227 31.7383 -40.332 32.6172 -40.332 C 37.3047 -40.332 39.9414 -52.0996 39.9414 -59.5215 C 39.9414 -69.043 35.8887 -79.0039 29.6387 -85.4004 C 62.9883 -82.7148 82.9102 -60.0098 82.9102 -30.9082 C 82.9102 -8.93555 68.9941 5.66406 48.1934 5.66406 C 29.3457 5.66406 16.8457 -4.63867 16.8457 -20.1172 Z M 48.877 0 C 60.8398 0 66.6992 -8.78906 66.6992 -18.75 C 66.6992 -28.6133 61.0352 -39.5996 49.9512 -44.7266 C 49.5117 -44.9219 49.1699 -44.6777 49.2676 -44.1895 C 49.8535 -35.7422 49.3652 -29.0039 46.8262 -24.5605 C 46.582 -24.1211 46.1914 -24.1699 45.9961 -24.6582 C 44.8242 -27.5879 43.4082 -30.0781 41.0645 -32.1289 C 40.7227 -32.4707 40.3809 -32.3242 40.332 -31.8359 C 39.5508 -26.1719 33.252 -22.998 33.252 -14.1113 C 33.252 -5.66406 39.4531 0 48.877 0 Z"/>
  </g>
  <g id="Semibold-M" transform="matrix(1 0 0 1 1993.24 1126)">
   <path d="M 8.74023 -20.1172 C 8.74023 0.195312 24.2676 13.7207 47.5586 13.7207 C 73.8281 13.7207 91.3086 -3.95508 91.3086 -30.5664 C 91.3086 -74.7559 53.6133 -93.1152 27.9785 -93.1152 C 22.9004 -93.1152 19.5312 -91.3086 19.5312 -87.7441 C 19.5312 -86.377 20.166 -84.9121 21.1914 -83.6914 C 26.9531 -76.8066 32.7148 -68.8477 32.8613 -59.5215 C 32.9102 -58.6426 32.8613 -57.8125 32.7637 -56.9336 C 30.0781 -62.0605 25.4883 -65.7227 20.752 -65.7227 C 18.4082 -65.7227 16.7969 -64.0137 16.7969 -61.4258 C 16.7969 -60.2051 17.1387 -57.1777 17.1387 -55.0781 C 17.1387 -44.873 8.74023 -37.9883 8.74023 -20.1172 Z M 16.8457 -20.1172 C 16.8457 -35.2539 25.1953 -41.5527 25.6348 -55.5664 C 28.3691 -52.0508 30.3711 -47.8027 31.0547 -41.6992 C 31.2012 -40.7227 31.7383 -40.332 32.6172 -40.332 C 37.3047 -40.332 39.9414 -52.0996 39.9414 -59.5215 C 39.9414 -69.043 35.8887 -79.0039 29.6387 -85.4004 C 62.9883 -82.7148 82.9102 -60.0098 82.9102 -30.9082 C 82.9102 -8.93555 68.9941 5.66406 48.1934 5.66406 C 29.3457 5.66406 16.8457 -4.63867 16.8457 -20.1172 Z M 48.877 0 C 60.8398 0 66.6992 -8.78906 66.6992 -18.75 C 66.6992 -28.6133 61.0352 -39.5996 49.9512 -44.7266 C 49.5117 -44.9219 49.1699 -44.6777 49.2676 -44.1895 C 49.8535 -35.7422 49.3652 -29.0039 46.8262 -24.5605 C 46.582 -24.1211 46.1914 -24.1699 45.9961 -24.6582 C 44.8242 -27.5879 43.4082 -30.0781 41.0645 -32.1289 C 40.7227 -32.4707 40.3809 -32.3242 40.332 -31.8359 C 39.5508 -26.1719 33.252 -22.998 33.252 -14.1113 C 33.252 -5.66406 39.4531 0 48.877 0 Z"/>
  </g>
  <g id="Medium-M" transform="matrix(1 0 0 1 1696.53 1126)">
   <path d="M 8.74023 -20.1172 C 8.74023 0.195312 24.2676 13.7207 47.5586 13.7207 C 73.8281 13.7207 91.3086 -3.95508 91.3086 -30.5664 C 91.3086 -74.7559 53.6133 -93.1152 27.9785 -93.1152 C 22.9004 -93.1152 19.5312 -91.3086 19.5312 -87.7441 C 19.5312 -86.377 20.166 -84.9121 21.1914 -83.6914 C 26.9531 -76.8066 32.7148 -68.8477 32.8613 -59.5215 C 32.9102 -58.6426 32.8613 -57.8125 32.7637 -56.9336 C 30.0781 -62.0605 25.4883 -65.7227 20.752 -65.7227 C 18.4082 -65.7227 16.7969 -64.0137 16.7969 -61.4258 C 16.7969 -60.2051 17.1387 -57.1777 17.1387 -55.0781 C 17.1387 -44.873 8.74023 -37.9883 8.74023 -20.1172 Z M 16.8457 -20.1172 C 16.8457 -35.2539 25.1953 -41.5527 25.6348 -55.5664 C 28.3691 -52.0508 30.3711 -47.8027 31.0547 -41.6992 C 31.2012 -40.7227 31.7383 -40.332 32.6172 -40.332 C 37.3047 -40.332 39.9414 -52.0996 39.9414 -59.5215 C 39.9414 -69.043 35.8887 -79.0039 29.6387 -85.4004 C 62.9883 -82.7148 82.9102 -60.0098 82.9102 -30.9082 C 82.9102 -8.93555 68.9941 5.66406 48.1934 5.66406 C 29.3457 5.66406 16.8457 -4.63867 16.8457 -20.1172 Z M 48.877 0 C 60.8398 0 66.6992 -8.78906 66.6992 -18.75 C 66.6992 -28.6133 61.0352 -39.5996 49.9512 -44.7266 C 49.5117 -44.9219 49.1699 -44.6777 49.2676 -44.1895 C 49.8535 -35.7422 49.3652 -29.0039 46.8262 -24.5605 C 46.582 -24.1211 46.1914 -24.1699 45.9961 -24.6582 C 44.8242 -27.5879 43.4082 -30.0781 41.0645 -32.1289 C 40.7227 -32.4707 40.3809 -32.3242 40.332 -31.8359 C 39.5508 -26.1719 33.252 -22.998 33.252 -14.1113 C 33.252 -5.66406 39.4531 0 48.877 0 Z"/>
  </g>
  <g id="Regular-M" transform="matrix(1 0 0 1 1399.82 1126)">
   <path d="M 8.74023 -20.1172 C 8.74023 0.195312 24.2676 13.7207 47.5586 13.7207 C 73.8281 13.7207 91.3086 -3.95508 91.3086 -30.5664 C 91.3086 -74.7559 53.6133 -93.1152 27.9785 -93.1152 C 22.9004 -93.1152 19.5312 -91.3086 19.5312 -87.7441 C 19.5312 -86.377 20.166 -84.9121 21.1914 -83.6914 C 26.9531 -76.8066 32.7148 -68.8477 32.8613 -59.5215 C 32.9102 -58.6426 32.8613 -57.8125 32.7637 -56.9336 C 30.0781 -62.0605 25.4883 -65.7227 20.752 -65.7227 C 18.4082 -65.7227 16.7969 -64.0137 16.7969 -61.4258 C 16.7969 -60.2051 17.1387 -57.1777 17.1387 -55.0781 C 17.1387 -44.873 8.74023 -37.9883 8.74023 -20.1172 Z M 16.8457 -20.1172 C 16.8457 -35.2539 25.1953 -41.5527 25.6348 -55.5664 C 28.3691 -52.0508 30.3711 -47.8027 31.0547 -41.6992 C 31.2012 -40.7227 31.7383 -40.332 32.6172 -40.332 C 37.3047 -40.332 39.9414 -52.0996 39.9414 -59.5215 C 39.9414 -69.043 35.8887 -79.0039 29.6387 -85.4004 C 62.9883 -82.7148 82.9102 -60.0098 82.9102 -30.9082 C 82.9102 -8.93555 68.9941 5.66406 48.1934 5.66406 C 29.3457 5.66406 16.8457 -4.63867 16.8457 -20.1172 Z M 48.877 0 C 60.8398 0 66.6992 -8.78906 66.6992 -18.75 C 66.6992 -28.6133 61.0352 -39.5996 49.9512 -44.7266 C 49.5117 -44.9219 49.1699 -44.6777 49.2676 -44.1895 C 49.8535 -35.7422 49.3652 -29.0039 46.8262 -24.5605 C 46.582 -24.1211 46.1914 -24.1699 45.9961 -24.6582 C 44.8242 -27.5879 43.4082 -30.0781 41.0645 -32.1289 C 40.7227 -32.4707 40.3809 -32.3242 40.332 -31.8359 C 39.5508 -26.1719 33.252 -22.998 33.252 -14.1113 C 33.252 -5.66406 39.4531 0 48.877 0 Z"/>
  </g>
  <g id="Light-M" transform="matrix(1 0 0 1 1103.11 1126)">
   <path d="M 8.74023 -20.1172 C 8.74023 0.195312 24.2676 13.7207 47.5586 13.7207 C 73.8281 13.7207 91.3086 -3.95508 91.3086 -30.5664 C 91.3086 -74.7559 53.6133 -93.1152 27.9785 -93.1152 C 22.9004 -93.1152 19.5312 -91.3086 19.5312 -87.7441 C 19.5312 -86.377 20.166 -84.9121 21.1914 -83.6914 C 26.9531 -76.8066 32.7148 -68.8477 32.8613 -59.5215 C 32.9102 -58.6426 32.8613 -57.8125 32.7637 -56.9336 C 30.0781 -62.0605 25.4883 -65.7227 20.752 -65.7227 C 18.4082 -65.7227 16.7969 -64.0137 16.7969 -61.4258 C 16.7969 -60.2051 17.1387 -57.1777 17.1387 -55.0781 C 17.1387 -44.873 8.74023 -37.9883 8.74023 -20.1172 Z M 16.8457 -20.1172 C 16.8457 -35.2539 25.1953 -41.5527 25.6348 -55.5664 C 28.3691 -52.0508 30.3711 -47.8027 31.0547 -41.6992 C 31.2012 -40.7227 31.7383 -40.332 32.6172 -40.332 C 37.3047 -40.332 39.9414 -52.0996 39.9414 -59.5215 C 39.9414 -69.043 35.8887 -79.0039 29.6387 -85.4004 C 62.9883 -82.7148 82.9102 -60.0098 82.9102 -30.9082 C 82.9102 -8.93555 68.9941 5.66406 48.1934 5.66406 C 29.3457 5.66406 16.8457 -4.63867 16.8457 -20.1172 Z M 48.877 0 C 60.8398 0 66.6992 -8.78906 66.6992 -18.75 C 66.6992 -28.6133 61.0352 -39.5996 49.9512 -44.7266 C 49.5117 -44.9219 49.1699 -44.6777 49.2676 -44.1895 C 49.8535 -35.7422 49.3652 -29.0039 46.8262 -24.5605 C 46.582 -24.1211 46.1914 -24.1699 45.9961 -24.6582 C 44.8242 -27.5879 43.4082 -30.0781 41.0645 -32.1289 C 40.7227 -32.4707 40.3809 -32.3242 40.332 -31.8359 C 39.5508 -26.1719 33.252 -22.998 33.252 -14.1113 C 33.252 -5.66406 39.4531 0 48.877 0 Z"/>
  </g>
  <g id="Thin-M" transform="matrix(1 0 0 1 806.398 1126)">
   <path d="M 8.74023 -20.1172 C 8.74023 0.195312 24.2676 13.7207 47.5586 13.7207 C 73.8281 13.7207 91.3086 -3.95508 91.3086 -30.5664 C 91.3086 -74.7559 53.6133 -93.1152 27.9785 -93.1152 C 22.9004 -93.1152 19.5312 -91.3086 19.5312 -87.7441 C 19.5312 -86.377 20.166 -84.9121 21.1914 -83.6914 C 26.9531 -76.8066 32.7148 -68.8477 32.8613 -59.5215 C 32.9102 -58.6426 32.8613 -57.8125 32.7637 -56.9336 C 30.0781 -62.0605 25.4883 -65.7227 20.752 -65.7227 C 18.4082 -65.7227 16.7969 -64.0137 16.7969 -61.4258 C 16.7969 -60.2051 17.1387 -57.1777 17.1387 -55.0781 C 17.1387 -44.873 8.74023 -37.9883 8.74023 -20.1172 Z M 16.8457 -20.1172 C 16.8457 -35.2539 25.1953 -41.5527 25.6348 -55.5664 C 28.3691 -52.0508 30.3711 -47.8027 31.0547 -41.6992 C 31.2012 -40.7227 31.7383 -40.332 32.6172 -40.332 C 37.3047 -40.332 39.9414 -52.0996 39.9414 -59.5215 C 39.9414 -69.043 35.8887 -79.0039 29.6387 -85.4004 C 62.9883 -82.7148 82.9102 -60.0098 82.9102 -30.9082 C 82.9102 -8.93555 68.9941 5.66406 48.1934 5.66406 C 29.3457 5.66406 16.8457 -4.63867 16.8457 -20.1172 Z M 48.877 0 C 60.8398 0 66.6992 -8.78906 66.6992 -18.75 C 66.6992 -28.6133 61.0352 -39.5996 49.9512 -44.7266 C 49.5117 -44.9219 49.1699 -44.6777 49.2676 -44.1895 C 49.8535 -35.7422 49.3652 -29.0039 46.8262 -24.5605 C 46.582 -24.1211 46.1914 -24.1699 45.9961 -24.6582 C 44.8242 -27.5879 43.4082 -30.0781 41.0645 -32.1289 C 40.7227 -32.4707 40.3809 -32.3242 40.332 -31.8359 C 39.5508 -26.1719 33.252 -22.998 33.252 -14.1113 C 33.252 -5.66406 39.4531 0 48.877 0 Z"/>
  </g>
  <g id="Ultralight-M" transform="matrix(1 0 0 1 509.687 1126)">
   <path d="M 8.74023 -20.1172 C 8.74023 0.195312 24.2676 13.7207 47.5586 13.7207 C 73.8281 13.7207 91.3086 -3.95508 91.3086 -30.5664 C 91.3086 -74.7559 53.6133 -93.1152 27.9785 -93.1152 C 22.9004 -93.1152 19.5312 -91.3086 19.5312 -87.7441 C 19.5312 -86.377 20.166 -84.9121 21.1914 -83.6914 C 26.9531 -76.8066 32.7148 -68.8477 32.8613 -59.5215 C 32.9102 -58.6426 32.8613 -57.8125 32.7637 -56.9336 C 30.0781 -62.0605 25.4883 -65.7227 20.752 -65.7227 C 18.4082 -65.7227 16.7969 -64.0137 16.7969 -61.4258 C 16.7969 -60.2051 17.1387 -57.1777 17.1387 -55.0781 C 17.1387 -44.873 8.74023 -37.9883 8.74023 -20.1172 Z M 16.8457 -20.1172 C 16.8457 -35.2539 25.1953 -41.5527 25.6348 -55.5664 C 28.3691 -52.0508 30.3711 -47.8027 31.0547 -41.6992 C 31.2012 -40.7227 31.7383 -40.332 32.6172 -40.332 C 37.3047 -40.332 39.9414 -52.0996 39.9414 -59.5215 C 39.9414 -69.043 35.8887 -79.0039 29.6387 -85.4004 C 62.9883 -82.7148 82.9102 -60.0098 82.9102 -30.9082 C 82.9102 -8.93555 68.9941 5.66406 48.1934 5.66406 C 29.3457 5.66406 16.8457 -4.63867 16.8457 -20.1172 Z M 48.877 0 C 60.8398 0 66.6992 -8.78906 66.6992 -18.75 C 66.6992 -28.6133 61.0352 -39.5996 49.9512 -44.7266 C 49.5117 -44.9219 49.1699 -44.6777 49.2676 -44.1895 C 49.8535 -35.7422 49.3652 -29.0039 46.8262 -24.5605 C 46.582 -24.1211 46.1914 -24.1699 45.9961 -24.6582 C 44.8242 -27.5879 43.4082 -30.0781 41.0645 -32.1289 C 40.7227 -32.4707 40.3809 -32.3242 40.332 -31.8359 C 39.5508 -26.1719 33.252 -22.998 33.252 -14.1113 C 33.252 -5.66406 39.4531 0 48.877 0 Z"/>
  </g>
  <g id="Black-S" transform="matrix(1 0 0 1 2894.22 696)">
   <path d="M 6.83594 -23.3887 C 6.83594 -7.4707 18.9941 3.125 37.2559 3.125 C 57.8125 3.125 71.5332 -10.7422 71.5332 -31.5918 C 71.5332 -66.2109 41.9922 -80.5664 21.9238 -80.5664 C 17.9199 -80.5664 15.2832 -79.1504 15.2832 -76.3672 C 15.2832 -75.293 15.7715 -74.1699 16.6016 -73.1934 C 21.0938 -67.8223 25.6348 -61.5723 25.7324 -54.248 C 25.7324 -53.5645 25.7324 -52.9297 25.6348 -52.2461 C 23.5352 -56.25 19.9219 -59.1309 16.2598 -59.1309 C 14.4043 -59.1309 13.1348 -57.7637 13.1348 -55.7617 C 13.1348 -54.7852 13.4277 -52.4414 13.4277 -50.7812 C 13.4277 -42.7734 6.83594 -37.4023 6.83594 -23.3887 Z M 13.1836 -23.3887 C 13.1836 -35.2539 19.7266 -40.1855 20.0684 -51.1719 C 22.2168 -48.4375 23.7793 -45.0684 24.3164 -40.2832 C 24.4141 -39.5508 24.8535 -39.209 25.5371 -39.209 C 29.1992 -39.209 31.2988 -48.4375 31.2988 -54.248 C 31.2988 -61.7188 28.125 -69.5312 23.1934 -74.5605 C 49.3652 -72.4609 64.9414 -54.6387 64.9414 -31.8359 C 64.9414 -14.6484 54.0527 -3.17383 37.7441 -3.17383 C 22.998 -3.17383 13.1836 -11.2793 13.1836 -23.3887 Z M 38.2812 -7.61719 C 47.6562 -7.61719 52.2461 -14.502 52.2461 -22.3145 C 52.2461 -30.0293 47.8027 -38.6719 39.1113 -42.6758 C 38.7695 -42.8223 38.5254 -42.627 38.5742 -42.2363 C 39.0625 -35.6445 38.6719 -30.3711 36.6699 -26.8555 C 36.4746 -26.5137 36.1816 -26.5625 36.0352 -26.9531 C 35.1074 -29.248 33.9844 -31.2012 32.1777 -32.8125 C 31.8848 -33.0566 31.6406 -32.959 31.5918 -32.5684 C 30.957 -28.125 26.0254 -25.6348 26.0254 -18.7012 C 26.0254 -12.0605 30.9082 -7.61719 38.2812 -7.61719 Z"/>
  </g>
  <g id="Heavy-S" transform="matrix(1 0 0 1 2597.5 696)">
   <path d="M 6.83594 -23.3887 C 6.83594 -7.4707 18.9941 3.125 37.2559 3.125 C 57.8125 3.125 71.5332 -10.7422 71.5332 -31.5918 C 71.5332 -66.2109 41.9922 -80.5664 21.9238 -80.5664 C 17.9199 -80.5664 15.2832 -79.1504 15.2832 -76.3672 C 15.2832 -75.293 15.7715 -74.1699 16.6016 -73.1934 C 21.0938 -67.8223 25.6348 -61.5723 25.7324 -54.248 C 25.7324 -53.5645 25.7324 -52.9297 25.6348 -52.2461 C 23.5352 -56.25 19.9219 -59.1309 16.2598 -59.1309 C 14.4043 -59.1309 13.1348 -57.7637 13.1348 -55.7617 C 13.1348 -54.7852 13.4277 -52.4414 13.4277 -50.7812 C 13.4277 -42.7734 6.83594 -37.4023 6.83594 -23.3887 Z M 13.1836 -23.3887 C 13.1836 -35.2539 19.7266 -40.1855 20.0684 -51.1719 C 22.2168 -48.4375 23.7793 -45.0684 24.3164 -40.2832 C 24.4141 -39.5508 24.8535 -39.209 25.5371 -39.209 C 29.1992 -39.209 31.2988 -48.4375 31.2988 -54.248 C 31.2988 -61.7188 28.125 -69.5312 23.1934 -74.5605 C 49.3652 -72.4609 64.9414 -54.6387 64.9414 -31.8359 C 64.9414 -14.6484 54.0527 -3.17383 37.7441 -3.17383 C 22.998 -3.17383 13.1836 -11.2793 13.1836 -23.3887 Z M 38.2812 -7.61719 C 47.6562 -7.61719 52.2461 -14.502 52.2461 -22.3145 C 52.2461 -30.0293 47.8027 -38.6719 39.1113 -42.6758 C 38.7695 -42.8223 38.5254 -42.627 38.5742 -42.2363 C 39.0625 -35.6445 38.6719 -30.3711 36.6699 -26.8555 C 36.4746 -26.5137 36.1816 -26.5625 36.0352 -26.9531 C 35.1074 -29.248 33.9844 -31.2012 32.1777 -32.8125 C 31.8848 -33.0566 31.6406 -32.959 31.5918 -32.5684 C 30.957 -28.125 26.0254 -25.6348 26.0254 -18.7012 C 26.0254 -12.0605 30.9082 -7.61719 38.2812 -7.61719 Z"/>
  </g>
  <g id="Bold-S" transform="matrix(1 0 0 1 2300.79 696)">
   <path d="M 6.83594 -23.3887 C 6.83594 -7.4707 18.9941 3.125 37.2559 3.125 C 57.8125 3.125 71.5332 -10.7422 71.5332 -31.5918 C 71.5332 -66.2109 41.9922 -80.5664 21.9238 -80.5664 C 17.9199 -80.5664 15.2832 -79.1504 15.2832 -76.3672 C 15.2832 -75.293 15.7715 -74.1699 16.6016 -73.1934 C 21.0938 -67.8223 25.6348 -61.5723 25.7324 -54.248 C 25.7324 -53.5645 25.7324 -52.9297 25.6348 -52.2461 C 23.5352 -56.25 19.9219 -59.1309 16.2598 -59.1309 C 14.4043 -59.1309 13.1348 -57.7637 13.1348 -55.7617 C 13.1348 -54.7852 13.4277 -52.4414 13.4277 -50.7812 C 13.4277 -42.7734 6.83594 -37.4023 6.83594 -23.3887 Z M 13.1836 -23.3887 C 13.1836 -35.2539 19.7266 -40.1855 20.0684 -51.1719 C 22.2168 -48.4375 23.7793 -45.0684 24.3164 -40.2832 C 24.4141 -39.5508 24.8535 -39.209 25.5371 -39.209 C 29.1992 -39.209 31.2988 -48.4375 31.2988 -54.248 C 31.2988 -61.7188 28.125 -69.5312 23.1934 -74.5605 C 49.3652 -72.4609 64.9414 -54.6387 64.9414 -31.8359 C 64.9414 -14.6484 54.0527 -3.17383 37.7441 -3.17383 C 22.998 -3.17383 13.1836 -11.2793 13.1836 -23.3887 Z M 38.2812 -7.61719 C 47.6562 -7.61719 52.2461 -14.502 52.2461 -22.3145 C 52.2461 -30.0293 47.8027 -38.6719 39.1113 -42.6758 C 38.7695 -42.8223 38.5254 -42.627 38.5742 -42.2363 C 39.0625 -35.6445 38.6719 -30.3711 36.6699 -26.8555 C 36.4746 -26.5137 36.1816 -26.5625 36.0352 -26.9531 C 35.1074 -29.248 33.9844 -31.2012 32.1777 -32.8125 C 31.8848 -33.0566 31.6406 -32.959 31.5918 -32.5684 C 30.957 -28.125 26.0254 -25.6348 26.0254 -18.7012 C 26.0254 -12.0605 30.9082 -7.61719 38.2812 -7.61719 Z"/>
  </g>
  <g id="Semibold-S" transform="matrix(1 0 0 1 2004.08 696)">
   <path d="M 6.83594 -23.3887 C 6.83594 -7.4707 18.9941 3.125 37.2559 3.125 C 57.8125 3.125 71.5332 -10.7422 71.5332 -31.5918 C 71.5332 -66.2109 41.9922 -80.5664 21.9238 -80.5664 C 17.9199 -80.5664 15.2832 -79.1504 15.2832 -76.3672 C 15.2832 -75.293 15.7715 -74.1699 16.6016 -73.1934 C 21.0938 -67.8223 25.6348 -61.5723 25.7324 -54.248 C 25.7324 -53.5645 25.7324 -52.9297 25.6348 -52.2461 C 23.5352 -56.25 19.9219 -59.1309 16.2598 -59.1309 C 14.4043 -59.1309 13.1348 -57.7637 13.1348 -55.7617 C 13.1348 -54.7852 13.4277 -52.4414 13.4277 -50.7812 C 13.4277 -42.7734 6.83594 -37.4023 6.83594 -23.3887 Z M 13.1836 -23.3887 C 13.1836 -35.2539 19.7266 -40.1855 20.0684 -51.1719 C 22.2168 -48.4375 23.7793 -45.0684 24.3164 -40.2832 C 24.4141 -39.5508 24.8535 -39.209 25.5371 -39.209 C 29.1992 -39.209 31.2988 -48.4375 31.2988 -54.248 C 31.2988 -61.7188 28.125 -69.5312 23.1934 -74.5605 C 49.3652 -72.4609 64.9414 -54.6387 64.9414 -31.8359 C 64.9414 -14.6484 54.0527 -3.17383 37.7441 -3.17383 C 22.998 -3.17383 13.1836 -11.2793 13.1836 -23.3887 Z M 38.2812 -7.61719 C 47.6562 -7.61719 52.2461 -14.502 52.2461 -22.3145 C 52.2461 -30.0293 47.8027 -38.6719 39.1113 -42.6758 C 38.7695 -42.8223 38.5254 -42.627 38.5742 -42.2363 C 39.0625 -35.6445 38.6719 -30.3711 36.6699 -26.8555 C 36.4746 -26.5137 36.1816 -26.5625 36.0352 -26.9531 C 35.1074 -29.248 33.9844 -31.2012 32.1777 -32.8125 C 31.8848 -33.0566 31.6406 -32.959 31.5918 -32.5684 C 30.957 -28.125 26.0254 -25.6348 26.0254 -18.7012 C 26.0254 -12.0605 30.9082 -7.61719 38.2812 -7.61719 Z"/>
  </g>
  <g id="Medium-S" transform="matrix(1 0 0 1 1707.37 696)">
   <path d="M 6.83594 -23.3887 C 6.83594 -7.4707 18.9941 3.125 37.2559 3.125 C 57.8125 3.125 71.5332 -10.7422 71.5332 -31.5918 C 71.5332 -66.2109 41.9922 -80.5664 21.9238 -80.5664 C 17.9199 -80.5664 15.2832 -79.1504 15.2832 -76.3672 C 15.2832 -75.293 15.7715 -74.1699 16.6016 -73.1934 C 21.0938 -67.8223 25.6348 -61.5723 25.7324 -54.248 C 25.7324 -53.5645 25.7324 -52.9297 25.6348 -52.2461 C 23.5352 -56.25 19.9219 -59.1309 16.2598 -59.1309 C 14.4043 -59.1309 13.1348 -57.7637 13.1348 -55.7617 C 13.1348 -54.7852 13.4277 -52.4414 13.4277 -50.7812 C 13.4277 -42.7734 6.83594 -37.4023 6.83594 -23.3887 Z M 13.1836 -23.3887 C 13.1836 -35.2539 19.7266 -40.1855 20.0684 -51.1719 C 22.2168 -48.4375 23.7793 -45.0684 24.3164 -40.2832 C 24.4141 -39.5508 24.8535 -39.209 25.5371 -39.209 C 29.1992 -39.209 31.2988 -48.4375 31.2988 -54.248 C 31.2988 -61.7188 28.125 -69.5312 23.1934 -74.5605 C 49.3652 -72.4609 64.9414 -54.6387 64.9414 -31.8359 C 64.9414 -14.6484 54.0527 -3.17383 37.7441 -3.17383 C 22.998 -3.17383 13.1836 -11.2793 13.1836 -23.3887 Z M 38.2812 -7.61719 C 47.6562 -7.61719 52.2461 -14.502 52.2461 -22.3145 C 52.2461 -30.0293 47.8027 -38.6719 39.1113 -42.6758 C 38.7695 -42.8223 38.5254 -42.627 38.5742 -42.2363 C 39.0625 -35.6445 38.6719 -30.3711 36.6699 -26.8555 C 36.4746 -26.5137 36.1816 -26.5625 36.0352 -26.9531 C 35.1074 -29.248 33.9844 -31.2012 32.1777 -32.8125 C 31.8848 -33.0566 31.6406 -32.959 31.5918 -32.5684 C 30.957 -28.125 26.0254 -25.6348 26.0254 -18.7012 C 26.0254 -12.0605 30.9082 -7.61719 38.2812 -7.61719 Z"/>
  </g>
  <g id="Regular-S" transform="matrix(1 0 0 1 1410.66 696)">
   <path d="M 6.83594 -23.3887 C 6.83594 -7.4707 18.9941 3.125 37.2559 3.125 C 57.8125 3.125 71.5332 -10.7422 71.5332 -31.5918 C 71.5332 -66.2109 41.9922 -80.5664 21.9238 -80.5664 C 17.9199 -80.5664 15.2832 -79.1504 15.2832 -76.3672 C 15.2832 -75.293 15.7715 -74.1699 16.6016 -73.1934 C 21.0938 -67.8223 25.6348 -61.5723 25.7324 -54.248 C 25.7324 -53.5645 25.7324 -52.9297 25.6348 -52.2461 C 23.5352 -56.25 19.9219 -59.1309 16.2598 -59.1309 C 14.4043 -59.1309 13.1348 -57.7637 13.1348 -55.7617 C 13.1348 -54.7852 13.4277 -52.4414 13.4277 -50.7812 C 13.4277 -42.7734 6.83594 -37.4023 6.83594 -23.3887 Z M 13.1836 -23.3887 C 13.1836 -35.2539 19.7266 -40.1855 20.0684 -51.1719 C 22.2168 -48.4375 23.7793 -45.0684 24.3164 -40.2832 C 24.4141 -39.5508 24.8535 -39.209 25.5371 -39.209 C 29.1992 -39.209 31.2988 -48.4375 31.2988 -54.248 C 31.2988 -61.7188 28.125 -69.5312 23.1934 -74.5605 C 49.3652 -72.4609 64.9414 -54.6387 64.9414 -31.8359 C 64.9414 -14.6484 54.0527 -3.17383 37.7441 -3.17383 C 22.998 -3.17383 13.1836 -11.2793 13.1836 -23.3887 Z M 38.2812 -7.61719 C 47.6562 -7.61719 52.2461 -14.502 52.2461 -22.3145 C 52.2461 -30.0293 47.8027 -38.6719 39.1113 -42.6758 C 38.7695 -42.8223 38.5254 -42.627 38.5742 -42.2363 C 39.0625 -35.6445 38.6719 -30.3711 36.6699 -26.8555 C 36.4746 -26.5137 36.1816 -26.5625 36.0352 -26.9531 C 35.1074 -29.248 33.9844 -31.2012 32.1777 -32.8125 C 31.8848 -33.0566 31.6406 -32.959 31.5918 -32.5684 C 30.957 -28.125 26.0254 -25.6348 26.0254 -18.7012 C 26.0254 -12.0605 30.9082 -7.61719 38.2812 -7.61719 Z"/>
  </g>
  <g id="Light-S" transform="matrix(1 0 0 1 1113.95 696)">
   <path d="M 6.83594 -23.3887 C 6.83594 -7.4707 18.9941 3.125 37.2559 3.125 C 57.8125 3.125 71.5332 -10.7422 71.5332 -31.5918 C 71.5332 -66.2109 41.9922 -80.5664 21.9238 -80.5664 C 17.9199 -80.5664 15.2832 -79.1504 15.2832 -76.3672 C 15.2832 -75.293 15.7715 -74.1699 16.6016 -73.1934 C 21.0938 -67.8223 25.6348 -61.5723 25.7324 -54.248 C 25.7324 -53.5645 25.7324 -52.9297 25.6348 -52.2461 C 23.5352 -56.25 19.9219 -59.1309 16.2598 -59.1309 C 14.4043 -59.1309 13.1348 -57.7637 13.1348 -55.7617 C 13.1348 -54.7852 13.4277 -52.4414 13.4277 -50.7812 C 13.4277 -42.7734 6.83594 -37.4023 6.83594 -23.3887 Z M 13.1836 -23.3887 C 13.1836 -35.2539 19.7266 -40.1855 20.0684 -51.1719 C 22.2168 -48.4375 23.7793 -45.0684 24.3164 -40.2832 C 24.4141 -39.5508 24.8535 -39.209 25.5371 -39.209 C 29.1992 -39.209 31.2988 -48.4375 31.2988 -54.248 C 31.2988 -61.7188 28.125 -69.5312 23.1934 -74.5605 C 49.3652 -72.4609 64.9414 -54.6387 64.9414 -31.8359 C 64.9414 -14.6484 54.0527 -3.17383 37.7441 -3.17383 C 22.998 -3.17383 13.1836 -11.2793 13.1836 -23.3887 Z M 38.2812 -7.61719 C 47.6562 -7.61719 52.2461 -14.502 52.2461 -22.3145 C 52.2461 -30.0293 47.8027 -38.6719 39.1113 -42.6758 C 38.7695 -42.8223 38.5254 -42.627 38.5742 -42.2363 C 39.0625 -35.6445 38.6719 -30.3711 36.6699 -26.8555 C 36.4746 -26.5137 36.1816 -26.5625 36.0352 -26.9531 C 35.1074 -29.248 33.9844 -31.2012 32.1777 -32.8125 C 31.8848 -33.0566 31.6406 -32.959 31.5918 -32.5684 C 30.957 -28.125 26.0254 -25.6348 26.0254 -18.7012 C 26.0254 -12.0605 30.9082 -7.61719 38.2812 -7.61719 Z"/>
  </g>
  <g id="Thin-S" transform="matrix(1 0 0 1 817.238 696)">
   <path d="M 6.83594 -23.3887 C 6.83594 -7.4707 18.9941 3.125 37.2559 3.125 C 57.8125 3.125 71.5332 -10.7422 71.5332 -31.5918 C 71.5332 -66.2109 41.9922 -80.5664 21.9238 -80.5664 C 17.9199 -80.5664 15.2832 -79.1504 15.2832 -76.3672 C 15.2832 -75.293 15.7715 -74.1699 16.6016 -73.1934 C 21.0938 -67.8223 25.6348 -61.5723 25.7324 -54.248 C 25.7324 -53.5645 25.7324 -52.9297 25.6348 -52.2461 C 23.5352 -56.25 19.9219 -59.1309 16.2598 -59.1309 C 14.4043 -59.1309 13.1348 -57.7637 13.1348 -55.7617 C 13.1348 -54.7852 13.4277 -52.4414 13.4277 -50.7812 C 13.4277 -42.7734 6.83594 -37.4023 6.83594 -23.3887 Z M 13.1836 -23.3887 C 13.1836 -35.2539 19.7266 -40.1855 20.0684 -51.1719 C 22.2168 -48.4375 23.7793 -45.0684 24.3164 -40.2832 C 24.4141 -39.5508 24.8535 -39.209 25.5371 -39.209 C 29.1992 -39.209 31.2988 -48.4375 31.2988 -54.248 C 31.2988 -61.7188 28.125 -69.5312 23.1934 -74.5605 C 49.3652 -72.4609 64.9414 -54.6387 64.9414 -31.8359 C 64.9414 -14.6484 54.0527 -3.17383 37.7441 -3.17383 C 22.998 -3.17383 13.1836 -11.2793 13.1836 -23.3887 Z M 38.2812 -7.61719 C 47.6562 -7.61719 52.2461 -14.502 52.2461 -22.3145 C 52.2461 -30.0293 47.8027 -38.6719 39.1113 -42.6758 C 38.7695 -42.8223 38.5254 -42.627 38.5742 -42.2363 C 39.0625 -35.6445 38.6719 -30.3711 36.6699 -26.8555 C 36.4746 -26.5137 36.1816 -26.5625 36.0352 -26.9531 C 35.1074 -29.248 33.9844 -31.2012 32.1777 -32.8125 C 31.8848 -33.0566 31.6406 -32.959 31.5918 -32.5684 C 30.957 -28.125 26.0254 -25.6348 26.0254 -18.7012 C 26.0254 -12.0605 30.9082 -7.61719 38.2812 -7.61719 Z"/>
  </g>
  <g id="Ultralight-S" transform="matrix(1 0 0 1 520.527 696)">
   <path d="M 6.83594 -23.3887 C 6.83594 -7.4707 18.9941 3.125 37.2559 3.125 C 57.8125 3.125 71.5332 -10.7422 71.5332 -31.5918 C 71.5332 -66.2109 41.9922 -80.5664 21.9238 -80.5664 C 17.9199 -80.5664 15.2832 -79.1504 15.2832 -76.3672 C 15.2832 -75.293 15.7715 -74.1699 16.6016 -73.1934 C 21.0938 -67.8223 25.6348 -61.5723 25.7324 -54.248 C 25.7324 -53.5645 25.7324 -52.9297 25.6348 -52.2461 C 23.5352 -56.25 19.9219 -59.1309 16.2598 -59.1309 C 14.4043 -59.1309 13.1348 -57.7637 13.1348 -55.7617 C 13.1348 -54.7852 13.4277 -52.4414 13.4277 -50.7812 C 13.4277 -42.7734 6.83594 -37.4023 6.83594 -23.3887 Z M 13.1836 -23.3887 C 13.1836 -35.2539 19.7266 -40.1855 20.0684 -51.1719 C 22.2168 -48.4375 23.7793 -45.0684 24.3164 -40.2832 C 24.4141 -39.5508 24.8535 -39.209 25.5371 -39.209 C 29.1992 -39.209 31.2988 -48.4375 31.2988 -54.248 C 31.2988 -61.7188 28.125 -69.5312 23.1934 -74.5605 C 49.3652 -72.4609 64.9414 -54.6387 64.9414 -31.8359 C 64.9414 -14.6484 54.0527 -3.17383 37.7441 -3.17383 C 22.998 -3.17383 13.1836 -11.2793 13.1836 -23.3887 Z M 38.2812 -7.61719 C 47.6562 -7.61719 52.2461 -14.502 52.2461 -22.3145 C 52.2461 -30.0293 47.8027 -38.6719 39.1113 -42.6758 C 38.7695 -42.8223 38.5254 -42.627 38.5742 -42.2363 C 39.0625 -35.6445 38.6719 -30.3711 36.6699 -26.8555 C 36.4746 -26.5137 36.1816 -26.5625 36.0352 -26.9531 C 35.1074 -29.248 33.9844 -31.2012 32.1777 -32.8125 C 31.8848 -33.0566 31.6406 -32.959 31.5918 -32.5684 C 30.957 -28.125 26.0254 -25.6348 26.0254 -18.7012 C 26.0254 -12.0605 30.9082 -7.61719 38.2812 -7.61719 Z"/>
  </g>
 </g>
</svg>
