<?xml version="1.0" encoding="UTF-8"?>
<!--Generator: Apple Native CoreSVG 123-->
<!DOCTYPE svg
PUBLIC "-//W3C//DTD SVG 1.1//EN"
       "http://www.w3.org/Graphics/SVG/1.1/DTD/svg11.dtd">
<svg version="1.1" xmlns="http://www.w3.org/2000/svg" xmlns:xlink="http://www.w3.org/1999/xlink" width="3300" height="2200">
 <!--glyph: "uni100129.medium", point size: 100.000000, font version: "Version 15.0d7e11", template writer version: "5"-->
 <g id="Notes">
  <rect height="2200" id="artboard" style="fill:white;opacity:1" width="3300" x="0" y="0"/>
  <line id="" style="fill:none;stroke:black;opacity:1;stroke-width:0.5;" x1="263" x2="3036" y1="292" y2="292"/>
  <text style="stroke:none;fill:black;font-family:-apple-system,&quot;SF Pro Display&quot;,&quot;SF Pro Text&quot;,Helvetica,sans-serif;font-weight:bold;" transform="matrix(1 0 0 1 263 322)">Weight/Scale Variations</text>
  <text style="stroke:none;fill:black;font-family:-apple-system,&quot;SF Pro Display&quot;,&quot;SF Pro Text&quot;,Helvetica,sans-serif;text-anchor:middle;" transform="matrix(1 0 0 1 559.711 322)">Ultralight</text>
  <text style="stroke:none;fill:black;font-family:-apple-system,&quot;SF Pro Display&quot;,&quot;SF Pro Text&quot;,Helvetica,sans-serif;text-anchor:middle;" transform="matrix(1 0 0 1 856.422 322)">Thin</text>
  <text style="stroke:none;fill:black;font-family:-apple-system,&quot;SF Pro Display&quot;,&quot;SF Pro Text&quot;,Helvetica,sans-serif;text-anchor:middle;" transform="matrix(1 0 0 1 1153.13 322)">Light</text>
  <text style="stroke:none;fill:black;font-family:-apple-system,&quot;SF Pro Display&quot;,&quot;SF Pro Text&quot;,Helvetica,sans-serif;text-anchor:middle;" transform="matrix(1 0 0 1 1449.84 322)">Regular</text>
  <text style="stroke:none;fill:black;font-family:-apple-system,&quot;SF Pro Display&quot;,&quot;SF Pro Text&quot;,Helvetica,sans-serif;text-anchor:middle;" transform="matrix(1 0 0 1 1746.56 322)">Medium</text>
  <text style="stroke:none;fill:black;font-family:-apple-system,&quot;SF Pro Display&quot;,&quot;SF Pro Text&quot;,Helvetica,sans-serif;text-anchor:middle;" transform="matrix(1 0 0 1 2043.27 322)">Semibold</text>
  <text style="stroke:none;fill:black;font-family:-apple-system,&quot;SF Pro Display&quot;,&quot;SF Pro Text&quot;,Helvetica,sans-serif;text-anchor:middle;" transform="matrix(1 0 0 1 2339.98 322)">Bold</text>
  <text style="stroke:none;fill:black;font-family:-apple-system,&quot;SF Pro Display&quot;,&quot;SF Pro Text&quot;,Helvetica,sans-serif;text-anchor:middle;" transform="matrix(1 0 0 1 2636.69 322)">Heavy</text>
  <text style="stroke:none;fill:black;font-family:-apple-system,&quot;SF Pro Display&quot;,&quot;SF Pro Text&quot;,Helvetica,sans-serif;text-anchor:middle;" transform="matrix(1 0 0 1 2933.4 322)">Black</text>
  <line id="" style="fill:none;stroke:black;opacity:1;stroke-width:0.5;" x1="263" x2="3036" y1="1903" y2="1903"/>
  <g id="" transform="matrix(1 0 0 1 263 1933)">
   <path d="M 9.24805 0.830078 C 13.5547 0.830078 17.1387 -2.74414 17.1387 -7.05078 C 17.1387 -11.3574 13.5449 -14.9316 9.23828 -14.9316 C 4.94141 -14.9316 1.36719 -11.3574 1.36719 -7.05078 C 1.36719 -2.74414 4.95117 0.830078 9.24805 0.830078 Z M 9.24805 -0.654297 C 5.70312 -0.654297 2.87109 -3.49609 2.87109 -7.05078 C 2.87109 -10.6055 5.69336 -13.4473 9.23828 -13.4473 C 12.793 -13.4473 15.6348 -10.6055 15.6445 -7.05078 C 15.6543 -3.49609 12.8027 -0.654297 9.24805 -0.654297 Z M 9.22852 -3.42773 C 9.69727 -3.42773 9.9707 -3.74023 9.9707 -4.25781 L 9.9707 -6.31836 L 12.1973 -6.31836 C 12.6953 -6.31836 13.0371 -6.57227 13.0371 -7.04102 C 13.0371 -7.51953 12.7148 -7.7832 12.1973 -7.7832 L 9.9707 -7.7832 L 9.9707 -10.0098 C 9.9707 -10.5273 9.69727 -10.8496 9.22852 -10.8496 C 8.75977 -10.8496 8.50586 -10.5078 8.50586 -10.0098 L 8.50586 -7.7832 L 6.29883 -7.7832 C 5.78125 -7.7832 5.44922 -7.51953 5.44922 -7.04102 C 5.44922 -6.57227 5.80078 -6.31836 6.29883 -6.31836 L 8.50586 -6.31836 L 8.50586 -4.25781 C 8.50586 -3.75977 8.75977 -3.42773 9.22852 -3.42773 Z"/>
  </g>
  <g id="" transform="matrix(1 0 0 1 281.506 1933)">
   <path d="M 11.709 2.91016 C 17.1582 2.91016 21.6699 -1.60156 21.6699 -7.05078 C 21.6699 -12.4902 17.1484 -17.0117 11.6992 -17.0117 C 6.25977 -17.0117 1.74805 -12.4902 1.74805 -7.05078 C 1.74805 -1.60156 6.26953 2.91016 11.709 2.91016 Z M 11.709 1.25 C 7.09961 1.25 3.41797 -2.44141 3.41797 -7.05078 C 3.41797 -11.6504 7.08984 -15.3516 11.6992 -15.3516 C 16.3086 -15.3516 20 -11.6504 20.0098 -7.05078 C 20.0195 -2.44141 16.3184 1.25 11.709 1.25 Z M 11.6895 -2.41211 C 12.207 -2.41211 12.5195 -2.77344 12.5195 -3.33984 L 12.5195 -6.23047 L 15.5762 -6.23047 C 16.123 -6.23047 16.5039 -6.51367 16.5039 -7.03125 C 16.5039 -7.55859 16.1426 -7.86133 15.5762 -7.86133 L 12.5195 -7.86133 L 12.5195 -10.9277 C 12.5195 -11.5039 12.207 -11.8555 11.6895 -11.8555 C 11.1719 -11.8555 10.8789 -11.4844 10.8789 -10.9277 L 10.8789 -7.86133 L 7.83203 -7.86133 C 7.26562 -7.86133 6.89453 -7.55859 6.89453 -7.03125 C 6.89453 -6.51367 7.28516 -6.23047 7.83203 -6.23047 L 10.8789 -6.23047 L 10.8789 -3.33984 C 10.8789 -2.79297 11.1719 -2.41211 11.6895 -2.41211 Z"/>
  </g>
  <g id="" transform="matrix(1 0 0 1 304.924 1933)">
   <path d="M 14.9707 5.67383 C 21.9336 5.67383 27.6953 -0.078125 27.6953 -7.04102 C 27.6953 -14.0039 21.9238 -19.7559 14.9609 -19.7559 C 8.00781 -19.7559 2.25586 -14.0039 2.25586 -7.04102 C 2.25586 -0.078125 8.01758 5.67383 14.9707 5.67383 Z M 14.9707 3.85742 C 8.93555 3.85742 4.08203 -1.00586 4.08203 -7.04102 C 4.08203 -13.0762 8.92578 -17.9395 14.9609 -17.9395 C 21.0059 -17.9395 25.8594 -13.0762 25.8691 -7.04102 C 25.8789 -1.00586 21.0156 3.85742 14.9707 3.85742 Z M 14.9512 -1.06445 C 15.5176 -1.06445 15.8691 -1.45508 15.8691 -2.06055 L 15.8691 -6.13281 L 20.1074 -6.13281 C 20.6934 -6.13281 21.1133 -6.46484 21.1133 -7.02148 C 21.1133 -7.59766 20.7227 -7.93945 20.1074 -7.93945 L 15.8691 -7.93945 L 15.8691 -12.1875 C 15.8691 -12.8027 15.5176 -13.1934 14.9512 -13.1934 C 14.3848 -13.1934 14.0625 -12.7832 14.0625 -12.1875 L 14.0625 -7.93945 L 9.83398 -7.93945 C 9.21875 -7.93945 8.80859 -7.59766 8.80859 -7.02148 C 8.80859 -6.46484 9.23828 -6.13281 9.83398 -6.13281 L 14.0625 -6.13281 L 14.0625 -2.06055 C 14.0625 -1.47461 14.3848 -1.06445 14.9512 -1.06445 Z"/>
  </g>
  <text style="stroke:none;fill:black;font-family:-apple-system,&quot;SF Pro Display&quot;,&quot;SF Pro Text&quot;,Helvetica,sans-serif;font-weight:bold;" transform="matrix(1 0 0 1 263 1953)">Design Variations</text>
  <text style="stroke:none;fill:black;font-family:-apple-system,&quot;SF Pro Display&quot;,&quot;SF Pro Text&quot;,Helvetica,sans-serif;" transform="matrix(1 0 0 1 263 1971)">Symbols are supported in up to nine weights and three scales.</text>
  <text style="stroke:none;fill:black;font-family:-apple-system,&quot;SF Pro Display&quot;,&quot;SF Pro Text&quot;,Helvetica,sans-serif;" transform="matrix(1 0 0 1 263 1989)">For optimal layout with text and other symbols, vertically align</text>
  <text style="stroke:none;fill:black;font-family:-apple-system,&quot;SF Pro Display&quot;,&quot;SF Pro Text&quot;,Helvetica,sans-serif;" transform="matrix(1 0 0 1 263 2007)">symbols with the adjacent text.</text>
  <rect height="14" id="" style="fill:#00AEEF;stroke:none;opacity:0.4;" width="3" x="776" y="1919"/>
  <g id="" transform="matrix(1 0 0 1 779 1933)">
   <path d="M 10.5273 0 L 12.373 0 L 7.17773 -14.0918 L 5.43945 -14.0918 L 0.244141 0 L 2.08984 0 L 3.50586 -4.0332 L 9.11133 -4.0332 Z M 6.2793 -11.9531 L 6.33789 -11.9531 L 8.59375 -5.52734 L 4.02344 -5.52734 Z"/>
  </g>
  <rect height="14" id="" style="fill:#00AEEF;stroke:none;opacity:0.4;" width="3" x="791.617" y="1919"/>
  <text style="stroke:none;fill:black;font-family:-apple-system,&quot;SF Pro Display&quot;,&quot;SF Pro Text&quot;,Helvetica,sans-serif;font-weight:bold;" transform="matrix(1 0 0 1 776 1953)">Margins</text>
  <text style="stroke:none;fill:black;font-family:-apple-system,&quot;SF Pro Display&quot;,&quot;SF Pro Text&quot;,Helvetica,sans-serif;" transform="matrix(1 0 0 1 776 1971)">Leading and trailing margins on the left and right side of each symbol</text>
  <text style="stroke:none;fill:black;font-family:-apple-system,&quot;SF Pro Display&quot;,&quot;SF Pro Text&quot;,Helvetica,sans-serif;" transform="matrix(1 0 0 1 776 1989)">can be adjusted by modifying the width of the blue rectangles.</text>
  <text style="stroke:none;fill:black;font-family:-apple-system,&quot;SF Pro Display&quot;,&quot;SF Pro Text&quot;,Helvetica,sans-serif;" transform="matrix(1 0 0 1 776 2007)">Modifications are automatically applied proportionally to all</text>
  <text style="stroke:none;fill:black;font-family:-apple-system,&quot;SF Pro Display&quot;,&quot;SF Pro Text&quot;,Helvetica,sans-serif;" transform="matrix(1 0 0 1 776 2025)">scales and weights.</text>
  <g id="" transform="matrix(1 0 0 1 1289 1933)">
   <path d="M 2.83203 3.11523 L 4.375 4.6582 C 5.22461 5.48828 6.19141 5.41992 7.06055 4.46289 L 17.2754 -6.66016 C 17.7051 -6.36719 18.0957 -6.37695 18.5645 -6.47461 L 19.6094 -6.68945 L 20.3027 -5.99609 L 20.2539 -5.47852 C 20.1855 -4.95117 20.3516 -4.53125 20.8496 -4.0332 L 21.6602 -3.22266 C 22.168 -2.71484 22.8223 -2.68555 23.3008 -3.16406 L 26.5527 -6.41602 C 27.0312 -6.89453 27.0117 -7.54883 26.5039 -8.05664 L 25.6836 -8.87695 C 25.1855 -9.375 24.7754 -9.55078 24.2383 -9.47266 L 23.7109 -9.41406 L 23.0566 -10.0781 L 23.3398 -11.2207 C 23.4863 -11.7871 23.3398 -12.2559 22.7148 -12.8613 L 20.3027 -15.2539 C 16.7578 -18.7793 12.2266 -18.6719 9.11133 -15.5371 C 8.69141 -15.1074 8.64258 -14.5215 8.91602 -14.0918 C 9.15039 -13.7207 9.62891 -13.4961 10.2734 -13.6621 C 11.7871 -14.043 13.3008 -13.9258 14.7852 -12.9199 L 14.1602 -11.3379 C 13.9258 -10.752 13.9453 -10.2734 14.1797 -9.83398 L 3.01758 0.439453 C 2.08008 1.30859 1.97266 2.25586 2.83203 3.11523 Z M 10.6738 -15.1465 C 13.3398 -17.1387 16.6504 -16.8262 19.0527 -14.4141 L 21.6797 -11.8066 C 21.9141 -11.5723 21.9434 -11.3867 21.8848 -11.0938 L 21.5039 -9.53125 L 23.0762 -7.95898 L 24.043 -8.04688 C 24.3262 -8.07617 24.4141 -8.05664 24.6387 -7.83203 L 25.2637 -7.20703 L 22.5098 -4.46289 L 21.8848 -5.07812 C 21.6602 -5.30273 21.6406 -5.40039 21.6699 -5.68359 L 21.7578 -6.64062 L 20.1953 -8.20312 L 18.5742 -7.89062 C 18.291 -7.83203 18.1445 -7.83203 17.9102 -8.07617 L 15.7324 -10.2539 C 15.5078 -10.4883 15.4785 -10.625 15.6055 -10.9473 L 16.5527 -13.2227 C 14.9512 -14.7559 12.8418 -15.6055 10.8008 -14.9512 C 10.7129 -14.9219 10.6445 -14.9414 10.6152 -14.9805 C 10.5859 -15.0293 10.5859 -15.0781 10.6738 -15.1465 Z M 4.10156 2.41211 C 3.61328 1.91406 3.78906 1.61133 4.12109 1.30859 L 15.0781 -8.80859 L 16.3086 -7.57812 L 6.15234 3.34961 C 5.84961 3.68164 5.46875 3.7793 5.06836 3.37891 Z"/>
  </g>
  <text style="stroke:none;fill:black;font-family:-apple-system,&quot;SF Pro Display&quot;,&quot;SF Pro Text&quot;,Helvetica,sans-serif;font-weight:bold;" transform="matrix(1 0 0 1 1289 1953)">Exporting</text>
  <text style="stroke:none;fill:black;font-family:-apple-system,&quot;SF Pro Display&quot;,&quot;SF Pro Text&quot;,Helvetica,sans-serif;" transform="matrix(1 0 0 1 1289 1971)">Symbols should be outlined when exporting to ensure the</text>
  <text style="stroke:none;fill:black;font-family:-apple-system,&quot;SF Pro Display&quot;,&quot;SF Pro Text&quot;,Helvetica,sans-serif;" transform="matrix(1 0 0 1 1289 1989)">design is preserved when submitting to Xcode.</text>
  <text id="template-version" style="stroke:none;fill:black;font-family:-apple-system,&quot;SF Pro Display&quot;,&quot;SF Pro Text&quot;,Helvetica,sans-serif;text-anchor:end;" transform="matrix(1 0 0 1 3036 1933)">Template v.1.0</text>
  <text style="stroke:none;fill:black;font-family:-apple-system,&quot;SF Pro Display&quot;,&quot;SF Pro Text&quot;,Helvetica,sans-serif;text-anchor:end;" transform="matrix(1 0 0 1 3036 1951)">Generated from arrow.down</text>
  <text style="stroke:none;fill:black;font-family:-apple-system,&quot;SF Pro Display&quot;,&quot;SF Pro Text&quot;,Helvetica,sans-serif;text-anchor:end;" transform="matrix(1 0 0 1 3036 1969)">Typeset at 100 points</text>
  <text style="stroke:none;fill:black;font-family:-apple-system,&quot;SF Pro Display&quot;,&quot;SF Pro Text&quot;,Helvetica,sans-serif;" transform="matrix(1 0 0 1 263 726)">Small</text>
  <text style="stroke:none;fill:black;font-family:-apple-system,&quot;SF Pro Display&quot;,&quot;SF Pro Text&quot;,Helvetica,sans-serif;" transform="matrix(1 0 0 1 263 1156)">Medium</text>
  <text style="stroke:none;fill:black;font-family:-apple-system,&quot;SF Pro Display&quot;,&quot;SF Pro Text&quot;,Helvetica,sans-serif;" transform="matrix(1 0 0 1 263 1586)">Large</text>
 </g>
 <g id="Guides">
  <g id="H-reference" style="fill:#27AAE1;stroke:none;" transform="matrix(1 0 0 1 339 696)">
   <path d="M 54.9316 0 L 57.666 0 L 30.5664 -70.459 L 28.0762 -70.459 L 0.976562 0 L 3.66211 0 L 12.9395 -24.4629 L 45.7031 -24.4629 Z M 29.1992 -67.0898 L 29.4434 -67.0898 L 44.8242 -26.709 L 13.8184 -26.709 Z"/>
  </g>
  <line id="Baseline-S" style="fill:none;stroke:#27AAE1;opacity:1;stroke-width:0.577;" x1="263" x2="3036" y1="696" y2="696"/>
  <line id="Capline-S" style="fill:none;stroke:#27AAE1;opacity:1;stroke-width:0.577;" x1="263" x2="3036" y1="625.541" y2="625.541"/>
  <g id="H-reference" style="fill:#27AAE1;stroke:none;" transform="matrix(1 0 0 1 339 1126)">
   <path d="M 54.9316 0 L 57.666 0 L 30.5664 -70.459 L 28.0762 -70.459 L 0.976562 0 L 3.66211 0 L 12.9395 -24.4629 L 45.7031 -24.4629 Z M 29.1992 -67.0898 L 29.4434 -67.0898 L 44.8242 -26.709 L 13.8184 -26.709 Z"/>
  </g>
  <line id="Baseline-M" style="fill:none;stroke:#27AAE1;opacity:1;stroke-width:0.577;" x1="263" x2="3036" y1="1126" y2="1126"/>
  <line id="Capline-M" style="fill:none;stroke:#27AAE1;opacity:1;stroke-width:0.577;" x1="263" x2="3036" y1="1055.54" y2="1055.54"/>
  <g id="H-reference" style="fill:#27AAE1;stroke:none;" transform="matrix(1 0 0 1 339 1556)">
   <path d="M 54.9316 0 L 57.666 0 L 30.5664 -70.459 L 28.0762 -70.459 L 0.976562 0 L 3.66211 0 L 12.9395 -24.4629 L 45.7031 -24.4629 Z M 29.1992 -67.0898 L 29.4434 -67.0898 L 44.8242 -26.709 L 13.8184 -26.709 Z"/>
  </g>
  <line id="Baseline-L" style="fill:none;stroke:#27AAE1;opacity:1;stroke-width:0.577;" x1="263" x2="3036" y1="1556" y2="1556"/>
  <line id="Capline-L" style="fill:none;stroke:#27AAE1;opacity:1;stroke-width:0.577;" x1="263" x2="3036" y1="1485.54" y2="1485.54"/>
  <rect height="119.336" id="left-margin" style="fill:#00AEEF;stroke:none;opacity:0.4;" width="12.4512" x="1400.38" y="1030.79"/>
  <rect height="119.336" id="right-margin" style="fill:#00AEEF;stroke:none;opacity:0.4;" width="12.4512" x="1486.86" y="1030.79"/>
 </g>
 <g id="Symbols">
  <g id="Black-L" transform="matrix(1 0 0 1 2864.99 1556)">
   <path d="M 68.4082 -96.0938 C 61.5234 -96.0938 56.9824 -91.3574 56.9824 -84.1309 L 56.9824 -22.6562 L 57.5684 -9.08203 L 48.2422 -20.2637 L 35.0098 -33.5938 C 32.959 -35.7422 30.3711 -37.3047 26.8555 -37.3047 C 20.7031 -37.3047 16.0645 -32.8125 16.0645 -26.3184 C 16.0645 -23.3398 17.2852 -20.5078 19.6289 -18.1641 L 60.0098 22.3145 C 62.0117 24.3652 65.332 25.6348 68.4082 25.6348 C 71.4844 25.6348 74.7559 24.3652 76.8066 22.3145 L 117.236 -18.1641 C 119.531 -20.5078 120.752 -23.3398 120.752 -26.3184 C 120.752 -32.8125 116.113 -37.3047 110.01 -37.3047 C 106.494 -37.3047 103.906 -35.7422 101.807 -33.5938 L 88.5254 -20.2637 L 79.1992 -9.08203 L 79.834 -22.6562 L 79.834 -84.1309 C 79.834 -91.3574 75.2441 -96.0938 68.4082 -96.0938 Z"/>
  </g>
  <g id="Heavy-L" transform="matrix(1 0 0 1 2569.48 1556)">
   <path d="M 67.1875 -95.7031 C 61.2793 -95.7031 57.3242 -91.6016 57.3242 -85.4492 L 57.3242 -18.2129 L 57.9102 -4.54102 L 46.6309 -17.7246 L 32.4219 -31.9336 C 30.6641 -33.7891 28.3691 -35.1074 25.3906 -35.1074 C 20.0684 -35.1074 16.0645 -31.2012 16.0645 -25.6348 C 16.0645 -23.0469 17.0898 -20.6055 19.1406 -18.5547 L 59.9609 22.3633 C 61.7188 24.1699 64.5508 25.2441 67.1875 25.2441 C 69.873 25.2441 72.6562 24.1699 74.4629 22.3633 L 115.332 -18.5547 C 117.334 -20.6055 118.359 -23.0469 118.359 -25.6348 C 118.359 -31.2012 114.355 -35.1074 109.033 -35.1074 C 106.055 -35.1074 103.809 -33.7891 102.002 -31.9336 L 87.7441 -17.7246 L 76.4648 -4.54102 L 77.0508 -18.2129 L 77.0508 -85.4492 C 77.0508 -91.6016 73.0957 -95.7031 67.1875 -95.7031 Z"/>
  </g>
  <g id="Bold-L" transform="matrix(1 0 0 1 2274.11 1556)">
   <path d="M 65.8691 -95.2637 C 61.0352 -95.2637 57.7637 -91.8945 57.7637 -86.9141 L 57.7637 -13.2812 L 58.3008 0.439453 L 44.8242 -14.8926 L 29.541 -30.127 C 28.0762 -31.6406 26.123 -32.6172 23.7305 -32.6172 C 19.3848 -32.6172 16.0645 -29.3945 16.0645 -24.8047 C 16.0645 -22.7051 16.8945 -20.7031 18.5547 -18.9941 L 59.9121 22.3633 C 61.4258 23.9258 63.6719 24.8047 65.8691 24.8047 C 68.0664 24.8047 70.3125 23.9258 71.8262 22.3633 L 113.184 -18.9941 C 114.844 -20.7031 115.674 -22.7051 115.674 -24.8047 C 115.674 -29.3945 112.354 -32.6172 108.008 -32.6172 C 105.615 -32.6172 103.662 -31.6406 102.197 -30.127 L 86.9141 -14.8926 L 73.3887 0.439453 L 73.9258 -13.2812 L 73.9258 -86.9141 C 73.9258 -91.8945 70.6543 -95.2637 65.8691 -95.2637 Z"/>
  </g>
  <g id="Semibold-L" transform="matrix(1 0 0 1 1978.33 1556)">
   <path d="M 64.9414 -94.9707 C 60.8887 -94.9707 58.0566 -92.1387 58.0566 -87.9395 L 58.0566 -9.86328 L 58.5938 3.80859 L 43.5547 -12.9883 L 27.5391 -28.8574 C 26.3184 -30.127 24.6094 -30.957 22.6074 -30.957 C 18.8965 -30.957 16.0645 -28.125 16.0645 -24.2676 C 16.0645 -22.4609 16.748 -20.8008 18.2129 -19.3359 L 59.8633 22.3633 C 61.1816 23.7305 63.0371 24.5117 64.9414 24.5117 C 66.7969 24.5117 68.7012 23.7305 70.0195 22.3633 L 111.719 -19.3359 C 113.135 -20.8008 113.818 -22.4609 113.818 -24.2676 C 113.818 -28.125 111.035 -30.957 107.275 -30.957 C 105.273 -30.957 103.613 -30.127 102.344 -28.8574 L 86.3281 -12.9883 L 71.2891 3.80859 L 71.8262 -9.86328 L 71.8262 -87.9395 C 71.8262 -92.1387 68.9941 -94.9707 64.9414 -94.9707 Z"/>
  </g>
  <g id="Medium-L" transform="matrix(1 0 0 1 1682.3 1556)">
   <path d="M 64.2578 -94.7266 C 60.7422 -94.7266 58.3008 -92.2852 58.3008 -88.7207 L 58.3008 -7.27539 L 58.7891 6.34766 L 42.627 -11.4746 L 26.0254 -27.9297 C 24.9512 -29.0039 23.4375 -29.6387 21.7773 -29.6387 C 18.5059 -29.6387 16.0645 -27.1973 16.0645 -23.877 C 16.0645 -22.2656 16.6504 -20.8496 17.9199 -19.5312 L 59.8145 22.3633 C 61.0352 23.584 62.5977 24.2676 64.2578 24.2676 C 65.8691 24.2676 67.4805 23.584 68.6523 22.3633 L 110.596 -19.5312 C 111.816 -20.8496 112.451 -22.2656 112.451 -23.877 C 112.451 -27.1973 109.961 -29.6387 106.738 -29.6387 C 105.029 -29.6387 103.516 -29.0039 102.49 -27.9297 L 85.8887 -11.4746 L 69.7266 6.29883 L 70.166 -7.27539 L 70.166 -88.7207 C 70.166 -92.2852 67.7246 -94.7266 64.2578 -94.7266 Z"/>
  </g>
  <g id="Regular-L" transform="matrix(1 0 0 1 1386.51 1556)">
   <path d="M 63.3301 -94.4336 C 60.5469 -94.4336 58.5938 -92.4805 58.5938 -89.7461 L 58.5938 -3.85742 L 59.0332 9.61914 L 41.3574 -9.57031 L 24.0234 -26.709 C 23.1934 -27.5391 21.9238 -27.9785 20.6543 -27.9785 C 18.0176 -27.9785 16.0645 -25.9766 16.0645 -23.291 C 16.0645 -22.0215 16.5039 -20.9473 17.5293 -19.873 L 59.7656 22.3633 C 60.791 23.4375 62.0117 23.9746 63.3301 23.9746 C 64.6484 23.9746 65.8691 23.4375 66.8945 22.3633 L 109.131 -19.873 C 110.156 -20.9473 110.596 -22.0215 110.596 -23.291 C 110.596 -25.9766 108.643 -27.9785 106.006 -27.9785 C 104.736 -27.9785 103.467 -27.5391 102.637 -26.709 L 85.3027 -9.57031 L 67.627 9.57031 L 68.0664 -3.85742 L 68.0664 -89.7461 C 68.0664 -92.4805 66.1133 -94.4336 63.3301 -94.4336 Z"/>
  </g>
  <g id="Light-L" transform="matrix(1 0 0 1 1090.49 1556)">
   <path d="M 62.6465 -93.9941 C 60.5957 -93.9941 59.1309 -92.4805 59.1309 -90.4785 L 59.1309 -0.683594 L 59.4238 12.793 L 43.457 -4.24805 L 22.0703 -25.4883 C 21.4844 -26.123 20.5078 -26.4648 19.5312 -26.4648 C 17.5781 -26.4648 16.0645 -24.9512 16.0645 -22.9492 C 16.0645 -21.9727 16.4062 -21.1426 17.1875 -20.3613 L 60.0098 22.3633 C 60.7422 23.1445 61.6211 23.5352 62.6465 23.5352 C 63.6719 23.5352 64.5508 23.1445 65.2832 22.3633 L 108.105 -20.3613 C 108.887 -21.1426 109.229 -21.9727 109.229 -22.9492 C 109.229 -24.9512 107.715 -26.4648 105.762 -26.4648 C 104.785 -26.4648 103.809 -26.123 103.223 -25.4883 L 81.8359 -4.24805 L 65.8691 12.7441 L 66.1621 -0.683594 L 66.1621 -90.4785 C 66.1621 -92.4805 64.6973 -93.9941 62.6465 -93.9941 Z"/>
  </g>
  <g id="Thin-L" transform="matrix(1 0 0 1 794.679 1556)">
   <path d="M 61.7188 -93.4082 C 60.5957 -93.4082 59.8145 -92.5293 59.8145 -91.4551 L 59.8145 3.51562 L 60.0098 16.8945 L 46.1914 2.7832 L 19.4824 -23.9258 C 19.1895 -24.2676 18.6035 -24.4629 18.0176 -24.4629 C 16.9434 -24.4629 16.0645 -23.6328 16.0645 -22.4609 C 16.0645 -21.875 16.2598 -21.4355 16.6992 -21.0449 L 60.3027 22.3145 C 60.6934 22.7539 61.1328 22.9492 61.7188 22.9492 C 62.3535 22.9492 62.793 22.7539 63.1836 22.3145 L 106.787 -21.0449 C 107.227 -21.4355 107.422 -21.875 107.422 -22.4609 C 107.422 -23.6328 106.543 -24.4629 105.469 -24.4629 C 104.883 -24.4629 104.297 -24.2676 104.004 -23.9258 L 77.2461 2.7832 L 63.4766 16.8945 L 63.6719 3.51562 L 63.6719 -91.4551 C 63.6719 -92.5293 62.8906 -93.4082 61.7188 -93.4082 Z"/>
  </g>
  <g id="Ultralight-L" transform="matrix(1 0 0 1 498.432 1556)">
   <path d="M 61.2793 -93.1152 C 60.6445 -93.1152 60.1562 -92.5293 60.1562 -91.9434 L 60.1562 5.66406 L 60.2539 18.9453 L 47.6074 6.34766 L 18.1641 -23.1445 C 17.9688 -23.291 17.627 -23.4375 17.2363 -23.4375 C 16.6504 -23.4375 16.0645 -22.9492 16.0645 -22.2168 C 16.0645 -21.8262 16.2109 -21.582 16.4062 -21.3379 L 60.4492 22.3145 C 60.6934 22.5586 60.8887 22.6562 61.2793 22.6562 C 61.6699 22.6562 61.8652 22.5586 62.1094 22.3145 L 106.152 -21.3379 C 106.348 -21.582 106.494 -21.8262 106.494 -22.2168 C 106.494 -22.9492 105.908 -23.4375 105.322 -23.4375 C 104.932 -23.4375 104.59 -23.291 104.395 -23.1445 L 74.9512 6.34766 L 62.3047 18.9453 L 62.4023 5.66406 L 62.4023 -91.9434 C 62.4023 -92.5293 61.9141 -93.1152 61.2793 -93.1152 Z"/>
  </g>
  <g id="Black-M" transform="matrix(1 0 0 1 2879.13 1126)">
   <path d="M 54.248 -82.7148 C 47.998 -82.7148 43.8965 -78.3691 43.8965 -71.7285 L 43.8965 -29.7363 L 44.3848 -19.5312 L 40.7227 -24.2188 L 29.5898 -35.498 C 27.7344 -37.4512 25.4395 -39.0137 22.168 -39.0137 C 16.6992 -39.0137 12.4512 -35.0098 12.4512 -29.1016 C 12.4512 -26.3672 13.5742 -23.7793 15.6738 -21.7285 L 46.6797 9.375 C 48.4375 11.1328 51.4648 12.2559 54.248 12.2559 C 57.0312 12.2559 60.0586 11.1328 61.8164 9.375 L 92.8711 -21.7285 C 94.9707 -23.7793 96.0938 -26.3672 96.0938 -29.1016 C 96.0938 -35.0098 91.8945 -39.0137 86.377 -39.0137 C 83.1055 -39.0137 80.8594 -37.4512 78.9551 -35.498 L 67.7734 -24.2188 L 64.1113 -19.5312 L 64.5996 -29.7363 L 64.5996 -71.7285 C 64.5996 -78.3691 60.498 -82.7148 54.248 -82.7148 Z"/>
  </g>
  <g id="Heavy-M" transform="matrix(1 0 0 1 2583.54 1126)">
   <path d="M 53.125 -82.373 C 47.7539 -82.373 44.1895 -78.6621 44.1895 -72.998 L 44.1895 -25.7324 L 44.6777 -15.2344 L 38.3789 -22.8516 L 27.2949 -34.0332 C 25.6348 -35.7422 23.6328 -36.9629 20.8496 -36.9629 C 16.1133 -36.9629 12.4512 -33.4961 12.4512 -28.418 C 12.4512 -26.0742 13.4277 -23.8281 15.2344 -22.0215 L 46.582 9.375 C 48.1445 10.9375 50.7324 11.9141 53.125 11.9141 C 55.5176 11.9141 58.1055 10.9375 59.668 9.375 L 91.0645 -22.0215 C 92.8711 -23.8281 93.8477 -26.0742 93.8477 -28.418 C 93.8477 -33.4961 90.1855 -36.9629 85.4492 -36.9629 C 82.666 -36.9629 80.6641 -35.7422 79.0039 -34.0332 L 67.8711 -22.8516 L 61.5723 -15.2344 L 62.0605 -25.7324 L 62.0605 -72.998 C 62.0605 -78.6621 58.4961 -82.373 53.125 -82.373 Z"/>
  </g>
  <g id="Bold-M" transform="matrix(1 0 0 1 2288.1 1126)">
   <path d="M 51.8555 -82.0312 C 47.4609 -82.0312 44.5312 -78.9551 44.5312 -74.4141 L 44.5312 -21.2402 L 44.9707 -10.6445 L 35.791 -21.2891 L 24.6582 -32.4219 C 23.3398 -33.7402 21.6309 -34.7168 19.4336 -34.7168 C 15.4785 -34.7168 12.4512 -31.8359 12.4512 -27.6367 C 12.4512 -25.7324 13.2324 -23.9258 14.7461 -22.3633 L 46.4355 9.375 C 47.8027 10.7422 49.8535 11.5723 51.8555 11.5723 C 53.8574 11.5723 55.9082 10.7422 57.2754 9.375 L 89.0137 -22.3633 C 90.5273 -23.9258 91.3086 -25.7324 91.3086 -27.6367 C 91.3086 -31.8359 88.2812 -34.7168 84.3262 -34.7168 C 82.1289 -34.7168 80.4199 -33.7402 79.0527 -32.4219 L 67.9199 -21.2891 L 58.7402 -10.6445 L 59.2285 -21.2402 L 59.2285 -74.4141 C 59.2285 -78.9551 56.25 -82.0312 51.8555 -82.0312 Z"/>
  </g>
  <g id="Semibold-M" transform="matrix(1 0 0 1 1992.27 1126)">
   <path d="M 50.9766 -81.7871 C 47.2656 -81.7871 44.7266 -79.1992 44.7266 -75.3418 L 44.7266 -18.1641 L 45.166 -7.56836 L 33.9844 -20.2148 L 22.9004 -31.25 C 21.7285 -32.4219 20.2637 -33.2031 18.4082 -33.2031 C 14.9902 -33.2031 12.4512 -30.6641 12.4512 -27.0996 C 12.4512 -25.4883 13.0859 -23.9258 14.4043 -22.6074 L 46.3379 9.375 C 47.5586 10.6445 49.2676 11.3281 50.9766 11.3281 C 52.6855 11.3281 54.4434 10.6445 55.6152 9.375 L 87.5977 -22.6074 C 88.916 -23.9258 89.5508 -25.4883 89.5508 -27.0996 C 89.5508 -30.6641 87.0117 -33.2031 83.5938 -33.2031 C 81.7383 -33.2031 80.2246 -32.4219 79.1016 -31.25 L 67.9688 -20.2148 L 56.8359 -7.56836 L 57.2266 -18.1641 L 57.2266 -75.3418 C 57.2266 -79.1992 54.6875 -81.7871 50.9766 -81.7871 Z"/>
  </g>
  <g id="Medium-M" transform="matrix(1 0 0 1 1696.21 1126)">
   <path d="M 50.3418 -81.5918 C 47.1191 -81.5918 44.873 -79.3457 44.873 -76.123 L 44.873 -15.8203 L 45.3125 -5.22461 L 32.6172 -19.3848 L 21.5332 -30.4199 C 20.5566 -31.3965 19.1895 -32.0312 17.627 -32.0312 C 14.6484 -32.0312 12.4512 -29.7852 12.4512 -26.709 C 12.4512 -25.293 12.9883 -23.9746 14.1602 -22.8027 L 46.2891 9.42383 C 47.3633 10.5469 48.8281 11.1328 50.3418 11.1328 C 51.8066 11.1328 53.2715 10.5469 54.3457 9.42383 L 86.5234 -22.8027 C 87.6953 -23.9746 88.2324 -25.293 88.2324 -26.709 C 88.2324 -29.7852 85.9863 -32.0312 83.0078 -32.0312 C 81.4941 -32.0312 80.127 -31.3965 79.1504 -30.4199 L 68.0176 -19.3848 L 55.3711 -5.27344 L 55.7617 -15.8203 L 55.7617 -76.123 C 55.7617 -79.3457 53.5156 -81.5918 50.3418 -81.5918 Z"/>
  </g>
  <g id="Regular-M" transform="matrix(1 0 0 1 1400.38 1126)">
   <path d="M 49.4629 -81.3477 C 46.9238 -81.3477 45.1172 -79.5898 45.1172 -77.0508 L 45.1172 -12.7441 L 45.5078 -2.29492 L 30.8594 -18.3594 L 19.7266 -29.2969 C 18.9941 -30.0781 17.8223 -30.4688 16.6504 -30.4688 C 14.209 -30.4688 12.4512 -28.6133 12.4512 -26.2207 C 12.4512 -25.0488 12.8906 -24.0234 13.8184 -23.0469 L 46.1914 9.42383 C 47.1191 10.4004 48.2422 10.8887 49.4629 10.8887 C 50.6836 10.8887 51.8066 10.4004 52.7344 9.42383 L 85.1562 -23.0469 C 86.084 -24.0234 86.4746 -25.0488 86.4746 -26.2207 C 86.4746 -28.6133 84.7168 -30.4688 82.2754 -30.4688 C 81.1035 -30.4688 79.9805 -30.0781 79.1992 -29.2969 L 68.0664 -18.3594 L 53.4668 -2.34375 L 53.8086 -12.7441 L 53.8086 -77.0508 C 53.8086 -79.5898 52.002 -81.3477 49.4629 -81.3477 Z"/>
  </g>
  <g id="Light-M" transform="matrix(1 0 0 1 1104.28 1126)">
   <path d="M 48.877 -80.957 C 46.9238 -80.957 45.5566 -79.5898 45.5566 -77.7344 L 45.5566 -9.91211 L 45.8984 0.585938 L 32.7637 -13.5742 L 17.9688 -28.2227 C 17.4316 -28.8086 16.5039 -29.1016 15.625 -29.1016 C 13.8184 -29.1016 12.4512 -27.7344 12.4512 -25.8789 C 12.4512 -25 12.793 -24.2188 13.4766 -23.4863 L 46.3867 9.375 C 47.1191 10.1074 47.9492 10.498 48.877 10.498 C 49.7559 10.498 50.5859 10.1074 51.3184 9.375 L 84.2285 -23.4863 C 84.9609 -24.2188 85.2539 -25 85.2539 -25.8789 C 85.2539 -27.7344 83.8867 -29.1016 82.0801 -29.1016 C 81.2012 -29.1016 80.3223 -28.8086 79.7363 -28.2227 L 64.9902 -13.5742 L 51.8555 0.537109 L 52.1484 -9.91211 L 52.1484 -77.7344 C 52.1484 -79.5898 50.7812 -80.957 48.877 -80.957 Z"/>
  </g>
  <g id="Thin-M" transform="matrix(1 0 0 1 808.375 1126)">
   <path d="M 48.0469 -80.4199 C 46.9727 -80.4199 46.1914 -79.6387 46.1914 -78.6133 L 46.1914 -6.10352 L 46.3867 4.29688 L 35.2051 -7.32422 L 15.6738 -26.8066 C 15.332 -27.1484 14.7949 -27.2949 14.2578 -27.2949 C 13.2812 -27.2949 12.4512 -26.5137 12.4512 -25.4395 C 12.4512 -24.9023 12.6465 -24.4629 13.0371 -24.0723 L 46.6797 9.375 C 47.0703 9.76562 47.5098 9.96094 48.0469 9.96094 C 48.584 9.96094 49.0234 9.76562 49.4141 9.375 L 83.0566 -24.0723 C 83.4473 -24.4629 83.6426 -24.9023 83.6426 -25.4395 C 83.6426 -26.5137 82.8125 -27.2949 81.8359 -27.2949 C 81.2988 -27.2949 80.7617 -27.1484 80.4199 -26.8066 L 60.8887 -7.32422 L 49.707 4.29688 L 49.9023 -6.10352 L 49.9023 -78.6133 C 49.9023 -79.6387 49.1211 -80.4199 48.0469 -80.4199 Z"/>
  </g>
  <g id="Ultralight-M" transform="matrix(1 0 0 1 512.079 1126)">
   <path d="M 47.6074 -80.1758 C 46.9727 -80.1758 46.4844 -79.6387 46.4844 -79.0527 L 46.4844 -4.19922 L 46.6309 6.15234 L 36.4746 -4.10156 L 14.4531 -26.123 C 14.3066 -26.2695 13.916 -26.416 13.5742 -26.416 C 12.9883 -26.416 12.4512 -25.9277 12.4512 -25.1953 C 12.4512 -24.8535 12.5488 -24.6094 12.793 -24.3652 L 46.8262 9.375 C 47.0215 9.61914 47.2656 9.7168 47.6074 9.7168 C 47.998 9.7168 48.2422 9.61914 48.4375 9.375 L 82.4707 -24.3652 C 82.7148 -24.6094 82.8125 -24.8535 82.8125 -25.1953 C 82.8125 -25.9277 82.2754 -26.416 81.6895 -26.416 C 81.2988 -26.416 80.957 -26.2695 80.8105 -26.123 L 58.7891 -4.10156 L 48.6328 6.15234 L 48.7793 -4.19922 L 48.7793 -79.0527 C 48.7793 -79.6387 48.291 -80.1758 47.6074 -80.1758 Z"/>
  </g>
  <g id="Black-S" transform="matrix(1 0 0 1 2890.94 696)">
   <path d="M 42.4316 -72.4121 C 37.5977 -72.4121 34.4238 -69.043 34.4238 -63.916 L 34.4238 -30.6641 L 34.8145 -22.6074 L 31.6895 -26.5625 L 23.0469 -35.3516 C 21.582 -36.8652 19.8242 -38.0371 17.2852 -38.0371 C 13.0371 -38.0371 9.76562 -34.9609 9.76562 -30.3711 C 9.76562 -28.2715 10.6445 -26.2695 12.2559 -24.6582 L 36.5723 -0.292969 C 37.9395 1.07422 40.2832 1.95312 42.4316 1.95312 C 44.5801 1.95312 46.9238 1.07422 48.291 -0.292969 L 72.6562 -24.6582 C 74.2676 -26.2695 75.1465 -28.2715 75.1465 -30.3711 C 75.1465 -34.9609 71.875 -38.0371 67.627 -38.0371 C 65.0879 -38.0371 63.3301 -36.8652 61.8652 -35.3516 L 53.1738 -26.5625 L 50.0488 -22.6074 L 50.4395 -30.6641 L 50.4395 -63.916 C 50.4395 -69.043 47.2656 -72.4121 42.4316 -72.4121 Z"/>
  </g>
  <g id="Heavy-S" transform="matrix(1 0 0 1 2595.04 696)">
   <path d="M 41.6504 -72.2168 C 37.4023 -72.2168 34.5703 -69.2383 34.5703 -64.7949 L 34.5703 -27.9297 L 34.9609 -19.6777 L 29.6875 -26.0254 L 21.4844 -34.3262 C 20.166 -35.6445 18.6035 -36.6699 16.4062 -36.6699 C 12.6465 -36.6699 9.76562 -33.8867 9.76562 -29.8828 C 9.76562 -28.0273 10.5469 -26.2695 11.9629 -24.8535 L 36.4746 -0.292969 C 37.6953 0.976562 39.7461 1.75781 41.6504 1.75781 C 43.5547 1.75781 45.5566 0.976562 46.8262 -0.292969 L 71.3379 -24.8535 C 72.8027 -26.2695 73.5352 -28.0273 73.5352 -29.8828 C 73.5352 -33.8867 70.6543 -36.6699 66.8945 -36.6699 C 64.6973 -36.6699 63.1348 -35.6445 61.8652 -34.3262 L 53.5645 -26.0254 L 48.291 -19.6777 L 48.6816 -27.9297 L 48.6816 -64.7949 C 48.6816 -69.2383 45.8496 -72.2168 41.6504 -72.2168 Z"/>
  </g>
  <g id="Bold-S" transform="matrix(1 0 0 1 2299.21 696)">
   <path d="M 40.7715 -71.9727 C 37.207 -71.9727 34.7656 -69.5312 34.7656 -65.8203 L 34.7656 -24.8047 L 35.1562 -16.5527 L 27.4902 -25.4395 L 19.6777 -33.2031 C 18.6035 -34.3262 17.1875 -35.1074 15.4297 -35.1074 C 12.207 -35.1074 9.76562 -32.7148 9.76562 -29.3457 C 9.76562 -27.7832 10.4004 -26.3184 11.6211 -25.0488 L 36.3281 -0.292969 C 37.4512 0.878906 39.1113 1.51367 40.7715 1.51367 C 42.3828 1.51367 44.043 0.878906 45.166 -0.292969 L 69.9219 -25.0488 C 71.1426 -26.3184 71.7773 -27.7832 71.7773 -29.3457 C 71.7773 -32.7148 69.3359 -35.1074 66.1133 -35.1074 C 64.3066 -35.1074 62.9395 -34.3262 61.8164 -33.2031 L 54.0039 -25.4395 L 46.3379 -16.5527 L 46.7285 -24.8047 L 46.7285 -65.8203 C 46.7285 -69.5312 44.3359 -71.9727 40.7715 -71.9727 Z"/>
  </g>
  <g id="Semibold-S" transform="matrix(1 0 0 1 2003.13 696)">
   <path d="M 40.1367 -71.8262 C 37.0117 -71.8262 34.9121 -69.6777 34.9121 -66.5039 L 34.9121 -22.7051 L 35.2539 -14.4043 L 25.9766 -25.0488 L 18.457 -32.4219 C 17.5293 -33.3984 16.2598 -34.0332 14.7461 -34.0332 C 11.9141 -34.0332 9.76562 -31.8848 9.76562 -28.9551 C 9.76562 -27.5879 10.3027 -26.3184 11.377 -25.1953 L 36.2793 -0.244141 C 37.2559 0.78125 38.7207 1.36719 40.1367 1.36719 C 41.5527 1.36719 43.0176 0.78125 43.9941 -0.244141 L 68.8965 -25.1953 C 69.9707 -26.3184 70.5078 -27.5879 70.5078 -28.9551 C 70.5078 -31.8848 68.4082 -34.0332 65.5273 -34.0332 C 64.0137 -34.0332 62.7441 -33.3984 61.8164 -32.4219 L 54.2969 -25.0488 L 45.0195 -14.4531 L 45.3613 -22.7051 L 45.3613 -66.5039 C 45.3613 -69.6777 43.2617 -71.8262 40.1367 -71.8262 Z"/>
  </g>
  <g id="Medium-S" transform="matrix(1 0 0 1 1706.88 696)">
   <path d="M 39.6484 -71.7285 C 36.9141 -71.7285 35.0098 -69.8242 35.0098 -66.9922 L 35.0098 -21.0938 L 35.3516 -12.8418 L 24.8047 -24.707 L 17.5293 -31.8359 C 16.6992 -32.7148 15.5273 -33.2031 14.209 -33.2031 C 11.6699 -33.2031 9.76562 -31.2988 9.76562 -28.7109 C 9.76562 -27.4414 10.2539 -26.3184 11.2305 -25.293 L 36.1816 -0.244141 C 37.1582 0.732422 38.3789 1.26953 39.6484 1.26953 C 40.9668 1.26953 42.1875 0.732422 43.1641 -0.244141 L 68.1152 -25.293 C 69.1406 -26.3184 69.5801 -27.4414 69.5801 -28.7109 C 69.5801 -31.2988 67.6758 -33.2031 65.1367 -33.2031 C 63.8184 -33.2031 62.6465 -32.7148 61.8164 -31.8359 L 54.541 -24.707 L 43.9941 -12.8906 L 44.3359 -21.0938 L 44.3359 -66.9922 C 44.3359 -69.8242 42.4316 -71.7285 39.6484 -71.7285 Z"/>
  </g>
  <g id="Regular-S" transform="matrix(1 0 0 1 1410.78 696)">
   <path d="M 39.0625 -71.582 C 36.7676 -71.582 35.1074 -69.9707 35.1074 -67.6758 L 35.1074 -18.9941 L 35.4492 -10.8398 L 23.291 -24.3164 L 16.3086 -31.1035 C 15.625 -31.7871 14.5996 -32.1777 13.5742 -32.1777 C 11.377 -32.1777 9.76562 -30.4688 9.76562 -28.3203 C 9.76562 -27.2949 10.1562 -26.3672 10.9863 -25.4395 L 36.1328 -0.244141 C 36.9629 0.634766 37.9883 1.12305 39.0625 1.12305 C 40.1367 1.12305 41.1621 0.634766 41.9922 -0.244141 L 67.1387 -25.4395 C 67.9688 -26.3672 68.3594 -27.2949 68.3594 -28.3203 C 68.3594 -30.4688 66.748 -32.1777 64.5508 -32.1777 C 63.5254 -32.1777 62.5 -31.7871 61.8164 -31.1035 L 54.834 -24.3164 L 42.6758 -10.8398 L 43.0176 -18.9941 L 43.0176 -67.6758 C 43.0176 -69.9707 41.3574 -71.582 39.0625 -71.582 Z"/>
  </g>
  <g id="Light-S" transform="matrix(1 0 0 1 1114.61 696)">
   <path d="M 38.5254 -71.2402 C 36.7676 -71.2402 35.5469 -69.9707 35.5469 -68.2617 L 35.5469 -16.4551 L 35.791 -8.25195 L 24.9512 -20.1172 L 14.7949 -30.127 C 14.2578 -30.6641 13.4277 -30.957 12.6465 -30.957 C 10.9863 -30.957 9.76562 -29.6875 9.76562 -28.0273 C 9.76562 -27.2461 10.0586 -26.5137 10.6934 -25.8789 L 36.2793 -0.244141 C 36.9141 0.390625 37.6953 0.78125 38.5254 0.78125 C 39.3555 0.78125 40.1367 0.390625 40.7715 -0.244141 L 66.3574 -25.8789 C 66.9922 -26.5137 67.2852 -27.2461 67.2852 -28.0273 C 67.2852 -29.6875 66.0645 -30.957 64.4043 -30.957 C 63.5742 -30.957 62.793 -30.6641 62.2559 -30.127 L 52.0996 -20.1172 L 41.2598 -8.30078 L 41.5039 -16.4551 L 41.5039 -68.2617 C 41.5039 -69.9707 40.2832 -71.2402 38.5254 -71.2402 Z"/>
  </g>
  <g id="Thin-S" transform="matrix(1 0 0 1 818.605 696)">
   <path d="M 37.793 -70.752 C 36.8164 -70.752 36.084 -70.0195 36.084 -69.043 L 36.084 -13.1348 L 36.2305 -4.98047 L 27.1484 -14.5508 L 12.7441 -28.9062 C 12.4512 -29.1992 11.9629 -29.3945 11.4746 -29.3945 C 10.498 -29.3945 9.76562 -28.6621 9.76562 -27.6367 C 9.76562 -27.1484 9.96094 -26.7578 10.3027 -26.3672 L 36.5234 -0.292969 C 36.9141 0.0976562 37.3047 0.292969 37.793 0.292969 C 38.3301 0.292969 38.7207 0.0976562 39.1113 -0.292969 L 65.332 -26.3672 C 65.6738 -26.7578 65.8691 -27.1484 65.8691 -27.6367 C 65.8691 -28.6621 65.0879 -29.3945 64.1602 -29.3945 C 63.6719 -29.3945 63.1836 -29.1992 62.8906 -28.9062 L 48.4863 -14.5508 L 39.3555 -4.98047 L 39.5508 -13.1348 L 39.5508 -69.043 C 39.5508 -70.0195 38.8184 -70.752 37.793 -70.752 Z"/>
  </g>
  <g id="Ultralight-S" transform="matrix(1 0 0 1 522.284 696)">
   <path d="M 37.4512 -70.5078 C 36.8164 -70.5078 36.377 -70.0195 36.377 -69.4336 L 36.377 -11.4258 L 36.4746 -3.32031 L 28.2715 -11.6699 L 11.6699 -28.2715 C 11.4746 -28.4668 11.1816 -28.5645 10.8398 -28.5645 C 10.2539 -28.5645 9.76562 -28.125 9.76562 -27.4414 C 9.76562 -27.0996 9.86328 -26.8555 10.1074 -26.6602 L 36.6211 -0.292969 C 36.8652 -0.0488281 37.1094 0.0488281 37.4512 0.0488281 C 37.793 0.0488281 37.9883 -0.0488281 38.2324 -0.292969 L 64.7949 -26.6602 C 64.9902 -26.8555 65.0879 -27.0996 65.0879 -27.4414 C 65.0879 -28.125 64.5996 -28.5645 64.0625 -28.5645 C 63.7207 -28.5645 63.3789 -28.4668 63.2324 -28.2715 L 46.6309 -11.6699 L 38.4277 -3.32031 L 38.5254 -11.4258 L 38.5254 -69.4336 C 38.5254 -70.0195 38.0859 -70.5078 37.4512 -70.5078 Z"/>
  </g>
 </g>
</svg>
