<?xml version="1.0" encoding="UTF-8"?>
<!--Generator: Apple Native CoreSVG 123-->
<!DOCTYPE svg
PUBLIC "-//W3C//DTD SVG 1.1//EN"
       "http://www.w3.org/Graphics/SVG/1.1/DTD/svg11.dtd">
<svg version="1.1" xmlns="http://www.w3.org/2000/svg" xmlns:xlink="http://www.w3.org/1999/xlink" width="3300" height="2200">
 <!--glyph: "uni100185.medium", point size: 100.000000, font version: "Version 15.0d7e11", template writer version: "5"-->
 <g id="Notes">
  <rect height="2200" id="artboard" style="fill:white;opacity:1" width="3300" x="0" y="0"/>
  <line id="" style="fill:none;stroke:black;opacity:1;stroke-width:0.5;" x1="263" x2="3036" y1="292" y2="292"/>
  <text style="stroke:none;fill:black;font-family:-apple-system,&quot;SF Pro Display&quot;,&quot;SF Pro Text&quot;,Helvetica,sans-serif;font-weight:bold;" transform="matrix(1 0 0 1 263 322)">Weight/Scale Variations</text>
  <text style="stroke:none;fill:black;font-family:-apple-system,&quot;SF Pro Display&quot;,&quot;SF Pro Text&quot;,Helvetica,sans-serif;text-anchor:middle;" transform="matrix(1 0 0 1 559.711 322)">Ultralight</text>
  <text style="stroke:none;fill:black;font-family:-apple-system,&quot;SF Pro Display&quot;,&quot;SF Pro Text&quot;,Helvetica,sans-serif;text-anchor:middle;" transform="matrix(1 0 0 1 856.422 322)">Thin</text>
  <text style="stroke:none;fill:black;font-family:-apple-system,&quot;SF Pro Display&quot;,&quot;SF Pro Text&quot;,Helvetica,sans-serif;text-anchor:middle;" transform="matrix(1 0 0 1 1153.13 322)">Light</text>
  <text style="stroke:none;fill:black;font-family:-apple-system,&quot;SF Pro Display&quot;,&quot;SF Pro Text&quot;,Helvetica,sans-serif;text-anchor:middle;" transform="matrix(1 0 0 1 1449.84 322)">Regular</text>
  <text style="stroke:none;fill:black;font-family:-apple-system,&quot;SF Pro Display&quot;,&quot;SF Pro Text&quot;,Helvetica,sans-serif;text-anchor:middle;" transform="matrix(1 0 0 1 1746.56 322)">Medium</text>
  <text style="stroke:none;fill:black;font-family:-apple-system,&quot;SF Pro Display&quot;,&quot;SF Pro Text&quot;,Helvetica,sans-serif;text-anchor:middle;" transform="matrix(1 0 0 1 2043.27 322)">Semibold</text>
  <text style="stroke:none;fill:black;font-family:-apple-system,&quot;SF Pro Display&quot;,&quot;SF Pro Text&quot;,Helvetica,sans-serif;text-anchor:middle;" transform="matrix(1 0 0 1 2339.98 322)">Bold</text>
  <text style="stroke:none;fill:black;font-family:-apple-system,&quot;SF Pro Display&quot;,&quot;SF Pro Text&quot;,Helvetica,sans-serif;text-anchor:middle;" transform="matrix(1 0 0 1 2636.69 322)">Heavy</text>
  <text style="stroke:none;fill:black;font-family:-apple-system,&quot;SF Pro Display&quot;,&quot;SF Pro Text&quot;,Helvetica,sans-serif;text-anchor:middle;" transform="matrix(1 0 0 1 2933.4 322)">Black</text>
  <line id="" style="fill:none;stroke:black;opacity:1;stroke-width:0.5;" x1="263" x2="3036" y1="1903" y2="1903"/>
  <g id="" transform="matrix(1 0 0 1 263 1933)">
   <path d="M 9.24805 0.830078 C 13.5547 0.830078 17.1387 -2.74414 17.1387 -7.05078 C 17.1387 -11.3574 13.5449 -14.9316 9.23828 -14.9316 C 4.94141 -14.9316 1.36719 -11.3574 1.36719 -7.05078 C 1.36719 -2.74414 4.95117 0.830078 9.24805 0.830078 Z M 9.24805 -0.654297 C 5.70312 -0.654297 2.87109 -3.49609 2.87109 -7.05078 C 2.87109 -10.6055 5.69336 -13.4473 9.23828 -13.4473 C 12.793 -13.4473 15.6348 -10.6055 15.6445 -7.05078 C 15.6543 -3.49609 12.8027 -0.654297 9.24805 -0.654297 Z M 9.22852 -3.42773 C 9.69727 -3.42773 9.9707 -3.74023 9.9707 -4.25781 L 9.9707 -6.31836 L 12.1973 -6.31836 C 12.6953 -6.31836 13.0371 -6.57227 13.0371 -7.04102 C 13.0371 -7.51953 12.7148 -7.7832 12.1973 -7.7832 L 9.9707 -7.7832 L 9.9707 -10.0098 C 9.9707 -10.5273 9.69727 -10.8496 9.22852 -10.8496 C 8.75977 -10.8496 8.50586 -10.5078 8.50586 -10.0098 L 8.50586 -7.7832 L 6.29883 -7.7832 C 5.78125 -7.7832 5.44922 -7.51953 5.44922 -7.04102 C 5.44922 -6.57227 5.80078 -6.31836 6.29883 -6.31836 L 8.50586 -6.31836 L 8.50586 -4.25781 C 8.50586 -3.75977 8.75977 -3.42773 9.22852 -3.42773 Z"/>
  </g>
  <g id="" transform="matrix(1 0 0 1 281.506 1933)">
   <path d="M 11.709 2.91016 C 17.1582 2.91016 21.6699 -1.60156 21.6699 -7.05078 C 21.6699 -12.4902 17.1484 -17.0117 11.6992 -17.0117 C 6.25977 -17.0117 1.74805 -12.4902 1.74805 -7.05078 C 1.74805 -1.60156 6.26953 2.91016 11.709 2.91016 Z M 11.709 1.25 C 7.09961 1.25 3.41797 -2.44141 3.41797 -7.05078 C 3.41797 -11.6504 7.08984 -15.3516 11.6992 -15.3516 C 16.3086 -15.3516 20 -11.6504 20.0098 -7.05078 C 20.0195 -2.44141 16.3184 1.25 11.709 1.25 Z M 11.6895 -2.41211 C 12.207 -2.41211 12.5195 -2.77344 12.5195 -3.33984 L 12.5195 -6.23047 L 15.5762 -6.23047 C 16.123 -6.23047 16.5039 -6.51367 16.5039 -7.03125 C 16.5039 -7.55859 16.1426 -7.86133 15.5762 -7.86133 L 12.5195 -7.86133 L 12.5195 -10.9277 C 12.5195 -11.5039 12.207 -11.8555 11.6895 -11.8555 C 11.1719 -11.8555 10.8789 -11.4844 10.8789 -10.9277 L 10.8789 -7.86133 L 7.83203 -7.86133 C 7.26562 -7.86133 6.89453 -7.55859 6.89453 -7.03125 C 6.89453 -6.51367 7.28516 -6.23047 7.83203 -6.23047 L 10.8789 -6.23047 L 10.8789 -3.33984 C 10.8789 -2.79297 11.1719 -2.41211 11.6895 -2.41211 Z"/>
  </g>
  <g id="" transform="matrix(1 0 0 1 304.924 1933)">
   <path d="M 14.9707 5.67383 C 21.9336 5.67383 27.6953 -0.078125 27.6953 -7.04102 C 27.6953 -14.0039 21.9238 -19.7559 14.9609 -19.7559 C 8.00781 -19.7559 2.25586 -14.0039 2.25586 -7.04102 C 2.25586 -0.078125 8.01758 5.67383 14.9707 5.67383 Z M 14.9707 3.85742 C 8.93555 3.85742 4.08203 -1.00586 4.08203 -7.04102 C 4.08203 -13.0762 8.92578 -17.9395 14.9609 -17.9395 C 21.0059 -17.9395 25.8594 -13.0762 25.8691 -7.04102 C 25.8789 -1.00586 21.0156 3.85742 14.9707 3.85742 Z M 14.9512 -1.06445 C 15.5176 -1.06445 15.8691 -1.45508 15.8691 -2.06055 L 15.8691 -6.13281 L 20.1074 -6.13281 C 20.6934 -6.13281 21.1133 -6.46484 21.1133 -7.02148 C 21.1133 -7.59766 20.7227 -7.93945 20.1074 -7.93945 L 15.8691 -7.93945 L 15.8691 -12.1875 C 15.8691 -12.8027 15.5176 -13.1934 14.9512 -13.1934 C 14.3848 -13.1934 14.0625 -12.7832 14.0625 -12.1875 L 14.0625 -7.93945 L 9.83398 -7.93945 C 9.21875 -7.93945 8.80859 -7.59766 8.80859 -7.02148 C 8.80859 -6.46484 9.23828 -6.13281 9.83398 -6.13281 L 14.0625 -6.13281 L 14.0625 -2.06055 C 14.0625 -1.47461 14.3848 -1.06445 14.9512 -1.06445 Z"/>
  </g>
  <text style="stroke:none;fill:black;font-family:-apple-system,&quot;SF Pro Display&quot;,&quot;SF Pro Text&quot;,Helvetica,sans-serif;font-weight:bold;" transform="matrix(1 0 0 1 263 1953)">Design Variations</text>
  <text style="stroke:none;fill:black;font-family:-apple-system,&quot;SF Pro Display&quot;,&quot;SF Pro Text&quot;,Helvetica,sans-serif;" transform="matrix(1 0 0 1 263 1971)">Symbols are supported in up to nine weights and three scales.</text>
  <text style="stroke:none;fill:black;font-family:-apple-system,&quot;SF Pro Display&quot;,&quot;SF Pro Text&quot;,Helvetica,sans-serif;" transform="matrix(1 0 0 1 263 1989)">For optimal layout with text and other symbols, vertically align</text>
  <text style="stroke:none;fill:black;font-family:-apple-system,&quot;SF Pro Display&quot;,&quot;SF Pro Text&quot;,Helvetica,sans-serif;" transform="matrix(1 0 0 1 263 2007)">symbols with the adjacent text.</text>
  <rect height="14" id="" style="fill:#00AEEF;stroke:none;opacity:0.4;" width="3" x="776" y="1919"/>
  <g id="" transform="matrix(1 0 0 1 779 1933)">
   <path d="M 10.5273 0 L 12.373 0 L 7.17773 -14.0918 L 5.43945 -14.0918 L 0.244141 0 L 2.08984 0 L 3.50586 -4.0332 L 9.11133 -4.0332 Z M 6.2793 -11.9531 L 6.33789 -11.9531 L 8.59375 -5.52734 L 4.02344 -5.52734 Z"/>
  </g>
  <rect height="14" id="" style="fill:#00AEEF;stroke:none;opacity:0.4;" width="3" x="791.617" y="1919"/>
  <text style="stroke:none;fill:black;font-family:-apple-system,&quot;SF Pro Display&quot;,&quot;SF Pro Text&quot;,Helvetica,sans-serif;font-weight:bold;" transform="matrix(1 0 0 1 776 1953)">Margins</text>
  <text style="stroke:none;fill:black;font-family:-apple-system,&quot;SF Pro Display&quot;,&quot;SF Pro Text&quot;,Helvetica,sans-serif;" transform="matrix(1 0 0 1 776 1971)">Leading and trailing margins on the left and right side of each symbol</text>
  <text style="stroke:none;fill:black;font-family:-apple-system,&quot;SF Pro Display&quot;,&quot;SF Pro Text&quot;,Helvetica,sans-serif;" transform="matrix(1 0 0 1 776 1989)">can be adjusted by modifying the width of the blue rectangles.</text>
  <text style="stroke:none;fill:black;font-family:-apple-system,&quot;SF Pro Display&quot;,&quot;SF Pro Text&quot;,Helvetica,sans-serif;" transform="matrix(1 0 0 1 776 2007)">Modifications are automatically applied proportionally to all</text>
  <text style="stroke:none;fill:black;font-family:-apple-system,&quot;SF Pro Display&quot;,&quot;SF Pro Text&quot;,Helvetica,sans-serif;" transform="matrix(1 0 0 1 776 2025)">scales and weights.</text>
  <g id="" transform="matrix(1 0 0 1 1289 1933)">
   <path d="M 2.83203 3.11523 L 4.375 4.6582 C 5.22461 5.48828 6.19141 5.41992 7.06055 4.46289 L 17.2754 -6.66016 C 17.7051 -6.36719 18.0957 -6.37695 18.5645 -6.47461 L 19.6094 -6.68945 L 20.3027 -5.99609 L 20.2539 -5.47852 C 20.1855 -4.95117 20.3516 -4.53125 20.8496 -4.0332 L 21.6602 -3.22266 C 22.168 -2.71484 22.8223 -2.68555 23.3008 -3.16406 L 26.5527 -6.41602 C 27.0312 -6.89453 27.0117 -7.54883 26.5039 -8.05664 L 25.6836 -8.87695 C 25.1855 -9.375 24.7754 -9.55078 24.2383 -9.47266 L 23.7109 -9.41406 L 23.0566 -10.0781 L 23.3398 -11.2207 C 23.4863 -11.7871 23.3398 -12.2559 22.7148 -12.8613 L 20.3027 -15.2539 C 16.7578 -18.7793 12.2266 -18.6719 9.11133 -15.5371 C 8.69141 -15.1074 8.64258 -14.5215 8.91602 -14.0918 C 9.15039 -13.7207 9.62891 -13.4961 10.2734 -13.6621 C 11.7871 -14.043 13.3008 -13.9258 14.7852 -12.9199 L 14.1602 -11.3379 C 13.9258 -10.752 13.9453 -10.2734 14.1797 -9.83398 L 3.01758 0.439453 C 2.08008 1.30859 1.97266 2.25586 2.83203 3.11523 Z M 10.6738 -15.1465 C 13.3398 -17.1387 16.6504 -16.8262 19.0527 -14.4141 L 21.6797 -11.8066 C 21.9141 -11.5723 21.9434 -11.3867 21.8848 -11.0938 L 21.5039 -9.53125 L 23.0762 -7.95898 L 24.043 -8.04688 C 24.3262 -8.07617 24.4141 -8.05664 24.6387 -7.83203 L 25.2637 -7.20703 L 22.5098 -4.46289 L 21.8848 -5.07812 C 21.6602 -5.30273 21.6406 -5.40039 21.6699 -5.68359 L 21.7578 -6.64062 L 20.1953 -8.20312 L 18.5742 -7.89062 C 18.291 -7.83203 18.1445 -7.83203 17.9102 -8.07617 L 15.7324 -10.2539 C 15.5078 -10.4883 15.4785 -10.625 15.6055 -10.9473 L 16.5527 -13.2227 C 14.9512 -14.7559 12.8418 -15.6055 10.8008 -14.9512 C 10.7129 -14.9219 10.6445 -14.9414 10.6152 -14.9805 C 10.5859 -15.0293 10.5859 -15.0781 10.6738 -15.1465 Z M 4.10156 2.41211 C 3.61328 1.91406 3.78906 1.61133 4.12109 1.30859 L 15.0781 -8.80859 L 16.3086 -7.57812 L 6.15234 3.34961 C 5.84961 3.68164 5.46875 3.7793 5.06836 3.37891 Z"/>
  </g>
  <text style="stroke:none;fill:black;font-family:-apple-system,&quot;SF Pro Display&quot;,&quot;SF Pro Text&quot;,Helvetica,sans-serif;font-weight:bold;" transform="matrix(1 0 0 1 1289 1953)">Exporting</text>
  <text style="stroke:none;fill:black;font-family:-apple-system,&quot;SF Pro Display&quot;,&quot;SF Pro Text&quot;,Helvetica,sans-serif;" transform="matrix(1 0 0 1 1289 1971)">Symbols should be outlined when exporting to ensure the</text>
  <text style="stroke:none;fill:black;font-family:-apple-system,&quot;SF Pro Display&quot;,&quot;SF Pro Text&quot;,Helvetica,sans-serif;" transform="matrix(1 0 0 1 1289 1989)">design is preserved when submitting to Xcode.</text>
  <text id="template-version" style="stroke:none;fill:black;font-family:-apple-system,&quot;SF Pro Display&quot;,&quot;SF Pro Text&quot;,Helvetica,sans-serif;text-anchor:end;" transform="matrix(1 0 0 1 3036 1933)">Template v.1.0</text>
  <text style="stroke:none;fill:black;font-family:-apple-system,&quot;SF Pro Display&quot;,&quot;SF Pro Text&quot;,Helvetica,sans-serif;text-anchor:end;" transform="matrix(1 0 0 1 3036 1951)">Generated from checkmark</text>
  <text style="stroke:none;fill:black;font-family:-apple-system,&quot;SF Pro Display&quot;,&quot;SF Pro Text&quot;,Helvetica,sans-serif;text-anchor:end;" transform="matrix(1 0 0 1 3036 1969)">Typeset at 100 points</text>
  <text style="stroke:none;fill:black;font-family:-apple-system,&quot;SF Pro Display&quot;,&quot;SF Pro Text&quot;,Helvetica,sans-serif;" transform="matrix(1 0 0 1 263 726)">Small</text>
  <text style="stroke:none;fill:black;font-family:-apple-system,&quot;SF Pro Display&quot;,&quot;SF Pro Text&quot;,Helvetica,sans-serif;" transform="matrix(1 0 0 1 263 1156)">Medium</text>
  <text style="stroke:none;fill:black;font-family:-apple-system,&quot;SF Pro Display&quot;,&quot;SF Pro Text&quot;,Helvetica,sans-serif;" transform="matrix(1 0 0 1 263 1586)">Large</text>
 </g>
 <g id="Guides">
  <g id="H-reference" style="fill:#27AAE1;stroke:none;" transform="matrix(1 0 0 1 339 696)">
   <path d="M 54.9316 0 L 57.666 0 L 30.5664 -70.459 L 28.0762 -70.459 L 0.976562 0 L 3.66211 0 L 12.9395 -24.4629 L 45.7031 -24.4629 Z M 29.1992 -67.0898 L 29.4434 -67.0898 L 44.8242 -26.709 L 13.8184 -26.709 Z"/>
  </g>
  <line id="Baseline-S" style="fill:none;stroke:#27AAE1;opacity:1;stroke-width:0.577;" x1="263" x2="3036" y1="696" y2="696"/>
  <line id="Capline-S" style="fill:none;stroke:#27AAE1;opacity:1;stroke-width:0.577;" x1="263" x2="3036" y1="625.541" y2="625.541"/>
  <g id="H-reference" style="fill:#27AAE1;stroke:none;" transform="matrix(1 0 0 1 339 1126)">
   <path d="M 54.9316 0 L 57.666 0 L 30.5664 -70.459 L 28.0762 -70.459 L 0.976562 0 L 3.66211 0 L 12.9395 -24.4629 L 45.7031 -24.4629 Z M 29.1992 -67.0898 L 29.4434 -67.0898 L 44.8242 -26.709 L 13.8184 -26.709 Z"/>
  </g>
  <line id="Baseline-M" style="fill:none;stroke:#27AAE1;opacity:1;stroke-width:0.577;" x1="263" x2="3036" y1="1126" y2="1126"/>
  <line id="Capline-M" style="fill:none;stroke:#27AAE1;opacity:1;stroke-width:0.577;" x1="263" x2="3036" y1="1055.54" y2="1055.54"/>
  <g id="H-reference" style="fill:#27AAE1;stroke:none;" transform="matrix(1 0 0 1 339 1556)">
   <path d="M 54.9316 0 L 57.666 0 L 30.5664 -70.459 L 28.0762 -70.459 L 0.976562 0 L 3.66211 0 L 12.9395 -24.4629 L 45.7031 -24.4629 Z M 29.1992 -67.0898 L 29.4434 -67.0898 L 44.8242 -26.709 L 13.8184 -26.709 Z"/>
  </g>
  <line id="Baseline-L" style="fill:none;stroke:#27AAE1;opacity:1;stroke-width:0.577;" x1="263" x2="3036" y1="1556" y2="1556"/>
  <line id="Capline-L" style="fill:none;stroke:#27AAE1;opacity:1;stroke-width:0.577;" x1="263" x2="3036" y1="1485.54" y2="1485.54"/>
  <rect height="119.336" id="left-margin" style="fill:#00AEEF;stroke:none;opacity:0.4;" width="12.4512" x="1395.33" y="1030.79"/>
  <rect height="119.336" id="right-margin" style="fill:#00AEEF;stroke:none;opacity:0.4;" width="12.4512" x="1491.91" y="1030.79"/>
 </g>
 <g id="Symbols">
  <g id="Black-L" transform="matrix(1 0 0 1 2856.67 1556)">
   <path d="M 64.3066 23.0469 C 69.6289 23.0469 73.7793 21.0938 76.6602 16.8945 L 134.57 -70.3613 C 136.572 -73.3398 137.402 -76.3184 137.402 -79.0039 C 137.402 -86.4746 131.641 -91.9922 123.975 -91.9922 C 118.75 -91.9922 115.43 -90.1367 112.256 -85.1562 L 64.0625 -9.375 L 39.7949 -38.5254 C 37.0117 -41.8457 33.7891 -43.3105 29.4434 -43.3105 C 21.7285 -43.3105 16.0645 -37.7441 16.0645 -30.2246 C 16.0645 -26.8555 17.041 -24.0234 19.9219 -20.7031 L 52.4414 17.6758 C 55.6641 21.3867 59.4238 23.0469 64.3066 23.0469 Z"/>
  </g>
  <g id="Heavy-L" transform="matrix(1 0 0 1 2561.69 1556)">
   <path d="M 62.2559 22.168 C 66.8457 22.168 70.459 20.459 72.9004 16.7969 L 131.445 -72.2168 C 133.203 -74.8535 133.936 -77.4414 133.936 -79.7852 C 133.936 -86.1328 129.053 -90.8691 122.51 -90.8691 C 118.018 -90.8691 115.234 -89.2578 112.5 -84.9609 L 62.0117 -5.46875 L 36.4746 -36.6211 C 34.0332 -39.5508 31.2988 -40.918 27.4902 -40.918 C 20.8984 -40.918 16.0645 -36.1816 16.0645 -29.7363 C 16.0645 -26.8555 16.8945 -24.3652 19.3848 -21.5332 L 51.9043 17.334 C 54.7363 20.7031 58.0078 22.168 62.2559 22.168 Z"/>
  </g>
  <g id="Bold-L" transform="matrix(1 0 0 1 2266.93 1556)">
   <path d="M 59.9609 21.1914 C 63.7695 21.1914 66.6992 19.7266 68.75 16.6504 L 127.93 -74.3164 C 129.443 -76.6113 130.029 -78.6621 130.029 -80.6152 C 130.029 -85.791 126.172 -89.5508 120.85 -89.5508 C 117.236 -89.5508 114.941 -88.2324 112.744 -84.7656 L 59.7168 -1.12305 L 32.7637 -34.5215 C 30.7129 -37.0605 28.4668 -38.1836 25.293 -38.1836 C 19.9707 -38.1836 16.0645 -34.375 16.0645 -29.1504 C 16.0645 -26.8066 16.7969 -24.7559 18.75 -22.4609 L 51.2695 16.9922 C 53.6621 19.873 56.3477 21.1914 59.9609 21.1914 Z"/>
  </g>
  <g id="Semibold-L" transform="matrix(1 0 0 1 1971.56 1556)">
   <path d="M 58.3496 20.5078 C 61.6211 20.5078 64.1113 19.1895 65.8691 16.6016 L 125.537 -75.7812 C 126.807 -77.7832 127.344 -79.541 127.344 -81.2012 C 127.344 -85.5469 124.17 -88.6719 119.727 -88.6719 C 116.65 -88.6719 114.795 -87.5488 112.891 -84.6191 L 58.1055 1.9043 L 30.2246 -33.0566 C 28.418 -35.3027 26.5137 -36.3281 23.7793 -36.3281 C 19.2871 -36.3281 16.0645 -33.1543 16.0645 -28.7598 C 16.0645 -26.8066 16.6992 -25 18.3594 -23.0469 L 50.8301 16.748 C 52.9785 19.3359 55.2734 20.5078 58.3496 20.5078 Z"/>
  </g>
  <g id="Medium-L" transform="matrix(1 0 0 1 1675.88 1556)">
   <path d="M 57.1289 20.0195 C 59.9609 20.0195 62.1582 18.8477 63.6719 16.5039 L 123.682 -76.8555 C 124.854 -78.6621 125.293 -80.1758 125.293 -81.6406 C 125.293 -85.4004 122.656 -87.9883 118.848 -87.9883 C 116.211 -87.9883 114.648 -87.0605 113.037 -84.5215 L 56.9336 4.15039 L 28.2715 -31.9336 C 26.6602 -33.9844 25.0488 -34.9121 22.6562 -34.9121 C 18.7988 -34.9121 16.0645 -32.2266 16.0645 -28.4668 C 16.0645 -26.8066 16.6504 -25.1953 18.0176 -23.5352 L 50.5371 16.6016 C 52.4414 18.9453 54.3945 20.0195 57.1289 20.0195 Z"/>
  </g>
  <g id="Regular-L" transform="matrix(1 0 0 1 1380.48 1556)">
   <path d="M 55.5664 19.3359 C 57.8613 19.3359 59.5703 18.3105 60.8398 16.4551 L 121.289 -78.3203 C 122.266 -79.834 122.656 -81.0059 122.656 -82.1777 C 122.656 -85.1562 120.703 -87.1094 117.725 -87.1094 C 115.674 -87.1094 114.453 -86.377 113.232 -84.375 L 55.3223 7.12891 L 25.7324 -30.4688 C 24.4141 -32.2754 23.1445 -33.0566 21.1426 -33.0566 C 18.1641 -33.0566 16.0645 -31.0059 16.0645 -28.0762 C 16.0645 -26.8066 16.5527 -25.4883 17.627 -24.1699 L 50.0977 16.3574 C 51.709 18.4082 53.3203 19.3359 55.5664 19.3359 Z"/>
  </g>
  <g id="Light-L" transform="matrix(1 0 0 1 1085.14 1556)">
   <path d="M 53.418 17.9688 C 55.0781 17.9688 56.3477 17.1875 57.2266 15.8691 L 118.945 -80.2246 C 119.678 -81.3965 119.922 -82.2754 119.922 -83.1055 C 119.922 -85.3027 118.408 -86.7676 116.211 -86.7676 C 114.697 -86.7676 113.77 -86.2305 112.891 -84.8145 L 53.2715 8.59375 L 23.3398 -27.9297 C 22.3633 -29.248 21.3867 -29.834 19.873 -29.834 C 17.6758 -29.834 16.0645 -28.2715 16.0645 -26.0742 C 16.0645 -25.1465 16.4551 -24.1699 17.2363 -23.1445 L 49.4141 15.8203 C 50.6348 17.2852 51.7578 17.9688 53.418 17.9688 Z"/>
  </g>
  <g id="Thin-L" transform="matrix(1 0 0 1 790.211 1556)">
   <path d="M 50.5859 16.1133 C 51.4648 16.1133 52.002 15.7227 52.4902 15.1367 L 115.82 -82.7637 C 116.211 -83.4473 116.357 -83.8867 116.357 -84.2773 C 116.357 -85.498 115.43 -86.377 114.209 -86.377 C 113.379 -86.377 112.891 -86.084 112.451 -85.4004 L 50.4883 10.5469 L 20.1172 -24.5117 C 19.5801 -25.1465 19.0918 -25.5371 18.2129 -25.5371 C 16.9922 -25.5371 16.0645 -24.6582 16.0645 -23.4375 C 16.0645 -22.9004 16.2598 -22.3633 16.748 -21.7773 L 48.5352 15.0879 C 49.1699 15.8691 49.7559 16.1133 50.5859 16.1133 Z"/>
  </g>
  <g id="Ultralight-L" transform="matrix(1 0 0 1 494.428 1556)">
   <path d="M 49.1211 15.1855 C 49.5605 15.1855 49.8047 14.9414 50.0488 14.7461 L 114.209 -84.082 C 114.453 -84.5215 114.502 -84.7168 114.502 -84.8633 C 114.502 -85.5957 113.916 -86.1328 113.184 -86.1328 C 112.744 -86.1328 112.402 -85.9863 112.207 -85.6934 L 49.0723 11.5234 L 18.5059 -22.7539 C 18.2129 -23.0957 17.9199 -23.3398 17.334 -23.3398 C 16.6016 -23.3398 16.0645 -22.8027 16.0645 -22.0703 C 16.0645 -21.7773 16.1621 -21.4844 16.5039 -21.0938 L 48.0957 14.7461 C 48.4375 15.1367 48.6816 15.1855 49.1211 15.1855 Z"/>
  </g>
  <g id="Black-M" transform="matrix(1 0 0 1 2872.29 1126)">
   <path d="M 51.4648 10.4004 C 56.25 10.4004 59.9609 8.69141 62.5 4.98047 L 107.227 -60.9375 C 108.984 -63.5254 109.766 -66.2109 109.766 -68.6035 C 109.766 -75.4395 104.297 -80.6152 97.2656 -80.6152 C 92.5293 -80.6152 89.4043 -78.9062 86.5234 -74.3652 L 51.2695 -19.6777 L 34.0332 -38.9648 C 31.5918 -41.748 28.6621 -43.0664 24.7559 -43.0664 C 17.6758 -43.0664 12.4512 -37.8906 12.4512 -31.0059 C 12.4512 -27.832 13.2812 -25.3906 15.9668 -22.3633 L 41.0156 5.9082 C 43.7988 9.0332 47.2168 10.4004 51.4648 10.4004 Z"/>
  </g>
  <g id="Heavy-M" transform="matrix(1 0 0 1 2577.14 1126)">
   <path d="M 49.7559 9.81445 C 53.9551 9.81445 57.1777 8.30078 59.375 5.0293 L 104.443 -62.5 C 106.006 -64.7949 106.641 -67.1387 106.641 -69.1895 C 106.641 -75.0488 102.051 -79.4434 96.0449 -79.4434 C 91.9434 -79.4434 89.3555 -77.9785 86.8652 -74.0723 L 49.6094 -15.7715 L 31.0547 -37.5488 C 28.8574 -40.0879 26.3672 -41.2598 22.9492 -41.2598 C 16.8945 -41.2598 12.4512 -36.8652 12.4512 -30.957 C 12.4512 -28.2715 13.1836 -26.123 15.4785 -23.4863 L 40.5762 5.66406 C 43.0664 8.54492 45.9961 9.81445 49.7559 9.81445 Z"/>
  </g>
  <g id="Bold-M" transform="matrix(1 0 0 1 2282.17 1126)">
   <path d="M 47.9004 9.13086 C 51.3184 9.13086 54.0039 7.8125 55.8594 5.07812 L 101.318 -64.209 C 102.637 -66.2109 103.174 -68.1152 103.174 -69.873 C 103.174 -74.6094 99.5605 -78.125 94.6777 -78.125 C 91.3574 -78.125 89.2578 -76.9043 87.207 -73.7305 L 47.7051 -11.4258 L 27.6855 -35.9863 C 25.8301 -38.2324 23.7793 -39.209 20.9473 -39.209 C 16.0156 -39.209 12.4512 -35.6934 12.4512 -30.9082 C 12.4512 -28.7598 13.0859 -26.9043 14.9414 -24.8047 L 40.1367 5.46875 C 42.2363 7.95898 44.6777 9.13086 47.9004 9.13086 Z"/>
  </g>
  <g id="Semibold-M" transform="matrix(1 0 0 1 1986.65 1126)">
   <path d="M 46.582 8.64258 C 49.5117 8.64258 51.8066 7.4707 53.418 5.07812 L 99.1211 -65.4297 C 100.293 -67.1875 100.781 -68.7988 100.781 -70.3125 C 100.781 -74.3164 97.8516 -77.1973 93.75 -77.1973 C 90.918 -77.1973 89.209 -76.2207 87.5 -73.4863 L 46.3867 -8.44727 L 25.3906 -34.9121 C 23.7305 -36.9141 22.0215 -37.8418 19.5801 -37.8418 C 15.4297 -37.8418 12.4512 -34.9121 12.4512 -30.8594 C 12.4512 -29.1016 13.0371 -27.4414 14.5508 -25.6836 L 39.7949 5.32227 C 41.6992 7.61719 43.7988 8.64258 46.582 8.64258 Z"/>
  </g>
  <g id="Medium-M" transform="matrix(1 0 0 1 1690.84 1126)">
   <path d="M 45.6055 8.30078 C 48.1934 8.30078 50.1953 7.22656 51.6113 5.12695 L 97.5098 -66.3574 C 98.5352 -67.9688 98.9746 -69.3359 98.9746 -70.6543 C 98.9746 -74.1211 96.5332 -76.5137 93.0176 -76.5137 C 90.625 -76.5137 89.1602 -75.6348 87.6953 -73.3398 L 45.3613 -6.20117 L 23.6328 -34.082 C 22.168 -35.9863 20.6543 -36.7676 18.5059 -36.7676 C 14.9902 -36.7676 12.4512 -34.2773 12.4512 -30.8594 C 12.4512 -29.3457 12.9883 -27.8809 14.2578 -26.3672 L 39.5508 5.17578 C 41.2598 7.32422 43.0664 8.30078 45.6055 8.30078 Z"/>
  </g>
  <g id="Regular-M" transform="matrix(1 0 0 1 1395.33 1126)">
   <path d="M 44.2871 7.86133 C 46.3867 7.86133 48.0469 6.93359 49.2188 5.12695 L 95.3613 -67.5293 C 96.2402 -68.9453 96.582 -70.0195 96.582 -71.1426 C 96.582 -73.8281 94.8242 -75.5859 92.1387 -75.5859 C 90.1855 -75.5859 89.1113 -74.9512 87.9395 -73.0957 L 44.0918 -3.22266 L 21.3379 -33.0078 C 20.1172 -34.7168 18.8965 -35.4004 17.1387 -35.4004 C 14.3555 -35.4004 12.4512 -33.4961 12.4512 -30.8105 C 12.4512 -29.6875 12.9395 -28.418 13.8672 -27.2461 L 39.209 5.0293 C 40.6738 6.93359 42.1875 7.86133 44.2871 7.86133 Z"/>
  </g>
  <g id="Light-M" transform="matrix(1 0 0 1 1099.84 1126)">
   <path d="M 42.3828 6.5918 C 43.9453 6.5918 45.1172 5.9082 45.9473 4.63867 L 93.2129 -69.2383 C 93.8965 -70.3125 94.1406 -71.1426 94.1406 -71.9238 C 94.1406 -73.9746 92.7734 -75.3418 90.7715 -75.3418 C 89.3066 -75.3418 88.4766 -74.8047 87.6465 -73.4863 L 42.1875 -1.9043 L 19.1895 -30.7129 C 18.2617 -31.9336 17.334 -32.4707 15.9668 -32.4707 C 13.916 -32.4707 12.4512 -31.0547 12.4512 -29.0039 C 12.4512 -28.1738 12.793 -27.2461 13.5254 -26.3184 L 38.623 4.54102 C 39.6973 5.95703 40.8203 6.5918 42.3828 6.5918 Z"/>
  </g>
  <g id="Thin-M" transform="matrix(1 0 0 1 804.738 1126)">
   <path d="M 39.8438 4.98047 C 40.6738 4.98047 41.2598 4.58984 41.6992 3.95508 L 90.4297 -71.5332 C 90.8203 -72.168 90.918 -72.6074 90.918 -72.9492 C 90.918 -74.1211 90.1367 -74.9512 88.9648 -74.9512 C 88.1836 -74.9512 87.6953 -74.6582 87.2559 -73.9746 L 39.7461 -0.195312 L 16.3086 -27.6367 C 15.7715 -28.3203 15.2832 -28.6621 14.4531 -28.6621 C 13.2812 -28.6621 12.4512 -27.832 12.4512 -26.6602 C 12.4512 -26.1719 12.6465 -25.6348 13.0859 -25.0977 L 37.793 3.90625 C 38.4277 4.6875 38.9648 4.98047 39.8438 4.98047 Z"/>
  </g>
  <g id="Ultralight-M" transform="matrix(1 0 0 1 508.832 1126)">
   <path d="M 38.5254 4.10156 C 39.0137 4.10156 39.2578 3.90625 39.502 3.61328 L 89.0137 -72.7051 C 89.209 -73.0957 89.3066 -73.3398 89.3066 -73.4863 C 89.3066 -74.2188 88.7695 -74.7559 88.0371 -74.7559 C 87.5488 -74.7559 87.2559 -74.5605 87.0605 -74.2188 L 38.4766 0.732422 L 14.8438 -26.0742 C 14.5508 -26.4648 14.2578 -26.709 13.7207 -26.709 C 12.9883 -26.709 12.4512 -26.1719 12.4512 -25.4395 C 12.4512 -25.1465 12.5488 -24.8535 12.8906 -24.5117 L 37.4023 3.61328 C 37.7441 4.00391 38.0371 4.10156 38.5254 4.10156 Z"/>
  </g>
  <g id="Black-S" transform="matrix(1 0 0 1 2885.62 696)">
   <path d="M 40.2344 0.488281 C 43.9453 0.488281 46.8262 -0.830078 48.7793 -3.71094 L 83.8379 -55.4688 C 85.2051 -57.4707 85.791 -59.5703 85.791 -61.4258 C 85.791 -66.6992 81.5918 -70.7031 76.123 -70.7031 C 72.4609 -70.7031 70.0684 -69.3848 67.8223 -65.8691 L 40.0879 -22.7539 L 26.4648 -38.0859 C 24.5605 -40.2344 22.3145 -41.2598 19.2871 -41.2598 C 13.8184 -41.2598 9.76562 -37.2559 9.76562 -31.9336 C 9.76562 -29.4922 10.4004 -27.5879 12.5 -25.2441 L 32.1289 -3.02734 C 34.2773 -0.585938 36.9141 0.488281 40.2344 0.488281 Z"/>
  </g>
  <g id="Heavy-S" transform="matrix(1 0 0 1 2589.96 696)">
   <path d="M 39.1602 0.146484 C 42.4316 0.146484 44.9707 -1.02539 46.7285 -3.61328 L 81.9336 -56.4453 C 83.1543 -58.3008 83.6914 -60.1074 83.6914 -61.7676 C 83.6914 -66.4062 80.0781 -69.8242 75.3418 -69.8242 C 72.1191 -69.8242 70.0684 -68.7012 68.1152 -65.5762 L 39.0137 -19.9219 L 24.4141 -37.2559 C 22.7051 -39.2578 20.7031 -40.1855 18.0176 -40.1855 C 13.2812 -40.1855 9.76562 -36.7188 9.76562 -32.0801 C 9.76562 -29.9805 10.3516 -28.2715 12.1582 -26.2207 L 31.8848 -3.125 C 33.8379 -0.830078 36.1816 0.146484 39.1602 0.146484 Z"/>
  </g>
  <g id="Bold-S" transform="matrix(1 0 0 1 2294.42 696)">
   <path d="M 37.9395 -0.195312 C 40.7715 -0.195312 42.9199 -1.26953 44.4336 -3.51562 L 79.7852 -57.5684 C 80.8594 -59.2285 81.3477 -60.7422 81.3477 -62.207 C 81.3477 -66.0645 78.418 -68.8477 74.4629 -68.8477 C 71.7773 -68.8477 70.1172 -67.8711 68.457 -65.2832 L 37.793 -16.748 L 22.1191 -36.3281 C 20.6055 -38.1836 18.9453 -39.0137 16.6504 -39.0137 C 12.6465 -39.0137 9.76562 -36.1816 9.76562 -32.2754 C 9.76562 -30.5664 10.3027 -29.0527 11.7676 -27.3438 L 31.5918 -3.22266 C 33.3008 -1.17188 35.3027 -0.195312 37.9395 -0.195312 Z"/>
  </g>
  <g id="Semibold-S" transform="matrix(1 0 0 1 1998.54 696)">
   <path d="M 37.1094 -0.439453 C 39.5996 -0.439453 41.5039 -1.41602 42.8711 -3.4668 L 78.3203 -58.3496 C 79.2969 -59.8633 79.6875 -61.1816 79.6875 -62.5 C 79.6875 -65.8203 77.2949 -68.1641 73.877 -68.1641 C 71.5332 -68.1641 70.1172 -67.334 68.6523 -65.0879 L 36.9141 -14.5996 L 20.5566 -35.6934 C 19.1895 -37.4512 17.7246 -38.1836 15.6738 -38.1836 C 12.2559 -38.1836 9.76562 -35.7422 9.76562 -32.4219 C 9.76562 -30.9082 10.2539 -29.541 11.5234 -28.0762 L 31.3477 -3.32031 C 32.959 -1.36719 34.7168 -0.439453 37.1094 -0.439453 Z"/>
  </g>
  <g id="Medium-S" transform="matrix(1 0 0 1 1702.44 696)">
   <path d="M 36.4746 -0.634766 C 38.7207 -0.634766 40.4297 -1.5625 41.6992 -3.41797 L 77.1973 -58.9355 C 78.125 -60.3516 78.4668 -61.5234 78.4668 -62.6953 C 78.4668 -65.625 76.416 -67.6758 73.4375 -67.6758 C 71.3379 -67.6758 70.1172 -66.9434 68.8477 -64.8926 L 36.2793 -12.9395 L 19.3359 -35.2539 C 18.0664 -36.8652 16.7969 -37.5488 14.9414 -37.5488 C 11.9141 -37.5488 9.76562 -35.4492 9.76562 -32.5195 C 9.76562 -31.2012 10.2051 -29.9805 11.2793 -28.6621 L 31.2012 -3.36914 C 32.7148 -1.51367 34.2773 -0.634766 36.4746 -0.634766 Z"/>
  </g>
  <g id="Regular-S" transform="matrix(1 0 0 1 1406.53 696)">
   <path d="M 35.6445 -0.878906 C 37.5488 -0.878906 39.0625 -1.70898 40.1367 -3.36914 L 75.7324 -59.668 C 76.5625 -60.9375 76.8555 -61.9629 76.8555 -62.9883 C 76.8555 -65.3809 75.293 -66.9922 72.8516 -66.9922 C 71.0938 -66.9922 70.1172 -66.4062 69.043 -64.6973 L 35.4492 -10.791 L 17.7734 -34.6191 C 16.6504 -36.1328 15.5762 -36.7676 13.9648 -36.7676 C 11.5234 -36.7676 9.76562 -35.0586 9.76562 -32.6172 C 9.76562 -31.5918 10.2051 -30.4688 11.0352 -29.3945 L 31.0059 -3.4668 C 32.373 -1.70898 33.7402 -0.878906 35.6445 -0.878906 Z"/>
  </g>
  <g id="Light-S" transform="matrix(1 0 0 1 1110.9 696)">
   <path d="M 33.9355 -1.95312 C 35.3516 -1.95312 36.4746 -2.63672 37.2559 -3.80859 L 73.877 -61.2305 C 74.4629 -62.207 74.707 -62.9395 74.707 -63.6719 C 74.707 -65.5273 73.4863 -66.748 71.6309 -66.748 C 70.3125 -66.748 69.5801 -66.3086 68.7988 -65.0391 L 33.7891 -9.61914 L 15.8691 -32.5684 C 14.9902 -33.6914 14.209 -34.1797 12.9883 -34.1797 C 11.084 -34.1797 9.76562 -32.9102 9.76562 -31.0547 C 9.76562 -30.2734 10.1074 -29.4434 10.7422 -28.6133 L 30.4688 -3.85742 C 31.4941 -2.58789 32.5195 -1.95312 33.9355 -1.95312 Z"/>
  </g>
  <g id="Thin-S" transform="matrix(1 0 0 1 815.602 696)">
   <path d="M 31.6895 -3.41797 C 32.4707 -3.41797 33.0566 -3.80859 33.4961 -4.39453 L 71.3867 -63.2324 C 71.7285 -63.8184 71.875 -64.209 71.875 -64.5996 C 71.875 -65.6738 71.1426 -66.4062 70.0684 -66.4062 C 69.2871 -66.4062 68.8477 -66.1621 68.457 -65.4785 L 31.5918 -8.10547 L 13.3301 -29.8828 C 12.8418 -30.5176 12.4023 -30.8105 11.6211 -30.8105 C 10.5469 -30.8105 9.76562 -30.0293 9.76562 -28.9551 C 9.76562 -28.5156 9.96094 -28.0273 10.3516 -27.5391 L 29.7852 -4.44336 C 30.3711 -3.71094 30.9082 -3.41797 31.6895 -3.41797 Z"/>
  </g>
  <g id="Ultralight-S" transform="matrix(1 0 0 1 519.623 696)">
   <path d="M 30.5176 -4.15039 C 31.0059 -4.15039 31.2988 -4.39453 31.543 -4.73633 L 70.1172 -64.2578 C 70.3613 -64.6484 70.4102 -64.8926 70.4102 -65.0879 C 70.4102 -65.7715 69.9219 -66.2598 69.2383 -66.2598 C 68.75 -66.2598 68.5059 -66.0645 68.2617 -65.7227 L 30.4688 -7.32422 L 12.0117 -28.4668 C 11.7188 -28.8574 11.4258 -29.0527 10.9375 -29.0527 C 10.2539 -29.0527 9.76562 -28.5645 9.76562 -27.8809 C 9.76562 -27.5879 9.86328 -27.2949 10.1562 -27.002 L 29.4434 -4.73633 C 29.7852 -4.29688 30.0781 -4.15039 30.5176 -4.15039 Z"/>
  </g>
 </g>
</svg>
