<?xml version="1.0" encoding="UTF-8"?>
<!--Generator: Apple Native CoreSVG 123-->
<!DOCTYPE svg
PUBLIC "-//W3C//DTD SVG 1.1//EN"
       "http://www.w3.org/Graphics/SVG/1.1/DTD/svg11.dtd">
<svg version="1.1" xmlns="http://www.w3.org/2000/svg" xmlns:xlink="http://www.w3.org/1999/xlink" width="3300" height="2200">
 <!--glyph: "uni100184.medium", point size: 100.000000, font version: "Version 15.0d7e11", template writer version: "5"-->
 <g id="Notes">
  <rect height="2200" id="artboard" style="fill:white;opacity:1" width="3300" x="0" y="0"/>
  <line id="" style="fill:none;stroke:black;opacity:1;stroke-width:0.5;" x1="263" x2="3036" y1="292" y2="292"/>
  <text style="stroke:none;fill:black;font-family:-apple-system,&quot;SF Pro Display&quot;,&quot;SF Pro Text&quot;,Helvetica,sans-serif;font-weight:bold;" transform="matrix(1 0 0 1 263 322)">Weight/Scale Variations</text>
  <text style="stroke:none;fill:black;font-family:-apple-system,&quot;SF Pro Display&quot;,&quot;SF Pro Text&quot;,Helvetica,sans-serif;text-anchor:middle;" transform="matrix(1 0 0 1 559.711 322)">Ultralight</text>
  <text style="stroke:none;fill:black;font-family:-apple-system,&quot;SF Pro Display&quot;,&quot;SF Pro Text&quot;,Helvetica,sans-serif;text-anchor:middle;" transform="matrix(1 0 0 1 856.422 322)">Thin</text>
  <text style="stroke:none;fill:black;font-family:-apple-system,&quot;SF Pro Display&quot;,&quot;SF Pro Text&quot;,Helvetica,sans-serif;text-anchor:middle;" transform="matrix(1 0 0 1 1153.13 322)">Light</text>
  <text style="stroke:none;fill:black;font-family:-apple-system,&quot;SF Pro Display&quot;,&quot;SF Pro Text&quot;,Helvetica,sans-serif;text-anchor:middle;" transform="matrix(1 0 0 1 1449.84 322)">Regular</text>
  <text style="stroke:none;fill:black;font-family:-apple-system,&quot;SF Pro Display&quot;,&quot;SF Pro Text&quot;,Helvetica,sans-serif;text-anchor:middle;" transform="matrix(1 0 0 1 1746.56 322)">Medium</text>
  <text style="stroke:none;fill:black;font-family:-apple-system,&quot;SF Pro Display&quot;,&quot;SF Pro Text&quot;,Helvetica,sans-serif;text-anchor:middle;" transform="matrix(1 0 0 1 2043.27 322)">Semibold</text>
  <text style="stroke:none;fill:black;font-family:-apple-system,&quot;SF Pro Display&quot;,&quot;SF Pro Text&quot;,Helvetica,sans-serif;text-anchor:middle;" transform="matrix(1 0 0 1 2339.98 322)">Bold</text>
  <text style="stroke:none;fill:black;font-family:-apple-system,&quot;SF Pro Display&quot;,&quot;SF Pro Text&quot;,Helvetica,sans-serif;text-anchor:middle;" transform="matrix(1 0 0 1 2636.69 322)">Heavy</text>
  <text style="stroke:none;fill:black;font-family:-apple-system,&quot;SF Pro Display&quot;,&quot;SF Pro Text&quot;,Helvetica,sans-serif;text-anchor:middle;" transform="matrix(1 0 0 1 2933.4 322)">Black</text>
  <line id="" style="fill:none;stroke:black;opacity:1;stroke-width:0.5;" x1="263" x2="3036" y1="1903" y2="1903"/>
  <g id="" transform="matrix(1 0 0 1 263 1933)">
   <path d="M 9.24805 0.830078 C 13.5547 0.830078 17.1387 -2.74414 17.1387 -7.05078 C 17.1387 -11.3574 13.5449 -14.9316 9.23828 -14.9316 C 4.94141 -14.9316 1.36719 -11.3574 1.36719 -7.05078 C 1.36719 -2.74414 4.95117 0.830078 9.24805 0.830078 Z M 9.24805 -0.654297 C 5.70312 -0.654297 2.87109 -3.49609 2.87109 -7.05078 C 2.87109 -10.6055 5.69336 -13.4473 9.23828 -13.4473 C 12.793 -13.4473 15.6348 -10.6055 15.6445 -7.05078 C 15.6543 -3.49609 12.8027 -0.654297 9.24805 -0.654297 Z M 9.22852 -3.42773 C 9.69727 -3.42773 9.9707 -3.74023 9.9707 -4.25781 L 9.9707 -6.31836 L 12.1973 -6.31836 C 12.6953 -6.31836 13.0371 -6.57227 13.0371 -7.04102 C 13.0371 -7.51953 12.7148 -7.7832 12.1973 -7.7832 L 9.9707 -7.7832 L 9.9707 -10.0098 C 9.9707 -10.5273 9.69727 -10.8496 9.22852 -10.8496 C 8.75977 -10.8496 8.50586 -10.5078 8.50586 -10.0098 L 8.50586 -7.7832 L 6.29883 -7.7832 C 5.78125 -7.7832 5.44922 -7.51953 5.44922 -7.04102 C 5.44922 -6.57227 5.80078 -6.31836 6.29883 -6.31836 L 8.50586 -6.31836 L 8.50586 -4.25781 C 8.50586 -3.75977 8.75977 -3.42773 9.22852 -3.42773 Z"/>
  </g>
  <g id="" transform="matrix(1 0 0 1 281.506 1933)">
   <path d="M 11.709 2.91016 C 17.1582 2.91016 21.6699 -1.60156 21.6699 -7.05078 C 21.6699 -12.4902 17.1484 -17.0117 11.6992 -17.0117 C 6.25977 -17.0117 1.74805 -12.4902 1.74805 -7.05078 C 1.74805 -1.60156 6.26953 2.91016 11.709 2.91016 Z M 11.709 1.25 C 7.09961 1.25 3.41797 -2.44141 3.41797 -7.05078 C 3.41797 -11.6504 7.08984 -15.3516 11.6992 -15.3516 C 16.3086 -15.3516 20 -11.6504 20.0098 -7.05078 C 20.0195 -2.44141 16.3184 1.25 11.709 1.25 Z M 11.6895 -2.41211 C 12.207 -2.41211 12.5195 -2.77344 12.5195 -3.33984 L 12.5195 -6.23047 L 15.5762 -6.23047 C 16.123 -6.23047 16.5039 -6.51367 16.5039 -7.03125 C 16.5039 -7.55859 16.1426 -7.86133 15.5762 -7.86133 L 12.5195 -7.86133 L 12.5195 -10.9277 C 12.5195 -11.5039 12.207 -11.8555 11.6895 -11.8555 C 11.1719 -11.8555 10.8789 -11.4844 10.8789 -10.9277 L 10.8789 -7.86133 L 7.83203 -7.86133 C 7.26562 -7.86133 6.89453 -7.55859 6.89453 -7.03125 C 6.89453 -6.51367 7.28516 -6.23047 7.83203 -6.23047 L 10.8789 -6.23047 L 10.8789 -3.33984 C 10.8789 -2.79297 11.1719 -2.41211 11.6895 -2.41211 Z"/>
  </g>
  <g id="" transform="matrix(1 0 0 1 304.924 1933)">
   <path d="M 14.9707 5.67383 C 21.9336 5.67383 27.6953 -0.078125 27.6953 -7.04102 C 27.6953 -14.0039 21.9238 -19.7559 14.9609 -19.7559 C 8.00781 -19.7559 2.25586 -14.0039 2.25586 -7.04102 C 2.25586 -0.078125 8.01758 5.67383 14.9707 5.67383 Z M 14.9707 3.85742 C 8.93555 3.85742 4.08203 -1.00586 4.08203 -7.04102 C 4.08203 -13.0762 8.92578 -17.9395 14.9609 -17.9395 C 21.0059 -17.9395 25.8594 -13.0762 25.8691 -7.04102 C 25.8789 -1.00586 21.0156 3.85742 14.9707 3.85742 Z M 14.9512 -1.06445 C 15.5176 -1.06445 15.8691 -1.45508 15.8691 -2.06055 L 15.8691 -6.13281 L 20.1074 -6.13281 C 20.6934 -6.13281 21.1133 -6.46484 21.1133 -7.02148 C 21.1133 -7.59766 20.7227 -7.93945 20.1074 -7.93945 L 15.8691 -7.93945 L 15.8691 -12.1875 C 15.8691 -12.8027 15.5176 -13.1934 14.9512 -13.1934 C 14.3848 -13.1934 14.0625 -12.7832 14.0625 -12.1875 L 14.0625 -7.93945 L 9.83398 -7.93945 C 9.21875 -7.93945 8.80859 -7.59766 8.80859 -7.02148 C 8.80859 -6.46484 9.23828 -6.13281 9.83398 -6.13281 L 14.0625 -6.13281 L 14.0625 -2.06055 C 14.0625 -1.47461 14.3848 -1.06445 14.9512 -1.06445 Z"/>
  </g>
  <text style="stroke:none;fill:black;font-family:-apple-system,&quot;SF Pro Display&quot;,&quot;SF Pro Text&quot;,Helvetica,sans-serif;font-weight:bold;" transform="matrix(1 0 0 1 263 1953)">Design Variations</text>
  <text style="stroke:none;fill:black;font-family:-apple-system,&quot;SF Pro Display&quot;,&quot;SF Pro Text&quot;,Helvetica,sans-serif;" transform="matrix(1 0 0 1 263 1971)">Symbols are supported in up to nine weights and three scales.</text>
  <text style="stroke:none;fill:black;font-family:-apple-system,&quot;SF Pro Display&quot;,&quot;SF Pro Text&quot;,Helvetica,sans-serif;" transform="matrix(1 0 0 1 263 1989)">For optimal layout with text and other symbols, vertically align</text>
  <text style="stroke:none;fill:black;font-family:-apple-system,&quot;SF Pro Display&quot;,&quot;SF Pro Text&quot;,Helvetica,sans-serif;" transform="matrix(1 0 0 1 263 2007)">symbols with the adjacent text.</text>
  <rect height="14" id="" style="fill:#00AEEF;stroke:none;opacity:0.4;" width="3" x="776" y="1919"/>
  <g id="" transform="matrix(1 0 0 1 779 1933)">
   <path d="M 10.5273 0 L 12.373 0 L 7.17773 -14.0918 L 5.43945 -14.0918 L 0.244141 0 L 2.08984 0 L 3.50586 -4.0332 L 9.11133 -4.0332 Z M 6.2793 -11.9531 L 6.33789 -11.9531 L 8.59375 -5.52734 L 4.02344 -5.52734 Z"/>
  </g>
  <rect height="14" id="" style="fill:#00AEEF;stroke:none;opacity:0.4;" width="3" x="791.617" y="1919"/>
  <text style="stroke:none;fill:black;font-family:-apple-system,&quot;SF Pro Display&quot;,&quot;SF Pro Text&quot;,Helvetica,sans-serif;font-weight:bold;" transform="matrix(1 0 0 1 776 1953)">Margins</text>
  <text style="stroke:none;fill:black;font-family:-apple-system,&quot;SF Pro Display&quot;,&quot;SF Pro Text&quot;,Helvetica,sans-serif;" transform="matrix(1 0 0 1 776 1971)">Leading and trailing margins on the left and right side of each symbol</text>
  <text style="stroke:none;fill:black;font-family:-apple-system,&quot;SF Pro Display&quot;,&quot;SF Pro Text&quot;,Helvetica,sans-serif;" transform="matrix(1 0 0 1 776 1989)">can be adjusted by modifying the width of the blue rectangles.</text>
  <text style="stroke:none;fill:black;font-family:-apple-system,&quot;SF Pro Display&quot;,&quot;SF Pro Text&quot;,Helvetica,sans-serif;" transform="matrix(1 0 0 1 776 2007)">Modifications are automatically applied proportionally to all</text>
  <text style="stroke:none;fill:black;font-family:-apple-system,&quot;SF Pro Display&quot;,&quot;SF Pro Text&quot;,Helvetica,sans-serif;" transform="matrix(1 0 0 1 776 2025)">scales and weights.</text>
  <g id="" transform="matrix(1 0 0 1 1289 1933)">
   <path d="M 2.83203 3.11523 L 4.375 4.6582 C 5.22461 5.48828 6.19141 5.41992 7.06055 4.46289 L 17.2754 -6.66016 C 17.7051 -6.36719 18.0957 -6.37695 18.5645 -6.47461 L 19.6094 -6.68945 L 20.3027 -5.99609 L 20.2539 -5.47852 C 20.1855 -4.95117 20.3516 -4.53125 20.8496 -4.0332 L 21.6602 -3.22266 C 22.168 -2.71484 22.8223 -2.68555 23.3008 -3.16406 L 26.5527 -6.41602 C 27.0312 -6.89453 27.0117 -7.54883 26.5039 -8.05664 L 25.6836 -8.87695 C 25.1855 -9.375 24.7754 -9.55078 24.2383 -9.47266 L 23.7109 -9.41406 L 23.0566 -10.0781 L 23.3398 -11.2207 C 23.4863 -11.7871 23.3398 -12.2559 22.7148 -12.8613 L 20.3027 -15.2539 C 16.7578 -18.7793 12.2266 -18.6719 9.11133 -15.5371 C 8.69141 -15.1074 8.64258 -14.5215 8.91602 -14.0918 C 9.15039 -13.7207 9.62891 -13.4961 10.2734 -13.6621 C 11.7871 -14.043 13.3008 -13.9258 14.7852 -12.9199 L 14.1602 -11.3379 C 13.9258 -10.752 13.9453 -10.2734 14.1797 -9.83398 L 3.01758 0.439453 C 2.08008 1.30859 1.97266 2.25586 2.83203 3.11523 Z M 10.6738 -15.1465 C 13.3398 -17.1387 16.6504 -16.8262 19.0527 -14.4141 L 21.6797 -11.8066 C 21.9141 -11.5723 21.9434 -11.3867 21.8848 -11.0938 L 21.5039 -9.53125 L 23.0762 -7.95898 L 24.043 -8.04688 C 24.3262 -8.07617 24.4141 -8.05664 24.6387 -7.83203 L 25.2637 -7.20703 L 22.5098 -4.46289 L 21.8848 -5.07812 C 21.6602 -5.30273 21.6406 -5.40039 21.6699 -5.68359 L 21.7578 -6.64062 L 20.1953 -8.20312 L 18.5742 -7.89062 C 18.291 -7.83203 18.1445 -7.83203 17.9102 -8.07617 L 15.7324 -10.2539 C 15.5078 -10.4883 15.4785 -10.625 15.6055 -10.9473 L 16.5527 -13.2227 C 14.9512 -14.7559 12.8418 -15.6055 10.8008 -14.9512 C 10.7129 -14.9219 10.6445 -14.9414 10.6152 -14.9805 C 10.5859 -15.0293 10.5859 -15.0781 10.6738 -15.1465 Z M 4.10156 2.41211 C 3.61328 1.91406 3.78906 1.61133 4.12109 1.30859 L 15.0781 -8.80859 L 16.3086 -7.57812 L 6.15234 3.34961 C 5.84961 3.68164 5.46875 3.7793 5.06836 3.37891 Z"/>
  </g>
  <text style="stroke:none;fill:black;font-family:-apple-system,&quot;SF Pro Display&quot;,&quot;SF Pro Text&quot;,Helvetica,sans-serif;font-weight:bold;" transform="matrix(1 0 0 1 1289 1953)">Exporting</text>
  <text style="stroke:none;fill:black;font-family:-apple-system,&quot;SF Pro Display&quot;,&quot;SF Pro Text&quot;,Helvetica,sans-serif;" transform="matrix(1 0 0 1 1289 1971)">Symbols should be outlined when exporting to ensure the</text>
  <text style="stroke:none;fill:black;font-family:-apple-system,&quot;SF Pro Display&quot;,&quot;SF Pro Text&quot;,Helvetica,sans-serif;" transform="matrix(1 0 0 1 1289 1989)">design is preserved when submitting to Xcode.</text>
  <text id="template-version" style="stroke:none;fill:black;font-family:-apple-system,&quot;SF Pro Display&quot;,&quot;SF Pro Text&quot;,Helvetica,sans-serif;text-anchor:end;" transform="matrix(1 0 0 1 3036 1933)">Template v.1.0</text>
  <text style="stroke:none;fill:black;font-family:-apple-system,&quot;SF Pro Display&quot;,&quot;SF Pro Text&quot;,Helvetica,sans-serif;text-anchor:end;" transform="matrix(1 0 0 1 3036 1951)">Generated from xmark</text>
  <text style="stroke:none;fill:black;font-family:-apple-system,&quot;SF Pro Display&quot;,&quot;SF Pro Text&quot;,Helvetica,sans-serif;text-anchor:end;" transform="matrix(1 0 0 1 3036 1969)">Typeset at 100 points</text>
  <text style="stroke:none;fill:black;font-family:-apple-system,&quot;SF Pro Display&quot;,&quot;SF Pro Text&quot;,Helvetica,sans-serif;" transform="matrix(1 0 0 1 263 726)">Small</text>
  <text style="stroke:none;fill:black;font-family:-apple-system,&quot;SF Pro Display&quot;,&quot;SF Pro Text&quot;,Helvetica,sans-serif;" transform="matrix(1 0 0 1 263 1156)">Medium</text>
  <text style="stroke:none;fill:black;font-family:-apple-system,&quot;SF Pro Display&quot;,&quot;SF Pro Text&quot;,Helvetica,sans-serif;" transform="matrix(1 0 0 1 263 1586)">Large</text>
 </g>
 <g id="Guides">
  <g id="H-reference" style="fill:#27AAE1;stroke:none;" transform="matrix(1 0 0 1 339 696)">
   <path d="M 54.9316 0 L 57.666 0 L 30.5664 -70.459 L 28.0762 -70.459 L 0.976562 0 L 3.66211 0 L 12.9395 -24.4629 L 45.7031 -24.4629 Z M 29.1992 -67.0898 L 29.4434 -67.0898 L 44.8242 -26.709 L 13.8184 -26.709 Z"/>
  </g>
  <line id="Baseline-S" style="fill:none;stroke:#27AAE1;opacity:1;stroke-width:0.577;" x1="263" x2="3036" y1="696" y2="696"/>
  <line id="Capline-S" style="fill:none;stroke:#27AAE1;opacity:1;stroke-width:0.577;" x1="263" x2="3036" y1="625.541" y2="625.541"/>
  <g id="H-reference" style="fill:#27AAE1;stroke:none;" transform="matrix(1 0 0 1 339 1126)">
   <path d="M 54.9316 0 L 57.666 0 L 30.5664 -70.459 L 28.0762 -70.459 L 0.976562 0 L 3.66211 0 L 12.9395 -24.4629 L 45.7031 -24.4629 Z M 29.1992 -67.0898 L 29.4434 -67.0898 L 44.8242 -26.709 L 13.8184 -26.709 Z"/>
  </g>
  <line id="Baseline-M" style="fill:none;stroke:#27AAE1;opacity:1;stroke-width:0.577;" x1="263" x2="3036" y1="1126" y2="1126"/>
  <line id="Capline-M" style="fill:none;stroke:#27AAE1;opacity:1;stroke-width:0.577;" x1="263" x2="3036" y1="1055.54" y2="1055.54"/>
  <g id="H-reference" style="fill:#27AAE1;stroke:none;" transform="matrix(1 0 0 1 339 1556)">
   <path d="M 54.9316 0 L 57.666 0 L 30.5664 -70.459 L 28.0762 -70.459 L 0.976562 0 L 3.66211 0 L 12.9395 -24.4629 L 45.7031 -24.4629 Z M 29.1992 -67.0898 L 29.4434 -67.0898 L 44.8242 -26.709 L 13.8184 -26.709 Z"/>
  </g>
  <line id="Baseline-L" style="fill:none;stroke:#27AAE1;opacity:1;stroke-width:0.577;" x1="263" x2="3036" y1="1556" y2="1556"/>
  <line id="Capline-L" style="fill:none;stroke:#27AAE1;opacity:1;stroke-width:0.577;" x1="263" x2="3036" y1="1485.54" y2="1485.54"/>
  <rect height="119.336" id="left-margin" style="fill:#00AEEF;stroke:none;opacity:0.4;" width="12.4572" x="1398.67" y="1030.79"/>
  <rect height="119.336" id="right-margin" style="fill:#00AEEF;stroke:none;opacity:0.4;" width="12.4572" x="1488.56" y="1030.79"/>
 </g>
 <g id="Symbols">
  <g id="Black-L" transform="matrix(1 0 0 1 2863.8 1556)">
   <path d="M 19.3359 -2.00195 C 15.0391 2.29492 14.8438 10.3516 19.4824 14.9414 C 24.1211 19.5801 32.1777 19.3848 36.4258 15.1367 L 69.5801 -18.0664 L 102.734 15.0879 C 107.227 19.5801 115.039 19.5312 119.629 14.8926 C 124.268 10.2539 124.316 2.44141 119.824 -2.05078 L 86.7188 -35.1562 L 119.824 -68.2617 C 124.316 -72.8027 124.268 -80.6152 119.629 -85.2051 C 114.99 -89.8438 107.227 -89.8926 102.734 -85.4004 L 69.5801 -52.2461 L 36.4258 -85.4492 C 32.1777 -89.6973 24.1211 -89.8926 19.4824 -85.2539 C 14.8926 -80.6152 15.0391 -72.6074 19.3359 -68.3594 L 52.4902 -35.1562 Z"/>
  </g>
  <g id="Heavy-L" transform="matrix(1 0 0 1 2568.06 1556)">
   <path d="M 18.8965 -0.0976562 C 15.1855 3.61328 15.0391 10.498 18.9941 14.4531 C 22.998 18.4082 29.834 18.2617 33.5449 14.5996 L 68.6035 -20.5078 L 103.662 14.5508 C 107.52 18.4082 114.209 18.4082 118.164 14.4043 C 122.119 10.4004 122.168 3.75977 118.311 -0.146484 L 83.3008 -35.1562 L 118.311 -70.2148 C 122.168 -74.0723 122.168 -80.7617 118.164 -84.7168 C 114.209 -88.6719 107.52 -88.7207 103.662 -84.8633 L 68.6035 -49.8047 L 33.5449 -84.9121 C 29.834 -88.5742 22.9492 -88.7695 18.9941 -84.7656 C 15.0391 -80.7617 15.1855 -73.9258 18.8965 -70.2637 L 53.9551 -35.1562 Z"/>
  </g>
  <g id="Bold-L" transform="matrix(1 0 0 1 2272.45 1556)">
   <path d="M 18.4082 2.05078 C 15.332 5.07812 15.2344 10.6445 18.457 13.8672 C 21.7285 17.0898 27.2461 17.041 30.3223 13.9648 L 67.5293 -23.2422 L 104.688 13.9648 C 107.861 17.0898 113.33 17.1387 116.553 13.8672 C 119.775 10.5957 119.775 5.17578 116.65 2.00195 L 79.4434 -35.1562 L 116.65 -72.3633 C 119.775 -75.4883 119.824 -80.957 116.553 -84.1797 C 113.281 -87.4023 107.861 -87.4512 104.688 -84.2773 L 67.5293 -47.0703 L 30.3223 -84.2773 C 27.2461 -87.3535 21.6797 -87.4512 18.457 -84.2285 C 15.2344 -80.957 15.332 -75.4395 18.4082 -72.3633 L 55.6152 -35.1562 Z"/>
  </g>
  <g id="Semibold-L" transform="matrix(1 0 0 1 1976.49 1556)">
   <path d="M 18.0664 3.51562 C 15.4297 6.10352 15.332 10.791 18.1152 13.5254 C 20.8496 16.2109 25.4883 16.1621 28.0762 13.5742 L 66.748 -25.0977 L 105.42 13.5254 C 108.105 16.2109 112.695 16.2598 115.43 13.4766 C 118.115 10.7422 118.164 6.20117 115.479 3.51562 L 76.8066 -35.1562 L 115.479 -73.8281 C 118.164 -76.5137 118.164 -81.1035 115.43 -83.7891 C 112.646 -86.5234 108.105 -86.5234 105.42 -83.8379 L 66.748 -45.2148 L 28.0762 -83.8867 C 25.4883 -86.4746 20.8008 -86.5723 18.1152 -83.8379 C 15.3809 -81.0547 15.4297 -76.4648 18.0664 -73.8281 L 56.7383 -35.1562 Z"/>
  </g>
  <g id="Medium-L" transform="matrix(1 0 0 1 1680.37 1556)">
   <path d="M 17.7734 4.63867 C 15.5273 6.88477 15.4297 10.8887 17.8223 13.2324 C 20.2148 15.5273 24.1211 15.5273 26.416 13.2324 L 66.2109 -26.5625 L 105.957 13.2324 C 108.301 15.5273 112.207 15.5762 114.551 13.1836 C 116.895 10.8398 116.895 6.93359 114.6 4.63867 L 74.8047 -35.1562 L 114.6 -74.9512 C 116.895 -77.2461 116.943 -81.2012 114.551 -83.4961 C 112.158 -85.8398 108.301 -85.8398 105.957 -83.5449 L 66.2109 -43.75 L 26.416 -83.5449 C 24.1211 -85.8398 20.166 -85.8887 17.8223 -83.5449 C 15.4785 -81.1523 15.5273 -77.1973 17.7734 -74.9512 L 57.5684 -35.1562 Z"/>
  </g>
  <g id="Regular-L" transform="matrix(1 0 0 1 1384.39 1556)">
   <path d="M 17.4316 6.10352 C 15.625 7.91016 15.5762 10.9863 17.4316 12.8418 C 19.3359 14.6484 22.3633 14.6484 24.2188 12.8418 L 65.4297 -28.418 L 106.689 12.8418 C 108.496 14.6484 111.621 14.6973 113.428 12.8418 C 115.283 10.9375 115.283 7.91016 113.428 6.10352 L 72.2168 -35.1562 L 113.428 -76.416 C 115.283 -78.2227 115.332 -81.2988 113.428 -83.1543 C 111.572 -84.9609 108.496 -84.9609 106.689 -83.1543 L 65.4297 -41.8945 L 24.2188 -83.1543 C 22.3633 -84.9609 19.2871 -85.0098 17.4316 -83.1543 C 15.625 -81.25 15.625 -78.2227 17.4316 -76.416 L 58.6914 -35.1562 Z"/>
  </g>
  <g id="Light-L" transform="matrix(1 0 0 1 1088.46 1556)">
   <path d="M 17.1387 7.32422 C 15.7227 8.74023 15.7227 11.0352 17.1387 12.4023 C 18.5547 13.7695 20.8008 13.7695 22.168 12.4023 L 64.6484 -30.0781 L 107.129 12.4023 C 108.545 13.7695 110.84 13.8184 112.207 12.4023 C 113.574 10.9863 113.574 8.74023 112.207 7.32422 L 69.7266 -35.1562 L 112.207 -77.6367 C 113.574 -79.0039 113.623 -81.2988 112.207 -82.666 C 110.791 -84.082 108.545 -84.082 107.129 -82.666 L 64.6484 -40.1855 L 22.168 -82.666 C 20.8008 -84.082 18.5059 -84.082 17.1387 -82.666 C 15.7227 -81.25 15.7227 -79.0039 17.1387 -77.6367 L 59.6191 -35.1562 Z"/>
  </g>
  <g id="Thin-L" transform="matrix(1 0 0 1 792.799 1556)">
   <path d="M 16.6504 8.98438 C 15.8691 9.81445 15.8691 11.0352 16.6504 11.8652 C 17.4805 12.6465 18.7012 12.6465 19.5312 11.8652 L 63.623 -32.2754 L 107.764 11.8652 C 108.545 12.6465 109.766 12.6465 110.596 11.8652 C 111.377 11.0352 111.377 9.81445 110.596 8.98438 L 66.4551 -35.1074 L 110.596 -79.248 C 111.377 -80.0293 111.377 -81.2988 110.596 -82.0801 C 109.766 -82.8613 108.545 -82.8613 107.764 -82.0801 L 63.623 -37.9395 L 19.5312 -82.0801 C 18.7012 -82.8613 17.4805 -82.8613 16.6504 -82.0801 C 15.8691 -81.25 15.8691 -80.0293 16.6504 -79.248 L 60.791 -35.1074 Z"/>
  </g>
  <g id="Ultralight-L" transform="matrix(1 0 0 1 496.601 1556)">
   <path d="M 16.4551 9.86328 C 15.918 10.3516 15.9668 11.0352 16.4551 11.5723 C 16.9434 12.0605 17.627 12.0605 18.1641 11.5723 L 63.0859 -33.3984 L 108.057 11.5723 C 108.545 12.0605 109.277 12.0605 109.766 11.5723 C 110.254 11.084 110.254 10.3516 109.766 9.86328 L 64.7949 -35.1074 L 109.766 -80.0781 C 110.254 -80.5664 110.254 -81.25 109.766 -81.7383 C 109.277 -82.2754 108.545 -82.2754 108.057 -81.7383 L 63.0859 -36.8164 L 18.1641 -81.7383 C 17.627 -82.2754 16.9434 -82.2754 16.4551 -81.7383 C 15.918 -81.25 15.918 -80.5664 16.4551 -80.0781 L 61.377 -35.1074 Z"/>
  </g>
  <g id="Black-M" transform="matrix(1 0 0 1 2878.54 1126)">
   <path d="M 15.3809 -11.377 C 11.5234 -7.51953 11.3281 -0.146484 15.5762 4.10156 C 19.8242 8.34961 27.1973 8.1543 31.0547 4.29688 L 54.834 -19.5312 L 78.5645 4.24805 C 82.666 8.34961 89.8438 8.25195 94.043 4.05273 C 98.291 -0.195312 98.3398 -7.32422 94.2383 -11.4258 L 70.5078 -35.1562 L 94.2383 -58.8867 C 98.3398 -62.9883 98.291 -70.166 94.043 -74.3652 C 89.8438 -78.6133 82.666 -78.6621 78.5645 -74.5605 L 54.834 -50.8301 L 31.0547 -74.6094 C 27.1973 -78.4668 19.8242 -78.6621 15.5762 -74.4141 C 11.3281 -70.2148 11.5234 -62.8418 15.3809 -58.9844 L 39.209 -35.1562 Z"/>
  </g>
  <g id="Heavy-M" transform="matrix(1 0 0 1 2582.71 1126)">
   <path d="M 14.9902 -9.61914 C 11.6699 -6.25 11.5234 0.0488281 15.1367 3.66211 C 18.75 7.27539 25.0977 7.12891 28.418 3.80859 L 53.9551 -21.7285 L 79.4922 3.75977 C 83.0078 7.27539 89.1602 7.27539 92.7734 3.61328 C 96.3867 0 96.4355 -6.10352 92.9199 -9.66797 L 67.3828 -35.1562 L 92.9199 -60.6934 C 96.4355 -64.209 96.3867 -70.3125 92.7734 -73.9746 C 89.1113 -77.5879 83.0078 -77.6367 79.4922 -74.1211 L 53.9551 -48.584 L 28.418 -74.1699 C 25.0977 -77.4902 18.75 -77.6367 15.1367 -74.0234 C 11.5234 -70.3613 11.6699 -64.0625 14.9902 -60.7422 L 40.5762 -35.1562 Z"/>
  </g>
  <g id="Bold-M" transform="matrix(1 0 0 1 2286.97 1126)">
   <path d="M 14.5508 -7.66602 C 11.8164 -4.88281 11.6699 0.244141 14.6484 3.17383 C 17.627 6.15234 22.7051 6.05469 25.4883 3.27148 L 53.0273 -24.2676 L 80.5176 3.22266 C 83.3984 6.15234 88.3789 6.10352 91.3086 3.125 C 94.2871 0.195312 94.2871 -4.78516 91.4062 -7.66602 L 63.916 -35.1562 L 91.4062 -62.6953 C 94.2871 -65.5762 94.2871 -70.5566 91.3086 -73.4863 C 88.3789 -76.4648 83.3984 -76.4648 80.5176 -73.584 L 53.0273 -46.0938 L 25.4883 -73.6328 C 22.7051 -76.3672 17.5781 -76.5137 14.6484 -73.5352 C 11.7188 -70.5566 11.8164 -65.4785 14.5508 -62.6953 L 42.0898 -35.1562 Z"/>
  </g>
  <g id="Semibold-M" transform="matrix(1 0 0 1 1990.92 1126)">
   <path d="M 14.2578 -6.29883 C 11.8652 -3.90625 11.8164 0.341797 14.3066 2.83203 C 16.8457 5.32227 21.0938 5.27344 23.4375 2.92969 L 52.3438 -25.9766 L 81.2012 2.88086 C 83.6426 5.32227 87.8418 5.32227 90.332 2.83203 C 92.8223 0.292969 92.8223 -3.85742 90.3809 -6.29883 L 61.5234 -35.1562 L 90.3809 -64.0625 C 92.8223 -66.5039 92.8711 -70.7031 90.332 -73.1934 C 87.8418 -75.6836 83.6426 -75.6836 81.2012 -73.2422 L 52.3438 -44.3848 L 23.4375 -73.2422 C 21.0938 -75.6348 16.7969 -75.7324 14.3066 -73.1934 C 11.8164 -70.7031 11.8652 -66.4062 14.2578 -64.0625 L 43.1152 -35.1562 Z"/>
  </g>
  <g id="Medium-M" transform="matrix(1 0 0 1 1694.72 1126)">
   <path d="M 14.0137 -5.27344 C 11.9629 -3.22266 11.8652 0.439453 14.0625 2.58789 C 16.2109 4.73633 19.873 4.6875 21.9238 2.63672 L 51.8066 -27.2949 L 81.7383 2.63672 C 83.8379 4.73633 87.4512 4.73633 89.5996 2.58789 C 91.6992 0.390625 91.748 -3.17383 89.5996 -5.27344 L 59.7168 -35.2051 L 89.5996 -65.0879 C 91.748 -67.1875 91.748 -70.8008 89.5996 -72.9492 C 87.4023 -75.0488 83.8379 -75.0977 81.7383 -72.998 L 51.8066 -43.0664 L 21.9238 -72.998 C 19.873 -75.0488 16.1621 -75.1465 14.0625 -72.9492 C 11.9141 -70.8008 11.9629 -67.1387 14.0137 -65.0879 L 43.9453 -35.2051 Z"/>
  </g>
  <g id="Regular-M" transform="matrix(1 0 0 1 1398.67 1126)">
   <path d="M 13.7207 -3.90625 C 12.0605 -2.24609 12.0117 0.585938 13.7207 2.24609 C 15.4297 3.90625 18.2617 3.90625 19.9219 2.24609 L 51.1719 -29.0039 L 82.4219 2.24609 C 84.082 3.90625 86.9629 3.95508 88.623 2.24609 C 90.2832 0.537109 90.2832 -2.24609 88.623 -3.90625 L 57.373 -35.2051 L 88.623 -66.4551 C 90.2832 -68.1152 90.332 -70.9473 88.623 -72.6074 C 86.9141 -74.3164 84.082 -74.3164 82.4219 -72.6074 L 51.1719 -41.3574 L 19.9219 -72.6074 C 18.2617 -74.3164 15.3809 -74.3652 13.7207 -72.6074 C 12.0605 -70.8984 12.0605 -68.1152 13.7207 -66.4551 L 44.9707 -35.2051 Z"/>
  </g>
  <g id="Light-M" transform="matrix(1 0 0 1 1102.67 1126)">
   <path d="M 13.4277 -2.7832 C 12.1582 -1.51367 12.1094 0.585938 13.4277 1.85547 C 14.7461 3.17383 16.8457 3.17383 18.1152 1.85547 L 50.4883 -30.4688 L 82.8125 1.85547 C 84.082 3.17383 86.2305 3.17383 87.5 1.85547 C 88.7695 0.585938 88.7695 -1.51367 87.5 -2.7832 L 55.127 -35.1562 L 87.5 -67.5293 C 88.7695 -68.7988 88.8184 -70.9473 87.5 -72.2168 C 86.1816 -73.4863 84.082 -73.4863 82.8125 -72.2168 L 50.4883 -39.8438 L 18.1152 -72.2168 C 16.8457 -73.4863 14.6973 -73.5352 13.4277 -72.2168 C 12.1582 -70.8984 12.1582 -68.7988 13.4277 -67.5293 L 45.8008 -35.1562 Z"/>
  </g>
  <g id="Thin-M" transform="matrix(1 0 0 1 806.886 1126)">
   <path d="M 13.0371 -1.31836 C 12.2559 -0.585938 12.2559 0.634766 13.0371 1.36719 C 13.7695 2.09961 14.9414 2.09961 15.7227 1.36719 L 49.5117 -32.4707 L 83.3496 1.36719 C 84.1309 2.09961 85.3027 2.14844 86.0352 1.36719 C 86.8164 0.634766 86.8164 -0.585938 86.0352 -1.31836 L 52.1973 -35.1562 L 86.0352 -68.9941 C 86.8164 -69.7266 86.8164 -70.8984 86.0352 -71.6797 C 85.3027 -72.4121 84.1309 -72.4121 83.3496 -71.6797 L 49.5117 -37.8418 L 15.7227 -71.6797 C 14.9414 -72.4121 13.7695 -72.4121 13.0371 -71.6797 C 12.2559 -70.8984 12.2559 -69.7266 13.0371 -68.9941 L 46.875 -35.1562 Z"/>
  </g>
  <g id="Ultralight-M" transform="matrix(1 0 0 1 510.639 1126)">
   <path d="M 12.793 -0.537109 C 12.3535 -0.0488281 12.3535 0.634766 12.793 1.12305 C 13.2812 1.61133 14.0137 1.61133 14.4531 1.12305 L 49.0723 -33.4961 L 83.6426 1.12305 C 84.1309 1.61133 84.8145 1.61133 85.3027 1.12305 C 85.791 0.634766 85.791 -0.0488281 85.3027 -0.537109 L 50.7324 -35.1562 L 85.3027 -69.7266 C 85.791 -70.2148 85.791 -70.8984 85.3027 -71.3867 C 84.8145 -71.875 84.1309 -71.875 83.6426 -71.3867 L 49.0723 -36.8164 L 14.4531 -71.3867 C 14.0137 -71.875 13.2812 -71.875 12.793 -71.3867 C 12.3535 -70.8984 12.3535 -70.2148 12.793 -69.7266 L 47.4121 -35.1562 Z"/>
  </g>
  <g id="Black-S" transform="matrix(1 0 0 1 2890.46 696)">
   <path d="M 12.0605 -16.4062 C 9.08203 -13.4277 8.93555 -7.71484 12.207 -4.44336 C 15.4785 -1.17188 21.1914 -1.31836 24.1699 -4.29688 L 42.9199 -23.0957 L 61.6699 -4.3457 C 64.8438 -1.17188 70.3613 -1.2207 73.6328 -4.49219 C 76.9043 -7.76367 76.9531 -13.2812 73.7793 -16.4551 L 55.0293 -35.2051 L 73.7793 -53.9062 C 76.9531 -57.0801 76.9043 -62.5977 73.6328 -65.8691 C 70.3613 -69.1406 64.8438 -69.1895 61.6699 -66.0156 L 42.9199 -47.3145 L 24.1699 -66.0645 C 21.1914 -69.043 15.4785 -69.1895 12.207 -65.918 C 8.93555 -62.6465 9.08203 -56.9336 12.0605 -53.9551 L 30.8105 -35.2051 Z"/>
  </g>
  <g id="Heavy-S" transform="matrix(1 0 0 1 2594.35 696)">
   <path d="M 11.7676 -15.1855 C 9.13086 -12.5488 9.0332 -7.56836 11.8652 -4.73633 C 14.7461 -1.9043 19.7266 -2.00195 22.3145 -4.63867 L 42.334 -24.6094 L 62.3047 -4.63867 C 65.0879 -1.9043 69.873 -1.9043 72.7539 -4.78516 C 75.5859 -7.61719 75.6348 -12.4512 72.8516 -15.2344 L 52.8809 -35.2051 L 72.8516 -55.127 C 75.6348 -57.9102 75.6348 -62.7441 72.7539 -65.5762 C 69.873 -68.457 65.0879 -68.5059 62.3047 -65.7227 L 42.334 -45.752 L 22.3145 -65.7715 C 19.7266 -68.3594 14.7461 -68.5059 11.8652 -65.625 C 9.0332 -62.793 9.13086 -57.8125 11.7676 -55.1758 L 31.7871 -35.2051 Z"/>
  </g>
  <g id="Bold-S" transform="matrix(1 0 0 1 2298.3 696)">
   <path d="M 11.4746 -13.8184 C 9.22852 -11.5723 9.13086 -7.42188 11.5234 -5.07812 C 13.9648 -2.68555 18.0664 -2.73438 20.3125 -4.98047 L 41.6992 -26.3672 L 63.0371 -5.0293 C 65.332 -2.68555 69.3848 -2.68555 71.7773 -5.07812 C 74.1699 -7.4707 74.2188 -11.5234 71.875 -13.8672 L 50.5371 -35.2051 L 71.875 -56.543 C 74.2188 -58.8867 74.2188 -62.8906 71.7773 -65.2832 C 69.3848 -67.6758 65.332 -67.7246 63.0371 -65.3809 L 41.6992 -44.043 L 20.3125 -65.3809 C 18.0664 -67.627 13.916 -67.7246 11.5234 -65.332 C 9.17969 -62.9395 9.22852 -58.7891 11.4746 -56.543 L 32.8125 -35.2051 Z"/>
  </g>
  <g id="Semibold-S" transform="matrix(1 0 0 1 2002.03 696)">
   <path d="M 11.2793 -12.8906 C 9.27734 -10.9375 9.22852 -7.32422 11.3281 -5.27344 C 13.4277 -3.22266 16.9434 -3.27148 18.9453 -5.22461 L 41.2109 -27.5391 L 63.5254 -5.27344 C 65.5273 -3.22266 69.043 -3.22266 71.1426 -5.32227 C 73.1934 -7.37305 73.1934 -10.8887 71.1914 -12.8906 L 48.877 -35.2051 L 71.1914 -57.4707 C 73.1934 -59.5215 73.2422 -63.0371 71.1426 -65.0879 C 69.043 -67.1387 65.5273 -67.1875 63.5254 -65.1367 L 41.2109 -42.8711 L 18.9453 -65.1367 C 16.9434 -67.1387 13.3789 -67.1875 11.3281 -65.0879 C 9.22852 -63.0371 9.27734 -59.4727 11.2793 -57.5195 L 33.5938 -35.2051 Z"/>
  </g>
  <g id="Medium-S" transform="matrix(1 0 0 1 1705.66 696)">
   <path d="M 11.1328 -12.1582 C 9.32617 -10.4004 9.27734 -7.27539 11.1328 -5.46875 C 12.9883 -3.61328 16.1133 -3.66211 17.8711 -5.41992 L 40.8691 -28.4668 L 63.916 -5.41992 C 65.6738 -3.61328 68.7988 -3.61328 70.6055 -5.46875 C 72.4609 -7.32422 72.4609 -10.4004 70.6543 -12.207 L 47.6562 -35.2051 L 70.6543 -58.2031 C 72.4609 -60.0098 72.4609 -63.1348 70.6055 -64.9414 C 68.75 -66.748 65.6738 -66.748 63.916 -64.9414 L 40.8691 -41.9434 L 17.8711 -64.9902 C 16.1133 -66.748 12.9395 -66.7969 11.1328 -64.9414 C 9.32617 -63.0859 9.32617 -59.9609 11.1328 -58.2031 L 34.1309 -35.2051 Z"/>
  </g>
  <g id="Regular-S" transform="matrix(1 0 0 1 1409.41 696)">
   <path d="M 10.8887 -11.2305 C 9.42383 -9.76562 9.375 -7.17773 10.8887 -5.66406 C 12.4512 -4.15039 14.9902 -4.15039 16.5039 -5.66406 L 40.4297 -29.6387 L 64.4043 -5.66406 C 65.8691 -4.15039 68.457 -4.15039 69.9707 -5.66406 C 71.4844 -7.22656 71.4844 -9.76562 69.9707 -11.2305 L 45.9961 -35.2051 L 69.9707 -59.1309 C 71.4844 -60.6445 71.5332 -63.2324 69.9707 -64.7461 C 68.4082 -66.2109 65.8691 -66.2109 64.4043 -64.7461 L 40.4297 -40.7715 L 16.5039 -64.7461 C 14.9902 -66.2109 12.4023 -66.2598 10.8887 -64.7461 C 9.42383 -63.1836 9.42383 -60.6445 10.8887 -59.1309 L 34.8633 -35.2051 Z"/>
  </g>
  <g id="Light-S" transform="matrix(1 0 0 1 1113.31 696)">
   <path d="M 10.6445 -10.2539 C 9.47266 -9.08203 9.47266 -7.17773 10.6445 -6.00586 C 11.8164 -4.88281 13.7207 -4.88281 14.8926 -6.00586 L 39.7949 -30.957 L 64.7461 -6.00586 C 65.918 -4.88281 67.8223 -4.83398 68.9941 -6.00586 C 70.1172 -7.17773 70.1172 -9.08203 68.9941 -10.2539 L 44.043 -35.2051 L 68.9941 -60.1074 C 70.1172 -61.2793 70.166 -63.2324 68.9941 -64.3555 C 67.8223 -65.5273 65.918 -65.5273 64.7461 -64.3555 L 39.7949 -39.4531 L 14.8926 -64.3555 C 13.7207 -65.5273 11.7676 -65.5273 10.6445 -64.3555 C 9.47266 -63.1836 9.47266 -61.2793 10.6445 -60.1074 L 35.5957 -35.2051 Z"/>
  </g>
  <g id="Thin-S" transform="matrix(1 0 0 1 817.433 696)">
   <path d="M 10.3027 -8.93555 C 9.61914 -8.25195 9.57031 -7.12891 10.3027 -6.44531 C 10.9863 -5.76172 12.0605 -5.76172 12.7441 -6.44531 L 39.0137 -32.666 L 65.2344 -6.44531 C 65.918 -5.76172 67.041 -5.76172 67.7246 -6.44531 C 68.4082 -7.17773 68.4082 -8.25195 67.7246 -8.93555 L 41.4551 -35.1562 L 67.7246 -61.377 C 68.4082 -62.0605 68.4082 -63.1836 67.7246 -63.8672 C 66.9922 -64.5508 65.918 -64.5508 65.2344 -63.8672 L 39.0137 -37.6465 L 12.7441 -63.8672 C 12.0605 -64.5508 10.9863 -64.5996 10.3027 -63.8672 C 9.61914 -63.1836 9.61914 -62.0605 10.3027 -61.377 L 36.5234 -35.1562 Z"/>
  </g>
  <g id="Ultralight-S" transform="matrix(1 0 0 1 521.137 696)">
   <path d="M 10.1074 -8.25195 C 9.66797 -7.8125 9.66797 -7.12891 10.1074 -6.68945 C 10.5469 -6.25 11.2305 -6.25 11.6699 -6.68945 L 38.5742 -33.5938 L 65.4785 -6.68945 C 65.918 -6.25 66.6016 -6.25 67.041 -6.68945 C 67.4805 -7.12891 67.4805 -7.8125 67.041 -8.25195 L 40.1367 -35.1562 L 67.041 -62.0605 C 67.4805 -62.5 67.4805 -63.1836 67.041 -63.623 C 66.6016 -64.0625 65.918 -64.0625 65.4785 -63.623 L 38.5742 -36.7188 L 11.6699 -63.623 C 11.2305 -64.0625 10.5469 -64.0625 10.1074 -63.623 C 9.66797 -63.1836 9.66797 -62.5 10.1074 -62.0605 L 37.0117 -35.1562 Z"/>
  </g>
 </g>
</svg>
